<?xml version="1.0" encoding="UTF-8" standalone="no"?>
<!-- Created with Inkscape (http://www.inkscape.org/) -->

<svg
   xmlns:dc="http://purl.org/dc/elements/1.1/"
   xmlns:cc="http://creativecommons.org/ns#"
   xmlns:rdf="http://www.w3.org/1999/02/22-rdf-syntax-ns#"
   xmlns:svg="http://www.w3.org/2000/svg"
   xmlns="http://www.w3.org/2000/svg"
   xmlns:sodipodi="http://sodipodi.sourceforge.net/DTD/sodipodi-0.dtd"
   xmlns:inkscape="http://www.inkscape.org/namespaces/inkscape"
   id="svg2"
   version="1.1"
   inkscape:version="0.48.1 r9760"
   width="720"
   height="504"
   sodipodi:docname="05_Card V_gray.svg">
  <metadata
     id="metadata8">
    <rdf:RDF>
      <cc:Work
         rdf:about="">
        <dc:format>image/svg+xml</dc:format>
        <dc:type
           rdf:resource="http://purl.org/dc/dcmitype/StillImage" />
        <dc:title />
      </cc:Work>
    </rdf:RDF>
  </metadata>
  <defs
     id="defs6" />
  <sodipodi:namedview
     pagecolor="#ffffff"
     bordercolor="#666666"
     borderopacity="1"
     objecttolerance="10"
     gridtolerance="10"
     guidetolerance="10"
     inkscape:pageopacity="0"
     inkscape:pageshadow="2"
     inkscape:window-width="1360"
     inkscape:window-height="695"
     id="namedview4"
     showgrid="false"
     showborder="false"
     inkscape:showpageshadow="false"
     inkscape:zoom="1.1666667"
     inkscape:cx="368.68308"
     inkscape:cy="225.46635"
     inkscape:window-x="0"
     inkscape:window-y="24"
     inkscape:window-maximized="1"
     inkscape:current-layer="svg2" />
  <path
     style="fill:#ababab"
     d="M 32,410.14289 C 32,409.5143 32.345749,409 32.768331,409 c 0.422582,0 2.946579,-1.8 5.608884,-4 2.662304,-2.2 5.59175,-4 6.50988,-4 0.918131,0 5.031633,-1.63162 9.141117,-3.62583 4.109483,-1.9942 10.579668,-4.2351 14.378187,-4.97976 C 77.978721,390.51784 98,378.39808 98,374.4801 c 0,-3.02861 2.39719,-6.33505 6.10299,-8.41783 C 106.24634,364.85764 108,363.4326 108,362.89552 108,361.18849 103.67865,356 102.25691,356 c -0.75183,0 -2.427088,2.3625 -3.722789,5.25 -4.249429,9.46995 -18.007406,20.66099 -25.482517,20.72804 -3.432148,0.0308 -17.699575,4.49566 -25.234225,7.89685 -3.474558,1.56843 -10.341295,5.17579 -15.259414,8.01634 -8.732835,5.0438 -9.07852,5.14919 -14.775972,4.5046 -4.838719,-0.54744 -6.17069,-1.13296 -7.8079657,-3.43231 C 7.6126935,395.64734 7.5552839,394.76067 9.4630376,391.07148 10.856471,388.37687 18.571874,384.46105 26,382.67841 29.905808,381.74108 40.61941,374.3705 43.707733,370.49611 45.24348,368.56948 48.075,366.4913 50,365.87795 c 4.218611,-1.34416 8.419999,-5.13547 15.651076,-14.12346 5.820514,-7.2347 10.862659,-10.42337 18.073574,-11.42977 2.742068,-0.3827 4.414349,-1.18731 4.7652,-2.29274 0.297303,-0.93672 4.340469,-4.96519 8.984814,-8.95215 8.183186,-7.02491 10.637296,-10.377 8.874676,-12.12201 -0.46714,-0.46247 -3.09934,-1.36197 -5.84934,-1.99889 -6.540099,-1.51473 -9.917289,-3.17167 -10.277568,-5.04245 -0.244952,-1.27193 1.196725,-1.49562 8.992925,-1.3953 5.106553,0.0657 10.228203,0.62926 11.381443,1.25234 1.57537,0.85115 2.38929,0.84039 3.27295,-0.0433 0.64688,-0.64688 2.77478,-1.03841 4.72867,-0.87008 8.02662,0.69154 22.39921,-6.68627 23.95981,-12.29916 0.31517,-1.13356 2.88176,-4.16335 5.70353,-6.73287 4.97889,-4.53382 5.09101,-4.75542 3.79473,-7.5 -2.07635,-4.3962 -3.14411,-9.93634 -4.09971,-21.27168 C 147.06032,250.42276 147.55497,248 150.62244,248 c 1.79454,0 1.75112,-0.50648 -0.62244,-7.25968 -2.6004,-7.39861 -2.53934,-8.26717 1.01728,-14.46872 4.72846,-8.24486 9.04189,-9.5218 24.21293,-7.16793 5.27175,0.81794 10.88746,0.79727 21.69155,-0.0798 10.44145,-0.84766 16.38902,-0.88685 20.9595,-0.13809 l 6.38125,1.0454 4.11875,-3.52406 c 2.26531,-1.93824 5.33933,-5.41025 6.83116,-7.71558 C 240.20313,200.97932 241.08297,200 243.021,200 c 1.11238,0 2.55726,-1.21755 3.41633,-2.87882 0.81879,-1.58335 2.24029,-3.16723 3.1589,-3.51973 1.3362,-0.51275 1.55364,-1.49137 1.08731,-4.8936 -0.32059,-2.33897 -0.26804,-4.73802 0.11678,-5.33123 0.84814,-1.30741 4.35416,-2.18438 14.04286,-3.51256 6.05097,-0.82951 8.03425,-0.73014 11.27024,0.56465 2.15988,0.86421 5.29331,1.57129 6.96319,1.57129 2.05759,0 3.90428,0.92991 5.72976,2.88525 1.4815,1.58689 3.72017,3.19667 4.97483,3.57729 1.25466,0.38062 3.33712,1.83081 4.6277,3.22264 l 2.3465,2.53059 3.9935,-3.60788 C 306.94533,188.62355 309.16702,187 309.68599,187 c 0.51897,0 1.69465,1.575 2.61262,3.5 1.95312,4.09574 4.0849,4.41704 10.37071,1.56305 4.94343,-2.2445 6.33068,-4.46694 6.33068,-10.14207 0,-2.82951 0.65208,-4.90099 1.98813,-6.31574 9.96063,-10.54739 10.43874,-11.75249 6.93971,-17.49192 -1.49092,-2.44554 -2.1559,-5.50241 -2.39289,-11 -0.23553,-5.46344 -1.03557,-9.16643 -2.83319,-13.11332 -1.37773,-3.025 -2.8081,-8.09924 -3.17858,-11.27609 -0.55681,-4.77457 -1.35412,-6.56235 -4.5984,-10.31081 C 321.23424,108.14901 321,107.49405 321,101.43918 321,94.270401 322.99408,91 327.36514,91 c 2.95773,0 7.30334,3.334954 8.17804,6.276085 0.36377,1.223153 4.05556,9.109115 8.20398,17.524345 6.57601,13.3397 8,15.53511 11.11198,17.13165 3.28732,1.68649 3.82613,1.70878 6.81812,0.282 2.80446,-1.33736 4.58709,-4.2271 13.03573,-21.13164 L 384.5,91.5 l 3.68975,-0.306773 c 4.25998,-0.354184 6.49331,2.078872 7.47799,8.146716 0.7853,4.839227 -0.16986,8.023407 -3.5676,11.893217 -2.75488,3.13764 -3.53332,5.18867 -6.17386,16.26684 -0.65548,2.75 -2.07345,6.55841 -3.15105,8.46313 -1.32462,2.34134 -2.06321,5.84095 -2.28014,10.80379 -0.31454,7.19623 -0.2537,7.4078 3.09203,10.75353 1.87708,1.87709 3.41288,4.03955 3.41288,4.80549 0,0.76593 1.57063,3.36843 3.49029,5.78333 1.91967,2.4149 3.49467,5.32941 3.5,6.47669 0.005,1.17678 -1.7337,3.65104 -3.99029,5.67683 -2.2,1.97498 -4,4.48709 -4,5.58248 0,2.22118 4.43196,5.33739 10.77268,7.57453 3.65097,1.28813 4.20048,1.26383 5.53703,-0.24487 0.8161,-0.92121 1.64794,-2.56976 1.84854,-3.66345 0.62802,-3.42409 3.77674,-2.97329 7.48125,1.0711 l 3.44938,3.76584 2.89919,-3.17421 C 419.58262,189.42839 421.60911,188 422.49138,188 c 0.88226,0 2.72461,-1.20904 4.09411,-2.68675 1.69806,-1.83224 4.67551,-3.24176 9.36171,-4.43184 7.0331,-1.78607 21.75755,-2.3384 23.5528,-0.88348 0.55,0.44574 2.125,0.96605 3.5,1.15625 2.29921,0.31805 2.4776,0.71114 2.2211,4.89435 -0.23166,3.77792 0.14954,4.95104 2.25,6.92432 1.39089,1.30668 2.5289,2.98646 2.5289,3.73285 0,0.74639 0.7875,1.635 1.75,1.9747 2.44871,0.86422 6.25,4.43092 6.25,5.86428 0,0.65784 3.00874,4.2048 6.68609,7.88215 6.61535,6.61535 6.72908,6.67796 10.75,5.91761 5.72784,-1.08312 25.15915,-0.55713 30.7408,0.83212 3.84327,0.95658 6.0318,0.86634 12.27842,-0.50625 14.9533,-3.28574 21.15174,-1.64034 25.72836,6.82969 1.48592,2.75 2.72746,5.71318 2.759,6.58484 0.0778,2.14993 -3.64333,13.65654 -5.70695,17.64735 -1.24301,2.40383 -1.38157,3.52196 -0.54066,4.36287 1.70257,1.70257 3.30494,0.15813 3.30494,-3.18546 0,-3.29027 2.6303,-5.0906 4.0986,-2.80532 1.11326,1.73269 0.32329,15.99556 -1.18504,21.39572 -0.61448,2.2 -1.11305,5.10837 -1.10792,6.46305 0.005,1.35468 -0.62405,3.36731 -1.39816,4.47251 -2.35518,3.36249 -1.62361,5.22155 3.50454,8.90577 2.70162,1.94091 5.24137,4.57063 5.64389,5.8438 0.40252,1.27318 1.82234,3.74697 3.15514,5.49732 2.08489,2.73805 3.68702,3.47914 11.47301,5.30708 6.96122,1.6343 9.72555,1.88903 11.97812,1.10378 2.23103,-0.77774 3.0476,-0.7102 3.42897,0.28363 0.38019,0.99076 2.99596,1.21525 10.87697,0.93347 14.39157,-0.51455 15.30171,2.1257 1.88861,5.4787 -4.96413,1.24094 -6.93715,2.20463 -7.18288,3.50838 -0.47554,2.52301 4.3274,8.46573 8.13582,10.06653 4.11683,1.73044 9.37647,6.68026 10.64572,10.01863 0.78721,2.07055 1.67925,2.62709 4.26986,2.66395 1.80111,0.0256 5.74975,1.06123 8.77475,2.30133 4.30138,1.76334 6.16969,3.27172 8.57292,6.92134 5.56834,8.45621 12.90249,15.54169 16.85459,16.28311 2.37145,0.44488 4.31813,1.68603 5.70973,3.64035 3.81299,5.35485 13.27516,11.32802 22.60948,14.27263 6.04688,1.90756 9.60354,3.65872 11.50328,5.66376 3.25453,3.43493 3.34913,4.3761 0.8515,8.472 -1.71931,2.81953 -2.49767,3.16328 -8.57175,3.78559 -4.99196,0.51144 -7.35679,0.31819 -9.35524,-0.76447 -1.47098,-0.79691 -5.35627,-2.85348 -8.63397,-4.57016 -3.2777,-1.71667 -6.6527,-3.72522 -7.5,-4.46343 -0.8473,-0.73821 -3.69669,-2.2806 -6.33198,-3.42752 -4.25318,-1.85107 -7.98994,-2.92961 -25.67211,-7.40971 -9.74296,-2.46856 -19.79336,-10.8921 -23.7984,-19.94618 -1.10628,-2.50093 -2.51159,-4.85626 -3.12291,-5.23408 -1.16864,-0.72226 -6.02926,4.11825 -6.08354,6.05838 -0.0174,0.62124 1.9934,2.78887 4.4684,4.81695 2.50967,2.05649 4.5,4.54239 4.5,5.62046 0,5.47671 20.7163,18.74255 31.5,20.17126 2.2,0.29147 7.375,2.11062 11.5,4.04256 4.125,1.93194 9.12317,4.02277 11.10704,4.64629 3.0533,0.95964 9.89296,7.53752 9.89296,9.5143 0,1.63349 -11.46115,-0.82567 -16,-3.43304 -3.43387,-1.97261 -11.78429,-5.47432 -22.5,-9.43527 -4.95,-1.82971 -13.21961,-5.23178 -18.37692,-7.56015 -7.801,-3.52191 -9.98583,-4.11447 -13,-3.5258 -1.99269,0.38918 -5.42308,1.00145 -7.62308,1.3606 -3.76827,0.61517 -4,0.85303 -4,4.10582 0,3.16393 -0.31375,3.52779 -3.75,4.34899 -3.24331,0.77508 -3.75,1.28012 -3.75,3.73781 0,1.56291 -0.47776,3.13692 -1.06168,3.4978 -0.58393,0.36089 -1.49214,1.78834 -2.01825,3.17211 -0.81561,2.14523 -1.35908,2.40706 -3.68832,1.77694 -1.50246,-0.40645 -4.74949,-0.69613 -7.21561,-0.64372 -3.11574,0.0662 -6.40769,-0.84195 -10.78897,-2.97637 -6.26938,-3.05423 -8.24064,-3.34093 -19.48687,-2.83419 -4.23231,0.1907 -6.24466,-0.17935 -7.58843,-1.39545 -1.74577,-1.5799 -3.75995,-2.72371 -18.60704,-10.56654 -5.9258,-3.13024 -6.64639,-3.29472 -8.26819,-1.88726 -0.97715,0.84801 -3.2034,1.8102 -4.94721,2.13821 -3.34963,0.63006 -4.24728,-0.13096 -13.70407,-11.61826 -1.71895,-2.08803 -5.30002,-6.08412 -7.95794,-8.88021 -3.36358,-3.53842 -4.67959,-5.66885 -4.32927,-7.00847 0.3579,-1.36861 -0.18701,-2.18715 -1.88603,-2.83312 -1.31415,-0.49963 -2.96598,-1.85049 -3.67074,-3.0019 -0.70476,-1.15142 -2.77821,-3.02584 -4.60768,-4.1654 -2.70981,-1.68792 -4.29422,-1.95816 -8.54878,-1.45812 -9.19382,1.08056 -12.98918,-4.57848 -6.48473,-9.66898 l 3.14019,-2.45757 -2.59123,-1.69784 c -2.97355,-1.94834 -5.42327,-1.4574 -9.44455,1.89279 -4.10075,3.41639 -9.37925,4.05727 -14.49695,1.76012 C 428.18748,338.68914 416,327.44609 416,324.81254 c 0,-2.6791 -2.65865,-8.15217 -5.39362,-11.10326 -1.78459,-1.9256 -3.62297,-2.51656 -9.53905,-3.0664 -6.84136,-0.63584 -7.54957,-0.51244 -10.65575,1.85676 -4.93574,3.76467 -9.15577,13.47054 -10.89534,25.05876 -0.93886,6.25422 -2.09358,10.42223 -3.23778,11.68682 -2.50077,2.76392 -2.09708,8.34326 1.46552,20.25478 4.10169,13.71392 4.73414,18.67473 2.84628,22.32546 -1.63485,3.16145 -3.37538,4.17454 -7.17205,4.17454 -2.83258,0 -2.61871,0.73798 -2.89806,-10 -0.23654,-9.09206 -2.1167,-19.31448 -6.07311,-33.01943 -2.95456,-10.23458 -5.4438,-23.8626 -5.44567,-29.8139 -0.002,-6.85233 -2.38274,-4.65798 -3.16166,2.91433 -0.36316,3.53045 -1.15066,7.68579 -1.75,9.2341 -0.59934,1.5483 -1.08971,4.15005 -1.08971,5.78166 0,1.63161 -1.29884,7.33982 -2.8863,12.6849 -3.67174,12.36292 -6.22473,27.3014 -5.9181,34.62898 0.1726,4.1247 -0.16737,5.95974 -1.22848,6.63084 -2.67446,1.69148 -5.79413,0.9939 -7.97943,-1.78426 -1.85242,-2.35497 -2.06426,-3.52145 -1.49826,-8.25 0.36256,-3.02897 2.0339,-10.23222 3.71408,-16.00722 3.47811,-11.95466 3.66963,-16.89636 0.80545,-20.78248 -1.29074,-1.75128 -2.36113,-5.562 -3.01045,-10.71752 -1.61155,-12.7957 -3.50194,-17.94663 -8.50125,-23.1642 l -4.43719,-4.63091 -7.11617,0.59659 c -3.91389,0.32813 -7.74955,1.12226 -8.52368,1.76473 C 304.22867,313.88504 299,323.51669 299,325.73488 c 0,2.87622 -12.79838,14.09737 -18.5906,16.29957 -2.9986,1.14006 -10.01431,0.41384 -10.97201,-1.13575 -0.3152,-0.51001 -2.3231,-1.82007 -4.462,-2.91125 -3.21544,-1.6404 -4.32933,-1.7833 -6.43215,-0.8252 -3.27996,1.49445 -3.20372,2.41112 0.45676,5.4912 3.48786,2.93485 3.7384,4.60815 1.08694,7.25961 -1.59459,1.59459 -2.88553,1.82487 -7.75494,1.38333 -4.98762,-0.45226 -6.37744,-0.18364 -9.50417,1.83694 -2.01426,1.30167 -4.13988,3.37917 -4.72362,4.61667 -0.66505,1.4099 -1.95393,2.25 -3.45193,2.25 -1.97062,0 -2.49339,0.63346 -2.97574,3.60585 -0.41788,2.57507 -1.96746,4.93345 -5.4207,8.25 -2.65955,2.55428 -6.70634,7.18026 -8.99286,10.27994 -4.08208,5.53378 -9.5591,9.86421 -12.47603,9.86421 -0.81233,0 -2.29146,-0.9 -3.28695,-2 -2.43337,-2.68885 -4.1821,-2.50255 -9.5,1.01207 -5.88596,3.89005 -7.01673,4.55701 -10,5.89827 -1.375,0.61819 -4.3,2.43098 -6.5,4.02842 -5.13949,3.73182 -11.46253,4.78712 -14.95843,2.49652 -2.19307,-1.43695 -3.01115,-1.49231 -5.79747,-0.39232 -1.78426,0.7044 -4.1441,2.02201 -5.2441,2.92804 -3.67776,3.02922 -7.93431,4.22156 -16.60683,4.65188 -9.91425,0.49194 -10.69371,0.0275 -11.30035,-6.73337 -0.21662,-2.41423 -0.43862,-4.67242 -0.49334,-5.01819 C 121.04477,398.52555 119.65,397.68345 118,397 c -3.05076,-1.26366 -3.35371,-1.82651 -3.05007,-5.66652 0.14771,-1.86794 -0.61733,-2.33024 -5.55137,-3.35454 -7.64839,-1.5878 -10.166412,-1.04877 -25.120248,5.37743 -7.028072,3.02022 -16.781942,6.96028 -21.675269,8.75568 -4.893326,1.79541 -10.184125,4.34746 -11.757332,5.67123 -2.323739,1.9553 -4.359884,2.50963 -10.853043,2.95468 C 34.34513,411.12505 32,410.95045 32,410.14289 z M 155.50553,254.99105 C 156.32098,253.67162 155.14079,250 153.90123,250 c -1.32396,0 -2.23952,2.67604 -1.5396,4.5 0.66098,1.72249 2.23125,1.96775 3.1439,0.49105 z"
     id="path2987"
     inkscape:connector-curvature="0" />
</svg>
