<?xml version="1.0" encoding="UTF-8" standalone="no"?>
<!-- Created with Inkscape (http://www.inkscape.org/) -->

<svg
   xmlns:dc="http://purl.org/dc/elements/1.1/"
   xmlns:cc="http://creativecommons.org/ns#"
   xmlns:rdf="http://www.w3.org/1999/02/22-rdf-syntax-ns#"
   xmlns:svg="http://www.w3.org/2000/svg"
   xmlns="http://www.w3.org/2000/svg"
   xmlns:sodipodi="http://sodipodi.sourceforge.net/DTD/sodipodi-0.dtd"
   xmlns:inkscape="http://www.inkscape.org/namespaces/inkscape"
   id="svg2"
   version="1.1"
   inkscape:version="0.48.1 r9760"
   width="720"
   height="504"
   sodipodi:docname="06_Card VI_gray.svg">
  <metadata
     id="metadata8">
    <rdf:RDF>
      <cc:Work
         rdf:about="">
        <dc:format>image/svg+xml</dc:format>
        <dc:type
           rdf:resource="http://purl.org/dc/dcmitype/StillImage" />
        <dc:title />
      </cc:Work>
    </rdf:RDF>
  </metadata>
  <defs
     id="defs6" />
  <sodipodi:namedview
     pagecolor="#ffffff"
     bordercolor="#666666"
     borderopacity="1"
     objecttolerance="10"
     gridtolerance="10"
     guidetolerance="10"
     inkscape:pageopacity="0"
     inkscape:pageshadow="2"
     inkscape:window-width="1360"
     inkscape:window-height="695"
     id="namedview4"
     showgrid="false"
     showborder="false"
     inkscape:showpageshadow="false"
     inkscape:zoom="0.82495791"
     inkscape:cx="381.6573"
     inkscape:cy="279.73909"
     inkscape:window-x="0"
     inkscape:window-y="24"
     inkscape:window-maximized="1"
     inkscape:current-layer="svg2" />
  <path
     style="fill:#ababab"
     d="m 314.56992,493.07726 c -1.61211,-1.78136 -2.86884,-1.88707 -17.09107,-1.43764 l -15.35102,0.48511 -1.71604,-2.81237 c -0.94382,-1.5468 -3.33508,-5.28736 -5.31391,-8.31236 -5.24103,-8.01185 -5.69874,-9.54048 -7.76941,-25.94799 -0.30874,-2.44639 -1.46195,-5.66611 -2.56268,-7.15493 -1.10073,-1.48882 -1.70253,-3.19043 -1.33732,-3.78135 1.23544,-1.99898 -1.38323,-4.93304 -5.96422,-6.68253 -5.61076,-2.14277 -7.18304,-4.57207 -4.98396,-7.70062 0.86311,-1.22792 2.0222,-3.90791 2.57576,-5.95553 0.63218,-2.33844 2.29644,-4.70687 4.47521,-6.36869 1.90781,-1.45516 3.46874,-2.96848 3.46874,-3.36294 0,-1.62266 -7.3936,-10.04618 -11.02941,-12.5658 -2.14967,-1.48972 -4.17778,-3.55707 -4.50692,-4.5941 C 247.0833,395.6871 245.93532,395 244.31342,395 c -1.40349,0 -5.08566,-1.51711 -8.18261,-3.37136 -5.41791,-3.2439 -10.69326,-4.70141 -18.13081,-5.00931 -1.925,-0.0797 -4.47219,-0.6959 -5.66043,-1.36935 -1.72052,-0.97515 -2.94222,-0.95239 -6,0.11177 -2.11176,0.73493 -8.03006,1.62627 -13.15178,1.98076 -7.5437,0.52211 -9.90683,0.33702 -12.44325,-0.97462 -2.72597,-1.40965 -4.02061,-1.46015 -10.00694,-0.39033 -7.83003,1.3993 -13.96031,0.78149 -18.2737,-1.84164 -4.50853,-2.7418 -7.89294,-13.33101 -7.05895,-22.08619 0.52915,-5.55496 0.31896,-7.00537 -1.38393,-9.54973 -2.82253,-4.21726 -2.64792,-8.85922 0.40858,-10.86192 4.63307,-3.0357 9.84416,-3.11718 16.10301,-0.25178 4.58146,2.09746 7.22946,2.6137 13.40673,2.6137 4.23371,0 10.05915,0.70129 12.94542,1.55842 7.37608,2.19046 11.51712,1.65092 11.96106,-1.55842 0.49444,-3.57442 1.83774,-4.8377 6.47065,-6.08522 2.62322,-0.70636 5.46318,-2.58634 7.94165,-5.25717 6.24299,-6.72752 6.26949,-6.92636 1.63657,-12.27929 -3.68652,-4.25944 -4.05405,-5.15356 -3.57782,-8.7041 0.41167,-3.06926 1.71804,-5.15925 5.82278,-9.31563 3.21372,-3.25414 6.15696,-5.35859 7.4944,-5.35859 5.22412,0 6.90395,-2.64305 3.83508,-6.03411 -2.04341,-2.25794 -3.03545,-11.03919 -1.55883,-13.79828 1.52432,-2.84822 -0.36867,-14.6543 -2.93271,-18.2905 -2.10717,-2.98829 -3.65715,-13.84039 -2.31846,-16.2325 0.83104,-1.48497 0.47629,-7.12803 -1.20351,-19.14461 -0.41639,-2.97868 -1.60278,-6.01066 -2.93468,-7.5 -1.22964,-1.375 -3.27688,-4.40205 -4.54942,-6.72678 -1.99222,-3.63949 -2.14532,-4.59636 -1.10182,-6.88658 0.73244,-1.60754 0.9598,-4.34079 0.5747,-6.90885 -0.72674,-4.84627 0.72736,-8.47779 3.39462,-8.47779 2.65234,0 8.16098,6.17125 8.16098,9.14262 0,2.79903 1.91531,4.85676 6.5,6.98332 2.42476,1.1247 3.09587,2.15683 3.5,5.38279 l 0.5,3.99127 8.5,1.10965 c 4.675,0.61031 10.16941,0.89099 12.20981,0.62373 3.35986,-0.4401 4.06734,-0.0872 7.5,3.74111 6.60503,7.36631 11.35824,8.72048 15.88469,4.52551 2.93083,-2.7162 6.30103,-3.12958 11.30188,-1.38628 2.59803,0.90568 3.51354,0.82528 4.90105,-0.4304 0.93843,-0.84926 2.95957,-2.02063 4.49144,-2.60305 2.08131,-0.79131 3.53402,-2.72789 5.74817,-7.66282 1.62963,-3.63214 2.96296,-7.09804 2.96296,-7.702 0,-0.60397 2.33673,-5.84952 5.19274,-11.65679 3.60752,-7.33534 5.26309,-11.96534 5.42318,-15.16653 0.4207,-8.41216 2.22784,-12.83112 7.33646,-17.93975 3.07014,-3.07013 6.2645,-5.20296 8.8253,-5.89252 3.3972,-0.91477 4.27898,-1.73175 5.74229,-5.32029 2.15479,-5.28427 3.26797,-22.08524 1.59672,-24.09896 -0.81227,-0.97873 -2.52766,-1.2359 -5.79065,-0.86811 -4.35882,0.4913 -4.60284,0.39399 -4.07488,-1.62495 0.70014,-2.67732 0.96483,-2.69892 -9.25116,0.75498 -4.675,1.58055 -8.90439,2.49718 -9.39865,2.03695 -1.84891,-1.72162 2.1878,-5.64896 7.06981,-6.87826 4.90373,-1.23478 7.32884,-2.61915 7.32884,-4.18366 0,-1.5988 -3.4436,-0.87868 -7.5,1.56838 -6.49529,3.91834 -12.64628,6.58169 -13.69849,5.93139 -0.53962,-0.33351 -0.7019,-2.09475 -0.36063,-3.91387 0.91924,-4.89997 -1.05919,-5.24207 -5.4606,-0.9442 -4.4664,4.36132 -6.98028,4.17364 -6.98028,-0.52112 0,-3.47116 3.847,-11.66602 6.64191,-14.148554 1.02195,-0.907728 3.59496,-2.367894 5.7178,-3.244813 3.27463,-1.352709 3.77139,-1.946287 3.27709,-3.915752 -0.33827,-1.347782 0.0613,-3.240631 0.95264,-4.513251 1.40585,-2.007131 1.36196,-2.435279 -0.52063,-5.079142 -1.94307,-2.728777 -2.27487,-2.831664 -6.04542,-1.874596 C 299.76391,82.303203 289,81.427268 289,79.999472 289,77.825109 285.57458,76 281.49367,76 270.9899,76 268.62307,71.598517 277.25,68.108255 c 4.31525,-1.745852 6.96958,-2.078115 14.90795,-1.866143 9.09028,0.24273 9.81447,0.111473 12.32102,-2.233143 2.42334,-2.26679 3.48935,-2.497285 11.84205,-2.5605 8.61486,-0.0652 20.33823,-1.001752 25.42898,-2.031463 2.78873,-0.56408 2.94807,-3.060671 0.25,-3.917006 -2.35086,-0.746135 -2.64755,-3.037534 -0.5,-3.861626 0.825,-0.316583 1.5,-1.209627 1.5,-1.984544 0,-0.774918 0.63686,-1.937489 1.41525,-2.583494 1.10196,-0.914542 1.18888,-1.88247 0.39266,-4.372444 -3.80323,-11.893571 -3.85689,-12.515031 -1.51515,-17.547359 1.21398,-2.608815 4.68224,-7.030583 7.70724,-9.826153 5.05639,-4.672894 5.91229,-5.090891 10.61177,-5.182503 5.00885,-0.09764 5.23277,0.02637 11.12233,6.159731 3.68771,3.840365 6.28569,7.511996 6.72246,9.500613 0.82532,3.757658 -0.0683,10.211346 -2.0956,15.134905 -1.24677,3.02788 -1.22908,3.623212 0.14857,5 1.4181,1.417212 1.92841,1.353171 5.47528,-0.687126 4.49395,-2.58509 10.0258,-3.172637 8.1074,-0.861101 -0.63398,0.763895 -3.16408,1.895374 -5.62245,2.514398 -5.54303,1.395753 -6.13589,3.639978 -0.71976,2.724607 11.68979,-1.97567 11.52999,-1.96786 11.0541,-0.540214 -0.25407,0.762218 -3.95619,2.356565 -8.22694,3.542993 -12.72578,3.535269 -12.83503,5.630833 -0.36138,6.931279 4.55632,0.475021 12.10922,0.880406 16.78422,0.900856 7.55472,0.03305 9.03635,0.358323 13.32283,2.924884 4.58998,2.748283 5.20796,2.855584 12.7997,2.222457 6.52646,-0.544286 9.24063,-0.288883 14.92717,1.404643 5.39286,1.606064 6.9503,2.489995 6.9503,3.944679 0,1.442545 -1.16413,2.124453 -5.04922,2.957655 C 444.17371,74.512711 440.55222,75 438.90303,75 c -1.98626,0 -3.8594,0.928368 -5.54858,2.75 -2.41667,2.606158 -3.01932,2.75 -11.5216,2.75 -10.50927,0 -11.09532,0.488257 -10.15147,8.457571 0.59338,5.010198 0.80818,5.323354 4.83536,7.049606 2.31792,0.993575 5.07719,3.085923 6.13171,4.649663 7.58127,11.2422 6.74218,20.99106 -1.14845,13.34316 -3.99939,-3.87636 -6.5,-3.50372 -6.5,0.96862 0,3.96007 -1.39245,3.8945 -9.77713,-0.4604 C 397.72399,110.6134 393.5,109.68818 393.5,111.94047 c 0,0.89675 2.2648,2.11031 6,3.21501 6.08163,1.79867 10.40061,5.34391 8.6468,7.09772 -0.57738,0.57738 -4.17364,-0.0554 -9.43453,-1.66008 C 394.03645,119.1669 389.93835,118 389.60539,118 389.27242,118 389,118.95925 389,120.13167 c 0,1.90619 -0.41896,2.07547 -3.96088,1.6004 -4.665,-0.6257 -5.46729,0.10122 -7.18023,6.5057 -1.00724,3.76597 -0.99209,5.96377 0.079,11.46087 0.72889,3.74075 1.7191,7.565 2.20047,8.49834 0.48137,0.93334 3.54495,2.89508 6.80795,4.35942 4.23556,1.90081 6.66788,3.77336 8.50262,6.54583 3.93699,5.9492 7.65119,15.00687 6.99784,17.06537 -0.55677,1.75425 2.74865,12.15805 4.55383,14.33316 0.4679,0.56378 2.4945,5.96925 4.50357,12.01215 3.9463,11.86973 5.78778,15.48709 7.88399,15.48709 0.73815,0 2.55995,0.95797 4.04845,2.12882 2.62564,2.06533 2.85675,2.08024 7.74969,0.5 6.41193,-2.07082 6.21391,-2.08916 9.40817,0.87118 4.48453,4.15613 8.52236,3.44846 14.93648,-2.61774 4.77032,-4.51158 5.79961,-5.05591 8.69013,-4.5957 4.01695,0.63954 18.82898,-1.1524 20.47306,-2.47681 0.6568,-0.52908 1.3318,-2.58811 1.5,-4.57561 0.26041,-3.07694 0.89964,-3.92077 4.30399,-5.68158 3.04635,-1.57564 4.30921,-3.01835 5.30475,-6.06025 1.49766,-4.57614 5.7765,-9.49231 8.26174,-9.49231 3.079,0 4.24765,2.67176 3.61564,8.26608 -0.42117,3.72812 -0.1837,5.77713 0.82543,7.12202 1.25534,1.67302 1.11772,2.41345 -1.20813,6.5 -1.44367,2.53654 -3.69865,5.78494 -5.01108,7.21866 -1.5992,1.747 -2.51037,4.13033 -2.76264,7.2262 -0.20704,2.5407 -0.7471,5.19266 -1.20015,5.89325 -0.45305,0.70058 -0.83136,6.97248 -0.84069,13.93755 -0.0143,10.63404 -0.29702,12.97322 -1.76421,14.59444 -2.5076,2.77087 -4.99098,13.0226 -4.17666,17.2418 1.25667,6.51111 0.87425,13.71554 -0.8693,16.37653 -3.00276,4.58279 -1.76253,6.62347 4.02545,6.62347 1.77087,0 4.30778,1.79519 8.41821,5.95698 5.20254,5.26753 5.88348,6.41946 5.88348,9.95288 0,3.45946 -0.53698,4.42742 -4,7.21038 -2.2,1.76797 -4,4.03866 -4,5.04598 0,2.69586 7.45315,9.90791 13.35829,12.92617 4.02785,2.05873 5.25097,3.25407 5.64608,5.51783 0.42179,2.41657 1.04794,2.94199 3.82379,3.20864 1.82567,0.17538 5.39137,-0.38712 7.92376,-1.25 2.73386,-0.93151 7.99131,-1.56886 12.9414,-1.56886 7.41541,0 8.92462,-0.33163 13.65272,-3 6.58183,-3.71456 11.95156,-3.94467 16.75611,-0.71808 4.42354,2.97073 5.1441,7.75676 1.7194,11.42045 -2.06903,2.21342 -2.32707,3.47944 -2.37256,11.64058 -0.0582,10.43808 -2.27494,17.8417 -6.09067,20.34186 -3.03397,1.98793 -13.38686,2.79428 -20.06786,1.56301 -3.91608,-0.72171 -6.63442,-0.5972 -10.94813,0.50146 -4.8803,1.24297 -7.09235,1.26813 -14.79043,0.16826 -16.90804,-2.41576 -29.72259,-0.83393 -39.93498,4.92958 -3.07262,1.73408 -6.70258,3.15288 -8.06656,3.15288 -1.55594,0 -2.91909,0.83834 -3.65853,2.25 -0.64822,1.2375 -4.26405,5.37792 -8.03519,9.20094 -3.77113,3.82302 -6.85661,7.72987 -6.85661,8.68191 0,0.95203 1.2935,2.65202 2.87445,3.77775 2.87155,2.04473 6.16259,9.18914 6.47005,14.04562 0.12968,2.0483 -0.79944,2.93164 -5.5945,5.3189 -5.26462,2.62103 -5.75,3.14198 -5.75,6.17133 0,1.81977 -0.675,3.86886 -1.5,4.55355 -0.88418,0.7338 -1.50618,2.93944 -1.51506,5.37244 -0.008,2.27016 -0.66353,5.92756 -1.4561,8.12756 -0.79258,2.2 -1.46081,5.52188 -1.48495,7.38197 -0.0724,5.57749 -9.08925,19.59312 -13.54389,21.05235 -1.65,0.5405 -9.06334,0.98849 -16.47409,0.99555 -12.51133,0.0119 -13.58729,0.16291 -15.05844,2.11326 -1.23462,1.63677 -2.45446,2.02941 -5.52592,1.77865 L 393.5,494.5 l -0.51994,-5.16705 c -0.56918,-5.65636 -1.01004,-6.30762 -11.25553,-16.62713 -5.2239,-5.26165 -7.22763,-6.68092 -8.75,-6.19774 -1.68085,0.53348 -1.97453,0.15807 -1.97453,-2.52403 0,-1.73289 -0.3375,-2.98628 -0.75,-2.7853 -0.4125,0.20099 -1.98567,0.98488 -3.49594,1.742 -2.43453,1.22047 -2.9734,1.17073 -4.75172,-0.43863 -1.92961,-1.74628 -2.13183,-1.74733 -5.32504,-0.0277 -2.73696,1.47395 -3.71654,1.57492 -5.58392,0.57552 -2.48715,-1.33108 -3.5611,-0.80001 -3.58063,1.77061 -0.008,1.08899 -0.73337,1.60815 -2.06251,1.47669 -2.46953,-0.24425 -13.90085,10.21799 -17.91752,16.39857 -2.29255,3.52762 -2.61773,4.84151 -2.04187,8.25 L 326.1758,495 l -4.93291,0 c -3.59685,0 -5.4042,-0.52077 -6.67297,-1.92274 z M 330.25,51.968838 C 327.79073,50.980332 327.19091,49 329.35078,49 c 2.59957,0 7.64174,2.203081 7.08902,3.097411 -0.69038,1.117055 -3.22165,1.064476 -6.1898,-0.128573 z"
     id="path2987"
     inkscape:connector-curvature="0" />
</svg>
