<?xml version="1.0" encoding="UTF-8" standalone="no"?>
<!-- Created with Inkscape (http://www.inkscape.org/) -->

<svg
   xmlns:dc="http://purl.org/dc/elements/1.1/"
   xmlns:cc="http://creativecommons.org/ns#"
   xmlns:rdf="http://www.w3.org/1999/02/22-rdf-syntax-ns#"
   xmlns:svg="http://www.w3.org/2000/svg"
   xmlns="http://www.w3.org/2000/svg"
   xmlns:sodipodi="http://sodipodi.sourceforge.net/DTD/sodipodi-0.dtd"
   xmlns:inkscape="http://www.inkscape.org/namespaces/inkscape"
   id="svg2"
   version="1.1"
   inkscape:version="0.48.1 r9760"
   width="720"
   height="504"
   sodipodi:docname="07_Card VII_gray.svg">
  <metadata
     id="metadata8">
    <rdf:RDF>
      <cc:Work
         rdf:about="">
        <dc:format>image/svg+xml</dc:format>
        <dc:type
           rdf:resource="http://purl.org/dc/dcmitype/StillImage" />
        <dc:title />
      </cc:Work>
    </rdf:RDF>
  </metadata>
  <defs
     id="defs6" />
  <sodipodi:namedview
     pagecolor="#ffffff"
     bordercolor="#666666"
     borderopacity="1"
     objecttolerance="10"
     gridtolerance="10"
     guidetolerance="10"
     inkscape:pageopacity="0"
     inkscape:pageshadow="2"
     inkscape:window-width="1360"
     inkscape:window-height="695"
     id="namedview4"
     showgrid="false"
     inkscape:showpageshadow="false"
     showborder="false"
     inkscape:zoom="0.82495791"
     inkscape:cx="362.56743"
     inkscape:cy="287.93693"
     inkscape:window-x="0"
     inkscape:window-y="24"
     inkscape:window-maximized="1"
     inkscape:current-layer="svg2" />
  <path
     style="fill:#ababab"
     d="m 287.54169,495.29942 c -10.58977,-0.60921 -12.03722,-3.02396 -6.02377,-10.04933 2.06085,-2.40763 3.09261,-4.37276 2.49106,-4.74454 -1.95046,-1.20545 -4.84544,0.58656 -5.91798,3.66325 -1.06589,3.05762 -1.12634,3.08049 -6.33358,2.39619 C 268.86584,486.185 263.8,485.55756 260.5,485.17067 c -6.92298,-0.81164 -8.5,-1.57627 -8.5,-4.12128 0,-1.15206 -0.99189,-2.08152 -2.67108,-2.50297 -1.46909,-0.36872 -3.77978,-1.5425 -5.13486,-2.60841 C 242.83898,474.8721 240.9085,474 239.9041,474 c -1.00441,0 -2.71853,-0.95781 -3.80916,-2.12847 -1.12131,-1.20358 -2.64179,-1.87566 -3.49913,-1.54667 -1.50999,0.57944 -15.9991,-5.55035 -17.01859,-7.19992 -0.29458,-0.47664 -1.93147,-1.14579 -3.63752,-1.487 -1.70606,-0.34121 -4.25111,-1.52433 -5.65567,-2.62916 C 204.87947,457.90395 203.17107,457 202.48759,457 c -0.68349,0 -1.7685,-0.63355 -2.41114,-1.40789 -0.64264,-0.77433 -2.74175,-2.15446 -4.66468,-3.06695 -1.92293,-0.91249 -4.85892,-3.54144 -6.52444,-5.84212 -1.66551,-2.30067 -3.8965,-4.50604 -4.95777,-4.90082 C 181.69599,440.95136 181.3082,438 183.43261,438 c 0.78794,0 1.71826,0.9 2.06739,2 0.34913,1.1 0.97945,2 1.40072,2 1.74895,0 1.93277,-1.42131 0.53372,-4.12678 C 186.42647,435.92403 185.17951,435 183.55706,435 c -1.81229,0 -3.36609,-1.45935 -6.41482,-6.02485 -5.07377,-7.59804 -5.62609,-9.39281 -4.05659,-13.18193 0.92728,-2.23866 2.69528,-3.69089 6.59078,-5.41367 2.92797,-1.29488 5.32357,-2.78889 5.32357,-3.32002 0,-0.53113 1.6875,-1.73725 3.75,-2.68026 2.0625,-0.94302 4.45931,-2.31311 5.32625,-3.04466 1.66384,-1.40401 8.56821,-3.1783 15.67375,-4.02786 2.3375,-0.27947 4.25,-0.94519 4.25,-1.47937 C 214,393.86253 208.76721,386 207.45954,386 c -0.74272,0 -1.93746,1.20427 -2.65497,2.67616 -0.71752,1.47188 -1.84067,2.85059 -2.49591,3.06378 -1.46155,0.47554 -4.06493,-4.34146 -4.49317,-8.31364 -0.30954,-2.87107 -0.21654,-2.932 4.92716,-3.2283 3.97626,-0.22906 5.49448,-0.77256 6.28518,-2.25 0.5734,-1.0714 1.90161,-1.948 2.95159,-1.948 2.58456,0 7.53151,-4.36429 6.61954,-5.83988 -0.41858,-0.67728 -1.74547,-0.91047 -3.16025,-0.55538 -2.10728,0.52889 -2.43871,0.26561 -2.43871,-1.93731 0,-1.40217 -0.45,-2.82751 -1,-3.16743 -0.55,-0.33992 -1,-1.33402 -1,-2.2091 0,-2.01806 5.16274,-12.2909 6.17694,-12.2909 0.41752,0 0.69559,-2.41463 0.61794,-5.36584 -0.13198,-5.0164 -0.36213,-5.48484 -3.53407,-7.19304 -3.34971,-1.80394 -3.4476,-1.79731 -7.69048,0.52046 -3.55525,1.94214 -5.14162,2.23322 -9.18396,1.68519 -2.6875,-0.36435 -6.15474,-1.59523 -7.70498,-2.73528 -1.55023,-1.14005 -3.48052,-1.81881 -4.28953,-1.50837 -0.80901,0.31045 -2.31308,0.0385 -3.34238,-0.60429 -1.42955,-0.89277 -2.80536,-0.88894 -5.82649,0.0162 -2.17526,0.65173 -6.05146,1.18496 -8.61376,1.18496 -3.95931,0 -4.7918,-0.35001 -5.54511,-2.33136 -0.48751,-1.28224 -2.27637,-3.64328 -3.97525,-5.24675 -3.65382,-3.44861 -3.76148,-4.29709 -0.99203,-7.81788 1.54331,-1.96199 1.81414,-3.00634 1.02594,-3.95606 -0.64755,-0.78026 -0.82843,-3.33765 -0.45755,-6.46916 C 158.08767,306.61191 157.92397,305 157.13929,305 156.51268,305 156,304.35953 156,303.57673 c 0,-0.78281 -1.125,-2.76027 -2.5,-4.39436 -1.375,-1.6341 -2.5,-3.83626 -2.5,-4.89371 0,-1.05744 -1.35,-4.56234 -3,-7.78866 -1.65,-3.22632 -3,-6.95368 -3,-8.28302 0,-2.3962 -2.18348,-4.84603 -10.8887,-12.21698 -2.27347,-1.925 -4.38545,-4.29244 -4.6933,-5.26097 -0.30786,-0.96853 -1.89736,-2.45267 -3.53222,-3.2981 -1.63487,-0.84542 -3.48013,-2.65127 -4.10057,-4.01301 -0.62045,-1.36173 -2.28844,-2.76282 -3.70665,-3.11353 -1.41821,-0.35071 -3.08642,-1.35242 -3.70715,-2.22602 -0.96324,-1.35567 -2.98072,-1.51512 -13.77098,-1.08837 -6.953317,0.275 -13.082953,0.35 -13.621413,0.16667 C 86.440558,246.98333 86,244.39583 86,241.41667 c 0,-6.27673 1.295605,-8.02372 8.715848,-11.75243 5.677342,-2.85289 13.334232,-3.96668 26.284152,-3.82336 12.82949,0.14198 16.77383,0.87117 17.52566,3.23997 0.33501,1.05553 1.44815,1.91915 2.47363,1.91915 1.02549,0 2.82767,1.35261 4.00485,3.00581 l 2.14032,3.00581 10.67777,-0.46189 c 5.87277,-0.25404 13.35237,-1.02268 16.62133,-1.7081 6.13098,-1.28551 5.71723,-0.97412 17.23337,-12.96953 3.81427,-3.97302 6.30914,-8.12624 6.31648,-10.51511 0.008,-2.65471 2.44736,-3.73574 4.05592,-1.79755 2.00851,2.42011 2.95067,1.62771 2.95067,-2.48163 0,-3.44103 -0.58272,-4.42167 -4.75,-7.99355 -2.6125,-2.23924 -5.171,-4.07425 -5.68555,-4.0778 -0.51455,-0.004 -1.92894,-0.9397 -3.14308,-2.08033 -1.21415,-1.14063 -3.71815,-2.82813 -5.56445,-3.75 -2.69722,-1.34674 -3.77614,-2.85525 -5.49014,-7.67613 -1.25385,-3.52665 -3.80155,-7.82342 -6.18035,-10.42336 -2.22592,-2.43285 -4.6772,-6.25785 -5.44729,-8.5 -4.01569,-11.69187 -5.01077,-15.50395 -5.48941,-21.02969 -0.31831,-3.67466 -1.42702,-7.6162 -2.8261,-10.04695 -1.26627,-2.2 -2.61722,-6.39744 -3.0021,-9.32765 -0.55386,-4.21663 -1.15956,-5.50245 -2.90449,-6.16587 -1.21259,-0.46103 -2.80008,-2.27559 -3.52776,-4.03237 -1.28834,-3.11031 -1.22026,-3.28212 2.59383,-6.54658 2.65778,-2.27477 4.96162,-3.36451 7.16689,-3.38998 3.47633,-0.0402 4.72117,-1.07881 10.11336,-8.438205 2.67079,-3.645163 3.4312,-5.728147 3.69281,-10.115731 0.1812,-3.038934 0.77616,-6.978448 1.32212,-8.754474 2.74456,-8.928091 3.08007,-11.379201 1.96276,-14.339301 -0.91173,-2.415428 -0.80648,-3.660438 0.55133,-6.5218 2.0725,-4.367474 2.30364,-10.398639 0.72015,-18.790975 -0.96714,-5.125704 -0.95473,-7.043817 0.0615,-9.497082 0.70034,-1.69078 1.14042,-4.088575 0.97794,-5.328432 -0.36837,-2.811058 2.71488,-9.986459 4.60239,-10.7107643 3.05976,-1.1741391 6.46708,0.9538483 11.3471,7.0866523 2.80555,3.525787 5.93792,6.858426 6.96081,7.405863 C 205.04668,25.095349 210,39.126382 210,43.685602 c 0,1.420298 -0.52992,4.35106 -1.17759,6.512807 -0.91336,3.04852 -0.9027,4.690654 0.0475,7.318427 1.81257,5.012591 1.61745,16.809694 -0.32712,19.777485 -1.01646,1.551312 -1.79119,5.663683 -2.13278,11.320991 -0.40027,6.629459 -0.99634,9.392355 -2.34827,10.884688 -2.98812,3.29845 -4.06259,6.13548 -4.04645,10.68426 0.0181,5.09349 0.27146,5.50923 5.48469,8.99896 5.20415,3.48365 10.66022,4.53358 12.43658,2.3932 0.71957,-0.86703 2.68028,-1.57642 4.35712,-1.57642 1.67685,0 3.83712,-0.7134 4.8006,-1.58534 1.17423,-1.06267 4.39362,-1.73969 9.76491,-2.05351 7.31659,-0.42748 8.10867,-0.28967 9.11215,1.58534 0.9323,1.74201 2.06703,2.05351 7.48049,2.05351 4.20533,0 6.53058,0.42626 6.81872,1.25 0.31142,0.89032 1.08327,0.67605 2.6824,-0.74464 l 2.24516,-1.99464 2.20053,2.75972 c 1.85669,2.32851 2.70059,2.65971 5.40093,2.11964 C 274.55982,123.03804 276,122.35625 276,121.875 c 0,-2.33811 2.13676,-0.14268 7.39438,7.59738 5.72787,8.43235 5.74883,8.49022 4.43699,12.25 -1.27492,3.65394 -8.47357,13.32183 -13.49006,18.11734 -1.96729,1.88063 -2.38806,3.15456 -2.14442,6.49253 0.24441,3.34862 0.81328,4.39617 2.93757,5.40947 1.44895,0.69116 3.32368,2.30854 4.16606,3.59418 0.93767,1.43107 3.69727,3.0187 7.11638,4.09414 7.68829,2.41827 9.98433,5.45319 9.11251,12.04496 -0.3619,2.73625 -1.00124,5.43625 -1.42077,6 -0.41953,0.56375 -0.82963,4.07158 -0.91133,7.79518 -0.0817,3.7236 -0.59523,7.60483 -1.14119,8.62495 -1.59698,2.984 -9.96513,6.33679 -18.05612,7.23439 -16.3947,1.8188 -26.40718,4.07181 -33,7.42567 -4.50774,2.29315 -9.89068,3.62539 -15.48974,3.83362 -2.88996,0.10748 -2.99774,0.28492 -3.22927,5.31656 -0.22035,4.7886 -0.021,5.31017 2.48974,6.51434 2.04383,0.98022 2.74333,2.0588 2.78524,4.29463 0.0308,1.64211 0.59328,3.96858 1.25,5.16992 0.65672,1.20134 1.19403,3.25057 1.19403,4.55383 0,1.39526 1.43912,3.76443 3.5,5.76191 1.925,1.86578 3.5,4.37396 3.5,5.57372 0,1.19977 0.65198,2.72249 1.44885,3.38383 0.79686,0.66134 1.95676,2.74144 2.57755,4.62244 0.62079,1.88101 1.48045,3.42001 1.91036,3.42001 2.33062,0 10.47689,8.8783 12.64543,13.78176 2.73182,6.17714 2.89526,7.89263 1.26903,13.32049 -0.84802,2.83043 -0.85585,4.18724 -0.0299,5.18243 0.78785,0.9493 0.82397,2.41617 0.1221,4.95814 -0.78154,2.8305 -1.62865,3.74877 -3.92312,4.25273 -3.56343,0.78265 -8.0203,4.14011 -8.0203,6.04185 0,3.00493 7.09179,4.55421 11.07899,2.42033 2.4591,-1.31607 4.18083,-0.35097 7.10354,3.98181 1.33873,1.98461 3.58447,3.77669 5.31747,4.24329 3.88493,1.04601 13.19515,9.75438 14.04389,13.13604 0.45586,1.81626 0.002,3.68036 -1.48138,6.07999 l -2.1388,3.46064 2.14827,4.57025 c 2.49312,5.30389 4.30498,5.79627 5.77818,1.57025 0.85496,-2.45257 1.64835,-3.03194 4.34782,-3.17503 8.29475,-0.43969 11.26239,0.24678 13.80202,3.19266 2.06496,2.39528 3.44936,2.97092 7.95561,3.30798 3.00059,0.22444 5.62559,0.918 5.83334,1.54123 0.20774,0.62324 1.53818,1.13316 2.95653,1.13316 1.41834,0 4.45875,1.10172 6.75647,2.44827 2.47791,1.45216 5.02201,2.22747 6.25293,1.90558 1.469,-0.38415 2.54433,0.17316 3.68082,1.90768 0.88306,1.34771 3.32715,4.3152 5.43132,6.59442 3.1817,3.4464 4.45909,4.14405 7.58778,4.14405 3.50439,0 3.71943,0.16966 3.14018,2.47758 -0.51657,2.0582 -0.19418,2.58491 1.90458,3.11167 3.11823,0.78262 5.46749,-0.99926 4.78057,-3.62602 -0.46284,-1.76991 0.0151,-1.96437 4.85324,-1.97482 5.10511,-0.011 5.60676,-0.25432 10.29429,-4.99262 C 382.43004,379.92842 393.61225,373 397.40238,373 c 1.53019,0 3.92633,-0.9 5.32475,-2 1.39842,-1.1 3.09621,-2 3.77287,-2 0.67666,0 2.41347,-0.9307 3.85959,-2.06821 4.18115,-3.2889 8.50779,-4.15395 13.50916,-2.70098 2.97076,0.86305 4.65168,2.01247 5.25291,3.59195 1.3855,3.63981 4.16923,2.3198 5.77194,-2.73697 1.24406,-3.92516 1.21046,-4.73709 -0.31305,-7.56608 -2.13104,-3.95709 -1.28276,-7.96969 2.1802,-10.31299 1.38722,-0.9387 4.33016,-3.39422 6.53987,-5.45672 2.20971,-2.0625 4.59984,-3.75 5.31139,-3.75 0.71156,0 2.76332,-1.8287 4.55948,-4.06377 3.18961,-3.96904 3.37584,-4.04863 7.98898,-3.41416 5.74546,0.7902 8.83953,-0.0619 8.83953,-2.43447 0,-2.21606 -2.59144,-4.5349 -6.45406,-5.77513 -3.60388,-1.15716 -5.41986,-6.31101 -3.49258,-9.91217 0.76132,-1.42255 0.9066,-3.28285 0.39618,-5.07325 -1.20316,-4.22033 -0.46652,-11.36414 1.58749,-15.39526 0.99997,-1.96252 3.76322,-5.21818 6.14055,-7.23481 C 476.53191,277.61022 480,273.13489 480,269.44098 c 0,-0.68847 1.575,-3.13691 3.5,-5.44098 2.61657,-3.13183 3.5,-5.1245 3.5,-7.89461 0,-2.03797 0.41537,-4.13289 0.92305,-4.65539 0.50768,-0.5225 1.07018,-2.2822 1.25,-3.91045 0.24316,-2.20171 0.96769,-3.11125 2.82695,-3.5488 2.32875,-0.54803 2.49637,-0.99599 2.44697,-6.53954 l -0.053,-5.95121 -6.09779,-0.12793 c -4.1555,-0.0872 -7.80164,-0.91385 -11.44697,-2.59531 -7.17683,-3.31042 -11.8926,-4.77455 -15.42018,-4.78758 -1.61095,-0.006 -5.13802,-0.68096 -7.83793,-1.5 -2.69991,-0.81905 -6.97491,-1.49573 -9.5,-1.50373 -8.39155,-0.0266 -19.56648,-5.26487 -20.71908,-9.71211 -0.3174,-1.22466 -0.31832,-4.37466 -0.002,-7 0.79772,-6.62171 0.81794,-6.18276 -0.55757,-12.09867 C 421.05116,184.5999 422.57376,182.1886 430.5,180 c 4.33966,-1.19827 6.38861,-2.3463 7.40433,-4.14866 0.77237,-1.37056 2.6387,-3.20037 4.14739,-4.06624 3.54094,-2.03222 4.5445,-6.42239 2.55601,-11.18151 C 443.77961,158.62162 442.66101,157 442.12195,157 440.49229,157 431.04473,146.62422 431.02157,144.80902 431.00971,143.87898 430.55,142.83992 430,142.5 c -1.36026,-0.84069 -1.26332,-6.13625 0.16138,-8.81574 0.63876,-1.20134 2.88876,-4.23822 5,-6.74862 2.11124,-2.51039 3.83862,-5.32289 3.83862,-6.25 0,-2.00323 1.57244,-2.22272 2.70031,-0.37692 0.43983,0.7198 2.32253,1.92439 4.18378,2.67687 3.05909,1.23674 3.51366,1.19094 4.73321,-0.47689 1.14422,-1.56482 1.73849,-1.66762 3.91296,-0.67687 C 457.8044,123.32363 458,123.30492 458,121.5 c 0,-1.16568 1.32942,-1.5 5.96482,-1.5 4.94136,0 6.14847,-0.34316 7.03518,-2 0.94004,-1.75649 2.09382,-2 9.47617,-2 4.62319,0 8.65971,0.41084 8.97005,0.91299 0.31034,0.50214 2.336,1.21232 4.50145,1.57817 2.16546,0.36585 4.4682,1.30501 5.11721,2.08701 0.71653,0.86337 3.04282,1.42183 5.92271,1.42183 6.2782,0 9.43111,-2.53022 11.36235,-9.1183 1.30159,-4.44013 1.30877,-5.59757 0.0567,-9.14623 -0.78839,-2.23454 -1.92193,-4.651395 -2.51897,-5.370787 -1.52454,-1.836959 -2.89488,-7.851314 -3.34042,-14.660981 -0.20858,-3.187964 -0.81114,-6.337964 -1.33902,-7 -0.52788,-0.662036 -1.17289,-4.687869 -1.43336,-8.946296 -0.36047,-5.893376 -0.11171,-8.259223 1.04152,-9.905701 1.2596,-1.798322 1.31851,-2.898148 0.34934,-6.521757 -1.63208,-6.102153 -1.4637,-9.794463 0.80905,-17.741867 C 511.93355,26.738715 515.09529,22 517.70654,22 c 0.74685,0 1.68091,-0.82807 2.07568,-1.840156 0.39478,-1.012086 2.57451,-3.937086 4.84385,-6.5 C 527.89351,9.9697074 529.40876,9 531.90746,9 c 1.84571,0 3.38815,0.6067679 3.71631,1.461933 0.30854,0.804063 1.37785,1.721193 2.37623,2.038067 2.60847,0.827896 3.21796,3.255239 1.80118,7.173286 -0.97468,2.695428 -0.97697,3.774933 -0.0108,5.121048 3.30413,4.603694 3.53541,5.976082 1.45322,8.623154 -3.2696,4.156628 -3.71766,10.647838 -1.24736,18.071079 1.69587,5.096119 1.89905,6.838645 0.99444,8.528914 -0.82518,1.541871 -0.84266,2.968254 -0.0638,5.202621 0.59022,1.693089 1.07589,4.023694 1.07928,5.179121 0.003,1.155427 0.70644,3.443781 1.56233,5.085231 0.8559,1.64145 1.58178,4.79145 1.61308,7 0.0871,6.147984 1.59924,10.094644 4.34736,11.346772 1.8426,0.839546 2.47107,1.902325 2.47107,4.17872 0,3.615774 1.82003,4.597044 5.89299,3.177204 2.47971,-0.86443 3.21385,-0.69202 4.88755,1.14781 5.07332,5.57693 5.06324,10.66022 -0.0264,13.29216 -2.98822,1.54527 -3.00649,1.60598 -2.36557,7.86167 0.62748,6.12463 0.55987,6.37678 -2.37136,8.84324 -2.68355,2.25806 -3.01725,3.14776 -3.01725,8.04439 0,3.02805 -0.45682,5.78788 -1.01515,6.13294 -1.5103,0.93342 -3.97876,7.34293 -3.4044,8.8397 0.81766,2.13079 -3.25682,10.39278 -6.01729,12.20151 -1.40974,0.9237 -2.56316,2.31682 -2.56316,3.09582 0,0.77901 -0.7875,1.70693 -1.75,2.06205 -2.45533,0.90591 -3.21703,2.30743 -3.23469,5.95182 -0.0225,4.64574 -4.7353,11.16262 -10.01463,13.84829 -3.84481,1.95591 -8.92597,5.47029 -13.71644,9.48695 -1.82449,1.52979 -0.70016,3.24671 3.82112,5.83511 3.24866,1.85982 3.96693,2.76882 3.55584,4.5 -0.83004,3.49547 2.43233,8.96226 6.48793,10.87189 1.99898,0.94125 4.59657,3.268 5.77242,5.17056 2.24868,3.63845 9.655,7.1104 12.68637,5.94715 0.83985,-0.32228 2.56539,-0.0302 3.83454,0.649 1.75891,0.94133 2.81769,0.96193 4.45321,0.0866 1.18011,-0.63158 2.68241,-0.8166 3.33843,-0.41116 0.65602,0.40545 3.00922,1.06231 5.22933,1.45969 2.22012,0.39739 5.04105,1.03686 6.26875,1.42105 1.81662,0.56848 2.42391,0.19424 3.26204,-2.01022 0.56642,-1.4898 1.90349,-2.93719 2.97125,-3.21642 1.06777,-0.27923 2.68184,-1.63775 3.58683,-3.01895 1.48177,-2.26147 2.10809,-2.45234 6.29657,-1.91896 2.55812,0.32576 6.45113,0.11219 8.65113,-0.47461 2.2,-0.58679 7.55861,-1.4711 11.90803,-1.96512 7.74658,-0.87988 8.00717,-0.83721 12.76502,2.09032 2.67135,1.6437 5.43696,2.98854 6.14581,2.98854 4.37035,0 11.53123,13.55067 8.67148,16.40919 -1.38188,1.38129 -25.27776,1.04254 -27.96653,-0.39645 -1.61407,-0.86382 -2.56702,-0.24282 -6.21509,4.0502 -2.3698,2.78876 -5.54388,5.7258 -7.05353,6.52676 -1.51062,0.80148 -3.87064,3.67802 -5.24865,6.39739 -1.37711,2.7176 -3.39979,5.4206 -4.49484,6.00665 -1.09505,0.58605 -2.68221,2.40221 -3.52703,4.0359 -0.84482,1.6337 -2.18629,2.97036 -2.98105,2.97036 -1.27797,0 -2.83556,2.81683 -8.10146,14.65113 -1.73422,3.89739 -1.78358,6.56224 -0.15216,8.21596 1.00285,1.01656 0.70532,1.66645 -1.50479,3.2869 -2.32117,1.70187 -2.72945,2.6897 -2.59381,6.27568 0.0885,2.34073 -0.12011,4.71069 -0.46366,5.26656 -0.34355,0.55588 -0.11374,2.3642 0.51069,4.0185 0.97622,2.58632 0.83167,3.43426 -1.03156,6.05092 -2.68211,3.76667 -2.7117,4.8724 -0.16687,6.23435 2.68842,1.4388 2.60847,5.60399 -0.13575,7.07265 -1.57184,0.84122 -3.61811,0.85822 -7.75,0.0644 -3.08784,-0.59325 -7.30175,-1.31678 -9.36425,-1.60783 -2.0625,-0.29106 -5.26953,-0.79696 -7.12674,-1.12422 -2.78427,-0.49061 -3.66289,-0.18649 -5.00757,1.73331 -1.43605,2.05026 -2.73461,2.4084 -10.87325,2.99881 -8.20358,0.59512 -9.61122,0.44519 -12.52334,-1.33396 -4.31763,-2.63784 -8.2191,-1.80662 -8.2191,1.7511 0,1.38387 -0.69354,3.57461 -1.54121,4.86831 -1.28225,1.95696 -1.3181,2.58113 -0.21337,3.71481 0.73031,0.74945 2.60475,3.83764 4.16541,6.86264 1.56066,3.025 3.45668,5.85986 4.21337,6.29969 0.75669,0.43983 1.3758,2.13698 1.3758,3.77144 0,2.19944 -0.6497,3.26777 -2.5,4.11082 -1.375,0.6265 -2.5,1.6721 -2.5,2.32358 0,1.92644 3.46997,4.49418 6.07874,4.49821 1.33169,0.002 3.81592,0.85418 5.52051,1.89362 2.86457,1.74679 3.08565,2.27631 2.91968,6.99325 -0.0988,2.80685 -0.48092,5.40472 -0.84925,5.77304 -3.03134,3.03135 9.08078,17.30881 14.72105,17.3528 3.81915,0.0298 9.91049,4.2542 10.76625,7.4665 1.13886,4.27503 -0.6279,9.62122 -4.1329,12.50607 -1.66324,1.36897 -3.02408,3.25491 -3.02408,4.19099 0,0.93607 -0.45,1.98007 -1,2.31999 -0.55,0.33992 -1,2.12967 -1,3.97723 0,4.89087 -0.90778,6.52277 -3.62843,6.52277 -1.59234,0 -2.79482,0.83483 -3.53157,2.45181 -0.61441,1.34849 -2.74226,3.20296 -4.72856,4.12104 -1.98629,0.91807 -5.91172,3.17252 -8.72317,5.00987 C 507.15236,460.65803 485.75599,471 483.56053,471 c -0.87322,0 -2.36906,0.43865 -3.3241,0.97477 -0.95504,0.53613 -3.31143,1.67734 -5.23643,2.53603 -6.04712,2.69745 -8.81816,4.46121 -11.986,7.62905 -2.64311,2.64311 -3.55486,2.98127 -6.5322,2.42271 -2.13746,-0.40099 -5.19813,-0.0592 -8.00601,0.89414 -2.50013,0.84882 -5.87996,1.5433 -7.51074,1.5433 -3.1894,0 -4.09696,2.46809 -1.76505,4.8 3.32382,3.32382 -2.90171,3.67245 -53.79414,3.01246 -17.53644,-0.22742 -24.5087,-0.65603 -25.61732,-1.57479 -1.24027,-1.02787 -1.75733,-0.9802 -2.78384,0.25666 -1.07001,1.28929 -5.16406,1.51159 -27.07348,1.47004 -14.19706,-0.0269 -27.97697,0.12751 -30.62203,0.34319 -2.64505,0.21569 -7.94043,0.21203 -11.7675,-0.008 z M 437,484 c 0,-0.55 -0.9,-1.9 -2,-3 -1.1,-1.1 -2.45,-2 -3,-2 -1.53269,0 -1.18833,2.66881 0.57143,4.42857 C 434.33119,485.18833 437,485.53269 437,484 z m -67,-87.5 c 0,-0.83333 -0.88889,-1.5 -2,-1.5 -1.99224,0 -2.60112,1.06554 -1.33333,2.33333 C 367.8846,398.55126 370,398.02241 370,396.5 z M 542.8,164.8 c 0.66,-0.66 1.2,-2.0651 1.2,-3.12244 0,-1.52913 -0.28478,-1.6861 -1.39194,-0.76725 -1.54266,1.2803 -2.82584,5.08969 -1.71444,5.08969 0.38851,0 1.24638,-0.54 1.90638,-1.2 z"
     id="path2987"
     inkscape:connector-curvature="0" />
</svg>
