<?xml version="1.0" encoding="UTF-8" standalone="no"?>
<!-- Created with Inkscape (http://www.inkscape.org/) -->

<svg
   xmlns:dc="http://purl.org/dc/elements/1.1/"
   xmlns:cc="http://creativecommons.org/ns#"
   xmlns:rdf="http://www.w3.org/1999/02/22-rdf-syntax-ns#"
   xmlns:svg="http://www.w3.org/2000/svg"
   xmlns="http://www.w3.org/2000/svg"
   xmlns:sodipodi="http://sodipodi.sourceforge.net/DTD/sodipodi-0.dtd"
   xmlns:inkscape="http://www.inkscape.org/namespaces/inkscape"
   id="svg2"
   version="1.1"
   inkscape:version="0.48.1 r9760"
   width="720"
   height="504"
   sodipodi:docname="09_Card IX_gray.svg">
  <metadata
     id="metadata8">
    <rdf:RDF>
      <cc:Work
         rdf:about="">
        <dc:format>image/svg+xml</dc:format>
        <dc:type
           rdf:resource="http://purl.org/dc/dcmitype/StillImage" />
        <dc:title />
      </cc:Work>
    </rdf:RDF>
  </metadata>
  <defs
     id="defs6" />
  <sodipodi:namedview
     pagecolor="#ffffff"
     bordercolor="#666666"
     borderopacity="1"
     objecttolerance="10"
     gridtolerance="10"
     guidetolerance="10"
     inkscape:pageopacity="0"
     inkscape:pageshadow="2"
     inkscape:window-width="1360"
     inkscape:window-height="695"
     id="namedview4"
     showgrid="false"
     showborder="false"
     inkscape:showpageshadow="false"
     inkscape:zoom="0.82495791"
     inkscape:cx="403.89292"
     inkscape:cy="248.36365"
     inkscape:window-x="0"
     inkscape:window-y="24"
     inkscape:window-maximized="1"
     inkscape:current-layer="svg2" />
  <path
     style="fill:#ababab"
     d="m 252.23464,493.93996 c -2.34595,-0.4625 -4.76153,-1.14756 -5.36795,-1.52235 -2.3964,-1.48106 -8.78793,-2.57476 -17.40053,-2.97753 -7.3884,-0.34552 -10.61878,-1.06157 -17.73553,-3.93128 C 206.9447,483.57896 201.95368,482 200.63947,482 c -1.8568,0 -2.52369,-0.67109 -2.99155,-3.01042 -0.33115,-1.65573 -2.21506,-4.62339 -4.18648,-6.5948 -3.24735,-3.24736 -3.42566,-3.70046 -1.8963,-4.81875 1.27652,-0.93341 1.4481,-1.70267 0.70376,-3.1552 -0.54138,-1.05645 -1.79439,-5.07083 -2.78446,-8.92083 -0.99007,-3.85 -2.9666,-8.57452 -4.39228,-10.49893 -5.196,-7.01363 -6.1978,-14.02026 -3.6815,-25.74863 1.38714,-6.46541 1.79556,-7.20007 7.49997,-13.49108 2.93013,-3.23144 4.01368,-3.76136 7.69099,-3.76136 5.24911,0 6.15799,1.21885 3.46336,4.64451 -2.41876,3.07496 -2.611,4.35549 -0.65387,4.35549 1.68618,0 6.58889,-5.58503 6.58889,-7.50588 0,-1.56168 7.22085,-6.67826 11.55906,-8.19056 3.26186,-1.13709 6.30501,-0.37719 8.3481,2.08458 0.73575,0.88652 1.86935,1.61186 2.51912,1.61186 1.77141,0 7.57372,-6.34661 7.57372,-8.28419 0,-0.97341 1.43112,-2.28693 3.37792,-3.10036 1.85786,-0.77626 3.68442,-1.9073 4.05902,-2.51342 0.85207,-1.37868 5.08082,-1.43049 7.58018,-0.0929 1.29349,0.69226 3.24673,0.64514 6.21983,-0.15005 2.98116,-0.79734 5.57178,-0.85837 8.29861,-0.1955 l 3.96444,0.96371 -3.25,1.71202 c -1.7875,0.94161 -3.25,2.06219 -3.25,2.49017 0,0.42799 1.52297,2.25428 3.38438,4.05843 l 3.38439,3.28028 1.61561,-2.30662 c 4.27621,-6.10513 0.55358,-12.33242 -10.74716,-17.97807 -4.32453,-2.16046 -8.81216,-4.59308 -9.97251,-5.40582 C 249.50436,370.66497 248.00457,370 247.33183,370 c -0.67274,0 -6.63225,-2.475 -13.24334,-5.5 -6.6111,-3.025 -12.82305,-5.50002 -13.80434,-5.50004 -0.98128,-3e-5 -3.13415,1.56521 -4.78415,3.4783 -2.79083,3.23583 -3.29983,3.43536 -7.30029,2.86163 -3.72204,-0.53379 -4.56246,-1.13062 -6.25,-4.43847 -2.68283,-5.25877 -2.462,-7.89488 1.25545,-14.98673 l 3.20515,-6.11453 -4.68744,-4.65008 C 193.56044,327.05272 189.08147,321.43841 186.9626,316.64837 185.21429,312.69601 184.48251,312 182.07533,312 c -7.34981,0 -14.97661,-7.15478 -16.93954,-15.89116 -0.55456,-2.46817 -1.96293,-4.97162 -3.45885,-6.14832 -1.38786,-1.09169 -2.81755,-3.32425 -3.1771,-4.96124 -0.88388,-4.02427 -1.97193,-4.45392 -3.88506,-1.53411 -1.49445,2.28082 -1.79217,2.3527 -4.35939,1.05259 -1.51546,-0.76747 -4.55539,-2.16414 -6.75539,-3.10372 -3.66538,-1.56541 -7.33478,-4.01695 -11.66777,-7.79529 -2.55927,-2.23167 -3.2851,-11.12333 -1.47412,-18.05833 1.13311,-4.33917 2.59389,-6.95474 5.58803,-10.00554 3.7502,-3.82118 4.05386,-4.54414 4.05386,-9.6516 0,-7.56377 1.18403,-8.79677 10.04396,-10.45932 15.60481,-2.92821 17.20424,-3.41972 19.62377,-6.03045 1.47357,-1.59001 3.01613,-2.36506 3.97486,-1.99717 0.86171,0.33067 3.24659,0.0979 5.29972,-0.5172 4.27304,-1.28023 8.51323,0.33132 12.6684,4.81482 1.45154,1.56624 2.94221,2.28784 3.93732,1.90598 1.41436,-0.54274 1.36215,-0.91867 -0.44703,-3.21867 -1.12664,-1.43229 -2.34267,-4.17254 -2.70228,-6.08944 -0.92423,-4.92659 1.253,-6.85498 7.52496,-6.66491 4.79271,0.14525 4.85451,0.10736 5.41021,-3.31705 0.30917,-1.90518 0.0892,-4.50188 -0.48876,-5.77043 -0.74376,-1.63238 -0.72857,-2.90872 0.052,-4.36721 C 205.5037,193.05882 206,190.83609 206,189.25283 206,184.0375 213.051,179 220.35093,179 c 5.15998,0 5.63092,-0.71503 4.49069,-6.81835 -0.87671,-4.6928 -6.93932,-11.74058 -11.94812,-13.88966 -4.87387,-2.09119 -6.84329,-13.92477 -4.00369,-24.05681 1.37432,-4.90373 0.64398,-10.31369 -1.76774,-13.09443 -0.91694,-1.05724 -2.51936,-5.45892 -3.56093,-9.7815 -2.29972,-9.54399 -4.82049,-13.18597 -11.88682,-17.173963 C 186.03484,91.002566 184.79325,89.046119 181.40284,78 c -2.37755,-7.746195 -1.36664,-20.838787 1.91998,-24.866168 1.29777,-1.590262 3.6402,-8.000721 3.66212,-10.022001 0.008,-0.763493 -1.73485,-3.286596 -3.87362,-5.606894 -2.97187,-3.224095 -3.77447,-4.816208 -3.40424,-6.752951 0.36148,-1.890956 -0.39369,-3.513739 -2.97504,-6.393106 -6.38222,-7.119032 -8.58347,-14.3905774 -4.58678,-15.1518182 0.9049,-0.1723533 5.62682,1.9696092 10.49315,4.7599162 4.86633,2.790307 10.30055,5.474387 12.07603,5.964621 1.77549,0.490235 4.54804,1.831175 6.16123,2.979868 C 202.64333,24.170154 205.35661,25 207.70437,25 212.33353,25 214,26.389151 214,30.247966 c 0,2.95227 4.19556,7.659003 6.88197,7.720433 0.76008,0.01738 2.93514,-0.928315 4.83347,-2.101547 2.61869,-1.618442 4.93942,-2.108065 9.61803,-2.029195 17.72458,0.298791 20.82403,0.19702 24.54926,-0.806079 3.06742,-0.825971 4.52778,-0.792156 6.01941,0.139382 3.89388,2.431766 3.04727,8.137378 -1.46182,9.85173 -2.42477,0.921898 -2.56361,1.299706 -1.92392,5.235455 0.90307,5.556212 1.73655,6.277448 4.8767,4.219943 2.40567,-1.576258 2.79627,-1.584028 5.06017,-0.100665 1.48836,0.975212 2.71207,2.987018 3.11129,5.11501 0.70782,3.772989 2.13697,4.587586 3.08354,1.757567 2.97933,-8.907544 7.00486,-17.655192 8.57438,-18.632499 3.27169,-2.037212 4.17314,0.484246 2.74386,7.674923 C 288.60313,55.150708 289.02496,58 291.40352,58 c 3.6462,0 6.52548,-2.210168 9.34361,-7.172279 4.99463,-8.79445 16.87506,-21.736847 21.95023,-23.912321 2.43794,-1.045021 7.66587,-4.049117 11.61763,-6.675768 10.98542,-7.301788 15.69778,-8.952448 15.67197,-5.489632 -0.008,1.137346 -3.8324,4.133397 -10.92273,8.557994 C 327.32527,30.633484 313,44.19854 313,47.98904 c 0,3.072421 2.46462,2.401665 5.42196,-1.47561 3.41748,-4.480552 5.99575,-5.919978 7.45478,-4.161951 0.81368,0.980425 0.43682,2.16868 -1.49983,4.728987 -3.71301,4.908721 -5.4139,9.169777 -4.22985,10.596614 1.41574,1.706027 11.93697,0.04775 21.52609,-3.392791 2.29524,-0.82352 4.66508,-1.193286 5.26632,-0.821701 1.97816,1.222571 0.01,2.537412 -3.79849,2.537412 -2.05754,0 -4.22596,0.484981 -4.81872,1.077736 -0.59275,0.592755 -2.59525,1.453878 -4.45,1.913608 -1.85474,0.45973 -5.84091,1.774749 -8.85814,2.922264 C 321.99688,63.061124 318.79037,64 317.88855,64 c -0.90183,0 -4.18351,1.125 -7.29263,2.5 -3.10912,1.375 -6.55804,2.5 -7.66427,2.5 -3.24932,0 -10.23117,3.969833 -12.93165,7.35285 -1.41089,1.767489 -2.5,4.434373 -2.5,6.121714 0,2.460289 -0.64921,3.297298 -3.66541,4.725682 -3.09293,1.464724 -3.90675,2.559127 -5.21065,7.007144 -0.84988,2.899221 -1.22545,5.522321 -0.83459,5.82911 12.30078,9.65507 12.15899,9.43775 15.12822,23.18662 1.06146,4.91505 5.53815,10.65152 9.65458,12.37147 1.81968,0.76031 4.54718,3.07507 6.06111,5.1439 5.23692,7.15637 6.30049,7.47741 11.97719,3.61525 2.95597,-2.0111 5.76772,-2.83673 11.71451,-3.43977 4.30373,-0.43643 8.35554,-1.23384 9.00402,-1.77203 0.64848,-0.53819 2.75224,-1.1278 4.67503,-1.31024 L 349.5,137.5 350.14659,131 c 0.35562,-3.575 0.32053,-8.30913 -0.078,-10.52029 -0.39851,-2.21115 -0.38995,-6.71115 0.019,-10 0.40898,-3.28884 0.78157,-8.76565 0.82798,-12.170693 0.0464,-3.405041 0.52722,-6.464671 1.06846,-6.799178 0.54124,-0.334507 1.60089,-2.723564 2.35477,-5.309017 1.27417,-4.36979 1.60219,-4.700822 4.658,-4.700822 5.53902,0 7.36386,3.63256 8.1976,16.318251 0.38612,5.874959 1.14119,16.081749 1.67795,22.681749 0.53675,6.6 1.01004,12.98036 1.05176,14.17857 0.12515,3.59491 2.54768,5.20196 6.95126,4.61131 2.48507,-0.33331 4.96061,0.0245 6.77093,0.97882 4.28799,2.2603 13.55022,4.7313 17.73471,4.7313 3.15625,0 4.37511,-0.72717 8.22596,-4.90762 2.48638,-2.69919 5.62109,-5.1838 6.96603,-5.52136 3.07086,-0.77073 8.41529,-8.0153 8.46239,-11.47106 0.0195,-1.42998 0.67854,-3.72496 1.46456,-5.09996 0.78602,-1.375 1.44508,-3.57679 1.46456,-4.89286 0.0349,-2.3567 7.27794,-10.36147 11.46697,-12.67294 1.79308,-0.989398 1.83676,-1.404307 0.6094,-5.78802 -0.80341,-2.869496 -2.34592,-5.487718 -3.93154,-6.673317 -4.81771,-3.602303 -5.2824,-4.203257 -4.76882,-6.167199 C 432.23312,78.39256 420.22244,68 415.38538,68 413.28829,68 398.06219,63.152274 396.5,61.98722 c -0.55,-0.410179 -3.64749,-1.505114 -6.88331,-2.433189 -6.74781,-1.93536 -6.45516,-3.86102 0.38331,-2.52216 2.475,0.484565 5.2875,0.900625 6.25,0.924578 2.86875,0.07139 2.09718,-4.239566 -1.79358,-10.021206 C 391.07585,42.911734 390.5782,40 393.10019,40 c 0.63963,0 3.20634,2.043373 5.7038,4.540829 2.607,2.607007 5.13228,4.313869 5.92962,4.0079 C 408.5471,47.085357 394.7455,33.206635 380.5,24.179695 368.72051,16.715392 367.24104,15.415672 368.7598,13.865913 c 1.39777,-1.426297 5.44887,0.396927 23.2402,10.459399 7.9405,4.49101 10.68892,6.752103 16.74249,13.773863 3.98338,4.620454 8.19196,10.325601 9.35242,12.678104 C 420.10609,54.854411 424.16077,58 427.40503,58 c 2.05865,0 3.09054,-6.139652 1.70155,-10.12411 -1.56576,-4.491546 -1.37242,-7.836646 0.49434,-8.552992 1.96616,-0.754485 2.52014,0.112796 6.50062,10.177102 1.74022,4.4 3.60527,8.557545 4.14456,9.23899 1.36455,1.724263 2.7539,0.601533 2.7539,-2.225427 0,-2.650356 4.57939,-6.855986 6.36754,-5.847834 0.62285,0.351164 1.93059,1.3244 2.90609,2.162747 2.26281,1.944676 3.29896,0.814205 4.09213,-4.464656 0.5798,-3.858848 0.38723,-4.314848 -2.87214,-6.800891 -6.52002,-4.973062 -3.97586,-10.384866 4.27032,-9.083586 13.53214,2.135426 14.46906,2.169791 18.94873,0.695026 3.81044,-1.254446 5.34126,-1.289645 9.65776,-0.222066 2.82126,0.69777 6.15478,1.912656 7.40782,2.699745 1.25303,0.78709 2.82803,1.120426 3.5,0.740746 C 500.56055,34.538195 503,31.397259 503,29.025686 503,25.497908 504.71998,24 508.77077,24 c 1.85392,0 5.92642,-1.324877 9.05,-2.94417 C 536.96985,11.128756 549,6.8139432 549,9.8728818 c 0,2.3170682 -4.20848,9.9526762 -6.91447,12.5451732 -1.67161,1.60151 -3.5554,4.52511 -4.18618,6.49689 -0.63078,1.97178 -2.14289,4.935055 -3.36023,6.585055 -2.64632,3.586865 -5.65021,12.046938 -4.9372,13.905012 0.27946,0.728248 1.57663,1.810942 2.88261,2.405985 1.32321,0.602895 3.25968,3.082987 4.37381,5.601661 2.34827,5.308649 1.84943,10.891702 -2.15094,24.073548 l -2.42362,7.986206 -6.5692,4.013794 c -3.61306,2.207587 -6.79822,4.247599 -7.07812,4.53336 -0.27991,0.285761 -1.83644,5.099724 -3.45897,10.697694 -1.62252,5.59796 -3.90121,11.38735 -5.06376,12.86529 -2.24565,2.85487 -2.98452,10.76124 -1.11373,11.91745 0.55,0.33992 1,2.19606 1,4.12476 0,1.9287 0.42418,4.29931 0.94262,5.26803 1.11877,2.09043 -1.04719,9.1534 -3.9315,12.82021 -2.07314,2.63557 -7.34073,6.70763 -10.55222,8.1573 -3.45204,1.55825 -4.59696,3.7655 -4.27001,8.232 l 0.31111,4.2501 5.51257,1.0955 c 8.91043,1.77075 16.08504,7.24938 14.59127,11.14209 -0.30259,0.78854 -0.04,2.55338 0.58351,3.92186 0.82918,1.81985 0.83874,3.13547 0.0356,4.89819 -0.65035,1.42738 -0.77874,3.56801 -0.31486,5.25 0.72219,2.61866 1.11557,2.81809 5.04824,2.55937 2.34577,-0.15433 4.89023,0.23827 5.65435,0.87244 1.99009,1.65162 1.71342,6.84959 -0.60681,11.40057 -2.99097,5.86662 -0.95204,6.69106 4.0866,1.65242 4.64125,-4.64126 7.71917,-5.85227 10.75066,-4.22987 1.11507,0.59677 3.52373,1.08503 5.35259,1.08503 2.15925,0 3.73266,0.65246 4.48726,1.86076 0.77917,1.24764 2.91778,2.09108 6.49055,2.55978 2.93066,0.38447 6.22848,1.27638 7.32848,1.98203 1.1,0.70564 4.41014,1.56318 7.35588,1.90564 7.29295,0.84783 8.14412,1.7753 8.14412,8.8741 0,5.75654 0.15293,6.09912 5.02039,11.24573 3.71653,3.92969 5.39822,6.70605 6.4752,10.69014 0.80014,2.96 1.71624,6.29027 2.03577,7.40059 0.75601,2.62702 -3.15463,8.45196 -7.01942,10.45552 -1.61867,0.83914 -3.77019,2.52738 -4.78114,3.75164 -1.01095,1.22426 -3.72645,2.76988 -6.03445,3.43471 -2.30799,0.66483 -5.06568,1.78785 -6.1282,2.49559 C 564.43108,284.07974 562,282.86708 562,280.37756 562,279.6199 561.325,279 560.5,279 c -0.94215,0 -1.5,0.95071 -1.5,2.55637 0,1.53998 -1.15786,3.62734 -2.91217,5.25 -1.68383,1.55747 -3.40549,4.59172 -4.08173,7.19363 -2.5767,9.91418 -9.24148,17 -15.98987,17 -2.41801,0 -3.34799,0.8364 -5.91114,5.31633 -1.67294,2.92398 -4.00524,6.18648 -5.1829,7.25 C 521.00857,327.10064 513,337.75869 513,339.43276 c 0,0.90704 1.37366,4.28857 3.05257,7.5145 2.91222,5.59565 2.98416,6.01906 1.56446,9.20903 -2.42271,5.44372 -4.80431,7.5493 -9.29834,8.2207 -3.82977,0.57216 -4.36109,0.37221 -6.31954,-2.37819 -3.11515,-4.37481 -5.29134,-5.27141 -8.67549,-3.57431 -1.55301,0.77881 -6.64866,3.19376 -11.32366,5.36654 -25.55003,11.8748 -34,16.46579 -34,18.47268 0,1.78789 0.46711,1.94411 4.25904,1.42437 2.34247,-0.32107 6.19589,-0.14858 8.56316,0.38331 3.47327,0.78039 4.84989,0.64467 7.13145,-0.70308 2.64757,-1.56396 3.16812,-1.55967 8.18685,0.0675 2.94772,0.9557 6.28497,2.59529 7.4161,3.64355 2.72303,2.52353 10.49286,3.55704 14.44243,1.92107 2.53075,-1.04827 3.34654,-1.0208 4.77649,0.16084 0.94846,0.78376 3.02044,2.07544 4.6044,2.8704 1.58395,0.79496 3.59281,2.94033 4.46412,4.7675 1.17137,2.45639 2.07783,3.19305 3.47836,2.8268 1.19438,-0.31234 2.75884,0.4377 4.23474,2.03022 1.28733,1.38905 4.9416,3.58267 8.1206,4.87471 6.74752,2.7424 6.90813,3.09289 8.19244,17.87756 0.83684,9.63345 0.78256,10.07747 -1.95595,16 -1.54916,3.35036 -3.69972,7.39326 -4.77901,8.98422 -1.57437,2.32073 -1.75093,3.35667 -0.89301,5.2396 0.81018,1.77815 0.69705,3.29472 -0.46682,6.25764 -0.84489,2.15088 -1.32015,5.04073 -1.05612,6.42188 0.34483,1.80388 -0.0817,2.81185 -1.51443,3.5786 -2.59093,1.38663 -4.44334,6.47113 -2.91457,7.9999 1.86429,1.86429 -0.61087,3.5437 -3.18913,2.16386 -1.73217,-0.92703 -2.87938,-0.69309 -6.35736,1.29639 -8.74531,5.00253 -14.42692,5.89894 -19.79482,3.12309 -2.50305,-1.29438 -3.64343,-1.34582 -7.07076,-0.31897 -2.24751,0.67337 -4.31269,1.81405 -4.58928,2.53483 -0.27659,0.72079 -1.41414,1.31053 -2.52787,1.31053 -1.11374,0 -3.4281,0.86243 -5.14302,1.91652 -1.71491,1.05408 -6.84047,2.4573 -11.39012,3.11827 -8.1885,1.18961 -8.31228,1.17515 -12.25,-1.43071 -2.58656,-1.71171 -4.00316,-3.41447 -4.05011,-4.86827 -0.041,-1.26897 -1.56656,-3.47813 -3.52789,-5.10867 l -3.4557,-2.87285 -7.35106,3.7312 c -6.28617,3.1907 -7.93779,3.63208 -11.40135,3.04691 -2.57395,-0.43486 -6.29636,-0.10888 -10.21223,0.89432 -3.38906,0.86824 -6.53136,1.35029 -6.9829,1.07122 -0.45154,-0.27907 -4.10197,0.18278 -8.11206,1.02633 -4.0101,0.84355 -7.98713,1.20297 -8.83785,0.7987 -0.85072,-0.40427 -6.35251,-0.75482 -12.2262,-0.779 -10.43979,-0.043 -10.74876,-0.11028 -13.76841,-2.9987 l -3.08897,-2.95473 -3.22427,1.90462 c -2.2195,1.31109 -4.9263,1.86477 -8.68605,1.77674 -3.00399,-0.0703 -6.92757,0.48456 -8.71907,1.2331 -5.60792,2.34314 -11.49593,2.76836 -15.42396,1.11389 -2.73142,-1.15047 -5.00377,-1.31666 -9.5,-0.69481 -9.87818,1.3662 -19.61687,-0.9023 -26.50529,-6.17408 -1.97633,-1.5125 -4.77584,-2.75 -6.22113,-2.75 -2.20153,0 -2.97835,0.81485 -4.78868,5.02308 -3.04397,7.07589 -6.8212,10.00569 -12.72146,9.86735 -2.5703,-0.0603 -6.59268,-0.48797 -8.93863,-0.95047 z M 316.72713,392 c 1.39842,-1.1 3.12424,-2 3.83515,-2 5.17457,0 8.21615,-17.35541 4.6497,-26.53143 -1.48027,-3.80856 -1.70418,-5.63104 -0.95906,-7.80607 1.21544,-3.54788 0.44771,-4.24896 -5.48818,-5.01172 -4.47619,-0.57519 -4.81735,-0.44973 -6.23571,2.29308 -1.57065,3.0373 -2.01795,6.19078 -1.71192,12.06901 0.13438,2.5811 0.77969,3.7751 2.43289,4.5015 1.83703,0.80716 2.22279,1.72252 2.10174,4.98712 -0.18662,5.03281 -1.84134,15.43773 -2.82259,17.74851 -1.01041,2.37943 1.00801,2.25923 4.19798,-0.25 z m 88.73872,0.25 c -0.41146,-0.9625 -1.11821,-4.45 -1.57055,-7.75 -0.45234,-3.3 -1.27579,-7.52657 -1.82989,-9.39237 -1.14949,-3.87062 -0.75931,-4.89331 2.31246,-6.0612 1.85214,-0.70418 2.22027,-1.70683 2.42526,-6.60543 0.13292,-3.17638 -0.26753,-7.3181 -0.88987,-9.20383 -1.00203,-3.03617 -1.43381,-3.35581 -3.7724,-2.79268 -3.02103,0.72746 -3.86384,0.77261 -6.64086,0.35574 -1.80591,-0.27109 -1.97103,0.18615 -1.70151,4.71158 0.17429,2.92639 -0.34583,6.55392 -1.25,8.71788 -1.78479,4.27162 -1.85937,11.10542 -0.19918,18.25263 1.02671,4.42003 1.6648,5.25949 5.654,7.43827 2.47318,1.35078 4.64669,2.82124 4.83002,3.26769 0.18334,0.44644 1.01898,0.81172 1.85699,0.81172 1.06944,0 1.30063,-0.5217 0.77553,-1.75 z m -31.78957,-33.84878 c 0.7926,-2.06548 -1.85645,-10.62794 -3.45269,-11.16002 -1.64547,-0.54849 -1.66683,9.91556 -0.0236,11.5588 1.63411,1.63411 2.74509,1.50667 3.47628,-0.39878 z M 340.10031,254.25 c 1.05089,-2.75022 0.87436,-5.24342 -0.90277,-12.75 -1.29826,-5.4838 -2.22626,-7.5 -3.45206,-7.5 -0.68882,0 -0.82374,2.82045 -0.39914,8.34435 1.11213,14.46832 2.47272,17.87574 4.75397,11.90565 z m 41.3132,1.11478 C 382.59858,252.27655 383.34505,236 382.30162,236 c -2.99189,0 -6.04315,14.41094 -4.07585,19.25 0.89366,2.19817 2.3679,2.25126 3.18774,0.11478 z M 306,246.125 c 0,-2.13125 0.28125,-5.28125 0.625,-7 1.03829,-5.19145 -1.21619,-3.5543 -3.02512,2.19677 C 301.85825,246.85885 302.22278,250 304.60699,250 305.55801,250 306,248.7705 306,246.125 z m 109,0.81598 C 415,246.42344 414.55,246 414,246 c -0.55,0 -1,0.70156 -1,1.55902 0,0.85746 0.45,1.2809 1,0.94098 0.55,-0.33992 1,-1.04148 1,-1.55902 z m -1,-10.38196 c 0,-1.34254 -0.45,-2.7191 -1,-3.05902 -0.58342,-0.36058 -1,0.65628 -1,2.44098 0,1.68246 0.45,3.05902 1,3.05902 0.55,0 1,-1.09844 1,-2.44098 z M 234.96921,232.89903 C 238.70232,230.95322 240.25638,229 238.07143,229 c -2.04853,0 -4.07466,-3.3468 -4.12963,-6.82143 -0.0777,-4.91096 -4.75627,-14.02298 -8.24096,-16.05018 -2.70158,-1.57162 -2.86639,-1.54124 -4.72776,0.87161 -2.05214,2.66013 -2.5173,6.59202 -1.05342,8.90425 0.59693,0.94286 -0.0652,3.16813 -2.01531,6.77254 -3.52132,6.50868 -3.5339,6.78457 -0.4498,9.86866 3.26633,3.26634 11.60351,3.43465 17.51466,0.35358 z m 265.21377,-1.77122 c 3.15388,-2.81799 3.18248,-2.9211 1.51578,-5.46481 C 500.76444,224.23705 500,222.11241 500,220.94156 c 0,-1.2878 -0.79012,-2.33542 -2,-2.65181 -2.36928,-0.61958 -2.59446,-2.5515 -0.5,-4.28975 2.12587,-1.76432 1.85645,-4.04208 -0.8831,-7.46604 -2.14282,-2.67816 -2.62369,-2.8519 -4.9543,-1.79 -3.29652,1.50199 -6.5047,7.79226 -7.83972,15.37129 -0.84515,4.79798 -1.53825,6.1957 -3.61083,7.28163 l -2.56492,1.3439 2.42643,1.30867 c 1.33454,0.71977 3.55144,1.90032 4.92644,2.62345 1.375,0.72313 4.6304,1.31755 7.23422,1.32094 3.80572,0.005 5.36468,-0.55715 7.94876,-2.86603 z M 231,392.05902 C 231,391.47656 231.45,391 232,391 c 0.55,0 1,0.19844 1,0.44098 0,0.24254 -0.45,0.7191 -1,1.05902 -0.55,0.33992 -1,0.14148 -1,-0.44098 z M 354.25,57.779505 c -3.088,-1.489286 -2.82006,-4.237401 0.65437,-6.711411 3.81072,-2.71347 4.93933,-2.609387 6.14695,0.566885 0.76152,2.00296 0.63013,3.202247 -0.5478,5 -1.69192,2.582185 -2.83774,2.791895 -6.25352,1.144526 z"
     id="path2987"
     inkscape:connector-curvature="0" />
</svg>
