<?xml version="1.0" encoding="UTF-8" standalone="no"?>
<!-- Created with Inkscape (http://www.inkscape.org/) -->

<svg
   xmlns:dc="http://purl.org/dc/elements/1.1/"
   xmlns:cc="http://creativecommons.org/ns#"
   xmlns:rdf="http://www.w3.org/1999/02/22-rdf-syntax-ns#"
   xmlns:svg="http://www.w3.org/2000/svg"
   xmlns="http://www.w3.org/2000/svg"
   xmlns:sodipodi="http://sodipodi.sourceforge.net/DTD/sodipodi-0.dtd"
   xmlns:inkscape="http://www.inkscape.org/namespaces/inkscape"
   id="svg2"
   version="1.1"
   inkscape:version="0.48.1 r9760"
   width="720"
   height="504"
   sodipodi:docname="01_Card I_gray.svg">
  <metadata
     id="metadata8">
    <rdf:RDF>
      <cc:Work
         rdf:about="">
        <dc:format>image/svg+xml</dc:format>
        <dc:type
           rdf:resource="http://purl.org/dc/dcmitype/StillImage" />
        <dc:title />
      </cc:Work>
    </rdf:RDF>
  </metadata>
  <defs
     id="defs6" />
  <sodipodi:namedview
     pagecolor="#ffffff"
     bordercolor="#666666"
     borderopacity="1"
     objecttolerance="10"
     gridtolerance="10"
     guidetolerance="10"
     inkscape:pageopacity="0"
     inkscape:pageshadow="2"
     inkscape:window-width="1360"
     inkscape:window-height="695"
     id="namedview4"
     showgrid="false"
     showborder="false"
     inkscape:showpageshadow="false"
     inkscape:zoom="1"
     inkscape:cx="356.75438"
     inkscape:cy="315.70012"
     inkscape:window-x="0"
     inkscape:window-y="24"
     inkscape:window-maximized="1"
     inkscape:current-layer="layer13"
     inkscape:object-paths="true"
     inkscape:snap-nodes="true" />
  <g
     inkscape:groupmode="layer"
     id="W"
     inkscape:label="W"
     style="display:inline"
     sodipodi:insensitive="true">
    <path
       style="fill:#ababab;stroke:#000000;stroke-width:0.5;stroke-linejoin:round;stroke-miterlimit:4;stroke-opacity:1;stroke-dasharray:none;display:inline"
       d="m 161.46875,26 c -3.63153,0 -6.48327,2.617309 -6.6875,6.125 -0.40427,6.943485 0.32376,9.627466 3.71875,13.59375 1.925,2.248929 3.5,4.779397 3.5,5.625 0,0.845602 1.575,4.246738 3.5,7.53125 1.925,3.284512 3.5,6.521744 3.5,7.21875 0,0.697007 0.94184,2.273844 2.09375,3.5 2.97911,3.171114 1.82389,5.547169 -4.875,10 -6.52098,4.334573 -11.1482,9.141438 -11.1875,11.59375 -0.0287,1.790346 -4.50661,5.8125 -6.46875,5.8125 -0.64793,0 -2.39488,1.267577 -3.875,2.8125 -2.42429,2.53043 -2.66635,3.44126 -2.4375,9.21875 l 0.25,6.40625 -4,1.34375 c -2.2,0.73709 -7.72389,1.81474 -12.28125,2.40625 -6.6165,0.85879 -8.99625,1.6746 -11.84375,3.9375 -2.15568,1.71312 -8.17753,4.27387 -15.21875,6.5 -6.406335,2.02541 -12.33125,4.23377 -13.15625,4.90625 -1.525915,1.2438 -11.970917,6.34678 -22.09375,10.78125 -3.076414,1.34767 -7.936096,4.05263 -10.8125,6.03125 C 48.164305,154.73461 42.502388,156.9874 38.875,157 c -0.885749,0.003 -3.233993,1.1319 -5.25,2.5 -2.016008,1.3681 -4.836925,2.77034 -6.25,3.125 -2.847158,0.71459 -6.3692,5.70785 -6.375,9.03125 -0.0021,1.17866 -0.667236,2.37993 -1.46875,2.6875 -2.101937,0.80659 -6.54925,8.20648 -6.53125,10.875 0.0322,4.77277 1.191369,5.27283 13.09375,5.5 8.876073,0.16941 12.371886,-0.1909 17,-1.75 6.573004,-2.21429 9.993782,-2.47497 11.59375,-0.875 0.790187,0.79019 1.648521,0.79019 3.125,0 3.100082,-1.65911 4.72098,-1.34943 8.21875,1.59375 2.922768,2.45935 3.320579,2.55873 4.4375,1.03125 1.733018,-2.37004 13.541163,-0.99092 16.78125,1.96875 3.474145,3.17347 10.225338,3.71235 16.5,1.3125 2.8934,-1.10663 6.61919,-2 8.25,-2 1.6308,0 4.41796,-0.90206 6.21875,-2 3.98188,-2.42776 6.83493,-2.46766 19.40625,-0.34375 l 9.75,1.625 3.0625,-3.625 c 3.30447,-3.93588 6.42576,-5.11476 4.625,-1.75 -0.78025,1.4579 -0.50316,2.66458 1.25,5.25 1.252,1.84635 2.60016,4.13125 2.96875,5.09375 0.36859,0.9625 1.45773,1.742 2.4375,1.75 3.99206,0.0343 4.78575,1.55863 3,5.6875 -0.9101,2.10427 -1.78274,5.1625 -1.9375,6.8125 -0.27536,2.9357 -0.41751,3.00561 -6.03125,3.125 -5.00133,0.10635 -6.20319,0.555 -9.5625,3.5 -2.11929,1.8579 -5.18071,5.28026 -6.78125,7.59375 -2.70032,3.90318 -3.17966,4.14156 -6.5,3.625 -6.36191,-0.98977 -9.47841,5.48356 -4.53125,9.375 1.90139,1.49563 2.49557,3.20116 3.09375,8.8125 0.40841,3.83124 1.18628,7.78187 1.71875,8.78125 1.46633,2.75216 -1.05844,5.75828 -7.6875,9.1875 -4.20536,2.17543 -6.14379,3.88663 -7.15625,6.28125 -0.76403,1.80702 -2.4818,3.71282 -3.8125,4.21875 -4.66774,1.77467 -5.88715,5.18496 -5.21875,14.65625 0.62951,8.92033 2.97065,15.48302 6.71875,18.875 2.22889,2.01712 2.53148,4.49977 0.78125,6.25 -1.39728,1.39728 0.57239,5.83371 3.21875,7.25 0.88702,0.47472 7.33339,1.10674 14.3125,1.40625 14.11649,0.60581 17.01275,1.65753 18,6.59375 0.78698,3.93494 -0.6406,7.46479 -3.9375,9.625 C 146.66031,341.45546 142,350.47293 142,354 c 0,1.07164 1.125,2.69281 2.5,3.59375 1.375,0.90093 2.51375,2.38201 2.53125,3.28125 0.0582,2.99191 2.85861,5.46569 6.46875,5.75 2.95959,0.23308 4.18303,-0.35963 7.8125,-3.90625 3.75512,-3.6694 5.78638,-6.64882 8.6875,-12.71875 1.19393,-2.49803 3.37569,-1.68569 4.03125,1.5 1.56827,7.62102 5.10076,9.31404 12.3125,5.875 4.01119,-1.9128 9.3083,-1.28097 12.78125,1.53125 l 2.40625,1.34375 c 6.53438,0.51278 5.02512,-3.03539 9.6875,-3.25 1.57348,0 3.91321,-0.70707 5.21875,-1.5625 2.1607,-1.41575 2.498,-1.40856 3.71875,0.0937 4.53856,5.5857 5.85558,6.46875 9.625,6.46875 4.41102,0 8.77288,3.70918 10.0625,8.53125 0.68416,2.55816 1.62415,3.38186 6.09375,5.4375 1.30912,0.60208 2.08938,1.74406 4.09375,6.03125 0.38571,0.825 1.52244,1.5 2.5625,1.5 1.44824,0 2.02332,-0.9027 2.40625,-3.90625 0.275,-2.15701 1.03226,-4.12818 1.6875,-4.34375 1.76518,-0.58074 4.3125,5.06376 4.3125,9.5625 0,5.00031 2.20692,7.1988 4.84375,4.8125 0.99682,-0.90211 2.13388,-1.30362 2.53125,-0.90625 0.39737,0.39738 2.19905,0.59266 4,0.4375 4.79579,-0.41318 9.625,4.2835 9.625,9.375 0,2.98019 0.6594,4.31149 3.25,6.53125 1.7875,1.53162 7.075,6.13459 11.75,10.21875 9.7179,8.48972 26.61923,17.71875 32.4375,17.71875 1.89509,0 3.80949,0.5625 4.25,1.25 1.22979,1.91935 3.37549,7.77421 4.59375,12.5625 1.03641,4.07352 0.9499,4.43876 -1.53125,6.5 -1.45151,1.20585 -3.36082,4.45155 -4.25,7.25 -1.56646,4.93003 -1.56173,5.20468 0.6875,9.5 1.96286,3.74844 2.90421,4.50773 6.125,5.03125 2.08682,0.3392 4.30546,1.11796 4.9375,1.75 0.71644,0.71644 5.03027,1.15625 11.4375,1.15625 11.83524,0 12.54106,-0.47621 13.8125,-9.46875 0.79986,-5.65716 5.65077,-25.0253 7.78125,-31.03125 1.31852,-3.71697 1.69808,-4.00885 5.34375,-4.09375 2.53629,-0.0591 6.70969,-1.56157 11.8125,-4.25 4.34133,-2.28725 8.45224,-4.15625 9.125,-4.15625 1.23417,0 23.44186,-18.49104 26.6875,-22.21875 0.9625,-1.10546 1.75,-3.5816 1.75,-5.5 0,-5.26536 4.51477,-9.092 10.40625,-8.84375 2.4484,0.10317 5.09701,0.73464 5.90625,1.40625 2.2595,1.87522 4.6875,-1.16659 4.6875,-5.875 0,-4.02583 1.7232,-8.96875 3.125,-8.96875 1.39281,0 2.80856,3.5828 2.25,5.71875 -0.29468,1.12685 -0.0716,2.34618 0.53125,2.71875 2.09063,1.29208 4.95282,-0.50206 5.625,-3.5625 0.48143,-2.19193 1.60611,-3.45032 3.96875,-4.4375 1.98411,-0.82901 4.28505,-3.06809 5.84375,-5.65625 1.41926,-2.35665 3.02461,-4.94322 3.5625,-5.75 0.55931,-0.83889 3.25546,-1.69511 6.28125,-2 4.63533,-0.46707 5.51497,-0.92266 7.28125,-3.78125 1.65558,-2.67946 2.47829,-3.17479 4.53125,-2.6875 1.375,0.32637 4.63453,-0.14929 6.15625,1.125 3.16008,2.64625 -0.90393,2.04473 8.46875,3.71875 4.30271,0.39032 5.09273,0.0575 7.15625,-2.9375 3.68396,-3.18803 6.73756,-1.9587 10.21875,0.0312 3.30649,1.89016 7.49109,1.8838 9.40625,-0.0312 0.84975,-0.84975 2.00801,-3.32475 2.59375,-5.5 1.55468,-5.77367 3.59952,-5.01013 5.9375,2.25 0.65839,2.0445 2.45649,4.76372 4,6.0625 1.54351,1.29878 3.32962,3.36828 3.96875,4.5625 1.70266,3.18146 7.7261,2.97948 11.34375,-0.375 1.50688,-1.39726 2.75,-3.23338 2.75,-4.0625 0,-0.82913 1.2375,-2.56916 2.75,-3.875 2.66573,-2.3015 2.68965,-2.47762 1.125,-5.21875 -0.88776,-1.55528 -1.90118,-4.00168 -2.25,-5.46875 -0.36466,-1.53369 -2.07492,-3.57217 -4.03125,-4.78125 -3.9086,-2.41565 -4.59375,-3.7791 -4.59375,-9 0,-6.78281 3.28862,-8.193 19.90625,-8.5625 6.36813,-0.1416 11.89183,-0.3086 12.25,-0.375 0.35818,-0.0664 1.55118,-1.6583 2.65625,-3.53125 1.82579,-3.09449 1.87885,-3.59391 0.5,-5.5625 -1.3843,-1.97636 -1.36444,-2.35651 0.46875,-4.34375 4.16601,-4.51607 6.3731,-10.01132 7.4375,-18.65625 1.20523,-9.78867 0.20979,-13.49569 -4.1875,-15.6875 -1.35756,-0.67667 -3.60756,-2.88747 -5,-4.90625 -1.39243,-2.01878 -4.55625,-4.79873 -7.03125,-6.15625 -7.23745,-3.9697 -7.62013,-4.54164 -6.21875,-9.78125 0.66487,-2.48588 1.21875,-6.52061 1.21875,-8.96875 0,-3.6188 0.56876,-5.04269 3.0625,-7.59375 1.78543,-1.82647 2.83023,-3.76443 2.5,-4.625 C 588.25047,232.49931 588,231.45436 588,230.9687 c 0,-1.78234 -3.80417,-2.97743 -6.375,-2 -2.27368,0.86445 -2.85849,0.50707 -6,-3.75 -6.77253,-9.17745 -9.43331,-11.06771 -16.125,-11.40625 -5.55431,-0.28099 -6.02534,-0.4982 -6.3125,-2.8125 -0.17062,-1.375 -1.02145,-4.45863 -1.90625,-6.84375 -1.71647,-4.62705 -1.02899,-6.12015 2.875,-6.15625 2.39245,-0.0221 7.17637,-8.58738 6.4375,-11.53125 -1.00133,-3.98961 1.07123,-3.67293 4.5,0.65625 3.22433,4.07105 3.3327,4.09389 8.34375,3.5 2.79035,-0.33069 7.623,-1.27637 10.75,-2.09375 5.92878,-1.54973 9.73333,-0.97289 14.28125,2.125 1.08487,0.73899 3.33487,1.33875 5,1.34375 1.66512,0.005 5.40038,1.14427 8.3125,2.5 6.41806,2.98792 12.83082,2.531 17.25,-1.1875 2.12344,-1.78676 5.06161,-3.22369 9.62316,-3.51054 3.33856,-0.20994 5.59905,0.79174 5.90809,1.29179 0.97792,1.5823 4.05717,0.99055 6,-1.15625 1.46583,-1.61972 2.59258,-1.95556 5.1875,-1.46875 1.82422,0.34223 4.80335,0.0962 6.625,-0.5625 2.90346,-1.0499 4.18045,-0.88181 10.25,1.4375 5.55603,2.12308 8.62455,2.65625 15.5625,2.65625 9.5087,0 17.8125,-2.55967 17.8125,-5.5 0,-0.8684 -2.475,-4.12043 -5.5,-7.21875 -3.13368,-3.20963 -5.5,-6.55303 -5.5,-7.75 0,-3.23475 -2.77111,-6.46419 -7,-8.15625 -2.10989,-0.84422 -4.08588,-2.15281 -4.375,-2.90625 -0.28912,-0.75344 -2.44668,-1.85646 -4.8125,-2.46875 -7.66235,-1.98308 -13.17773,-4.37465 -16.28125,-7.0625 -2.73516,-2.36884 -14.5206,-8.01008 -38.34375,-18.34375 -4.56414,-1.97963 -8.76601,-3.5937 -9.34375,-3.5937 -1.74831,0 -8.14365,-3.15793 -11.75,-5.8125 -2.61735,-1.92658 -6.28131,-2.98334 -16,-4.59375 L 574.5,116.5 l 0,-7.125 c 0,-6.74024 -0.18907,-7.30942 -3.25,-10.25 C 569.46751,97.412595 567.49295,96 566.84375,96 565.03749,96 562,92.882962 562,91.03125 c 0,-2.04305 -5.14727,-7.424269 -11.46875,-12 -5.16318,-3.737311 -7.72491,-7.673753 -5.78125,-8.875 C 546.01173,69.37646 555,52.468846 555,50.875 c 0,-0.555813 1.77745,-3.151241 3.96875,-5.75 3.23186,-3.832794 4.0187,-5.551154 4.15625,-9.1875 0.31612,-8.357475 -2.78001,-10.764529 -12.3125,-9.5 -5.12803,0.680258 -10.19645,2.906213 -14.8125,6.53125 -1.55142,1.218349 -4.77659,2.171206 -8.5,2.53125 -3.3,0.319101 -8.025,1.242198 -10.5,2.03125 -2.475,0.789053 -7.43159,1.841524 -11.03125,2.34375 -7.18617,1.002616 -13.71387,3.68259 -15.34375,6.3125 -0.79694,1.285926 -0.60569,2.182927 0.8125,3.75 1.62501,1.795619 1.7224,2.55637 0.71875,5.90625 -1.16301,3.881782 -3.20972,6.451775 -9,11.3125 C 481.37327,68.652997 480,70.768116 480,72 c 0,1.204005 -0.66803,3.610669 -1.46875,5.34375 -0.80067,1.733121 -2.29157,5.40625 -3.34375,8.15625 -1.09245,2.855219 -2.87694,5.501479 -4.15625,6.15625 -1.23217,0.630642 -3.45357,2.469059 -4.9375,4.09375 -1.48392,1.624692 -3.90212,3.711651 -5.34375,4.65625 -1.71883,1.12622 -3.19458,3.60208 -4.3125,7.15625 -0.93764,2.981 -2.30962,5.9011 -3.03125,6.5 -0.72164,0.59891 -2.03442,3.31233 -2.9375,6.03125 -1.82375,5.49081 -8.19643,13.56608 -13.625,17.25 -3.12013,2.11738 -4.74875,2.4082 -13.71875,2.53125 -8.87797,0.12177 -10.25694,-0.0937 -10.8125,-1.625 -0.35041,-0.96588 -1.84409,-3.325 -3.3125,-5.25 -1.46841,-1.925 -3.72666,-5.3823 -5,-7.6875 -3.36842,-6.09807 -9.77398,-8.22407 -12.375,-4.09375 -0.827,1.31324 -0.65983,2.42831 0.65625,4.65625 2.48973,4.21477 2.1529,6.14125 -1.28125,7.4375 -5.69864,2.151 -4.84344,6.33835 1.9375,9.53125 4.02885,1.89704 4.89792,4.16458 2.53125,6.53125 -1.65717,1.65717 -8.05342,2.21859 -10.09375,0.875 -0.61361,-0.40408 -2.06021,-2.62074 -3.21875,-4.90625 -5.89813,-11.63557 -17.10287,-10.99139 -21.1875,1.21875 -0.88562,2.64737 -2.04804,4.97434 -2.59375,5.15625 -0.54571,0.1819 -2.0321,-2.19206 -3.3125,-5.28125 -4.96736,-11.98466 -15.05734,-12.14282 -21.125,-0.3125 -2.05393,4.0046 -3.54772,4.875 -8.34375,4.875 -7.14769,0 -8.61784,-4.8524 -2.28125,-7.5 6.50618,-2.71845 7.40565,-6.60945 2.1875,-9.5 -3.5924,-1.98998 -4.23058,-4.23879 -2.09375,-7.5 3.37086,-5.14458 1.36693,-7.31901 -5.15625,-5.5625 -3.5051,0.94382 -4.6358,2.12326 -9.96875,10.3125 l -6.03125,9.25 -8.875,-0.0937 c -9.80837,-0.10342 -16.2827,-2.42643 -18.5,-6.65625 -0.64777,-1.2357 -2.68562,-3.93592 -4.53125,-6 C 268.49813,125.68581 267,123.42018 267,122.71875 c 0,-0.70143 -1.50975,-4.41552 -3.34375,-8.25 -1.834,-3.83449 -3.62604,-8.18501 -4,-9.6875 -0.3934,-1.58056 -1.9175,-3.38318 -3.59375,-4.25 -1.59347,-0.824017 -3.8706,-2.726512 -5.0625,-4.25 -1.1919,-1.523489 -3.14959,-3.014197 -4.34375,-3.3125 -3.34521,-0.835634 -6.56938,-8.369091 -9.1875,-21.46875 -0.22137,-1.107613 -2.63519,-3.723089 -5.375,-5.8125 -3.50465,-2.672679 -5.47985,-5.150322 -6.6875,-8.3125 -1.59278,-4.170775 -1.60062,-4.746532 -0.0937,-7.90625 1.44861,-3.037773 1.44183,-3.558271 0.0937,-4.90625 C 223.64277,42.79902 219.18439,41.511475 209.59375,40 205.80159,39.402361 201.93578,38.500812 201,38 200.06423,37.499189 195.86311,36.678534 191.65625,36.15625 185.77828,35.426497 182.93179,34.45982 179.3125,32.0625 174.12363,28.625538 166.3647,26 161.46875,26 z m 276.0625,179.6875 c 1.49995,0.0239 2.47745,1.05157 2.46875,3.0625 -0.0218,5.05578 -5.83228,22.35453 -15.5,46.25 -2.55899,6.325 -5.41734,12.29934 -6.375,13.28125 -1.67103,1.7134 -1.81855,1.72643 -3.4375,-0.0625 C 413.75969,267.19353 413,265.8282 413,265.1875 413,263.43377 399.11204,248 397.53125,248 395.59169,248 393,245.17822 393,243.0625 c 0,-1.04031 2.43777,-3.48584 5.84375,-5.875 5.94091,-4.16731 11.38584,-10.06884 15.125,-16.40625 1.59446,-2.7024 1.87504,-4.10944 1.15625,-6 -1.43241,-3.76757 -0.14645,-5.04581 3.75,-3.6875 4.39723,1.53288 9.88883,0.50369 13.03125,-2.46875 2.09092,-1.97782 4.12505,-2.96135 5.625,-2.9375 z M 278.4375,206.125 c 1.38566,0.0377 2.96876,0.87672 4.5,2.34375 3.17537,3.0422 8.66551,4.20654 12.84375,2.75 3.44236,-1.20001 5.56128,-0.23347 4.65625,2.125 -1.59751,4.16304 0.63348,8.67651 7.875,15.9375 3.95928,3.96993 8.71724,8.35457 10.59375,9.75 2.88937,2.14862 3.32338,2.96547 2.75,5.25 -0.43739,1.7427 -1.57863,2.9087 -3.1875,3.3125 -2.62868,0.65976 -14.78332,13.88397 -17.6875,19.25 C 299.84433,268.57489 298.60448,270 298,270 c -1.46532,0 -6.02311,-9.89671 -11.03125,-24 -12.4287,-35.0001 -13.40181,-39.2385 -9.125,-39.84375 0.18852,-0.0267 0.3958,-0.0368 0.59375,-0.0312 z m 318.875,34 c -0.72756,-0.0122 -1.25092,0.43959 -2.25,1.34375 -1.1276,1.02046 -2.0625,2.57637 -2.0625,3.46875 0,2.52023 2.77217,5.8659 5.25,6.34375 4.19624,0.80925 4.75007,0.71868 6.75,-1.28125 3.21631,-3.21631 2.37084,-4.85972 -4.28125,-8.4375 -1.76716,-0.95046 -2.67869,-1.42532 -3.40625,-1.4375 z m -479.125,0.0625 c -1.48218,0.11208 -3.33292,0.89241 -5.46875,2.34375 -3.8031,2.58428 -4.68331,5.12919 -2.53125,7.28125 3.4464,3.4464 11.8125,-0.18906 11.8125,-5.125 0,-2.86535 -1.1733,-4.38787 -3.1875,-4.5 -0.19582,-0.0109 -0.41326,-0.016 -0.625,0 z m 239.25,6.25 c 3.95661,-0.68134 9.45688,4.97239 9.40625,9.40625 -0.0548,4.7955 -2.74508,6.35855 -3.8125,8.46875 -3.53022,7.12772 -4.88288,8.45692 -9.875,2.25 -0.96208,-3.95166 -1.33985,-7.31902 -1.3125,-10.28125 -0.86808,-7.39984 1.87447,-9.20327 5.59375,-9.84375 z M 460.78125,295.25 c 0.25682,-0.0201 0.48739,-0.0157 0.71875,0 1.54239,0.10452 2.5,0.98984 2.5,2.5625 0,2.34198 -6.69007,12.77984 -11.8125,18.4375 -2.11856,2.33992 -5.45447,6.97015 -7.4375,10.28125 -1.98304,3.3111 -6.06929,8.13893 -9.0625,10.75 -4.35961,3.80301 -5.55639,5.55371 -6.0625,8.71875 -0.49439,3.09173 -1.45984,4.48785 -4.375,6.46875 -3.7945,2.57844 -7.64346,3.19673 -10.125,1.625 -1.02146,-0.64696 -1.1933,-2.06461 -0.6875,-5.4375 0.49541,-3.30364 0.21756,-5.39135 -0.9375,-7.625 -1.76921,-3.42126 -1.28418,-8.93952 1.125,-12.78125 0.80614,-1.2855 1.70588,-6.35215 2.0625,-11.78125 0.34428,-5.24111 1.11615,-9.84632 1.71875,-10.21875 0.6026,-0.37242 6.01833,-1.95159 12.03125,-3.5 6.01291,-1.54842 11.55415,-3.30812 12.3125,-3.9375 0.75835,-0.62937 3.90683,-1.28209 7,-1.4375 3.09318,-0.1554 6.8674,-0.80009 8.40625,-1.4375 0.96039,-0.39781 1.85455,-0.62727 2.625,-0.6875 z m -207.34375,0.21875 c 1.0405,0.0183 2.56364,0.34099 5.09375,1 3.2396,0.84381 7.2693,1.53125 8.96875,1.53125 1.69944,0 3.54,0.41904 4.0625,0.9375 0.5225,0.51846 2.7375,1.39292 4.9375,1.9375 9.64426,2.38728 16.06019,4.33827 16.90625,5.15625 1.28975,1.24695 0.97854,25.99021 -0.34375,27.3125 C 292.47561,333.93064 292,336.01789 292,338 c 0,2.76371 -0.78363,4.36142 -3.3125,6.8125 -5.57863,5.40703 -6.71605,4.58759 -14.5625,-10.15625 -5.04526,-9.48029 -9.60381,-16.33321 -15.6875,-23.65625 -2.51304,-3.025 -5.47967,-7.24186 -6.59375,-9.375 -1.74019,-3.33194 -1.83268,-4.07357 -0.625,-5.28125 0.60385,-0.60384 1.17825,-0.89332 2.21875,-0.875 z m 259.3125,65.9375 c -1.43741,-0.0234 -2.45184,0.54706 -2.9375,1.53125 -0.12753,2.12878 1.76578,4.13796 2.71875,4.90625 0,0 1.40195,1.2632 2.8125,1.25 1.23751,-0.0116 3.497,-0.74848 3.5,-1.9375 0.003,-1.42548 0.26657,-3.12475 -0.5625,-3.65625 -2.24333,-1.43815 -4.09384,-2.07031 -5.53125,-2.09375 z m -312.125,0.25 c -1.31363,0.0544 -3.06917,0.7181 -5.3125,2.15625 -0.82907,0.5315 -0.59684,2.16827 -0.59375,3.59375 0.003,1.18902 1.82499,1.89466 3.0625,1.90625 1.41055,0.0132 2.8125,-1.28125 2.8125,-1.28125 0.95297,-0.76829 2.84628,-2.74622 2.71875,-4.875 -0.48566,-0.98419 -1.37387,-1.55438 -2.6875,-1.5 z M 233.21875,375 c -5.54997,0 -9.06386,5.07069 -4.375,6.3125 3.52596,0.93383 5.12702,0.61473 6.125,-1.25 1.82653,-3.41291 1.25037,-5.0625 -1.75,-5.0625 z M 480,375 c -2.64147,0 -3.21623,1.42523 -1.84375,4.4375 1.1695,2.56677 3.81151,3.28823 7.25,1.96875 C 489.3806,379.88115 485.26405,375 480,375 z m 81.4375,5 c -2.36407,0 -6.4375,3.10852 -6.4375,4.90625 0,0.49038 1.06572,1.14015 2.375,1.46875 1.30928,0.32861 2.63312,1.55479 2.9375,2.71875 0.80057,3.06139 3.02347,1.83227 3.875,-2.15625 1.01696,-4.76335 0.15659,-6.9375 -2.75,-6.9375 z m -409.34375,0.0625 c -1.18778,0.03 -2.27376,0.46868 -3,1.34375 -1.05472,1.27085 -0.87318,4.22993 0.5625,8.59375 0.37961,1.15384 1.01834,0.86537 2.71875,-1.25 1.2158,-1.5125 2.70937,-2.75 3.34375,-2.75 2.11743,0 2.49171,-2.10341 0.71875,-4.0625 -1.15491,-1.27617 -2.81661,-1.91361 -4.34375,-1.875 z m -7.25,12.9375 c -2.41322,0 -3.46324,2.54864 -1.84375,4.5 1.59971,1.9275 4.91252,1.93813 5.65625,0 0.75692,-1.9725 -1.38647,-4.5 -3.8125,-4.5 z m 423,0.0937 c -0.59835,0.0493 -1.21955,0.45082 -2.3125,1.25 -1.1764,0.86022 -1.60511,2.00547 -1.1875,3.09375 0.82956,2.1618 4.55468,1.71438 6.0625,-0.71875 0.85104,-1.37329 0.75202,-1.98038 -0.40625,-2.71875 -0.98499,-0.62792 -1.5579,-0.95557 -2.15625,-0.90625 z"
       id="path3045"
       inkscape:connector-curvature="0"
       sodipodi:nodetypes="ssssssssssscccsssssscsscsssssssssssscccssscssssssssssssssssssssssssssscccscssssssssssssssssssssssssscssssssssscssssssssccccsssssssssssssssssssssssssssssssssssssssscsssssssssssscssccssssssssssssssssssscssssssssscsssssssssscssssssscccscsssssssscccsssssccscsssssssssccssssssssssccccsssssccsssscsscccsccssssssssssscssssccssssssssssssccccccsccscscccsssssssssssssscssssscsssscssssc" />
  </g>
  <g
     inkscape:groupmode="layer"
     id="layer1"
     inkscape:label="D1"
     style="display:inline"
     sodipodi:insensitive="true">
    <path
       style="fill:#0000ab;fill-opacity:1;stroke:#000000;stroke-width:0.5;stroke-linecap:butt;stroke-linejoin:round;stroke-miterlimit:4;stroke-opacity:1;stroke-dasharray:none;display:inline"
       d="m 394.96875,118.96875 c -1.00741,0.064 -1.84605,0.46496 -2.84375,1.34375 -0.47106,0.84579 -1.20962,1.72325 -1.25,2.71875 l 1.65625,3.4375 1.03125,2.34375 c 0.0466,1.145 0.28455,2.446 -0.375,3.1875 l -3.15625,1.59375 c -1.17834,1.0222 -2.30199,2.00293 -2.78125,3.125 -0.23645,0.68002 0.22099,1.50439 0.46875,2.28125 1.3178,1.41167 1.58724,1.6791 2.75,2.6875 0.85602,0.46855 2.48387,1.18555 4.1875,2.125 l 1.90625,2.0625 16.75,-6.34375 L 403.6875,125 401.125,121.53125 398.75,119.75 c -1.61447,-0.55751 -2.77384,-0.84528 -3.78125,-0.78125 z m -72.09375,1.5 c -0.75694,-0.008 -1.93541,0.1247 -3.90625,0.46875 l -3.9375,1.375 -2.90625,3.34375 -9.75,14.9375 16.90625,6.03125 2.21875,-2.15625 c 1.70363,-0.93945 2.23773,-1.21895 3.09375,-1.6875 1.2699,-0.95483 3.49023,-1.55262 4.21875,-3.5 0.24776,-0.77686 -0.0761,-1.44498 -0.3125,-2.125 -0.47926,-1.12207 -1.54041,-2.1653 -2.71875,-3.1875 l -2.75,-1.65625 c -0.65955,-0.7415 -0.8591,-1.73 -0.8125,-2.875 l 0.75,-2.28125 2.0625,-3.53125 c 0.22747,-0.11157 0.29248,-1.32385 -0.3125,-2.25 -0.51408,-0.47016 -0.58218,-0.89365 -1.84375,-0.90625 z"
       id="path2997"
       inkscape:connector-curvature="0" />
  </g>
  <g
     inkscape:groupmode="layer"
     id="layer4"
     inkscape:label="D2"
     style="display:inline"
     sodipodi:insensitive="true">
    <path
       style="fill:#0000ab;fill-opacity:1;stroke:#000000;stroke-width:0.5;stroke-linejoin:round;stroke-miterlimit:4;stroke-opacity:1;stroke-dasharray:none;display:inline"
       d="m 554.28125,26.71875 c -0.99698,0.03904 -2.08969,0.154434 -3.28125,0.3125 -5.12803,0.68026 -10.19645,2.90622 -14.8125,6.53125 -1.55142,1.21835 -4.77659,2.1712 -8.5,2.53125 -3.3,0.3191 -8.025,1.2422 -10.5,2.03125 -2.475,0.78905 -7.43159,1.84152 -11.03125,2.34375 -7.18617,1.00262 -13.71387,3.68259 -15.34375,6.3125 -0.79694,1.28592 -0.60569,2.18292 0.8125,3.75 1.62501,1.79562 1.7224,2.55637 0.71875,5.90625 -1.16301,3.88178 -3.20972,6.45178 -9,11.3125 -1.78298,1.49675 -3.15625,3.61187 -3.15625,4.84375 0,1.20401 -0.63678,3.61067 -1.4375,5.34375 -0.80067,1.73313 -2.32282,5.40625 -3.375,8.15625 -1.09245,2.85522 -2.87694,5.50148 -4.15625,6.15625 -1.23217,0.63065 -3.45357,2.46906 -4.9375,4.09375 -1.48392,1.62469 -3.87087,3.71165 -5.3125,4.65625 -1.71883,1.12622 -3.22583,3.60208 -4.34375,7.15625 -0.93764,2.981 -2.27837,5.9011 -3,6.5 -0.72164,0.59891 -2.06567,3.31233 -2.96875,6.03125 -1.82375,5.49081 -8.19643,13.53483 -13.625,17.21875 -3.12013,2.11738 -4.74875,2.43945 -13.71875,2.5625 -6.33124,0.0868 -8.84218,0.0149 -9.96875,-0.59375 l 0.39275,71.076 7.21875,0.91175 c 8.32166,0.87577 10.77193,-2.59008 13.85725,-4.7065 0.91913,-0.51209 1.78267,-0.78032 2.53125,-0.84375 l 0.40625,-0.15625 0.0625,0.125 c 1.44476,0.0658 2.38351,1.09532 2.375,3.0625 -0.002,0.38745 -0.0564,0.87753 -0.125,1.40625 l 0.0937,0.21875 -0.21875,0.625 c -1.17164,6.90095 -6.69453,22.85366 -15.25,44 -0.27485,0.67933 -0.56433,1.30318 -0.84375,1.96875 l -8.29049,14.6385 1.18324,35.75124 9.18054,-2.63476 c 9.56278,-3.03526 21.61786,-6.5931 22.20796,-7.19248 l 13.0625,-3.09375 3.59375,0.59375 -0.65625,2.09375 c 0.0434,0.20934 0.0625,0.44569 0.0625,0.6875 0,0.65243 -0.54748,1.9637 -1.40625,3.59375 l -6.39774,8.63424 -22.17621,28.36672 -1.73855,2.15529 c -1.65851,1.85351 -2.32143,3.31242 -2.65625,5.40625 -0.29545,1.84761 -0.77642,3.09162 -1.71875,4.21875 l -0.5312,1.90625 -12.61399,1.77876 c 3.98116,17.29264 7.81853,34.72906 13.44225,50.37914 0.71045,-0.34812 4.10952,-5.99274 3.79674,-6.9704 -1.45371,-4.54395 4.51477,-9.092 10.40625,-8.84375 2.4484,0.10317 5.09701,0.73464 5.90625,1.40625 2.2595,1.87522 4.6875,-1.16659 4.6875,-5.875 0,-4.02583 1.7232,-8.96875 3.125,-8.96875 1.39281,0 2.80856,3.5828 2.25,5.71875 -0.29468,1.12685 -0.0403,2.34618 0.5625,2.71875 2.09063,1.29208 4.92157,-0.53331 5.59375,-3.59375 0.48143,-2.19193 1.60611,-3.41907 3.96875,-4.40625 1.98411,-0.82901 4.28505,-3.06809 5.84375,-5.65625 1.41926,-2.35665 3.02461,-4.94322 3.5625,-5.75 0.55931,-0.83889 3.25546,-1.69511 6.28125,-2 4.63533,-0.46707 5.54622,-0.95391 7.3125,-3.8125 1.65558,-2.67946 2.44704,-3.14354 4.5,-2.65625 1.375,0.32637 4.13944,0.84088 6.15625,1.125 4.08144,0.57497 7.48647,3.5944 8,7.125 0.18571,1.27682 1.58719,3.05929 3.09375,3.96875 2.47225,1.49243 2.88454,1.52171 4.28125,0.125 1.85112,-1.85111 1.02854,-4.5953 -1.625,-5.4375 -2.75978,-0.87592 -2.35363,-2.21442 1.34375,-4.46875 3.80773,-2.32162 7.26881,-2.49003 10.75,-0.5 3.30649,1.89016 7.49109,1.85265 9.40625,-0.0625 0.84975,-0.84975 2.00801,-3.32475 2.59375,-5.5 1.55468,-5.77367 3.59952,-4.97888 5.9375,2.28125 0.65839,2.0445 2.45649,4.76372 4,6.0625 1.54351,1.29878 3.32962,3.33703 3.96875,4.53125 1.70266,3.18146 7.7261,3.01073 11.34375,-0.34375 1.50688,-1.39726 2.75,-3.23338 2.75,-4.0625 0,-0.82913 1.2375,-2.56916 2.75,-3.875 2.66573,-2.3015 2.68965,-2.47762 1.125,-5.21875 -0.88776,-1.55528 -1.86993,-4.00168 -2.21875,-5.46875 -0.36466,-1.53369 -2.10617,-3.57217 -4.0625,-4.78125 -3.9086,-2.41565 -4.59375,-3.7791 -4.59375,-9 0,-6.78281 3.31987,-8.193 19.9375,-8.5625 6.36813,-0.1416 11.86058,-0.3086 12.21875,-0.375 0.35818,-0.0664 1.55118,-1.6583 2.65625,-3.53125 1.82579,-3.09449 1.87885,-3.59391 0.5,-5.5625 -1.3843,-1.97636 -1.33319,-2.35651 0.5,-4.34375 4.16601,-4.51607 6.34185,-10.04257 7.40625,-18.6875 1.20523,-9.78867 0.20979,-13.49569 -4.1875,-15.6875 -1.35756,-0.67667 -3.60756,-2.85622 -5,-4.875 -1.39243,-2.01878 -4.55625,-4.79873 -7.03125,-6.15625 -7.23745,-3.9697 -7.62013,-4.54164 -6.21875,-9.78125 0.66487,-2.48588 1.21875,-6.52061 1.21875,-8.96875 0,-3.6188 0.56876,-5.04269 3.0625,-7.59375 1.78543,-1.82647 2.83023,-3.76443 2.5,-4.625 -0.31203,-0.81314 -0.5625,-1.88934 -0.5625,-2.375 0,-1.78234 -3.80417,-2.97743 -6.375,-2 -2.27368,0.86445 -2.85849,0.50707 -6,-3.75 -6.77253,-9.17745 -9.43331,-11.03646 -16.125,-11.375 -5.55431,-0.28099 -6.02534,-0.4982 -6.3125,-2.8125 -0.17062,-1.375 -1.02145,-4.45863 -1.90625,-6.84375 -1.71647,-4.62705 -1.02899,-6.12015 2.875,-6.15625 2.39245,-0.0221 7.17637,-8.58738 6.4375,-11.53125 -1.00133,-3.98961 1.07123,-3.70418 4.5,0.625 3.22433,4.07105 3.3327,4.12514 8.34375,3.53125 2.79035,-0.33069 7.623,-1.27637 10.75,-2.09375 5.92878,-1.54973 9.73333,-0.97289 14.28125,2.125 1.08487,0.73899 3.33487,1.33875 5,1.34375 1.66512,0.005 5.43163,1.11302 8.34375,2.46875 6.41806,2.98792 12.79957,2.56225 17.21875,-1.15625 2.12344,-1.78676 4.3447,-2.46315 8.90625,-2.75 3.33856,-0.20994 6.31596,0.0312 6.625,0.53125 0.97792,1.5823 4.05717,0.99055 6,-1.15625 1.46583,-1.61972 2.59258,-1.95556 5.1875,-1.46875 1.82422,0.34223 4.80335,0.0962 6.625,-0.5625 2.90346,-1.0499 4.18045,-0.88181 10.25,1.4375 5.55603,2.12308 8.62455,2.65625 15.5625,2.65625 9.5087,0 17.8125,-2.55967 17.8125,-5.5 0,-0.8684 -2.475,-4.12043 -5.5,-7.21875 -3.1337,-3.20963 -5.5,-6.55303 -5.5,-7.75 0,-3.23475 -2.7711,-6.46419 -7,-8.15625 -2.10989,-0.84422 -4.08588,-2.15281 -4.375,-2.90625 -0.28912,-0.75344 -2.44668,-1.85646 -4.8125,-2.46875 -7.66235,-1.98308 -13.17773,-4.37465 -16.28125,-7.0625 -2.73516,-2.36884 -14.48935,-8.01008 -38.3125,-18.34375 -4.56414,-1.97976 -8.79726,-3.59375 -9.375,-3.59375 -1.74831,0 -8.14365,-3.15793 -11.75,-5.8125 -2.61735,-1.92658 -6.28131,-2.98334 -16,-4.59375 l -12.59375,-2.09375 0,-7.125 c 0,-6.74024 -0.18907,-7.30943 -3.25,-10.25 -1.78249,-1.71241 -3.75705,-3.125 -4.40625,-3.125 -1.80626,0 -4.84375,-3.11703 -4.84375,-4.96875 0,-2.04305 -5.14727,-7.42427 -11.46875,-12 -5.16318,-3.73731 -7.72491,-7.67375 -5.78125,-8.875 1.26173,-0.77979 10.25,-17.68741 10.25,-19.28125 0,-0.55582 1.8087,-3.15124 4,-5.75 3.23186,-3.83279 4.0187,-5.55115 4.15625,-9.1875 0.27661,-7.312786 -2.08363,-10.085792 -9.0625,-9.8125 z m -74.09375,348.875 c -2.64147,0 -3.21623,1.39398 -1.84375,4.40625 1.1695,2.56677 3.81151,3.28823 7.25,1.96875 3.97435,-1.5251 -0.1422,-6.375 -5.40625,-6.375 z"
       id="path3045-5"
       inkscape:connector-curvature="0"
       sodipodi:nodetypes="ssssssssssscssssssssscccccccccccsccccccccsccccsccccsssssssssssssssssssssssssssssssssscssssssssssssssssssssssscssscsssssssssssssssccssssssssssssss" />
  </g>
  <g
     inkscape:groupmode="layer"
     id="layer5"
     inkscape:label="D3"
     style="display:inline"
     sodipodi:insensitive="true">
    <path
       style="fill:#0000ab;fill-opacity:1;stroke:#000000;stroke-width:1px;stroke-linecap:butt;stroke-linejoin:miter;stroke-opacity:1;display:inline"
       d="M 358.28571,312.85714 C 342.21429,313.5 336,324.64285 336,324.64285 l -2.57143,34.50001 0.85714,29.14285 0.34353,45.71316 5.07635,17.03173 c -10.04157,10.32869 -13.94219,20.78269 6.58012,26.39797 L 367.5,477.03325 378.28081,433.60356 382.28571,364.28571 381,322.71429 c -7.5206,-6.50605 -14.05839,-10.06236 -22.71429,-9.85715 z"
       id="path4076"
       inkscape:connector-curvature="0"
       sodipodi:nodetypes="cccccccccccc" />
  </g>
  <g
     inkscape:groupmode="layer"
     id="layer6"
     inkscape:label="D4"
     style="display:inline"
     sodipodi:insensitive="true">
    <path
       style="fill:#0000ab;fill-opacity:1;stroke:#000000;stroke-width:0.5;stroke-linecap:butt;stroke-linejoin:miter;stroke-miterlimit:4;stroke-opacity:1;stroke-dasharray:none;display:inline"
       d="m 357.98921,151.91563 c -12.36783,-25.68102 -21.04509,-12.18744 -27.67847,-1.35372 -5.32171,0.9644 -12.1238,1.66579 -10.02508,-4.35107 0.96207,-2.75818 7.92491,-2.84863 8.83174,-8.72113 0.50766,-3.28751 -9.57306,-4.3011 -5.82526,-9.75698 4.78175,-6.96108 -0.3402,-8.5929 -6.74594,-6.3615 -2.57437,0.89677 -11.14005,14.22888 -14.59673,19.03329 -0.42475,8.35884 -1.63739,64.01349 -2.13501,70.57815 0.43992,4.25535 -0.84007,5.55765 1.43575,9.24381 7.57583,12.27066 24.60767,23.50637 20.61048,24.23812 l -8.49233,6.36925 -9.76618,11.46464 -4.67078,7.21848 -4.67078,35.66778 -0.42462,25.9016 -2.5477,10.61542 -4.56462,25.26467 -5.62617,31.20931 14.43696,15.71081 21.65544,14.43696 10.61541,3.39693 5.09539,0.42462 6.79387,17.40927 -6.79387,9.76618 -0.42461,6.79386 3.82155,7.21848 10.61541,3.39693 14.43696,0.42462 6.36924,-1.27385 2.5477,-6.36925 1.27385,-11.88926 5.52002,-25.05237 16.13542,-3.39693 16.98466,-10.19079 c 5.60411,-4.75488 11.41138,-9.53704 17.68818,-14.9646 l -5.2411,-16.45702 -8.20092,-33.96931 c 1.70654,-9.4168 -6.04242,-17.83246 1.34794,-32.28 l 1.19976,-16.55089 -1.52139,-36.32277 c -2.43503,-2.25795 -5.81249,-8.949 -11.64172,-15.33949 -3.82146,-1.71184 -4.00349,-4.63637 -7.36329,-4.94155 -2.96548,-1.10128 -2.88908,-3.34091 -3.4825,-6.23943 2.95689,-2.7271 6.67187,-4.06114 12.26638,-9.96544 2.10934,-2.22615 10.25277,-10.00184 10.3081,-14.46955 0.0139,-1.12183 -0.72218,-3.71911 -0.72731,-5.45973 -0.0219,-7.41805 0.48663,-18.39499 -0.297,-27.0912 -0.85409,-9.47808 1.01538,-40.25383 -2.42061,-46.47964 -4.52289,-8.19521 -8.83708,-16.19453 -11.55375,-18.38263 -1.9188,-1.54547 -6.76722,0.0189 -9.14071,0.89748 -3.48362,1.28954 5.10296,7.69576 1.54162,11.57273 -1.15937,1.26212 -4.39069,1.36875 -5.01598,3.15057 -2.68401,7.64837 5.44831,6.06441 8.26447,9.06255 4.51231,4.8039 -8.72922,7.50559 -9.5862,6.1873 -20.76726,-31.94622 -26.87621,-0.36365 -28.61567,0.97629 z"
       id="path3771-8"
       inkscape:connector-curvature="0"
       sodipodi:nodetypes="ccssssccsccccccccccccccccccccccccccccccccccsssssssssssc" />
  </g>
  <g
     inkscape:groupmode="layer"
     id="layer7"
     inkscape:label="D7"
     style="display:inline"
     sodipodi:insensitive="true">
    <path
       style="fill:#0000ab;fill-opacity:1;stroke:#000000;stroke-width:0.5;stroke-miterlimit:4;stroke-opacity:1;stroke-dasharray:none;display:inline"
       d="m 160.90809,25.987353 c -3.63153,0 -6.48327,2.617309 -6.6875,6.125 -0.40427,6.943485 0.32376,9.627466 3.71875,13.59375 1.925,2.248929 3.5,4.779397 3.5,5.625 0,0.845602 1.575,4.246738 3.5,7.53125 1.925,3.284512 3.5,6.521744 3.5,7.21875 0,0.697007 0.94184,2.273844 2.09375,3.5 2.97911,3.171114 1.82389,5.547169 -4.875,10 -6.52098,4.334573 -11.1482,9.141438 -11.1875,11.59375 -0.0287,1.790346 -4.50661,5.8125 -6.46875,5.8125 -0.64793,0 -2.39488,1.267577 -3.875,2.8125 -2.42429,2.530427 -2.66635,3.441257 -2.4375,9.218747 l 0.25,6.40625 -4,1.34375 c -2.2,0.73709 -7.72389,1.81474 -12.28125,2.40625 -6.6165,0.85879 -8.99625,1.6746 -11.84375,3.9375 -2.15568,1.71312 -8.17753,4.27387 -15.218748,6.5 -6.40633,2.02541 -12.33125,4.23377 -13.15625,4.90625 -1.52591,1.2438 -11.97091,6.34678 -22.09375,10.78125 -3.07641,1.34767 -7.93609,4.05263 -10.8125,6.03125 -4.92944,3.39086 -10.59136,5.64365 -14.21875,5.65625 -0.88575,0.003 -3.23399,1.1319 -5.25,2.5 -2.016,1.3681 -4.83692,2.77034 -6.25,3.125 -2.84715,0.71459 -6.3692,5.70785 -6.375,9.03125 -0.002,1.17866 -0.66723,2.37993 -1.46875,2.6875 -2.10193,0.80659 -6.54925,8.20648 -6.53125,10.875 0.0322,4.77277 1.19137,5.27283 13.09375,5.5 8.87608,0.16941 12.37189,-0.1909 17,-1.75 6.57301,-2.21429 9.99379,-2.47497 11.59375,-0.875 0.79019,0.79019 1.64852,0.79019 3.125,0 3.10009,-1.65911 4.72098,-1.34943 8.21875,1.59375 2.92277,2.45935 3.32058,2.55873 4.4375,1.03125 1.73302,-2.37004 13.54117,-0.99092 16.78125,1.96875 3.47415,3.17347 10.22534,3.71235 16.499998,1.3125 2.8934,-1.10663 6.61919,-2 8.25,-2 1.6308,0 4.41796,-0.90206 6.21875,-2 3.98188,-2.42776 6.83493,-2.46766 19.40625,-0.34375 l 9.75,1.625 3.0625,-3.625 c 3.30447,-3.93588 6.42576,-5.11476 4.625,-1.75 -0.78025,1.4579 -0.50316,2.66458 1.25,5.25 1.252,1.84635 2.60016,4.13125 2.96875,5.09375 0.36859,0.9625 1.45773,1.742 2.4375,1.75 3.99206,0.0343 4.78575,1.55863 3,5.6875 -0.9101,2.10427 -1.78274,5.1625 -1.9375,6.8125 -2.21449,3.04746 -0.0185,6.73532 4.38237,11.18873 6.60409,1.52832 11.46801,-4.38441 12.87678,-6.56305 l 80.92835,-105.18818 0.34375,-0.71875 c -0.81713,-1.95284 -1.4535,-3.62289 -1.65625,-4.4375 -0.3934,-1.58056 -1.9175,-3.38318 -3.59375,-4.25 -1.59347,-0.824014 -3.8706,-2.726509 -5.0625,-4.249997 -1.1919,-1.523489 -3.14959,-3.014197 -4.34375,-3.3125 -3.34521,-0.835634 -6.56938,-8.369091 -9.1875,-21.46875 -0.22137,-1.107613 -2.63519,-3.723089 -5.375,-5.8125 -3.50465,-2.672679 -5.47985,-5.150322 -6.6875,-8.3125 -1.59278,-4.170775 -1.60057,-4.746532 -0.0937,-7.90625 1.44861,-3.037773 1.44178,-3.558271 0.0937,-4.90625 -1.76348,-1.76348 -6.22186,-3.051025 -15.8125,-4.5625 -3.79216,-0.597639 -7.65797,-1.499188 -8.59375,-2 -0.93577,-0.500811 -5.13689,-1.321466 -9.34375,-1.84375 -5.87797,-0.729753 -8.72446,-1.69643 -12.34375,-4.09375 -5.18887,-3.436962 -12.9478,-6.0625 -17.84375,-6.0625 z"
       id="path3045-2"
       inkscape:connector-curvature="0"
       sodipodi:nodetypes="ssssssssssscccsssssscsscsssssssssssscccssscscccccsssssscccsssss" />
  </g>
  <g
     inkscape:groupmode="layer"
     id="layer8"
     inkscape:label="Dd21"
     style="display:inline"
     sodipodi:insensitive="true">
    <path
       sodipodi:nodetypes="ccssssccsccsssssssssssc"
       inkscape:connector-curvature="0"
       id="path4487"
       d="m 357.98921,151.91563 c -12.36783,-25.68102 -21.04509,-12.18744 -27.67847,-1.35372 -5.32171,0.9644 -12.1238,1.66579 -10.02508,-4.35107 0.96207,-2.75818 7.92491,-2.84863 8.83174,-8.72113 0.50766,-3.28751 -9.57306,-4.3011 -5.82526,-9.75698 4.78175,-6.96108 -0.3402,-8.5929 -6.74594,-6.3615 -2.57437,0.89677 -11.14005,14.22888 -14.59673,19.03329 -0.42475,8.35884 -1.63739,64.01349 -2.13501,70.57815 0.43992,4.25535 -0.84007,5.55765 1.43575,9.24381 7.57583,12.27066 24.60767,23.50637 20.61048,24.23812 6.34544,3.16941 49.39523,11.25032 71.10518,-2.5477 2.95689,-2.7271 6.67187,-4.06114 12.26638,-9.96544 2.10934,-2.22615 10.25277,-10.00184 10.3081,-14.46955 0.0139,-1.12183 -0.72218,-3.71911 -0.72731,-5.45973 -0.0219,-7.41805 0.48663,-18.39499 -0.297,-27.0912 -0.85409,-9.47808 1.01538,-40.25383 -2.42061,-46.47964 -4.52289,-8.19521 -8.83708,-16.19453 -11.55375,-18.38263 -1.9188,-1.54547 -6.76722,0.0189 -9.14071,0.89748 -3.48362,1.28954 5.10296,7.69576 1.54162,11.57273 -1.15937,1.26212 -4.39069,1.36875 -5.01598,3.15057 -2.68401,7.64837 5.44831,6.06441 8.26447,9.06255 4.51231,4.8039 -8.72922,7.50559 -9.5862,6.1873 -20.76726,-31.94622 -26.87621,-0.36365 -28.61567,0.97629 z"
       style="fill:#0000ff;fill-opacity:1;stroke:#000000;stroke-width:0.5;stroke-linecap:butt;stroke-linejoin:miter;stroke-miterlimit:4;stroke-opacity:1;stroke-dasharray:none;display:inline" />
  </g>
  <g
     inkscape:groupmode="layer"
     id="layer9"
     inkscape:label="Dd22"
     style="display:inline"
     sodipodi:insensitive="true">
    <path
       style="fill:#0000ff;fill-opacity:1;stroke:#000000;stroke-width:0.5;stroke-linecap:butt;stroke-linejoin:round;stroke-miterlimit:4;stroke-opacity:1;stroke-dasharray:none"
       d="m 330.46279,150.2415 c 8.64646,4.42938 19.01432,5.01269 28.47631,5.95889 15.42312,-0.6578 15.70036,-1.12254 26.28551,-6.07002 -6.55503,-11.56097 -14.11309,-17.91205 -21.40236,-9.49961 -7.64307,16.13166 -3.31155,12.863 -11.94339,0.41873 -4.25885,-5.97869 -11.97459,-4.57224 -15.46829,1.16643 -1.7481,2.98123 -3.09889,5.95877 -5.94778,8.02558 z"
       id="path4497"
       inkscape:connector-curvature="0"
       sodipodi:nodetypes="ccccccc" />
  </g>
  <g
     inkscape:groupmode="layer"
     id="layer10"
     inkscape:label="Dd23"
     style="display:inline"
     sodipodi:insensitive="true">
    <path
       style="fill:#0000ff;fill-opacity:1;stroke:#000000;stroke-width:0.5;stroke-linecap:butt;stroke-linejoin:miter;stroke-miterlimit:4;stroke-opacity:1;stroke-dasharray:none"
       d="m 511.875,361.59375 c -0.99805,0.0562 -1.63755,0.48259 -2.0625,1.34375 -0.12753,2.12878 1.76578,4.13796 2.71875,4.90625 0,0 1.40195,1.2632 2.8125,1.25 1.23751,-0.0116 3.622,-0.93598 3.625,-2.125 0.003,-1.42548 0.10602,-3.18725 -1.15625,-3.71875 -2.76289,-1.16336 -4.65429,-1.72844 -5.9375,-1.65625 z m -32.09375,13.46875 c -1.21673,0.0687 -1.95184,0.64081 -2.4375,1.625 -0.12753,2.12878 0.98453,4.04421 1.9375,4.8125 0,0 1.27858,0.306 2.6875,0.375 3.33799,0.16345 4.77825,-0.77973 4.78125,-1.96875 0.003,-1.42548 -0.33148,-2.906 -1.59375,-3.4375 -2.45591,-1.03409 -4.15827,-1.47497 -5.375,-1.40625 z m 82.125,4.71875 c -2.2148,-0.0707 -4.52976,2.15096 -5.875,2.90625 -1.47059,1.7593 -1.43407,2.66201 -0.0312,3.125 1.40283,0.46299 2.69203,0.65124 3.53125,1.6875 0.67082,0.82832 0.35017,2.41056 2.0625,3.34375 1.52337,0.8302 3.1531,-4.46838 3.1875,-5.40625 0.0522,-1.42452 0.18107,-3.78675 -0.71875,-4.6875 -0.67114,-0.67183 -1.41798,-0.94519 -2.15625,-0.96875 z M 567.8125,393 c -1.36297,0.058 -2.6841,0.99975 -3.46875,2.5 -0.94689,1.81046 0.015,2.55044 0.90625,3.40625 0,0 1.29834,0.26183 2.59375,0 1.00125,-0.20237 2.59516,-1.367 2.875,-2.0625 0.30288,-0.75276 0.94795,-1.12395 0.125,-2.21875 -0.88224,-1.17367 -1.97116,-1.67012 -3.03125,-1.625 z"
       id="path4433"
       inkscape:connector-curvature="0" />
  </g>
  <g
     inkscape:groupmode="layer"
     id="layer3"
     inkscape:label="Dd24"
     style="display:inline"
     sodipodi:insensitive="true">
    <path
       style="fill:#0000ff;fill-opacity:1;stroke:#000000;stroke-width:0.5;stroke-linecap:butt;stroke-linejoin:miter;stroke-miterlimit:4;stroke-opacity:1;stroke-dasharray:none;display:inline"
       d="m 359.2255,240.73781 c -14.08237,-0.07 -28.74713,-0.72245 -37.36624,4.67078 l -8.49233,6.36925 -9.76618,11.46464 -4.67078,7.21848 -4.67078,35.66778 -0.42462,25.9016 -2.5477,10.61542 -4.56462,25.26467 -5.62617,31.20931 14.43696,15.71081 21.65544,14.43696 10.61541,3.39693 5.09539,0.42462 6.79387,17.40927 -6.79387,9.76618 -0.42461,6.79386 3.82155,7.21848 10.61541,3.39693 14.43696,0.42462 6.36924,-1.27385 2.5477,-6.36925 1.27385,-11.88926 5.52002,-25.05237 16.13542,-3.39693 16.98466,-10.19079 c 5.60411,-4.75488 11.41138,-9.53704 17.68818,-14.9646 l -5.2411,-16.45702 -8.20092,-33.96931 c 1.70654,-9.4168 -6.04242,-17.83246 1.34794,-32.28 l 1.19976,-16.55089 -1.27385,-36.94163 c -2.68924,-4.29163 -9.20002,-8.20059 -11.88926,-15.71081 l -11.46465,-10.1908 z"
       id="path3771"
       inkscape:connector-curvature="0"
       sodipodi:nodetypes="ccccccccccccccccccccccccccccccccccc" />
  </g>
  <g
     inkscape:groupmode="layer"
     id="layer11"
     inkscape:label="Dd25"
     style="display:inline"
     sodipodi:insensitive="true">
    <path
       style="fill:#0000ff;fill-opacity:1;stroke:#000000;stroke-width:0.5;stroke-linecap:butt;stroke-linejoin:miter;stroke-miterlimit:4;stroke-opacity:1;stroke-dasharray:none;display:inline"
       d="m 558.46875,213.125 c -2.36256,0.17126 -5.7591,0.009 -4.89491,3.34899 -0.41776,11.54699 4.31012,22.75374 11.09644,31.89552 3.81856,5.01521 9.55056,7.96593 15.29569,10.2149 1.74061,0.75564 0.9278,-3.15218 1.576,-4.37957 0.64153,-3.69343 1.04785,-7.43222 1.70489,-11.11569 0.59841,-2.30459 1.82786,-4.3682 3.82552,-5.68954 1.77337,-1.95004 2.35861,-4.7702 1.05262,-7.14961 -1.35547,-2.16066 -4.59318,-1.75947 -6.76784,-1.13604 -2.67189,1.42509 -3.83926,-2.18379 -5.60877,-3.49421 -3.37222,-4.24308 -6.40601,-9.4806 -11.88091,-11.24553 -1.72992,-0.64866 -3.53291,-1.23244 -5.39873,-1.24922 z m 35.69789,29.10103 c -1.98141,4.6054 0.42438,7.03834 4.03699,8.91621 1.35789,0.11645 2.74228,0.43185 4.08432,0.42919 0.98431,-0.3661 1.99198,-0.69851 2.57958,-1.63702 1.71574,-1.36884 2.73894,-3.86999 0.88399,-5.06188 -0.96089,-0.94826 -2.0364,-1.79534 -2.68812,-2.98714 -3.28668,-2.2148 -6.27974,-2.12624 -8.89676,0.34064 z"
       id="path4353"
       inkscape:connector-curvature="0"
       sodipodi:nodetypes="ccccccccccccccccccc" />
  </g>
  <g
     inkscape:groupmode="layer"
     id="layer12"
     inkscape:label="DdS26"
     style="display:inline"
     sodipodi:insensitive="true">
    <path
       style="fill:#ffffff;fill-opacity:1;stroke:#000000;stroke-width:0.5;stroke-miterlimit:4;stroke-opacity:1;stroke-dasharray:none;display:inline"
       d="m 437.53125,205.6875 c 1.49995,0.0239 2.47745,1.05157 2.46875,3.0625 -0.0218,5.05578 -5.83228,22.35453 -15.5,46.25 -2.55899,6.325 -5.41734,12.29934 -6.375,13.28125 -1.67103,1.7134 -1.81855,1.72643 -3.4375,-0.0625 C 413.75969,267.19353 413,265.8282 413,265.1875 413,263.43377 399.11204,248 397.53125,248 395.59169,248 393,245.17822 393,243.0625 c 0,-1.04031 2.43777,-3.48584 5.84375,-5.875 5.94091,-4.16731 11.38584,-10.06884 15.125,-16.40625 1.59446,-2.7024 1.87504,-4.10944 1.15625,-6 -1.43241,-3.76757 -0.14645,-5.04581 3.75,-3.6875 4.39723,1.53288 9.88883,0.50369 13.03125,-2.46875 2.09092,-1.97782 4.12505,-2.96135 5.625,-2.9375 z"
       id="path4244"
       inkscape:connector-curvature="0" />
    <path
       style="fill:#ffffff;fill-opacity:1;stroke:#000000;stroke-width:0.5;stroke-miterlimit:4;stroke-opacity:1;stroke-dasharray:none;display:inline"
       d="m 278.4375,206.125 c 1.38566,0.0377 2.96876,0.87672 4.5,2.34375 3.17537,3.0422 8.66551,4.20654 12.84375,2.75 3.44236,-1.20001 5.56128,-0.23347 4.65625,2.125 -1.59751,4.16304 0.63348,8.67651 7.875,15.9375 3.95928,3.96993 8.71724,8.35457 10.59375,9.75 2.88937,2.14862 3.32338,2.96547 2.75,5.25 -0.43739,1.7427 -1.57863,2.9087 -3.1875,3.3125 -2.62868,0.65976 -14.78332,13.88397 -17.6875,19.25 C 299.84433,268.57489 298.60448,270 298,270 c -1.46532,0 -6.02311,-9.89671 -11.03125,-24 -12.4287,-35.0001 -13.40181,-39.2385 -9.125,-39.84375 0.18852,-0.0267 0.3958,-0.0367 0.59375,-0.0312 z"
       id="path4242"
       inkscape:connector-curvature="0" />
    <path
       style="fill:#009bff;fill-opacity:1;stroke:#000000;stroke-width:0.5;stroke-miterlimit:4;stroke-opacity:1;stroke-dasharray:none;display:inline"
       d="m 460.78125,295.25 c 0.25682,-0.0201 0.48739,-0.0157 0.71875,0 1.54239,0.10452 2.5,0.98984 2.5,2.5625 0,2.34198 -6.69007,12.77984 -11.8125,18.4375 -2.11856,2.33992 -5.45447,6.97015 -7.4375,10.28125 -1.98304,3.3111 -6.06929,8.13893 -9.0625,10.75 -4.35961,3.80301 -5.55639,5.55371 -6.0625,8.71875 -0.49439,3.09173 -1.45984,4.48785 -4.375,6.46875 -3.7945,2.57844 -7.64346,3.19673 -10.125,1.625 -1.02146,-0.64696 -1.1933,-2.06461 -0.6875,-5.4375 0.49541,-3.30364 0.21756,-5.39135 -0.9375,-7.625 -1.76921,-3.42126 -1.28418,-8.93952 1.125,-12.78125 0.80614,-1.2855 1.70588,-6.35215 2.0625,-11.78125 0.34428,-5.24111 1.11615,-9.84632 1.71875,-10.21875 0.6026,-0.37242 6.01833,-1.95159 12.03125,-3.5 6.01291,-1.54842 11.55415,-3.30812 12.3125,-3.9375 0.75835,-0.62937 3.90683,-1.28209 7,-1.4375 3.09318,-0.1554 6.8674,-0.80009 8.40625,-1.4375 0.96039,-0.39781 1.85455,-0.62727 2.625,-0.6875 z"
       id="path4238"
       inkscape:connector-curvature="0" />
    <path
       style="fill:#009bff;fill-opacity:1;stroke:#000000;stroke-width:0.5;stroke-miterlimit:4;stroke-opacity:1;stroke-dasharray:none;display:inline"
       d="m 253.4375,295.46875 c 1.0405,0.0183 2.56364,0.34099 5.09375,1 3.2396,0.84381 7.2693,1.53125 8.96875,1.53125 1.69944,0 3.54,0.41904 4.0625,0.9375 0.5225,0.51846 2.7375,1.39292 4.9375,1.9375 9.64426,2.38728 16.06019,4.33827 16.90625,5.15625 1.28975,1.24695 0.97854,25.99021 -0.34375,27.3125 C 292.47561,333.93064 292,336.01789 292,338 c 0,2.76371 -0.78363,4.36142 -3.3125,6.8125 -5.57863,5.40703 -6.71605,4.58759 -14.5625,-10.15625 -5.04526,-9.48029 -9.60381,-16.33321 -15.6875,-23.65625 -2.51304,-3.025 -5.47967,-7.24186 -6.59375,-9.375 -1.74019,-3.33194 -1.83268,-4.07357 -0.625,-5.28125 0.60385,-0.60384 1.17825,-0.89332 2.21875,-0.875 z"
       id="path3045-8"
       inkscape:connector-curvature="0" />
    <path
       style="fill:#009bff;fill-opacity:1;stroke:#000000;stroke-width:0.5;stroke-miterlimit:4;stroke-opacity:1;stroke-dasharray:none;display:inline"
       d="m 437.53125,205.6875 c 1.49995,0.0239 2.47745,1.05157 2.46875,3.0625 -0.0218,5.05578 -5.83228,22.35453 -15.5,46.25 -2.55899,6.325 -5.41734,12.29934 -6.375,13.28125 -1.67103,1.7134 -1.81855,1.72643 -3.4375,-0.0625 C 413.75969,267.19353 413,265.8282 413,265.1875 413,263.43377 399.11204,248 397.53125,248 395.59169,248 393,245.17822 393,243.0625 c 0,-1.04031 2.43777,-3.48584 5.84375,-5.875 5.94091,-4.16731 11.38584,-10.06884 15.125,-16.40625 1.59446,-2.7024 1.87504,-4.10944 1.15625,-6 -1.43241,-3.76757 -0.14645,-5.04581 3.75,-3.6875 4.39723,1.53288 9.88883,0.50369 13.03125,-2.46875 2.09092,-1.97782 4.12505,-2.96135 5.625,-2.9375 z"
       id="path4244-0"
       inkscape:connector-curvature="0" />
    <path
       style="fill:#009bff;fill-opacity:1;stroke:#000000;stroke-width:0.5;stroke-miterlimit:4;stroke-opacity:1;stroke-dasharray:none;display:inline"
       d="m 278.4375,206.125 c 1.38566,0.0377 2.96876,0.87672 4.5,2.34375 3.17537,3.0422 8.66551,4.20654 12.84375,2.75 3.44236,-1.20001 5.56128,-0.23347 4.65625,2.125 -1.59751,4.16304 0.63348,8.67651 7.875,15.9375 3.95928,3.96993 8.71724,8.35457 10.59375,9.75 2.88937,2.14862 3.32338,2.96547 2.75,5.25 -0.43739,1.7427 -1.57863,2.9087 -3.1875,3.3125 -2.62868,0.65976 -14.78332,13.88397 -17.6875,19.25 C 299.84433,268.57489 298.60448,270 298,270 c -1.46532,0 -6.02311,-9.89671 -11.03125,-24 -12.4287,-35.0001 -13.40181,-39.2385 -9.125,-39.84375 0.18852,-0.0267 0.3958,-0.0367 0.59375,-0.0312 z"
       id="path4242-4"
       inkscape:connector-curvature="0" />
  </g>
  <g
     inkscape:groupmode="layer"
     id="layer13"
     inkscape:label="Dd27"
     style="display:inline"
     sodipodi:insensitive="true">
    <path
       style="fill:#0000ff;fill-opacity:1;stroke:#000000;stroke-width:0.5;stroke-miterlimit:4;stroke-opacity:1;stroke-dasharray:none;display:inline"
       d="m 357.4375,246.4375 8.125,3.40625 1.28125,6 c -1.5625,1.64211 -2.74508,6.35855 -3.8125,8.46875 -1.32703,2.90011 -1.30947,4.5625 -5.15625,6.84375 -3.2616,-2.19178 -3.4375,-3.02083 -4.71875,-4.59375 -0.96208,-3.95166 -1.33985,-7.31902 -1.3125,-10.28125 l -0.40625,-6.4375 z"
       id="path4240"
       inkscape:connector-curvature="0" />
  </g>
  <g
     inkscape:groupmode="layer"
     id="layer14"
     inkscape:label="Dd28"
     style="display:inline"
     sodipodi:insensitive="true">
    <path
       style="fill:#0000ff;fill-opacity:1;stroke:#000000;stroke-width:0.5;stroke-linecap:butt;stroke-linejoin:miter;stroke-miterlimit:4;stroke-opacity:1;stroke-dasharray:none"
       d="m 161.46875,26 c -3.63153,0 -6.48327,2.617309 -6.6875,6.125 -0.40427,6.943485 0.32376,9.627466 3.71875,13.59375 1.925,2.248929 3.5,4.779397 3.5,5.625 0,0.845602 1.575,4.246738 3.5,7.53125 1.925,3.284512 3.5,6.521744 3.5,7.21875 0,0.697007 0.94184,2.273844 2.09375,3.5 2.97911,3.171114 1.82389,5.547169 -4.875,10 -1.05098,0.698598 -2.02743,1.413701 -2.96875,2.125 l 78.84375,7.90625 0.1875,-1.75 c -1.72845,-3.648856 -3.37066,-9.160805 -4.8125,-16.375 -0.22137,-1.107613 -2.63519,-3.723089 -5.375,-5.8125 -3.50465,-2.672679 -5.47985,-5.150322 -6.6875,-8.3125 -1.59278,-4.170775 -1.60057,-4.746532 -0.0937,-7.90625 1.44861,-3.037773 1.44178,-3.558271 0.0937,-4.90625 C 223.64277,42.79902 219.18439,41.511475 209.59375,40 205.80159,39.402361 201.93578,38.500812 201,38 200.06423,37.499189 195.86311,36.678534 191.65625,36.15625 185.77828,35.426497 182.93179,34.45982 179.3125,32.0625 174.12363,28.625538 166.3647,26 161.46875,26 z"
       id="path4375"
       inkscape:connector-curvature="0" />
  </g>
  <g
     inkscape:groupmode="layer"
     id="layer15"
     inkscape:label="DdS29"
     style="display:inline"
     sodipodi:insensitive="true">
    <path
       style="fill:#009bff;fill-opacity:1;stroke:#000000;stroke-width:0.5;stroke-miterlimit:4;stroke-opacity:1;stroke-dasharray:none;display:inline"
       d="m 460.78125,295.25 c 0.25682,-0.0201 0.48739,-0.0157 0.71875,0 1.54239,0.10452 2.5,0.98984 2.5,2.5625 0,2.34198 -6.69007,12.77984 -11.8125,18.4375 -2.11856,2.33992 -5.45447,6.97015 -7.4375,10.28125 -1.98304,3.3111 -6.06929,8.13893 -9.0625,10.75 -4.35961,3.80301 -5.55639,5.55371 -6.0625,8.71875 -0.49439,3.09173 -1.45984,4.48785 -4.375,6.46875 -3.7945,2.57844 -7.64346,3.19673 -10.125,1.625 -1.02146,-0.64696 -1.1933,-2.06461 -0.6875,-5.4375 0.49541,-3.30364 0.21756,-5.39135 -0.9375,-7.625 -1.76921,-3.42126 -1.28418,-8.93952 1.125,-12.78125 0.80614,-1.2855 1.70588,-6.35215 2.0625,-11.78125 0.34428,-5.24111 1.11615,-9.84632 1.71875,-10.21875 0.6026,-0.37242 6.01833,-1.95159 12.03125,-3.5 6.01291,-1.54842 11.55415,-3.30812 12.3125,-3.9375 0.75835,-0.62937 3.90683,-1.28209 7,-1.4375 3.09318,-0.1554 6.8674,-0.80009 8.40625,-1.4375 0.96039,-0.39781 1.85455,-0.62727 2.625,-0.6875 z"
       id="path4238-5"
       inkscape:connector-curvature="0" />
    <path
       style="fill:#009bff;fill-opacity:1;stroke:#000000;stroke-width:0.5;stroke-miterlimit:4;stroke-opacity:1;stroke-dasharray:none;display:inline"
       d="m 253.4375,295.46875 c 1.0405,0.0183 2.56364,0.34099 5.09375,1 3.2396,0.84381 7.2693,1.53125 8.96875,1.53125 1.69944,0 3.54,0.41904 4.0625,0.9375 0.5225,0.51846 2.7375,1.39292 4.9375,1.9375 9.64426,2.38728 16.06019,4.33827 16.90625,5.15625 1.28975,1.24695 0.97854,25.99021 -0.34375,27.3125 C 292.47561,333.93064 292,336.01789 292,338 c 0,2.76371 -0.78363,4.36142 -3.3125,6.8125 -5.57863,5.40703 -6.71605,4.58759 -14.5625,-10.15625 -5.04526,-9.48029 -9.60381,-16.33321 -15.6875,-23.65625 -2.51304,-3.025 -5.47967,-7.24186 -6.59375,-9.375 -1.74019,-3.33194 -1.83268,-4.07357 -0.625,-5.28125 0.60385,-0.60384 1.17825,-0.89332 2.21875,-0.875 z"
       id="path3045-8-0"
       inkscape:connector-curvature="0" />
  </g>
  <g
     inkscape:groupmode="layer"
     id="layer16"
     inkscape:label="DdS30"
     style="display:inline"
     sodipodi:insensitive="true">
    <path
       style="fill:#009bff;fill-opacity:1;stroke:#000000;stroke-width:0.5;stroke-miterlimit:4;stroke-opacity:1;stroke-dasharray:none;display:inline"
       d="m 437.53125,205.6875 c 1.49995,0.0239 2.47745,1.05157 2.46875,3.0625 -0.0218,5.05578 -5.83228,22.35453 -15.5,46.25 -2.55899,6.325 -5.41734,12.29934 -6.375,13.28125 -1.67103,1.7134 -1.81855,1.72643 -3.4375,-0.0625 C 413.75969,267.19353 413,265.8282 413,265.1875 413,263.43377 399.11204,248 397.53125,248 395.59169,248 393,245.17822 393,243.0625 c 0,-1.04031 2.43777,-3.48584 5.84375,-5.875 5.94091,-4.16731 11.38584,-10.06884 15.125,-16.40625 1.59446,-2.7024 1.87504,-4.10944 1.15625,-6 -1.43241,-3.76757 -0.14645,-5.04581 3.75,-3.6875 4.39723,1.53288 9.88883,0.50369 13.03125,-2.46875 2.09092,-1.97782 4.12505,-2.96135 5.625,-2.9375 z"
       id="path4244-0-2"
       inkscape:connector-curvature="0" />
    <path
       style="fill:#009bff;fill-opacity:1;stroke:#000000;stroke-width:0.5;stroke-miterlimit:4;stroke-opacity:1;stroke-dasharray:none;display:inline"
       d="m 278.4375,206.125 c 1.38566,0.0377 2.96876,0.87672 4.5,2.34375 3.17537,3.0422 8.66551,4.20654 12.84375,2.75 3.44236,-1.20001 5.56128,-0.23347 4.65625,2.125 -1.59751,4.16304 0.63348,8.67651 7.875,15.9375 3.95928,3.96993 8.71724,8.35457 10.59375,9.75 2.88937,2.14862 3.32338,2.96547 2.75,5.25 -0.43739,1.7427 -1.57863,2.9087 -3.1875,3.3125 -2.62868,0.65976 -14.78332,13.88397 -17.6875,19.25 C 299.84433,268.57489 298.60448,270 298,270 c -1.46532,0 -6.02311,-9.89671 -11.03125,-24 -12.4287,-35.0001 -13.40181,-39.2385 -9.125,-39.84375 0.18852,-0.0267 0.3958,-0.0367 0.59375,-0.0312 z"
       id="path4242-4-5"
       inkscape:connector-curvature="0" />
  </g>
  <g
     inkscape:groupmode="layer"
     id="layer17"
     inkscape:label="Dd31"
     style="display:inline"
     sodipodi:insensitive="true">
    <path
       style="fill:#0000ff;fill-opacity:1;stroke:#000000;stroke-width:0.5;stroke-linecap:butt;stroke-linejoin:round;stroke-miterlimit:4;stroke-opacity:1;stroke-dasharray:none"
       d="m 333.68959,433.4499 c 6.65083,-4.79158 11.57881,-6.52858 21.2888,-6.93124 7.74535,-0.38741 13.49731,2.0735 20.29862,5.19843 l 3.21808,2.97053 -6.18861,21.2888 c -0.19814,2.48096 -1.06286,3.60838 -1.98035,7.67387 -1.57027,7.65538 -0.90946,12.47745 -4.08447,13.24362 -4.73739,1.1432 -13.98626,1.36149 -13.98626,1.36149 -6.16065,-0.69291 -12.51354,-2.84 -17.57564,-5.19843 0,0 -3.47086,-4.85241 -3.58938,-7.67387 -0.15505,-3.69083 1.95389,-6.69355 3.83693,-10.39685 l 4.33202,-4.57957 c -1.41934,-5.93512 -3.84061,-11.34803 -5.56974,-16.95678 z"
       id="path4504"
       inkscape:connector-curvature="0"
       sodipodi:nodetypes="ccccccsccaccc" />
  </g>
  <g
     inkscape:groupmode="layer"
     id="layer18"
     inkscape:label="DdS32"
     style="display:inline"
     sodipodi:insensitive="true">
    <path
       style="fill:#009bff;fill-opacity:1;stroke:#000000;stroke-width:0.5;stroke-linecap:butt;stroke-linejoin:round;stroke-miterlimit:4;stroke-opacity:1;stroke-dasharray:none"
       d="m 226.34086,45.870653 264.11424,0.614172 c -1.5235,2.743114 3.1617,3.40908 2.1763,7.592149 -0.64472,2.72186 -1.52894,4.523036 -2.9109,6.63018 -3.22213,4.164638 -7.50001,6.288947 -9.5141,10.320457 -0.67183,5.923276 -3.36092,10.001296 -5.48264,15.582974 -0.63,1.868997 -2.02348,3.483499 -3.64663,5.021447 l -11.59467,9.896768 c -3.13136,3.94153 -3.75042,10.58006 -7.49959,14.8011 -1.87824,5.86928 -5.13282,11.53212 -10.34207,16.90175 -0.93218,1.29776 -3.27015,2.94697 -5.49132,4.56698 -2.43897,1.17694 -1.06409,1.86956 -13.95088,2.08812 -3.26218,0.0827 -8.58825,0.34928 -9.73241,-1.34838 -0.57863,-0.88861 -4.28102,-6.8934 -8.03531,-12.46601 -1.26215,-2.38465 -2.9359,-4.61496 -6.05146,-6.30459 -1.53123,-1.00019 -3.34711,-0.8618 -5.34459,0.003 -0.94389,0.57259 -2.31458,1.57354 -1.9151,3.00742 0.20064,2.74892 2.79032,4.64572 2.7838,7.42857 0.0677,4.2401 -11.04915,3.20295 -4.83594,10.18963 2.147,2.63304 8.12479,3.45544 7.67115,6.81653 -0.79964,4.32444 -7.8547,4.16568 -11.31205,3.07014 -4.71835,-5.82135 -6.42484,-13.36046 -13.91315,-13.47156 -3.82555,-0.20335 -7.78458,3.01836 -9.20178,6.59064 -1.29105,3.2543 -3.23155,8.47811 -4.14117,8.29025 -1.11812,-0.23093 -2.78112,-4.49123 -2.78112,-4.49123 -2.10414,-4.82943 -5.23948,-10.02771 -10.57472,-9.85138 -4.24788,-0.0139 -6.29152,2.62316 -8.52826,5.02498 l -4.21386,6.63932 c -2.10252,2.44713 -4.72177,2.11468 -7.81911,1.92429 -5.89207,-0.34166 -6.20935,-3.70335 -2.93128,-6.37306 6.92545,-3.1322 8.76804,-4.76748 6.94075,-8.26111 -1.33815,-2.42065 -5.14257,-2.29135 -6.04397,-5.97845 -0.92229,-2.07834 3.63242,-6.21808 2.70926,-8.50522 -1.65386,-3.16354 -7.31718,-0.68334 -9.01669,0.003 -1.4676,0.81507 -3.07662,2.47868 -4.87737,5.29271 l -3.73314,5.63684 -3.32573,5.10059 -1.84404,2.64489 c -1.96432,0.13786 -3.36228,-0.004 -5.82305,-0.0618 l -7.2748,-0.24006 c -3.9909,-0.40239 -6.96414,-1.14206 -9.89619,-2.49884 -2.04728,-0.90112 -3.42415,-2.66419 -4.65456,-4.61557 -1.32389,-2.04883 -3.04834,-3.89738 -4.58296,-5.84085 -0.86489,-0.45162 -1.83868,-1.99218 -2.93924,-4.80051 -1.26621,-4.24782 -3.17999,-7.50259 -4.80517,-11.24215 -2.14853,-3.56691 -1.7376,-7.91977 -4.80946,-9.80216 -2.68832,-0.92011 -5.72943,-4.346587 -8.07226,-6.886494 -2.88085,-2.776775 -3.64364,0.284167 -7.32373,-7.309432 -1.68272,-4.382877 -3.17832,-8.858402 -4.04109,-13.578162 -0.22676,-2.813476 -1.49012,-4.016605 -2.77149,-5.274067 l -6.57295,-5.841529 c -2.38821,-2.798713 -3.84567,-5.830115 -4.34827,-9.100231 -0.2735,-3.061995 2.78069,-5.290515 2.12477,-7.536272 z"
       id="path4577"
       inkscape:connector-curvature="0"
       sodipodi:nodetypes="ccccccccccccccccccccccsscccccccccccccccccccccccccccccc" />
  </g>
  <g
     inkscape:groupmode="layer"
     id="layer19"
     inkscape:label="Dd33"
     style="display:inline"
     sodipodi:insensitive="true">
    <path
       style="fill:#0000ff;fill-opacity:1;stroke:#000000;stroke-width:0.5;stroke-linecap:butt;stroke-linejoin:round;stroke-miterlimit:4;stroke-opacity:1;stroke-dasharray:none"
       d="m 562.46349,326.91518 -20.26975,21.23673 c 2.32948,0.60708 2.94921,3.26584 3.66147,5.81358 0.76697,3.4162 2.80451,5.24418 4.87611,7.02959 0,0 4.27721,4.63101 5.46199,5.72605 1.57472,1.45545 7.67006,-0.67203 7.67006,-1.18649 2.71501,-1.64264 3.8408,-4.23881 4.92512,-6.85986 6.71045,-6.16313 3.90319,-3.7085 1.31391,-11.28189 -0.29974,-3.51981 -2.65023,-5.50156 -5.59756,-7.03568 l -2.44157,-2.33325 c -0.63043,-1.29094 -1.36662,-2.19409 -1.03242,-7.02203 z"
       id="path4598"
       inkscape:connector-curvature="0"
       sodipodi:nodetypes="ccccsccccccc" />
  </g>
  <g
     inkscape:groupmode="layer"
     id="layer20"
     inkscape:label="Dd34"
     style="display:inline"
     sodipodi:insensitive="true">
    <path
       style="fill:#0000ff;fill-opacity:1;stroke:#000000;stroke-width:0.5;stroke-linecap:butt;stroke-linejoin:round;stroke-miterlimit:4;stroke-opacity:1;stroke-dasharray:none"
       d="m 574.5,116.5 c -3.19124,6.8757 -7.98439,13.16591 -8.94477,20.85698 -2.26073,9.2639 -4.29895,18.56564 -4.97428,28.09917 -1.25179,6.07424 -0.43894,12.16864 0.20209,18.26136 3.09976,1.72331 5.41717,4.37129 7.82529,6.91206 7.55432,-0.65894 15.14472,-1.97112 22.60606,-2.75037 3.56645,0.7052 6.7174,2.53286 10.03384,3.76554 6.60976,0.27037 11.8926,5.21701 18.60004,4.89592 8.58253,-0.27111 14.99942,-10.07387 24.17436,-5.56721 4.29512,3.47 7.33743,-3.75694 11.77178,-2.75249 4.11319,0.22479 8.33639,-0.86601 12.34582,-0.38174 8.10258,2.94699 16.64764,5.45552 25.34794,3.7459 4.27271,-0.46324 8.96805,-1.12176 12.23289,-4.15302 0.0694,-3.39302 -3.47935,-5.58184 -5.2222,-8.27682 -2.59649,-2.65085 -4.81653,-5.50886 -5.82759,-9.12831 -1.46074,-4.85165 -7.01326,-5.84911 -10.30269,-9.16494 -6.78029,-4.84077 -15.96579,-4.96478 -22.50014,-10.32772 -11.88707,-7.022 -24.78183,-12.23036 -37.44126,-17.71109 -6.98991,-3.35132 -14.82187,-4.75871 -21.11043,-9.52125 -7.08581,-3.98919 -15.50471,-4.05153 -23.28681,-5.8826 -1.84331,-0.30646 -3.68663,-0.61291 -5.52994,-0.91937 z"
       id="path4600"
       inkscape:connector-curvature="0" />
  </g>
  <g
     inkscape:groupmode="layer"
     id="layer21"
     inkscape:label="Dd35"
     style="display:inline"
     sodipodi:insensitive="true">
    <path
       style="fill:#0000ff;fill-opacity:1;stroke:#000000;stroke-width:0.5;stroke-linejoin:round;stroke-miterlimit:4;stroke-opacity:1;stroke-dasharray:none;display:inline"
       d="m 152.78125,214.09375 c -0.2543,0.007 -0.5157,0.008 -0.78125,0.0312 -0.12436,0.0341 -0.25501,0.0548 -0.375,0.0937 l -0.59375,0.25 c -1.20873,0.50821 -2.30201,1.30466 -3.84375,2.65625 -2.11929,1.8579 -5.18071,5.28026 -6.78125,7.59375 -2.70032,3.90318 -3.17966,4.14156 -6.5,3.625 -6.36191,-0.98977 -9.47841,5.48356 -4.53125,9.375 1.90139,1.49563 2.49557,3.20116 3.09375,8.8125 0.40841,3.83124 1.18628,7.78187 1.71875,8.78125 1.46633,2.75216 -1.05844,5.75828 -7.6875,9.1875 -4.20536,2.17543 -6.14379,3.88663 -7.15625,6.28125 -0.76403,1.80702 -2.4818,3.71282 -3.8125,4.21875 -4.66774,1.77467 -5.88715,5.18496 -5.21875,14.65625 0.62951,8.92033 2.97065,15.48302 6.71875,18.875 2.22889,2.01712 2.53148,4.49977 0.78125,6.25 -1.39728,1.39728 0.57239,5.83371 3.21875,7.25 0.88702,0.47472 7.33339,1.10674 14.3125,1.40625 12.35193,0.53008 16.12251,1.38978 17.53125,4.90625 L 156.5,299 l 4.5,-26 1.5,-27.5 0,-16 c 1.20118,-6.74152 -0.89067,-15.66011 -9.71875,-15.40625 z"
       id="path3045-4"
       inkscape:connector-curvature="0"
       sodipodi:nodetypes="ccccsssssssssssssscccccc" />
  </g>
</svg>
