<?xml version="1.0" encoding="UTF-8" standalone="no"?>
<!-- Created with Inkscape (http://www.inkscape.org/) -->

<svg
   xmlns:dc="http://purl.org/dc/elements/1.1/"
   xmlns:cc="http://creativecommons.org/ns#"
   xmlns:rdf="http://www.w3.org/1999/02/22-rdf-syntax-ns#"
   xmlns:svg="http://www.w3.org/2000/svg"
   xmlns="http://www.w3.org/2000/svg"
   xmlns:sodipodi="http://sodipodi.sourceforge.net/DTD/sodipodi-0.dtd"
   xmlns:inkscape="http://www.inkscape.org/namespaces/inkscape"
   id="svg2"
   version="1.1"
   inkscape:version="0.48.1 r9760"
   width="900"
   height="600"
   sodipodi:docname="01_Card I_gray.svg">
  <metadata
     id="metadata8">
    <rdf:RDF>
      <cc:Work
         rdf:about="">
        <dc:format>image/svg+xml</dc:format>
        <dc:type
           rdf:resource="http://purl.org/dc/dcmitype/StillImage" />
        <dc:title></dc:title>
      </cc:Work>
    </rdf:RDF>
  </metadata>
  <defs
     id="defs6" />
  <sodipodi:namedview
     pagecolor="#ffffff"
     bordercolor="#666666"
     borderopacity="1"
     objecttolerance="10"
     gridtolerance="10"
     guidetolerance="10"
     inkscape:pageopacity="0"
     inkscape:pageshadow="2"
     inkscape:window-width="1360"
     inkscape:window-height="695"
     id="namedview4"
     showgrid="false"
     showborder="true"
     inkscape:showpageshadow="false"
     inkscape:zoom="1"
     inkscape:cx="427.34375"
     inkscape:cy="395.70012"
     inkscape:window-x="0"
     inkscape:window-y="24"
     inkscape:window-maximized="1"
     inkscape:current-layer="layer13"
     inkscape:object-paths="true"
     inkscape:snap-nodes="true"
     borderlayer="false" />
  <g
     inkscape:groupmode="layer"
     id="layer2"
     inkscape:label="W"
     style="display:inline"
     transform="translate(0,96)">
    <path
       style="fill:#ababab;stroke:#000000;stroke-width:0.5;stroke-linejoin:round;stroke-miterlimit:4;stroke-opacity:1;stroke-dasharray:none;display:inline"
       d="m 221.86826,-56.751145 c -4.18746,0 -7.47577,3.018141 -7.71126,7.063024 -0.46615,8.006858 0.37332,11.101881 4.28804,15.675589 2.21969,2.593347 4.03579,5.511347 4.03579,6.48645 0,0.975104 1.81612,4.897114 4.03581,8.684639 2.2197,3.787522 4.03579,7.520527 4.03579,8.324277 0,0.8037505 1.08603,2.6220755 2.41429,4.0360135 3.43516,3.656761 2.10309,6.396701 -5.62131,11.531468 -7.51924,4.9983985 -12.85481,10.5414215 -12.90013,13.3692965 -0.0331,2.064531 -5.19651,6.702665 -7.45903,6.702665 -0.74713,0 -2.7615,1.461702 -4.46821,3.243226 -2.79542,2.917957 -3.07452,3.968278 -2.81064,10.630573 l 0.28827,7.387349 -4.61234,1.549541 c -2.53679,0.849974 -8.90632,2.092655 -14.16135,2.774756 -7.62939,0.990314 -10.37344,1.931067 -13.65686,4.540517 -2.48568,1.97547 -9.42939,4.92839 -17.54852,7.49546 -7.38705,2.33558 -14.21899,4.88215 -15.17028,5.65763 -1.75951,1.43428 -13.8035,7.31877 -25.47599,12.43235 -3.54737,1.55406 -9.151,4.673289 -12.467738,6.95492 -5.684074,3.91015 -12.212749,6.50796 -16.395438,6.52249 -1.021343,0.003 -3.729072,1.30525 -6.053701,2.88286 -2.324629,1.57763 -5.577388,3.194611 -7.206784,3.603591 -3.283018,0.82402 -7.344234,6.582 -7.350922,10.41435 -0.0024,1.35916 -0.769381,2.74442 -1.693595,3.09908 -2.423714,0.93013 -7.551845,9.46329 -7.531092,12.54048 0.03712,5.50371 1.373752,6.08035 15.098218,6.34232 10.234873,0.19535 14.265845,-0.22014 19.602456,-2.01802 7.579237,-2.5534 11.523688,-2.85401 13.368587,-1.009 0.911154,0.9112 1.900889,0.9112 3.603389,0 3.57467,-1.9132 5.4437,-1.55609 9.47693,1.83784 3.3702,2.83598 3.82891,2.95058 5.11682,1.18918 1.99831,-2.73302 15.61412,-1.14269 19.35021,2.27025 4.00599,3.65948 11.7907,4.28088 19.02592,1.51351 3.33634,-1.27611 7.63248,-2.3063 9.51296,-2.3063 1.88044,0 5.09429,-1.04021 7.17074,-2.30629 4.59146,-2.79957 7.88127,-2.84558 22.37708,-0.3964 l 11.24259,1.87387 3.53133,-4.18017 c 3.81033,-4.53865 7.40945,-5.89807 5.33302,-2.018 -0.89971,1.68117 -0.58019,3.07264 1.44136,6.05403 1.44367,2.1291 2.99819,4.76393 3.42322,5.87384 0.42502,1.1099 1.68088,2.00877 2.81064,2.01799 4.6032,0.0396 5.51837,1.79734 3.45927,6.55853 -1.04943,2.42654 -2.05566,5.95312 -2.23411,7.85582 -0.31752,3.3853 -0.48143,3.46591 -6.95455,3.60357 -5.76695,0.12264 -7.15281,0.64 -11.02638,4.03602 -2.44373,2.14244 -5.97382,6.0889 -7.81937,8.75671 -3.11371,4.50094 -3.66642,4.77582 -7.49505,4.18016 -7.33583,-1.14135 -10.92943,6.32334 -5.22494,10.81075 2.19248,1.72468 2.87761,3.69141 3.56736,10.1621 0.47094,4.41799 1.36789,8.97365 1.98189,10.12607 1.69079,3.17366 -1.22049,6.64014 -8.86435,10.59455 -4.84915,2.50858 -7.08433,4.48184 -8.25178,7.24319 -0.88099,2.08377 -2.86173,4.28144 -4.39614,4.86484 -5.38231,2.04647 -6.78838,5.97902 -6.01766,16.9008 0.72588,10.28647 3.4254,17.85422 7.74728,21.76566 2.5701,2.32604 2.91902,5.18889 0.90085,7.20717 -1.61118,1.61127 0.66002,6.72712 3.71151,8.3603 1.02281,0.54743 8.45602,1.27624 16.50353,1.62163 16.27753,0.69858 19.61716,1.91137 20.75556,7.60356 0.90745,4.53755 -0.73869,8.60799 -4.54028,11.09904 -3.16631,2.07475 -8.54005,12.47321 -8.54005,16.54043 0,1.23577 1.29723,3.10521 2.88272,4.14412 1.58549,1.03891 2.89856,2.74682 2.91875,3.78378 0.0671,3.4501 3.29623,6.30273 7.45903,6.63059 3.41266,0.26878 4.82339,-0.41471 9.00847,-4.50447 4.32998,-4.23136 6.6722,-7.66708 10.01744,-14.6666 1.37669,-2.88059 3.89245,-1.94384 4.64837,1.72972 1.80835,8.78817 5.88161,10.74046 14.19737,6.77474 4.62524,-2.20574 10.73326,-1.47714 14.73789,1.76575 l 2.7746,1.54955 c 7.53469,0.59131 5.79439,-3.50024 11.17052,-3.74772 1.81436,0 4.51226,-0.81536 6.01766,-1.8018 2.49148,-1.63256 2.88041,-1.62427 4.28804,0.108 5.23335,6.44114 6.75198,7.45943 11.09845,7.45943 5.08629,0 10.11588,4.27722 11.60291,9.83778 0.78891,2.94993 1.87281,3.89979 7.02663,6.27024 1.50953,0.69428 2.40923,2.01115 4.72044,6.95491 0.44477,0.95135 1.7555,1.72973 2.95478,1.72973 1.66995,0 2.33306,-1.04095 2.77462,-4.50449 0.3171,-2.48735 1.19029,-4.7604 1.94583,-5.00898 2.03541,-0.66967 4.97268,5.83926 4.97268,11.02697 0,5.76609 2.54477,8.30128 5.58526,5.54951 1.14943,-1.04027 2.46055,-1.50327 2.91875,-1.04503 0.4582,0.45824 2.5357,0.68343 4.61235,0.5045 5.52995,-0.47645 11.09845,4.9395 11.09845,10.81075 0,3.43661 0.76035,4.97178 3.74752,7.5315 2.06115,1.76617 8.15809,7.07407 13.54876,11.78371 11.20557,9.7899 30.69426,20.43232 37.40322,20.43232 2.1852,0 4.39267,0.64864 4.90062,1.44144 1.41804,2.21328 3.89224,8.9648 5.29698,14.4864 1.19507,4.69738 1.09532,5.11854 -1.76566,7.49545 -1.67372,1.39052 -3.87531,5.1333 -4.90062,8.36032 -1.80626,5.68504 -1.80081,6.00175 0.79275,10.95488 2.26335,4.32252 3.34881,5.19808 7.06264,5.80178 2.40628,0.39115 4.96457,1.28917 5.69337,2.01802 0.82612,0.82616 5.80033,1.33332 13.18842,1.33332 13.64705,0 14.46092,-0.54915 15.92699,-10.91887 0.92232,-6.52353 6.51583,-28.85784 8.97246,-35.78358 1.52035,-4.28621 1.95804,-4.62279 6.16179,-4.7207 2.92456,-0.0681 7.73686,-1.80071 13.62083,-4.90087 5.00593,-2.63754 9.74616,-4.79276 10.52191,-4.79276 1.4231,0 27.03047,-21.32288 30.77298,-25.62148 1.10984,-1.27476 2.01789,-4.13012 2.01789,-6.34232 0,-6.07172 5.20592,-10.4844 11.9993,-10.19814 2.82321,0.11898 5.87729,0.84716 6.81042,1.62162 2.60539,2.16239 5.40509,-1.34524 5.40509,-6.77475 0,-4.64236 1.98699,-10.34227 3.60339,-10.34227 1.60603,0 3.23851,4.13149 2.59443,6.59455 -0.33978,1.29943 -0.0826,2.7055 0.61258,3.13513 2.41068,1.48995 5.71104,-0.57896 6.48612,-4.10809 0.55513,-2.52763 1.85197,-3.97873 4.5763,-5.11709 2.28786,-0.95597 4.94104,-3.53797 6.73834,-6.52249 1.63653,-2.71756 3.48765,-5.70026 4.10788,-6.6306 0.64492,-0.96735 3.75382,-1.9547 7.24281,-2.30629 5.34493,-0.53859 6.35924,-1.06397 8.39591,-4.36033 1.90903,-3.08982 2.85769,-3.66101 5.22491,-3.09909 1.58549,0.37636 5.34402,-0.17214 7.0987,1.29728 3.64384,3.05153 -1.04232,2.35789 9.76518,4.28828 4.96141,0.4501 5.87236,0.0663 8.25177,-3.38738 4.24792,-3.67626 7.76898,-2.25866 11.78309,0.036 3.81267,2.17963 8.63788,2.1723 10.84622,-0.036 0.97983,-0.97989 2.31541,-3.83393 2.99082,-6.3423 1.79268,-6.65789 4.15055,-5.77741 6.84645,2.59459 0.75918,2.3576 2.83253,5.49326 4.61235,6.99094 1.77979,1.49769 3.83933,3.88413 4.57629,5.26124 1.96331,3.6687 8.90886,3.43578 13.08032,-0.43244 1.73756,-1.61124 3.17099,-3.72855 3.17099,-4.68465 0,-0.95612 1.42694,-2.96262 3.17099,-4.46845 3.07381,-2.65396 3.10139,-2.85706 1.29722,-6.01798 -1.02367,-1.79347 -2.19223,-4.61453 -2.59445,-6.30627 -0.42048,-1.76857 -2.39255,-4.11924 -4.64838,-5.51349 -4.50694,-2.7856 -5.29698,-4.35786 -5.29698,-10.37832 0,-7.82158 3.79205,-9.44773 22.95361,-9.87381 7.343,-0.16329 13.71229,-0.35587 14.12531,-0.43244 0.41301,-0.0766 1.78864,-1.91227 3.06287,-4.07205 2.10529,-3.56839 2.16648,-4.14431 0.57654,-6.41439 -1.59621,-2.27903 -1.5733,-2.71739 0.54052,-5.00897 4.80376,-5.20769 7.34872,-11.54451 8.57607,-21.5134 1.38972,-11.28776 0.24191,-15.5625 -4.82855,-18.08998 -1.56538,-0.78032 -4.15981,-3.32969 -5.76542,-5.65764 -1.60558,-2.32794 -5.25375,-5.53363 -8.10764,-7.09905 -8.34539,-4.57765 -8.78665,-5.23717 -7.17074,-11.27922 0.76664,-2.86659 1.4053,-7.51922 1.4053,-10.34229 0,-4.173 0.65584,-5.81496 3.53134,-8.75671 2.05876,-2.10617 3.2635,-4.34094 2.88271,-5.3333 -0.3598,-0.93766 -0.64861,-2.14265 -0.64861,-2.70269 0,-2.05529 -4.38653,-3.43341 -7.35092,-2.30629 -2.62173,0.99685 -3.29609,0.58473 -6.91851,-4.3243 -7.80931,-10.58294 -10.87742,-12.7627 -18.59351,-13.15309 -6.4046,-0.32401 -6.94772,-0.57449 -7.27885,-3.24322 -0.19675,-1.58557 -1.17782,-5.14145 -2.19808,-7.89184 -1.97924,-5.33567 -1.18651,-7.05744 3.31512,-7.09907 2.75871,-0.0254 8.27498,-9.9025 7.423,-13.29721 -1.15462,-4.60061 1.23522,-4.23543 5.18888,0.75674 3.71794,4.69452 3.84288,4.72087 9.62106,4.03602 3.21752,-0.38134 8.78996,-1.47184 12.39568,-2.41439 6.83639,-1.78709 11.22337,-1.12189 16.46749,2.45042 1.25095,0.85217 3.8454,1.54378 5.76544,1.54955 1.92002,0.006 6.22709,1.3195 9.58502,2.88286 7.40057,3.44552 14.79504,2.91861 19.89073,-1.36936 2.4485,-2.0604 5.83647,-3.7174 11.09633,-4.04817 3.84964,-0.24209 6.45618,0.913 6.81253,1.48963 1.12764,1.82463 4.67827,1.14224 6.91851,-1.33333 1.69023,-1.86777 2.98948,-2.25505 5.98164,-1.69369 2.10349,0.39465 5.53867,0.1109 7.63919,-0.64864 3.34794,-1.21068 4.82042,-1.01686 11.81914,1.65766 6.40657,2.44821 9.94483,3.06304 17.94488,3.06304 10.96435,0 20.53935,-2.95168 20.53935,-6.34231 0,-1.00139 -2.8539,-4.75146 -6.34198,-8.32429 -3.6134,-3.70116 -6.34197,-7.55659 -6.34197,-8.93687 0,-3.73015 -3.19533,-7.45417 -8.0716,-9.40536 -2.43288,-0.97351 -4.71137,-2.482511 -5.04475,-3.351341 -0.33338,-0.86882 -2.82123,-2.14077 -5.54923,-2.84683 -8.83534,-2.28678 -15.19504,-5.04462 -18.77368,-8.14409 -3.15386,-2.73163 -16.74348,-9.23681 -44.21361,-21.15304 -5.26285,-2.28281 -10.10798,-4.14407 -10.77415,-4.14407 -2.01595,0 -9.39032,-3.64155 -13.54876,-6.70267 -3.01802,-2.22161 -7.24288,-3.440225 -18.44937,-5.297259 l -14.52167,-2.414394 0,-8.21618 c 0,-7.772486 -0.21802,-8.428835 -3.74754,-11.819756 -2.05536,-1.974654 -4.33219,-3.603583 -5.08078,-3.603583 -2.08278,0 -5.58526,-3.594403 -5.58526,-5.729697 0,-2.355938 -5.93524,-8.5612735 -13.22446,-13.8377635 -5.95358,-4.309667 -8.90747,-8.848963 -6.66627,-10.234177 1.45489,-0.899214 11.81913,-20.3961735 11.81913,-22.2341115 0,-0.640935 2.04956,-3.633845 4.57632,-6.630594 3.7266,-4.419775 4.63391,-6.401297 4.79251,-10.594538 0.3645,-9.637395 -3.2056,-12.413082 -14.19738,-10.954894 -5.91306,0.784437 -11.75737,3.35129 -17.08007,7.531491 -1.78894,1.404935 -5.50782,2.503718 -9.80124,2.918902 -3.80517,0.36797 -9.25351,1.432437 -12.10739,2.342329 -2.85389,0.909895 -8.56926,2.123548 -12.71998,2.702688 -8.28627,1.156164 -15.81327,4.246566 -17.69266,7.27924 -0.91894,1.482861 -0.69841,2.517235 0.93689,4.324301 1.87377,2.070611 1.98606,2.947868 0.82877,6.810774 -1.34104,4.476263 -3.70108,7.439843 -10.37777,13.0449715 -2.05592,1.72597 -3.63942,4.165011 -3.63942,5.585555 0,1.388393 -0.7703,4.163632 -1.6936,6.162129 -0.92323,1.998542 -2.64238,6.234199 -3.85563,9.4053535 -1.25969,3.292486 -3.31736,6.344013 -4.79251,7.099059 -1.42079,0.727224 -3.98226,2.847188 -5.69337,4.720695 -1.71108,1.87351 -4.49947,4.28008 -6.1618,5.369341 -1.98196,1.298696 -3.68361,4.153725 -4.97268,8.252206 -1.08117,3.437531 -2.66318,6.804834 -3.49529,7.495457 -0.83211,0.690623 -2.34586,3.819606 -3.38719,6.954924 -2.10293,6.331701 -9.45119,15.643661 -15.71078,19.891781 -3.59779,2.44164 -5.47572,2.777 -15.8189,2.91889 -10.23706,0.14043 -11.82715,-0.108 -12.46775,-1.87385 -0.40405,-1.1138 -2.12638,-3.83422 -3.81959,-6.05403 -1.69321,-2.2198 -4.29716,-6.20659 -5.76543,-8.86481 -3.88408,-7.031975 -11.27025,-9.48357 -14.26943,-4.7207 -0.9536,1.51437 -0.76086,2.80019 0.7567,5.36934 2.87088,4.86024 2.48247,7.08176 -1.47738,8.57652 -6.57103,2.48042 -5.5849,7.30906 2.2341,10.99094 4.64561,2.18756 5.64772,4.80237 2.91874,7.5315 -1.91086,1.91096 -9.28628,2.55835 -11.63896,1.00899 -0.70754,-0.46596 -2.3756,-3.0221 -3.71148,-5.65763 -6.80106,-13.41751 -19.72107,-12.67468 -24.43101,1.40541 -1.0212,3.0528 -2.36155,5.73614 -2.99082,5.94591 -0.62925,0.20975 -2.34319,-2.52777 -3.81959,-6.09006 -5.7278,-13.82006 -17.36241,-14.00245 -24.35893,-0.36036 -2.36837,4.6179 -4.09083,5.6216 -9.62107,5.6216 -8.24189,0 -9.9371,-5.59553 -2.63048,-8.64861 7.50219,-3.13477 8.53936,-7.62167 2.52239,-10.95489 -4.14235,-2.29474 -4.87823,-4.88795 -2.41427,-8.64861 3.88688,-5.93245 1.57618,-8.439882 -5.94561,-6.41437 -4.04168,1.08837 -5.34547,2.44844 -11.49481,11.89182 l -6.95456,10.66661 -10.23363,-0.10801 c -11.30989,-0.11927 -18.77536,-2.79802 -21.3321,-7.67564 -0.74693,-1.42493 -3.09674,-4.53869 -5.22491,-6.91887 -2.12817,-2.38038 -3.85563,-4.99298 -3.85563,-5.80183 0,-0.80887 -1.74087,-5.091741 -3.85564,-9.513464 -2.11475,-4.421735 -4.18112,-9.438521 -4.61234,-11.171115 -0.45362,-1.822616 -2.21103,-3.901303 -4.14391,-4.900873 -1.8374,-0.950212 -4.46313,-3.144068 -5.83749,-4.900874 -1.37435,-1.756806 -3.63174,-3.475812 -5.0087,-3.819798 -3.85733,-0.963609 -7.57506,-9.650792 -10.59399,-24.7566215 -0.25525,-1.27724 -3.0386,-4.293268 -6.19783,-6.7026655 -4.04117,-3.081992 -6.31874,-5.939078 -7.71127,-9.585534 -1.83661,-4.809515 -1.84564,-5.473447 -0.108,-9.117066 1.67037,-3.502998 1.66256,-4.103208 0.108,-5.657626 -2.03343,-2.033553 -7.17433,-3.518281 -18.23317,-5.261233 -4.37267,-0.689166 -8.83029,-1.728783 -9.90931,-2.306293 -1.07904,-0.577508 -5.92328,-1.523845 -10.77415,-2.126115 -6.77781,-0.841512 -10.06005,-1.956234 -14.2334,-4.720694 -5.98322,-3.963312 -14.92994,-6.990942 -20.57538,-6.990942 z M 540.192,150.45492 c 1.72955,0.0275 2.85669,1.21262 2.84666,3.53151 -0.0251,5.83006 -6.72511,25.77806 -17.87282,53.33305 -2.95074,7.29365 -6.24666,14.18295 -7.35091,15.31523 -1.92685,1.9758 -2.09695,1.99083 -3.96375,-0.072 -1.06984,-1.18223 -1.94583,-2.75665 -1.94583,-3.49547 0,-2.02231 -16.01401,-19.81971 -17.83679,-19.81971 -2.23648,0 -5.22491,-3.25393 -5.22491,-5.69367 0,-1.19962 2.81095,-4.01969 6.73833,-6.77472 6.85038,-4.80554 13.12885,-11.61087 17.44042,-18.91883 1.83854,-3.11626 2.16208,-4.73879 1.33326,-6.91888 -1.65169,-4.34456 -0.16887,-5.81856 4.32407,-4.25223 5.07038,1.76763 11.40267,0.58083 15.02615,-2.84682 2.41101,-2.28073 4.75654,-3.41488 6.48612,-3.38739 z m -183.44874,0.50451 c 1.59778,0.0435 3.42322,1.01098 5.18889,2.70269 3.66147,3.5081 9.99206,4.85076 14.80994,3.17115 3.96933,-1.38379 6.41263,-0.26923 5.36906,2.45044 -1.84207,4.80058 0.73045,10.00529 9.08054,18.37828 4.56539,4.57791 10.05173,9.63404 12.21552,11.24317 3.33167,2.47767 3.83213,3.41962 3.17097,6.05402 -0.50435,2.00959 -1.82029,3.35416 -3.67546,3.8198 -3.03109,0.76081 -17.04643,16.01026 -20.3952,22.19808 -1.08036,1.99625 -2.51002,3.63962 -3.20701,3.63962 -1.68965,0 -6.94517,-11.41237 -12.71998,-27.67552 -14.33137,-40.36026 -15.45345,-45.24775 -10.52191,-45.94569 0.21738,-0.0308 0.45639,-0.0425 0.68464,-0.036 z m 367.6902,39.20698 c -0.83894,-0.0141 -1.44241,0.50692 -2.59445,1.54956 -1.30021,1.17673 -2.37823,2.97093 -2.37823,3.99997 0,2.90619 3.19654,6.76424 6.0537,7.31528 4.83862,0.93318 5.47723,0.82873 7.78332,-1.47748 3.7087,-3.70887 2.73378,-5.60397 -4.93663,-9.72967 -2.0377,-1.09603 -3.08877,-1.64361 -3.92771,-1.65766 z m -552.4722,0.0721 c -1.70907,0.12924 -3.84314,1.02908 -6.30594,2.70268 -4.3853,2.98005 -5.40025,5.91471 -2.91874,8.39635 3.97399,3.9742 13.62082,-0.21801 13.62082,-5.90987 0,-3.30417 -1.35291,-5.05987 -3.67546,-5.18916 -0.2258,-0.0126 -0.47652,-0.0185 -0.72068,0 z m 275.87577,7.20717 c 4.5623,-0.7857 10.9046,5.7339 10.84622,10.84679 -0.0632,5.52991 -3.16532,7.33233 -4.39614,9.7657 -4.07066,8.21931 -5.63039,9.75208 -11.38672,2.59458 -1.10936,-4.55684 -1.54497,-8.4399 -1.51343,-11.85579 -1.00098,-8.5331 2.16143,-10.61272 6.45007,-11.35128 z m 119.16419,56.28797 c 0.29614,-0.0232 0.56201,-0.0181 0.82879,0 1.77851,0.12054 2.88272,1.14143 2.88272,2.95494 0,2.70065 -7.71422,14.73703 -13.62082,21.26114 -2.44289,2.69828 -6.28949,8.03761 -8.57609,11.8558 -2.28662,3.81817 -6.99841,9.38537 -10.44983,12.39631 -5.027,4.38544 -6.40701,6.40426 -6.99059,10.05402 -0.57006,3.56522 -1.68332,5.17515 -5.04474,7.4594 -4.37538,2.97334 -8.81358,3.68631 -11.675,1.87388 -1.17783,-0.74606 -1.37598,-2.3808 -0.79275,-6.27024 0.57125,-3.80959 0.25087,-6.21701 -1.08101,-8.79275 -2.04005,-3.94521 -1.48077,-10.30858 1.29721,-14.73866 0.92956,-1.48237 1.96703,-7.32496 2.37825,-13.5855 0.39698,-6.04378 1.28701,-11.35426 1.98187,-11.78372 0.69484,-0.42947 6.93965,-2.25046 13.87306,-4.03602 6.9334,-1.78555 13.32291,-3.81475 14.19737,-4.54052 0.87444,-0.72575 4.50491,-1.47842 8.0716,-1.65764 3.56669,-0.17921 7.9187,-0.92262 9.69311,-1.65766 1.10742,-0.45872 2.13847,-0.72333 3.02685,-0.79278 z m -239.08512,0.25226 c 1.19979,0.0211 2.9561,0.3932 5.87355,1.15314 3.73552,0.97304 8.38212,1.76575 10.34173,1.76575 1.95961,0 4.08192,0.48321 4.68442,1.08108 0.60248,0.59786 3.15656,1.60624 5.69336,2.23422 11.12065,2.75289 18.51876,5.00267 19.49434,5.94592 1.4872,1.43792 1.12833,29.97052 -0.39637,31.49531 -0.67673,0.67678 -1.22514,3.08368 -1.22514,5.36935 0,3.18697 -0.9036,5.02936 -3.81961,7.8558 -6.43264,6.23511 -7.74416,5.29018 -16.79182,-11.71165 -5.8176,-10.93215 -11.074,-18.83457 -18.08901,-27.27912 -2.89776,-3.48826 -6.31854,-8.35092 -7.60318,-10.81074 -2.00658,-3.84222 -2.11322,-4.69744 -0.72067,-6.09007 0.6963,-0.69631 1.35862,-1.03013 2.5584,-1.00899 z m 299.00956,76.03562 c -1.65746,-0.027 -2.82719,0.63084 -3.3872,1.76575 -0.14704,2.45479 2.03611,4.77167 3.13496,5.65762 0,0 1.61656,1.45665 3.24305,1.44143 1.42695,-0.0133 4.03233,-0.86311 4.0358,-2.23422 0.003,-1.64378 0.30737,-3.60329 -0.64862,-4.21619 -2.58674,-1.65839 -4.72054,-2.38737 -6.37799,-2.41439 z m -359.90689,0.28828 c -1.51474,0.0627 -3.53901,0.82807 -6.12576,2.48646 -0.956,0.61291 -0.6882,2.50034 -0.68465,4.14414 0.003,1.37111 2.10437,2.18481 3.53132,2.19818 1.6265,0.0152 3.24307,-1.47746 3.24307,-1.47746 1.09884,-0.88597 3.282,-3.16681 3.13494,-5.62161 -0.56,-1.13491 -1.58419,-1.79243 -3.09892,-1.72971 z m 37.5834,15.3873 c -6.3996,0 -10.45143,5.84725 -5.04476,7.27923 4.06574,1.07685 5.9119,0.70888 7.06265,-1.44143 2.10614,-3.93558 1.44178,-5.8378 -2.01789,-5.8378 z m 284.55993,0 c -3.04585,0 -3.7086,1.6435 -2.12601,5.11709 1.34854,2.95986 4.395,3.79181 8.35989,2.27026 4.58276,-1.75867 -0.16397,-7.38735 -6.23388,-7.38735 z m 93.90441,5.76572 c -2.72597,0 -7.42299,3.58459 -7.42299,5.65764 0,0.56547 1.22887,1.31476 2.73858,1.69367 1.50971,0.37894 3.03621,1.79292 3.38719,3.13514 0.92312,3.53023 3.48633,2.11287 4.4682,-2.4865 1.17266,-5.49283 0.18056,-7.99995 -3.17098,-7.99995 z m -472.00842,0.072 c -1.36961,0.0346 -2.62184,0.54046 -3.45927,1.54954 -1.21618,1.46548 -1.00685,4.87773 0.64862,9.90986 0.43773,1.33053 1.17423,0.99788 3.13495,-1.44143 1.40192,-1.74414 3.12414,-3.17117 3.85563,-3.17117 2.44158,0 2.87316,-2.42554 0.82877,-4.68466 -1.3317,-1.4716 -3.24777,-2.20667 -5.0087,-2.16214 z m -8.35987,14.91884 c -2.78266,0 -3.99343,2.93895 -2.126,5.18916 1.8446,2.22268 5.66454,2.23494 6.52213,0 0.8728,-2.27459 -1.59871,-5.18916 -4.39613,-5.18916 z m 487.75525,0.108 c -0.68995,0.0569 -1.40625,0.51986 -2.66652,1.44144 -1.35649,0.99196 -1.85083,2.3126 -1.36929,3.56755 0.95656,2.49286 5.25194,1.97692 6.99059,-0.82883 0.98132,-1.58361 0.86715,-2.28368 -0.46844,-3.13512 -1.13577,-0.72408 -1.79639,-1.10191 -2.48634,-1.04504 z"
       id="path3045"
       inkscape:connector-curvature="0"
       sodipodi:nodetypes="ssssssssssscccsssssscsscsssssssssssscccssscssssssssssssssssssssssssssscccscssssssssssssssssssssssssscssssssssscssssssssccccsssssssssssssssssssssssssssssssssssssssscsssssssssssscssccssssssssssssssssssscssssssssscsssssssssscssssssscccscsssssssscccsssssccscsssssssssccssssssssssccccsssssccsssscsscccsccssssssssssscssssccssssssssssssccccccsccscscccsssssssssssssscssssscsssscssssc" />
  </g>
  <g
     inkscape:groupmode="layer"
     id="layer1"
     inkscape:label="D1"
     style="display:inline"
     transform="translate(0,96)">
    <path
       style="fill:#0000ab;fill-opacity:1;stroke:#000000;stroke-width:0.5;stroke-linecap:butt;stroke-linejoin:round;stroke-miterlimit:4;stroke-opacity:1;stroke-dasharray:none;display:inline"
       d="m 491.11377,50.455475 c -1.16162,0.07378 -2.12865,0.536159 -3.27909,1.549543 -0.54317,0.97531 -1.39479,1.987161 -1.44135,3.13511 l 1.9098,3.96395 1.18913,2.70268 c 0.0537,1.32035 0.3281,2.8206 -0.43243,3.67565 l -3.63941,1.83783 c -1.35873,1.17875 -2.6544,2.30967 -3.20702,3.60359 -0.27265,0.78416 0.25482,1.73478 0.5405,2.6306 1.51954,1.62788 1.83023,1.93627 3.17099,3.0991 0.98706,0.5403 2.86412,1.36712 4.82856,2.45044 l 2.19805,2.37836 19.3142,-7.31528 -11.09846,-16.75665 -2.95478,-4 -2.73857,-2.054024 c -1.86163,-0.642886 -3.19847,-0.974736 -4.36012,-0.900899 z m -83.13026,1.729713 c -0.87282,-0.009 -2.2317,0.1438 -4.50425,0.54054 l -4.54027,1.58559 -3.35116,3.85582 -11.24259,17.225141 19.49436,6.95491 2.5584,-2.486481 c 1.96444,-1.08332 2.58032,-1.405619 3.56737,-1.945939 1.4643,-1.10105 4.02453,-1.79038 4.86458,-4.036 0.28569,-0.895841 -0.0878,-1.66627 -0.36035,-2.45043 -0.55262,-1.29392 -1.77622,-2.49692 -3.13494,-3.67565 l -3.171,-1.90991 c -0.7605,-0.85506 -0.9906,-1.99495 -0.93686,-3.31529 l 0.8648,-2.63063 2.37824,-4.07204 c 0.26229,-0.12867 0.33725,-1.52659 -0.36033,-2.59459 -0.59279,-0.54217 -0.67131,-1.03051 -2.126,-1.04504 z"
       id="path2997"
       inkscape:connector-curvature="0" />
  </g>
  <g
     inkscape:groupmode="layer"
     id="layer4"
     inkscape:label="D2"
     style="display:inline"
     transform="translate(0,96)">
    <path
       style="fill:#0000ab;fill-opacity:1;stroke:#000000;stroke-width:0.5;stroke-linejoin:round;stroke-miterlimit:4;stroke-opacity:1;stroke-dasharray:none;display:inline"
       d="m 674.81475,-55.922321 c -1.14961,0.04502 -2.4096,0.178085 -3.78357,0.360359 -5.91306,0.784439 -11.75738,3.351298 -17.08009,7.531491 -1.78891,1.404935 -5.5078,2.503711 -9.80122,2.918901 -3.80518,0.367969 -9.25351,1.432439 -12.1074,2.342329 -2.85389,0.909892 -8.56925,2.123545 -12.71996,2.702689 -8.2863,1.156168 -15.81328,4.246566 -17.69267,7.279239 -0.91895,1.482854 -0.69841,2.517226 0.93687,4.3243 1.8738,2.070614 1.98609,2.94787 0.82879,6.810774 -1.34105,4.476263 -3.70108,7.439849 -10.37777,13.0449725 -2.05594,1.725973 -3.63943,4.165017 -3.63943,5.585555 0,1.3884 -0.73427,4.163633 -1.65755,6.162128 -0.92326,1.998554 -2.67842,6.234201 -3.89168,9.4053555 -1.25968,3.292487 -3.31735,6.344013 -4.79251,7.099058 -1.4208,0.727233 -3.98227,2.847191 -5.69336,4.720695 -1.71108,1.873507 -4.46345,4.280078 -6.12577,5.36934 -1.98196,1.298698 -3.71966,4.153728 -5.00871,8.252208 -1.08119,3.437531 -2.62716,6.804831 -3.45925,7.495453 -0.83212,0.690633 -2.3819,3.819606 -3.42322,6.954913 -2.10296,6.33172 -9.4512,15.60765 -15.71081,19.85576 -3.59778,2.44163 -5.47571,2.81304 -15.81889,2.954939 -7.30047,0.10011 -10.1958,0.0172 -11.49483,-0.68469 l 0.45288,81.961072 8.32385,1.05137 c 9.59558,1.0099 12.42095,-2.98674 15.97858,-5.42728 1.05985,-0.59052 2.05557,-0.89983 2.91876,-0.97298 l 0.46843,-0.18016 0.072,0.14414 c 1.66592,0.0759 2.74839,1.26307 2.73858,3.53151 -0.002,0.44679 -0.065,1.01193 -0.14415,1.62161 l 0.108,0.25225 -0.25223,0.72072 c -1.35101,7.9578 -7.71937,26.35362 -17.58456,50.73846 -0.31692,0.78337 -0.65073,1.50276 -0.97292,2.27025 l -9.55964,16.88036 1.36437,41.2264 10.58595,-3.03825 c 11.02671,-3.50011 24.92725,-7.60281 25.60769,-8.29398 l 15.06219,-3.56756 4.14389,0.68469 -0.75671,2.4144 c 0.05,0.2414 0.072,0.51395 0.072,0.79278 0,0.75236 -0.63129,2.26445 -1.62152,4.14413 l -7.37715,9.95654 -25.57107,32.71099 -2.0047,2.48537 c -1.9124,2.13737 -2.6768,3.8197 -3.06288,6.23421 -0.34067,2.13056 -0.89528,3.56508 -1.98187,4.86483 l -0.61251,2.19818 -14.54501,2.05117 c 4.59061,19.94097 9.01543,40.04771 15.50006,58.09456 0.81921,-0.40143 4.73862,-6.91052 4.37797,-8.0379 -1.67625,-5.23984 5.20592,-10.48441 11.9993,-10.19813 2.82321,0.11895 5.87729,0.84713 6.81041,1.6216 2.60539,2.1624 5.40507,-1.34526 5.40507,-6.77474 0,-4.64237 1.98701,-10.34228 3.60341,-10.34228 1.60602,0 3.2385,4.13149 2.59444,6.59455 -0.33979,1.29942 -0.0464,2.70549 0.64861,3.13512 2.41068,1.48995 5.675,-0.61498 6.45007,-4.14412 0.55513,-2.52761 1.852,-3.94269 4.57632,-5.08106 2.28785,-0.95597 4.94102,-3.53795 6.73834,-6.52247 1.63652,-2.71758 3.48763,-5.70027 4.10787,-6.6306 0.64493,-0.96737 3.75381,-1.95471 7.24282,-2.3063 5.34493,-0.53859 6.39527,-1.1 8.43194,-4.39637 1.90902,-3.08981 2.82164,-3.62496 5.18888,-3.06303 1.5855,0.37633 4.77314,0.96965 7.09868,1.29728 4.70626,0.66301 8.63255,4.14487 9.22469,8.21618 0.21415,1.47236 1.83016,3.5278 3.56737,4.57655 2.8507,1.72097 3.32611,1.75475 4.93664,0.14413 2.13451,-2.13459 1.186,-5.29906 -1.87377,-6.27024 -3.18226,-1.01007 -2.71393,-2.55354 1.54946,-5.15311 4.39064,-2.67718 8.38156,-2.87137 12.39568,-0.57658 3.81266,2.17963 8.63786,2.13638 10.84621,-0.072 0.97983,-0.9799 2.31541,-3.83393 2.99081,-6.34232 1.79268,-6.65789 4.15056,-5.74138 6.84644,2.63062 0.75919,2.35762 2.83255,5.49327 4.61235,6.99096 1.77981,1.49767 3.83935,3.84807 4.57632,5.2252 1.9633,3.66868 8.90885,3.4718 13.0803,-0.3964 1.73758,-1.61126 3.171,-3.72857 3.171,-4.68467 0,-0.9561 1.42695,-2.96261 3.17098,-4.46844 3.07381,-2.65397 3.1014,-2.85706 1.29723,-6.01799 -1.02368,-1.79345 -2.1562,-4.61453 -2.55841,-6.30627 -0.4205,-1.76856 -2.4286,-4.11923 -4.68442,-5.51347 -4.50695,-2.7856 -5.29698,-4.35787 -5.29698,-10.37832 0,-7.82158 3.82809,-9.44775 22.98963,-9.87383 7.34302,-0.16329 13.67628,-0.35585 14.08927,-0.43242 0.41301,-0.0766 1.78865,-1.91226 3.0629,-4.07206 2.10528,-3.5684 2.16647,-4.14429 0.57654,-6.41438 -1.59622,-2.27903 -1.53729,-2.7174 0.57654,-5.00898 4.80376,-5.20769 7.31269,-11.58055 8.54003,-21.54943 1.38974,-11.28778 0.24192,-15.5625 -4.82854,-18.08999 -1.56539,-0.7803 -4.15982,-3.29364 -5.76544,-5.62158 -1.60559,-2.32796 -5.25374,-5.53365 -8.10762,-7.09907 -8.34539,-4.57765 -8.78667,-5.23718 -7.17076,-11.27922 0.76665,-2.86658 1.40533,-7.51922 1.40533,-10.34228 0,-4.17301 0.65583,-5.81496 3.53133,-8.75671 2.05874,-2.10618 3.2635,-4.34094 2.88271,-5.33331 -0.3598,-0.93766 -0.64861,-2.17867 -0.64861,-2.73871 0,-2.05531 -4.38654,-3.43343 -7.35093,-2.3063 -2.62175,0.99683 -3.29607,0.58471 -6.91851,-4.32431 -7.8093,-10.58294 -10.8774,-12.72666 -18.59351,-13.11703 -6.40459,-0.32403 -6.94773,-0.57451 -7.27886,-3.24323 -0.19672,-1.58558 -1.17781,-5.14146 -2.19805,-7.89185 -1.97924,-5.33567 -1.18652,-7.05744 3.31511,-7.09906 2.7587,-0.0255 8.27498,-9.90251 7.42299,-13.29722 -1.15461,-4.60061 1.23521,-4.27147 5.1889,0.72071 3.71792,4.69452 3.84288,4.75689 9.62105,4.07205 3.2175,-0.38134 8.78997,-1.47184 12.39567,-2.41441 6.83639,-1.78706 11.22335,-1.12189 16.4675,2.45044 1.25095,0.85217 3.84541,1.54378 5.76543,1.54954 1.92003,0.006 6.26313,1.28348 9.62105,2.84684 7.40059,3.44551 14.75902,2.95465 19.8547,-1.33334 2.44852,-2.06038 5.00982,-2.84037 10.26968,-3.17114 3.84964,-0.24209 7.28284,0.036 7.63919,0.61261 1.12762,1.82461 4.67827,1.14226 6.91852,-1.33332 1.69023,-1.86779 2.98946,-2.25506 5.98162,-1.69369 2.10349,0.39463 5.53868,0.11089 7.6392,-0.64865 3.34794,-1.2107 4.82041,-1.01684 11.81912,1.65764 6.40659,2.44823 9.94485,3.06305 17.94491,3.06305 10.96434,0 20.53934,-2.95167 20.53934,-6.34231 0,-1.00139 -2.85389,-4.75146 -6.34198,-8.32427 -3.61343,-3.70117 -6.34197,-7.55661 -6.34197,-8.93689 0,-3.73014 -3.19532,-7.45416 -8.0716,-9.40535 -2.43288,-0.97351 -4.71137,-2.482502 -5.04475,-3.351332 -0.33338,-0.86883 -2.82123,-2.14078 -5.54922,-2.84684 -8.83535,-2.28678 -15.19506,-5.0446 -18.77368,-8.1441 -3.15388,-2.73161 -16.70748,-9.23679 -44.1776,-21.15304 -5.26285,-2.28294 -10.14399,-4.14412 -10.81018,-4.14412 -2.01595,0 -9.39033,-3.64156 -13.54876,-6.70267 -3.01803,-2.22163 -7.24288,-3.44022 -18.44937,-5.297262 l -14.52167,-2.414405 0,-8.216165 c 0,-7.772486 -0.21801,-8.428847 -3.74752,-11.819755 -2.05537,-1.97466 -4.33221,-3.603583 -5.0808,-3.603583 -2.08276,0 -5.58525,-3.594395 -5.58525,-5.7297 0,-2.355935 -5.93525,-8.561271 -13.22445,-13.8377595 -5.95359,-4.309667 -8.90749,-8.84896 -6.66628,-10.234179 1.45488,-0.899212 11.81913,-20.3961815 11.81913,-22.2341115 0,-0.640943 2.08558,-3.633843 4.61234,-6.630596 3.72662,-4.419769 4.63391,-6.401289 4.79252,-10.594535 0.31906,-8.432761 -2.40249,-11.630444 -10.44973,-11.315298 z M 589.3783,346.38178 c -3.04585,0 -3.70859,1.60746 -2.12599,5.08104 1.34853,2.95986 4.39498,3.79183 8.35986,2.27026 4.58276,-1.75866 -0.16397,-7.3513 -6.23387,-7.3513 z"
       id="path3045-5"
       inkscape:connector-curvature="0"
       sodipodi:nodetypes="ssssssssssscssssssssscccccccccccsccccccccsccccsccccsssssssssssssssssssssssssssssssssscssssssssssssssssssssssscssscsssssssssssssssccssssssssssssss" />
  </g>
  <g
     inkscape:groupmode="layer"
     id="layer5"
     inkscape:label="D3"
     style="display:inline"
     transform="translate(0,96)">
    <path
       style="fill:#0000ab;fill-opacity:1;stroke:#000000;stroke-width:1px;stroke-linecap:butt;stroke-linejoin:miter;stroke-opacity:1;display:inline"
       d="m 448.81509,274.03724 c -18.53173,0.74133 -25.69734,13.59067 -25.69734,13.59067 l -2.96507,39.78358 0.98835,33.60598 0.39612,52.71399 5.85348,19.64008 c -11.5788,11.9105 -16.07655,23.9655 7.58744,30.44073 l 24.46188,-0.45586 12.4312,-50.08081 4.61798,-79.93365 -1.48251,-47.93796 c -8.67191,-7.50243 -16.21055,-11.60337 -26.19153,-11.36675 z"
       id="path4076"
       inkscape:connector-curvature="0"
       sodipodi:nodetypes="cccccccccccc" />
  </g>
  <g
     inkscape:groupmode="layer"
     id="layer6"
     inkscape:label="D4"
     style="display:inline"
     transform="translate(0,96)">
    <path
       style="fill:#0000ab;fill-opacity:1;stroke:#000000;stroke-width:0.5;stroke-linecap:butt;stroke-linejoin:miter;stroke-miterlimit:4;stroke-opacity:1;stroke-dasharray:none;display:inline"
       d="m 448.4732,88.448069 c -14.26118,-29.61399 -24.26679,-14.05391 -31.91566,-1.561041 -6.13637,1.1121 -13.97976,1.92089 -11.55976,-5.01743 1.10934,-3.18058 9.13808,-3.28488 10.18374,-10.05673 0.58538,-3.79099 -11.03855,-4.9598 -6.71702,-11.25124 5.51376,-8.02715 -0.39228,-9.908877 -7.77865,-7.33575 -2.96847,1.03411 -12.84543,16.407991 -16.83127,21.948191 -0.48978,9.63896 -1.88806,73.816941 -2.46185,81.386961 0.50726,4.90705 -0.96868,6.40879 1.65554,10.65947 8.73559,14.14988 28.37475,27.10629 23.76564,27.95012 l -9.79239,7.34467 -11.26123,13.22042 -5.38582,8.32397 -5.38579,41.13017 -0.48963,29.86837 -2.93772,12.24112 -5.2634,29.13388 -6.48745,35.98892 16.64704,18.11687 24.97059,16.64793 12.24047,3.91716 5.87543,0.48965 7.83392,20.07545 -7.83392,11.26184 -0.48962,7.83431 4.40658,8.32397 12.24048,3.91716 16.64705,0.48964 7.34428,-1.46893 2.93771,-7.34469 1.46887,-13.71006 6.36505,-28.88905 18.60552,-3.91716 19.58477,-11.75147 c 6.46203,-5.48308 13.1583,-10.99762 20.39599,-17.25639 l -6.04343,-18.97736 -9.45637,-39.1716 c 1.96778,-10.85895 -6.96744,-20.56345 1.55429,-37.22358 l 1.38342,-19.08561 -1.75429,-41.88548 c -2.80779,-2.60375 -6.70229,-10.31951 -13.4239,-17.68868 -4.40646,-1.97401 -4.61637,-5.34642 -8.49051,-5.69835 -3.41944,-1.26993 -3.33134,-3.85255 -4.01562,-7.19496 3.40956,-3.14475 7.69324,-4.68311 14.14419,-11.49162 2.43224,-2.56708 11.82232,-11.53359 11.88613,-16.68553 0.016,-1.29362 -0.83274,-4.28867 -0.83865,-6.29585 -0.0252,-8.5541 0.56113,-21.21213 -0.34247,-31.24014 -0.98483,-10.92962 1.17082,-46.418571 -2.79117,-53.597851 -5.21528,-9.45028 -10.18991,-18.67467 -13.32248,-21.197877 -2.21253,-1.782153 -7.80317,0.02178 -10.54001,1.034927 -4.0169,1.48704 5.88415,8.87435 1.77762,13.34506 -1.33686,1.45541 -5.06284,1.57838 -5.78386,3.63307 -3.09489,8.81969 6.28237,6.99316 9.52965,10.45046 5.20307,5.53959 -10.06554,8.65503 -11.05371,7.13486 -23.94644,-36.838681 -30.99057,-0.41935 -32.99632,1.12581 z"
       id="path3771-8"
       inkscape:connector-curvature="0"
       sodipodi:nodetypes="ccssssccsccccccccccccccccccccccccccccccccccsssssssssssc" />
  </g>
  <g
     inkscape:groupmode="layer"
     id="layer7"
     inkscape:label="D7"
     style="display:inline"
     transform="translate(0,96)">
    <path
       style="fill:#0000ab;fill-opacity:1;stroke:#000000;stroke-width:0.5;stroke-miterlimit:4;stroke-opacity:1;stroke-dasharray:none;display:inline"
       d="m 221.22178,-56.765729 c -4.18747,0 -7.47578,3.018141 -7.71128,7.063024 -0.46614,8.006857 0.37334,11.10188 4.28805,15.675589 2.21969,2.593347 4.0358,5.511348 4.0358,6.486451 0,0.975104 1.81612,4.897112 4.0358,8.684638 2.21969,3.787525 4.0358,7.520527 4.0358,8.324277 0,0.8037515 1.08602,2.6220775 2.41428,4.0360135 3.43516,3.656761 2.10309,6.396701 -5.6213,11.531469 -7.51924,4.9983985 -12.85481,10.5414205 -12.90015,13.3692955 -0.0331,2.064532 -5.1965,6.702666 -7.45901,6.702666 -0.74713,0 -2.76151,1.461703 -4.46821,3.243225 -2.79542,2.917953 -3.07453,3.968276 -2.81065,10.630568 l 0.28826,7.387349 -4.61233,1.54954 c -2.53679,0.849964 -8.90633,2.092667 -14.16134,2.774755 -7.6294,0.990314 -10.37346,1.931067 -13.65687,4.540507 -2.48568,1.9755 -9.42939,4.92842 -17.54851,7.49546 -7.38706,2.335601 -14.21899,4.88217 -15.17029,5.65764 -1.7595,1.43429 -13.80349,7.31875 -25.47599,12.43236 -3.54736,1.55405 -9.150988,4.67327 -12.467735,6.95492 -5.684068,3.91015 -12.212747,6.50795 -16.395437,6.522491 -1.021347,0.003 -3.72907,1.305239 -6.053701,2.882859 -2.324621,1.57762 -5.577382,3.194612 -7.206786,3.603582 -3.283007,0.82403 -7.344233,6.58199 -7.350921,10.41436 -0.0023,1.35916 -0.769374,2.74442 -1.693594,3.09908 -2.423705,0.93012 -7.551847,9.46328 -7.531092,12.54048 0.03712,5.5037 1.373752,6.08034 15.098216,6.3423 10.234882,0.19536 14.26585,-0.22014 19.602459,-2.018 7.579243,-2.5534 11.523695,-2.85402 13.368586,-1.00902 0.911156,0.91122 1.900885,0.91122 3.603395,0 3.57467,-1.91319 5.44369,-1.55607 9.47692,1.83784 3.37021,2.83599 3.82891,2.95058 5.11682,1.18918 1.99832,-2.733 15.61413,-1.14267 19.35022,2.27027 4.00599,3.65947 11.79068,4.28087 19.0259,1.51351 3.33635,-1.27612 7.6325,-2.3063 9.51297,-2.3063 1.88044,0 5.09428,-1.04021 7.17075,-2.3063 4.59144,-2.79956 7.88126,-2.84558 22.37708,-0.3964 l 11.24258,1.87386 3.53133,-4.18015 c 3.81032,-4.53865 7.40945,-5.89807 5.333,-2.01801 -0.89968,1.68118 -0.58017,3.07265 1.44137,6.05403 1.44366,2.1291 2.99821,4.76393 3.42323,5.87384 0.42502,1.10989 1.68089,2.00878 2.81065,2.018 4.60318,0.0396 5.51837,1.79733 3.45925,6.55852 -1.04943,2.42655 -2.05565,5.95313 -2.2341,7.85582 -2.5535,3.51416 -0.0213,7.76681 5.05325,12.90224 7.61507,1.76239 13.22359,-5.05586 14.84802,-7.56816 l 93.31733,-121.297413 0.39637,-0.828824 c -0.94222,-2.251911 -1.676,-4.177723 -1.90979,-5.117088 -0.45362,-1.822617 -2.21105,-3.901303 -4.14391,-4.900874 -1.83741,-0.950209 -4.46313,-3.144066 -5.83749,-4.900871 -1.37436,-1.756806 -3.63175,-3.475812 -5.00871,-3.819798 -3.85732,-0.963609 -7.57507,-9.650791 -10.59398,-24.7566215 -0.25525,-1.27724 -3.0386,-4.293268 -6.19783,-6.7026665 -4.04117,-3.081991 -6.31874,-5.939076 -7.71128,-9.585531 -1.8366,-4.809518 -1.84559,-5.47345 -0.108,-9.117068 1.67038,-3.502998 1.6625,-4.103208 0.108,-5.657625 -2.03343,-2.033554 -7.17432,-3.51828 -18.23316,-5.261233 -4.37269,-0.689168 -8.8303,-1.728785 -9.90933,-2.306295 -1.07902,-0.577508 -5.92328,-1.523845 -10.77415,-2.126115 -6.77779,-0.84151 -10.06005,-1.956231 -14.23339,-4.720693 -5.98322,-3.963322 -14.92993,-6.990953 -20.57537,-6.990953 z"
       id="path3045-2"
       inkscape:connector-curvature="0"
       sodipodi:nodetypes="ssssssssssscccsssssscsscsssssssssssscccssscscccccsssssscccsssss" />
  </g>
  <g
     inkscape:groupmode="layer"
     id="layer8"
     inkscape:label="Dd21"
     style="display:inline"
     transform="translate(0,96)">
    <path
       sodipodi:nodetypes="ccssssccsccsssssssssssc"
       inkscape:connector-curvature="0"
       id="path4487"
       d="m 448.4732,88.448069 c -14.26118,-29.61399 -24.26679,-14.05391 -31.91566,-1.561041 -6.13637,1.1121 -13.97976,1.92089 -11.55976,-5.01743 1.10934,-3.18058 9.13808,-3.28488 10.18374,-10.05673 0.58538,-3.79099 -11.03855,-4.9598 -6.71702,-11.25124 5.51376,-8.02715 -0.39228,-9.908877 -7.77865,-7.33575 -2.96847,1.03411 -12.84543,16.407991 -16.83127,21.948191 -0.48978,9.63896 -1.88806,73.816941 -2.46185,81.386961 0.50726,4.90705 -0.96868,6.40879 1.65554,10.65947 8.73559,14.14988 28.37475,27.10629 23.76564,27.95012 7.31684,3.65479 56.95694,12.97327 81.99037,-2.93787 3.40956,-3.14475 7.69324,-4.68311 14.14419,-11.49162 2.43224,-2.56708 11.82232,-11.53359 11.88613,-16.68553 0.016,-1.29362 -0.83274,-4.28867 -0.83865,-6.29585 -0.0252,-8.5541 0.56113,-21.21213 -0.34247,-31.24014 -0.98483,-10.92962 1.17082,-46.418582 -2.79117,-53.597851 -5.21528,-9.45028 -10.18991,-18.67467 -13.32248,-21.197877 -2.21253,-1.782153 -7.80317,0.02178 -10.54001,1.034927 -4.0169,1.48704 5.88415,8.87435 1.77762,13.34506 -1.33686,1.45541 -5.06284,1.57838 -5.78386,3.63307 -3.09489,8.81969 6.28237,6.99316 9.52965,10.45045 5.20307,5.5396 -10.06554,8.65504 -11.05371,7.13487 -23.94644,-36.838681 -30.99057,-0.41935 -32.99632,1.12581 z"
       style="fill:#0000ff;fill-opacity:1;stroke:#000000;stroke-width:0.5;stroke-linecap:butt;stroke-linejoin:miter;stroke-miterlimit:4;stroke-opacity:1;stroke-dasharray:none;display:inline" />
  </g>
  <g
     inkscape:groupmode="layer"
     id="layer9"
     inkscape:label="Dd22"
     style="display:inline"
     transform="translate(0,96)">
    <path
       style="fill:#0000ff;fill-opacity:1;stroke:#000000;stroke-width:0.5;stroke-linecap:butt;stroke-linejoin:round;stroke-miterlimit:4;stroke-opacity:1;stroke-dasharray:none"
       d="m 416.73287,86.517549 c 9.97012,5.10772 21.92515,5.78037 32.83562,6.87148 17.7842,-0.75855 18.10388,-1.29447 30.30946,-6.99963 -7.55851,-13.3315 -16.27361,-20.65522 -24.67876,-10.95444 -8.81311,18.60217 -3.8185,14.83291 -13.77175,0.48285 -4.91082,-6.8943 -13.80772,-5.27246 -17.83626,1.34507 -2.01571,3.43778 -3.57329,6.87133 -6.85831,9.25467 z"
       id="path4497"
       inkscape:connector-curvature="0"
       sodipodi:nodetypes="ccccccc" />
  </g>
  <g
     inkscape:groupmode="layer"
     id="layer10"
     inkscape:label="Dd23"
     style="display:inline"
     transform="translate(0,96)">
    <path
       style="fill:#0000ff;fill-opacity:1;stroke:#000000;stroke-width:0.5;stroke-linecap:butt;stroke-linejoin:miter;stroke-miterlimit:4;stroke-opacity:1;stroke-dasharray:none"
       d="m 625.9167,330.23772 c -1.15083,0.0648 -1.88824,0.5565 -2.37824,1.54954 -0.14704,2.4548 2.03611,4.77168 3.13496,5.65763 0,0 1.61656,1.45665 3.24305,1.44143 1.42695,-0.0133 4.17648,-1.07932 4.17993,-2.45044 0.003,-1.64377 0.12226,-3.67537 -1.33325,-4.28827 -3.18585,-1.3415 -5.36679,-1.99314 -6.84645,-1.90989 z m -37.00683,15.53144 c -1.403,0.0792 -2.25066,0.73896 -2.81066,1.87388 -0.14705,2.45478 1.13525,4.66356 2.2341,5.54951 0,0 1.47432,0.35286 3.09892,0.43242 3.849,0.18848 5.50973,-0.89913 5.51319,-2.27024 0.003,-1.64379 -0.38222,-3.35107 -1.83773,-3.96395 -2.83187,-1.19245 -4.79484,-1.70086 -6.19782,-1.62162 z m 94.69715,5.44141 c -2.55385,-0.0816 -5.2232,2.48038 -6.77438,3.35134 -1.69571,2.02873 -1.6536,3.0697 -0.036,3.60358 1.61759,0.5339 3.10415,0.75099 4.07185,1.94595 0.7735,0.95517 0.40377,2.77971 2.37823,3.85583 1.75657,0.95734 3.63579,-5.15271 3.67547,-6.2342 0.0602,-1.64269 0.20878,-4.36668 -0.8288,-5.40539 -0.77387,-0.7747 -1.63504,-1.08993 -2.48633,-1.11711 z m 6.8104,15.24317 c -1.5716,0.0669 -3.09497,1.15286 -3.99976,2.88286 -1.09183,2.08773 0.0173,2.94103 1.04499,3.92791 0,0 1.49709,0.30194 2.99082,0 1.15452,-0.23336 2.99245,-1.57635 3.31512,-2.37837 0.34926,-0.86804 1.09306,-1.29607 0.14413,-2.55854 -1.0173,-1.35341 -2.27291,-1.9259 -3.4953,-1.87386 z"
       id="path4433"
       inkscape:connector-curvature="0" />
  </g>
  <g
     inkscape:groupmode="layer"
     id="layer3"
     inkscape:label="Dd24"
     style="display:inline"
     transform="translate(0,96)">
    <path
       style="fill:#0000ff;fill-opacity:1;stroke:#000000;stroke-width:0.5;stroke-linecap:butt;stroke-linejoin:miter;stroke-miterlimit:4;stroke-opacity:1;stroke-dasharray:none;display:inline"
       d="m 449.89874,190.87308 c -16.23817,-0.0807 -33.14789,-0.83311 -43.08648,5.38609 l -9.79238,7.34469 -11.26124,13.2204 -5.38581,8.32398 -5.3858,41.13019 -0.48964,29.86834 -2.9377,12.24115 -5.26341,29.13386 -6.48745,35.98892 16.64705,18.11686 24.97058,16.64795 12.24047,3.91715 5.87543,0.48965 7.83392,20.07544 -7.83392,11.26184 -0.48961,7.83432 4.40657,8.32397 12.24049,3.91716 16.64704,0.48965 7.34428,-1.46894 2.93771,-7.34469 1.46886,-13.71004 6.36506,-28.88908 18.60553,-3.91715 19.58475,-11.75148 c 6.46203,-5.48307 13.15832,-10.99761 20.396,-17.25638 l -6.04343,-18.97736 -9.45637,-39.17161 c 1.96779,-10.85894 -6.96743,-20.56343 1.55428,-37.22356 l 1.38343,-19.08561 -1.46886,-42.59912 c -3.10093,-4.94888 -10.60841,-9.45649 -13.70933,-18.11688 L 488.08903,193.3213 z"
       id="path3771"
       inkscape:connector-curvature="0"
       sodipodi:nodetypes="ccccccccccccccccccccccccccccccccccc" />
  </g>
  <g
     inkscape:groupmode="layer"
     id="layer11"
     inkscape:label="Dd25"
     style="display:inline"
     transform="translate(0,96)">
    <path
       style="fill:#0000ff;fill-opacity:1;stroke:#000000;stroke-width:0.5;stroke-linecap:butt;stroke-linejoin:miter;stroke-miterlimit:4;stroke-opacity:1;stroke-dasharray:none;display:inline"
       d="m 679.6433,159.03146 c -2.72424,0.19749 -6.64073,0.01 -5.64427,3.86188 -0.4817,13.31537 4.96995,26.23839 12.79516,36.78021 4.40312,5.78327 11.01261,9.18588 17.63723,11.77928 2.00709,0.87136 1.06985,-3.63492 1.81727,-5.05029 0.73974,-4.25906 1.20826,-8.57045 1.96589,-12.81802 0.69001,-2.65754 2.10768,-5.03717 4.41115,-6.56087 2.04484,-2.24868 2.71969,-5.50074 1.21376,-8.24455 -1.56297,-2.49156 -5.29633,-2.02893 -7.80389,-1.31003 -3.08092,1.64335 -4.42701,-2.51822 -6.4674,-4.02933 -3.88846,-4.89289 -7.38668,-10.93252 -13.69972,-12.96775 -1.99473,-0.74801 -4.07374,-1.42118 -6.22518,-1.44053 z m 41.16271,33.55776 c -2.28473,5.3107 0.48934,8.11623 4.65501,10.2817 1.56575,0.13428 3.16207,0.49798 4.70956,0.49492 1.13499,-0.42217 2.29694,-0.80549 2.97448,-1.88774 1.97839,-1.57846 3.15824,-4.46266 1.01932,-5.83709 -1.10799,-1.09347 -2.34815,-2.07028 -3.09964,-3.4446 -3.78983,-2.554 -7.24107,-2.45186 -10.25873,0.39281 z"
       id="path4353"
       inkscape:connector-curvature="0"
       sodipodi:nodetypes="ccccccccccccccccccc" />
  </g>
  <g
     inkscape:groupmode="layer"
     id="layer12"
     inkscape:label="DdS26"
     style="display:inline"
     transform="translate(0,96)">
    <path
       style="fill:#ffffff;fill-opacity:1;stroke:#000000;stroke-width:0.5;stroke-miterlimit:4;stroke-opacity:1;stroke-dasharray:none;display:inline"
       d="m 540.192,150.45492 c 1.72955,0.0275 2.85669,1.21262 2.84666,3.53151 -0.0251,5.83006 -6.72511,25.77806 -17.87282,53.33305 -2.95074,7.29365 -6.24666,14.18295 -7.35091,15.31523 -1.92685,1.9758 -2.09695,1.99083 -3.96375,-0.072 -1.06984,-1.18223 -1.94583,-2.75665 -1.94583,-3.49547 0,-2.02231 -16.01401,-19.81971 -17.83679,-19.81971 -2.23648,0 -5.22491,-3.25393 -5.22491,-5.69367 0,-1.19962 2.81095,-4.01969 6.73833,-6.77472 6.85038,-4.80554 13.12885,-11.61087 17.44042,-18.91883 1.83854,-3.11626 2.16208,-4.73879 1.33326,-6.91888 -1.65169,-4.34456 -0.16887,-5.81856 4.32407,-4.25223 5.07038,1.76763 11.40267,0.58083 15.02615,-2.84682 2.41101,-2.28073 4.75654,-3.41488 6.48612,-3.38739 z"
       id="path4244"
       inkscape:connector-curvature="0" />
    <path
       style="fill:#ffffff;fill-opacity:1;stroke:#000000;stroke-width:0.5;stroke-miterlimit:4;stroke-opacity:1;stroke-dasharray:none;display:inline"
       d="m 356.74326,150.95943 c 1.59778,0.0435 3.42322,1.01098 5.18889,2.70269 3.66147,3.5081 9.99206,4.85076 14.80994,3.17115 3.96933,-1.38379 6.41263,-0.26923 5.36906,2.45044 -1.84207,4.80058 0.73045,10.00529 9.08054,18.37828 4.56539,4.57791 10.05173,9.63404 12.21552,11.24317 3.33167,2.47767 3.83213,3.41962 3.17097,6.05402 -0.50435,2.00959 -1.82029,3.35416 -3.67546,3.8198 -3.03109,0.76081 -17.04643,16.01026 -20.3952,22.19808 -1.08036,1.99625 -2.51002,3.63962 -3.20701,3.63962 -1.68965,0 -6.94517,-11.41237 -12.71998,-27.67552 -14.33137,-40.36026 -15.45345,-45.24775 -10.52191,-45.94569 0.21738,-0.0308 0.45639,-0.0423 0.68464,-0.036 z"
       id="path4242"
       inkscape:connector-curvature="0" />
    <path
       style="fill:#009bff;fill-opacity:1;stroke:#000000;stroke-width:0.5;stroke-miterlimit:4;stroke-opacity:1;stroke-dasharray:none;display:inline"
       d="m 567.00122,253.73364 c 0.29614,-0.0232 0.56201,-0.0181 0.82879,0 1.77851,0.12053 2.88272,1.14143 2.88272,2.95494 0,2.70065 -7.71422,14.73703 -13.62082,21.26114 -2.44289,2.69828 -6.28949,8.03761 -8.57609,11.85579 -2.28662,3.81818 -6.99841,9.38538 -10.44983,12.39632 -5.027,4.38543 -6.40701,6.40425 -6.99059,10.05402 -0.57006,3.56521 -1.68332,5.17515 -5.04474,7.4594 -4.37538,2.97333 -8.81358,3.6863 -11.675,1.87388 -1.17783,-0.74606 -1.37598,-2.3808 -0.79275,-6.27025 0.57125,-3.80958 0.25087,-6.21701 -1.08101,-8.79274 -2.04005,-3.94521 -1.48077,-10.30859 1.29721,-14.73867 0.92956,-1.48237 1.96703,-7.32496 2.37825,-13.58549 0.39698,-6.04378 1.28701,-11.35426 1.98187,-11.78372 0.69484,-0.42947 6.93965,-2.25047 13.87306,-4.03602 6.9334,-1.78555 13.32291,-3.81475 14.19737,-4.54052 0.87444,-0.72576 4.50491,-1.47843 8.0716,-1.65764 3.56669,-0.17921 7.9187,-0.92263 9.69311,-1.65766 1.10742,-0.45872 2.13847,-0.72334 3.02685,-0.79278 z"
       id="path4238"
       inkscape:connector-curvature="0" />
    <path
       style="fill:#009bff;fill-opacity:1;stroke:#000000;stroke-width:0.5;stroke-miterlimit:4;stroke-opacity:1;stroke-dasharray:none;display:inline"
       d="m 327.9161,253.98589 c 1.19979,0.0211 2.9561,0.39321 5.87355,1.15315 3.73552,0.97303 8.38212,1.76575 10.34173,1.76575 1.95961,0 4.08192,0.48321 4.68442,1.08107 0.60248,0.59786 3.15656,1.60625 5.69336,2.23423 11.12065,2.75289 18.51876,5.00266 19.49434,5.94592 1.4872,1.43791 1.12833,29.97052 -0.39637,31.4953 -0.67673,0.67679 -1.22514,3.08368 -1.22514,5.36936 0,3.18696 -0.9036,5.02935 -3.81961,7.8558 -6.43264,6.23511 -7.74416,5.29018 -16.79182,-11.71165 -5.8176,-10.93215 -11.074,-18.83457 -18.08901,-27.27912 -2.89776,-3.48826 -6.31854,-8.35093 -7.60318,-10.81074 -2.00658,-3.84222 -2.11322,-4.69744 -0.72067,-6.09008 0.6963,-0.69631 1.35862,-1.03012 2.5584,-1.00899 z"
       id="path3045-8"
       inkscape:connector-curvature="0" />
    <path
       style="fill:#009bff;fill-opacity:1;stroke:#000000;stroke-width:0.5;stroke-miterlimit:4;stroke-opacity:1;stroke-dasharray:none;display:inline"
       d="m 540.192,150.45492 c 1.72955,0.0275 2.85669,1.21262 2.84666,3.53151 -0.0251,5.83006 -6.72511,25.77806 -17.87282,53.33305 -2.95074,7.29365 -6.24666,14.18295 -7.35091,15.31523 -1.92685,1.9758 -2.09695,1.99083 -3.96375,-0.072 -1.06984,-1.18223 -1.94583,-2.75665 -1.94583,-3.49547 0,-2.02231 -16.01401,-19.81971 -17.83679,-19.81971 -2.23648,0 -5.22491,-3.25393 -5.22491,-5.69367 0,-1.19962 2.81095,-4.01969 6.73833,-6.77472 6.85038,-4.80554 13.12885,-11.61087 17.44042,-18.91883 1.83854,-3.11626 2.16208,-4.73879 1.33326,-6.91888 -1.65169,-4.34456 -0.16887,-5.81856 4.32407,-4.25223 5.07038,1.76763 11.40267,0.58083 15.02615,-2.84682 2.41101,-2.28073 4.75654,-3.41488 6.48612,-3.38739 z"
       id="path4244-0"
       inkscape:connector-curvature="0" />
    <path
       style="fill:#009bff;fill-opacity:1;stroke:#000000;stroke-width:0.5;stroke-miterlimit:4;stroke-opacity:1;stroke-dasharray:none;display:inline"
       d="m 356.74326,150.95943 c 1.59778,0.0435 3.42322,1.01098 5.18889,2.70269 3.66147,3.5081 9.99206,4.85076 14.80994,3.17115 3.96933,-1.38379 6.41263,-0.26923 5.36906,2.45044 -1.84207,4.80058 0.73045,10.00529 9.08054,18.37828 4.56539,4.57791 10.05173,9.63404 12.21552,11.24317 3.33167,2.47767 3.83213,3.41962 3.17097,6.05402 -0.50435,2.00959 -1.82029,3.35416 -3.67546,3.8198 -3.03109,0.76081 -17.04643,16.01026 -20.3952,22.19808 -1.08036,1.99625 -2.51002,3.63962 -3.20701,3.63962 -1.68965,0 -6.94517,-11.41237 -12.71998,-27.67552 -14.33137,-40.36026 -15.45345,-45.24775 -10.52191,-45.94569 0.21738,-0.0308 0.45639,-0.0423 0.68464,-0.036 z"
       id="path4242-4"
       inkscape:connector-curvature="0" />
  </g>
  <g
     inkscape:groupmode="layer"
     id="layer13"
     inkscape:label="Dd27"
     style="display:inline"
     transform="translate(0,96)">
    <path
       style="fill:#0000ff;fill-opacity:1;stroke:#000000;stroke-width:0.5;stroke-miterlimit:4;stroke-opacity:1;stroke-dasharray:none;display:inline"
       d="m 447.83703,197.44566 9.36882,3.9279 1.4774,6.91889 c -1.80171,1.89359 -3.16532,7.33233 -4.39614,9.7657 -1.53018,3.34425 -1.50994,5.26124 -5.94561,7.89186 -3.7609,-2.52744 -3.96373,-3.48347 -5.44111,-5.29728 -1.10936,-4.55684 -1.54497,-8.43989 -1.51343,-11.85579 l -0.46844,-7.42338 z"
       id="path4240"
       inkscape:connector-curvature="0" />
  </g>
  <g
     inkscape:groupmode="layer"
     id="layer14"
     inkscape:label="Dd28"
     style="display:inline"
     transform="translate(0,96)">
    <path
       style="fill:#0000ff;fill-opacity:1;stroke:#000000;stroke-width:0.5;stroke-linecap:butt;stroke-linejoin:miter;stroke-miterlimit:4;stroke-opacity:1;stroke-dasharray:none"
       d="m 221.86826,-56.751145 c -4.18746,0 -7.47577,3.018141 -7.71126,7.063024 -0.46615,8.006858 0.37332,11.101881 4.28804,15.675589 2.21969,2.593347 4.03579,5.511347 4.03579,6.48645 0,0.975104 1.81612,4.897114 4.03581,8.684639 2.2197,3.787522 4.03579,7.520527 4.03579,8.324277 0,0.8037505 1.08603,2.6220755 2.41429,4.0360135 3.43516,3.656761 2.10309,6.396701 -5.62131,11.531468 -1.21186,0.805587 -2.33779,1.630206 -3.42321,2.450438 l 90.9136,9.1170665 0.21621,-2.018006 c -1.99305,-4.207668 -3.88667,-10.5637545 -5.54924,-18.8827795 -0.25525,-1.27724 -3.0386,-4.293268 -6.19783,-6.7026665 -4.04117,-3.081992 -6.31874,-5.939077 -7.71127,-9.585533 -1.83661,-4.809515 -1.84559,-5.473447 -0.108,-9.117066 1.67037,-3.502998 1.6625,-4.103209 0.108,-5.657626 -2.03343,-2.033553 -7.17433,-3.51828 -18.23317,-5.261233 -4.37267,-0.689165 -8.83029,-1.728783 -9.90931,-2.306293 -1.07904,-0.577508 -5.92328,-1.523844 -10.77415,-2.126115 -6.77781,-0.841512 -10.06005,-1.956234 -14.2334,-4.720694 -5.98322,-3.963323 -14.92994,-6.990953 -20.57538,-6.990953 z"
       id="path4375"
       inkscape:connector-curvature="0" />
  </g>
  <g
     inkscape:groupmode="layer"
     id="layer15"
     inkscape:label="DdS29"
     style="display:inline"
     transform="translate(0,96)">
    <path
       style="fill:#009bff;fill-opacity:1;stroke:#000000;stroke-width:0.5;stroke-miterlimit:4;stroke-opacity:1;stroke-dasharray:none;display:inline"
       d="m 567.00122,253.73364 c 0.29614,-0.0232 0.56201,-0.0181 0.82879,0 1.77851,0.12053 2.88272,1.14143 2.88272,2.95494 0,2.70065 -7.71422,14.73703 -13.62082,21.26114 -2.44289,2.69828 -6.28949,8.03761 -8.57609,11.85579 -2.28662,3.81818 -6.99841,9.38538 -10.44983,12.39632 -5.027,4.38543 -6.40701,6.40425 -6.99059,10.05402 -0.57006,3.56521 -1.68332,5.17515 -5.04474,7.4594 -4.37538,2.97333 -8.81358,3.6863 -11.675,1.87388 -1.17783,-0.74606 -1.37598,-2.3808 -0.79275,-6.27025 0.57125,-3.80958 0.25087,-6.21701 -1.08101,-8.79274 -2.04005,-3.94521 -1.48077,-10.30859 1.29721,-14.73867 0.92956,-1.48237 1.96703,-7.32496 2.37825,-13.58549 0.39698,-6.04378 1.28701,-11.35426 1.98187,-11.78372 0.69484,-0.42947 6.93965,-2.25047 13.87306,-4.03602 6.9334,-1.78555 13.32291,-3.81475 14.19737,-4.54052 0.87444,-0.72576 4.50491,-1.47843 8.0716,-1.65764 3.56669,-0.17921 7.9187,-0.92263 9.69311,-1.65766 1.10742,-0.45872 2.13847,-0.72334 3.02685,-0.79278 z"
       id="path4238-5"
       inkscape:connector-curvature="0" />
    <path
       style="fill:#009bff;fill-opacity:1;stroke:#000000;stroke-width:0.5;stroke-miterlimit:4;stroke-opacity:1;stroke-dasharray:none;display:inline"
       d="m 327.9161,253.98589 c 1.19979,0.0211 2.9561,0.39321 5.87355,1.15315 3.73552,0.97303 8.38212,1.76575 10.34173,1.76575 1.95961,0 4.08192,0.48321 4.68442,1.08107 0.60248,0.59786 3.15656,1.60625 5.69336,2.23423 11.12065,2.75289 18.51876,5.00266 19.49434,5.94592 1.4872,1.43791 1.12833,29.97052 -0.39637,31.4953 -0.67673,0.67679 -1.22514,3.08368 -1.22514,5.36936 0,3.18696 -0.9036,5.02935 -3.81961,7.8558 -6.43264,6.23511 -7.74416,5.29018 -16.79182,-11.71165 -5.8176,-10.93215 -11.074,-18.83457 -18.08901,-27.27912 -2.89776,-3.48826 -6.31854,-8.35093 -7.60318,-10.81074 -2.00658,-3.84222 -2.11322,-4.69744 -0.72067,-6.09008 0.6963,-0.69631 1.35862,-1.03012 2.5584,-1.00899 z"
       id="path3045-8-0"
       inkscape:connector-curvature="0" />
  </g>
  <g
     inkscape:groupmode="layer"
     id="layer16"
     inkscape:label="DdS30"
     style="display:inline"
     transform="translate(0,96)">
    <path
       style="fill:#009bff;fill-opacity:1;stroke:#000000;stroke-width:0.5;stroke-miterlimit:4;stroke-opacity:1;stroke-dasharray:none;display:inline"
       d="m 540.192,150.45492 c 1.72955,0.0275 2.85669,1.21262 2.84666,3.53151 -0.0251,5.83006 -6.72511,25.77806 -17.87282,53.33305 -2.95074,7.29365 -6.24666,14.18295 -7.35091,15.31523 -1.92685,1.9758 -2.09695,1.99083 -3.96375,-0.072 -1.06984,-1.18223 -1.94583,-2.75665 -1.94583,-3.49547 0,-2.02231 -16.01401,-19.81971 -17.83679,-19.81971 -2.23648,0 -5.22491,-3.25393 -5.22491,-5.69367 0,-1.19962 2.81095,-4.01969 6.73833,-6.77472 6.85038,-4.80554 13.12885,-11.61087 17.44042,-18.91883 1.83854,-3.11626 2.16208,-4.73879 1.33326,-6.91888 -1.65169,-4.34456 -0.16887,-5.81856 4.32407,-4.25223 5.07038,1.76763 11.40267,0.58083 15.02615,-2.84682 2.41101,-2.28073 4.75654,-3.41488 6.48612,-3.38739 z"
       id="path4244-0-2"
       inkscape:connector-curvature="0" />
    <path
       style="fill:#009bff;fill-opacity:1;stroke:#000000;stroke-width:0.5;stroke-miterlimit:4;stroke-opacity:1;stroke-dasharray:none;display:inline"
       d="m 356.74326,150.95943 c 1.59778,0.0435 3.42322,1.01098 5.18889,2.70269 3.66147,3.5081 9.99206,4.85076 14.80994,3.17115 3.96933,-1.38379 6.41263,-0.26923 5.36906,2.45044 -1.84207,4.80058 0.73045,10.00529 9.08054,18.37828 4.56539,4.57791 10.05173,9.63404 12.21552,11.24317 3.33167,2.47767 3.83213,3.41962 3.17097,6.05402 -0.50435,2.00959 -1.82029,3.35416 -3.67546,3.8198 -3.03109,0.76081 -17.04643,16.01026 -20.3952,22.19808 -1.08036,1.99625 -2.51002,3.63962 -3.20701,3.63962 -1.68965,0 -6.94517,-11.41237 -12.71998,-27.67552 -14.33137,-40.36026 -15.45345,-45.24775 -10.52191,-45.94569 0.21738,-0.0308 0.45639,-0.0423 0.68464,-0.036 z"
       id="path4242-4-5"
       inkscape:connector-curvature="0" />
  </g>
  <g
     inkscape:groupmode="layer"
     id="layer17"
     inkscape:label="Dd31"
     style="display:inline"
     transform="translate(0,96)">
    <path
       style="fill:#0000ff;fill-opacity:1;stroke:#000000;stroke-width:0.5;stroke-linecap:butt;stroke-linejoin:round;stroke-miterlimit:4;stroke-opacity:1;stroke-dasharray:none"
       d="m 420.45366,413.0984 c 7.66897,-5.52538 13.35135,-7.52839 24.5478,-7.99272 8.93105,-0.44675 15.56355,2.39104 23.40605,5.99454 l 3.71073,3.42546 -7.136,24.5491 c -0.22848,2.86092 -1.22556,4.161 -2.28352,8.84911 -1.81065,8.82778 -1.04869,14.38833 -4.70974,15.27184 -5.46262,1.31828 -16.12735,1.57 -16.12735,1.57 -7.10377,-0.79903 -14.42919,-3.27493 -20.26623,-5.99454 0,0 -4.00219,-5.59555 -4.13886,-8.84911 -0.17879,-4.25607 2.253,-7.71864 4.42432,-11.98909 l 4.99517,-5.28091 c -1.6366,-6.84408 -4.42854,-13.08597 -6.42237,-19.55368 z"
       id="path4504"
       inkscape:connector-curvature="0"
       sodipodi:nodetypes="ccccccsccaccc" />
  </g>
  <g
     inkscape:groupmode="layer"
     id="layer18"
     inkscape:label="DdS32"
     style="display:inline"
     transform="translate(0,96)">
    <path
       style="fill:#009bff;fill-opacity:1;stroke:#000000;stroke-width:0.5;stroke-linecap:butt;stroke-linejoin:round;stroke-miterlimit:4;stroke-opacity:1;stroke-dasharray:none"
       d="m 296.67137,-33.837365 304.54635,0.708231 c -1.75673,3.163212 3.64571,3.931169 2.50947,8.754863 -0.74343,3.138703 -1.76301,5.215724 -3.35652,7.645569 -3.71539,4.80244 -8.64815,7.2520795 -10.97057,11.9010025 -0.77468,6.830407 -3.87544,11.532962 -6.32197,17.9694575 -0.72644,2.155228 -2.33324,4.016985 -4.20487,5.790465 L 565.50362,30.34465 c -3.61073,4.545161 -4.32456,12.200362 -8.64767,17.067836 -2.16578,6.768143 -5.91858,13.298243 -11.92529,19.490203 -1.07489,1.49652 -3.77076,3.3983 -6.33196,5.2664 -2.81235,1.35718 -1.22701,2.15588 -16.08656,2.4079 -3.76158,0.0953 -9.90301,0.40278 -11.22232,-1.55486 -0.6672,-1.02471 -4.93637,-7.94912 -9.2654,-14.37515 -1.45537,-2.74984 -3.38534,-5.32173 -6.97784,-7.270114 -1.76565,-1.153366 -3.85952,-0.993792 -6.16279,0.0033 -1.08837,0.660274 -2.6689,1.814534 -2.20826,3.467984 0.23136,3.16991 3.21747,5.35721 3.20996,8.56625 0.078,4.88945 -12.74061,3.69347 -5.57625,11.75014 2.47567,3.03628 9.36857,3.98461 8.8455,7.86045 -0.92207,4.98672 -9.05716,4.80366 -13.04377,3.54033 -5.44066,-6.71287 -7.4084,-15.40658 -16.04307,-15.53469 -4.41118,-0.23449 -8.97627,3.4806 -10.61043,7.59997 -1.4887,3.75269 -3.72626,9.77652 -4.77513,9.55987 -1.28928,-0.26629 -3.20686,-5.17904 -3.20686,-5.17904 -2.42627,-5.56905 -6.04158,-11.56342 -12.19356,-11.36008 -4.89817,-0.016 -7.25466,3.02488 -9.83382,5.79452 l -4.85894,7.65612 c -2.42439,2.8219 -5.4446,2.43854 -9.01611,2.219 -6.79405,-0.39399 -7.15991,-4.27051 -3.38001,-7.34907 7.98565,-3.61189 10.1103,-5.49761 8.00328,-9.52628 -1.543,-2.79137 -5.92982,-2.64227 -6.96921,-6.89403 -1.06349,-2.39664 4.18848,-7.17036 3.12401,-9.80776 -1.90704,-3.648035 -8.43734,-0.788 -10.39702,0.003 -1.69227,0.93988 -3.54762,2.85828 -5.62403,6.10326 l -4.30464,6.50011 -3.83485,5.88173 -2.12633,3.04994 c -2.26503,0.15898 -3.87699,-0.004 -6.71448,-0.0712 l -8.38846,-0.27681 c -4.60186,-0.46401 -8.03026,-1.31697 -11.41115,-2.88153 -2.3607,-1.03912 -3.94836,-3.07221 -5.36711,-5.32243 -1.52656,-2.3626 -3.515,-4.49426 -5.28454,-6.73536 -0.9973,-0.52078 -2.12017,-2.29729 -3.38921,-5.53569 -1.46004,-4.898366 -3.66681,-8.65159 -5.54077,-12.963854 -2.47744,-4.113171 -2.00361,-9.132657 -5.54572,-11.303329 -3.09986,-1.061022 -6.60653,-5.012253 -9.30801,-7.941139 -3.32187,-3.202028 -4.20143,0.327686 -8.44488,-8.428848 -1.94032,-5.0541015 -3.66488,-10.2150395 -4.65972,-15.6576145 -0.26148,-3.244351 -1.71824,-4.631736 -3.19577,-6.081773 l -7.57918,-6.7359175 c -2.75381,-3.227329 -4.4344,-6.72298 -5.01393,-10.493903 -0.31537,-3.530931 3.20637,-6.100741 2.45005,-8.690429 z"
       id="path4577"
       inkscape:connector-curvature="0"
       sodipodi:nodetypes="ccccccccccccccccccccccsscccccccccccccccccccccccccccccc" />
  </g>
  <g
     inkscape:groupmode="layer"
     id="layer19"
     inkscape:label="Dd33"
     style="display:inline"
     transform="translate(0,96)">
    <path
       style="fill:#0000ff;fill-opacity:1;stroke:#000000;stroke-width:0.5;stroke-linecap:butt;stroke-linejoin:round;stroke-miterlimit:4;stroke-opacity:1;stroke-dasharray:none"
       d="m 684.24956,290.24825 -23.37275,24.48906 c 2.68609,0.70005 3.40069,3.76598 4.22198,6.70391 0.8844,3.93937 3.23384,6.04731 5.62258,8.10615 0,0 4.93199,5.34023 6.29815,6.60298 1.81578,1.67835 8.84423,-0.77496 8.84423,-1.36821 3.13065,-1.8942 4.42877,-4.88796 5.67908,-7.91042 7.73773,-7.10699 4.50072,-4.27645 1.51505,-13.00967 -0.34562,-4.05887 -3.05594,-6.34411 -6.45445,-8.11317 l -2.81536,-2.69059 c -0.72693,-1.48865 -1.57583,-2.53011 -1.19046,-8.09743 z"
       id="path4598"
       inkscape:connector-curvature="0"
       sodipodi:nodetypes="ccccsccccccc" />
  </g>
  <g
     inkscape:groupmode="layer"
     id="layer20"
     inkscape:label="Dd34"
     style="display:inline"
     transform="translate(0,96)">
    <path
       style="fill:#0000ff;fill-opacity:1;stroke:#000000;stroke-width:0.5;stroke-linecap:butt;stroke-linejoin:round;stroke-miterlimit:4;stroke-opacity:1;stroke-dasharray:none"
       d="m 698.1287,47.608651 c -3.67977,7.928677 -9.20668,15.182218 -10.31409,24.051157 -2.60682,10.68262 -4.95705,21.40892 -5.73577,32.402472 -1.44342,7.00449 -0.50614,14.03223 0.23303,21.05802 3.5743,1.98723 6.24646,5.04073 9.02323,7.97062 8.71077,-0.75984 17.46315,-2.27298 26.06672,-3.17159 4.11242,0.81322 7.74574,2.92077 11.56987,4.34223 7.62162,0.31178 13.7132,6.01598 21.44744,5.64572 9.8964,-0.31264 17.29561,-11.61665 27.87512,-6.41982 4.95264,4.00142 8.46069,-4.33229 13.57387,-3.17402 4.74286,0.25922 9.61256,-0.99863 14.23579,-0.4402 9.34297,3.3983 19.19615,6.29102 29.22835,4.31957 4.92679,-0.53419 10.34093,-1.29355 14.10557,-4.78904 0.08,-3.91265 -4.01199,-6.43668 -6.02165,-9.54439 -2.99397,-3.05682 -5.55388,-6.35253 -6.71971,-10.52628 -1.68435,-5.59466 -8.08688,-6.74488 -11.87988,-10.568522 -7.81827,-5.58211 -18.40993,-5.72512 -25.94459,-11.90937 -13.70681,-8.09741 -28.57558,-14.10342 -43.17299,-20.4235 -8.05996,-3.86457 -17.09088,-5.48748 -24.34213,-10.9794 -8.17054,-4.600125 -17.87826,-4.672006 -26.8517,-6.783496 -2.12548,-0.353395 -4.251,-0.706779 -6.37648,-1.060162 z"
       id="path4600"
       inkscape:connector-curvature="0" />
  </g>
  <g
     inkscape:groupmode="layer"
     id="layer21"
     inkscape:label="Dd35"
     style="display:inline"
     transform="translate(0,96)">
    <path
       style="fill:#0000ff;fill-opacity:1;stroke:#000000;stroke-width:0.5;stroke-linejoin:round;stroke-miterlimit:4;stroke-opacity:1;stroke-dasharray:none;display:inline"
       d="m 211.85084,160.14857 c -0.29324,0.008 -0.59466,0.009 -0.90086,0.036 -0.14339,0.0393 -0.29404,0.0631 -0.43241,0.10801 l -0.68465,0.28828 c -1.39376,0.58605 -2.6544,1.50447 -4.43216,3.06306 -2.44373,2.14242 -5.97382,6.0889 -7.81937,8.75671 -3.11371,4.50092 -3.66642,4.77582 -7.49505,4.18014 -7.33583,-1.14134 -10.92943,6.32336 -5.22494,10.81076 2.19248,1.72469 2.87761,3.69141 3.56736,10.16211 0.47094,4.41799 1.36789,8.97365 1.98189,10.12607 1.69079,3.17365 -1.22049,6.64013 -8.86435,10.59454 -4.84915,2.50859 -7.08433,4.48185 -8.25178,7.2432 -0.88099,2.08375 -2.86173,4.28144 -4.39614,4.86484 -5.38231,2.04645 -6.78838,5.97902 -6.01766,16.90079 0.72588,10.28647 3.4254,17.85421 7.74728,21.76567 2.5701,2.32603 2.91902,5.18889 0.90085,7.20716 -1.61118,1.61127 0.66002,6.72713 3.71151,8.36031 1.02281,0.54743 8.45602,1.27623 16.50353,1.62162 14.24284,0.61125 18.59065,1.60262 20.21504,5.65762 l 4.17993,-33.83753 5.18889,-29.98183 1.72963,-31.71153 0,-18.45034 c 1.38507,-7.77397 -1.02702,-18.05842 -11.20654,-17.76567 z"
       id="path3045-4"
       inkscape:connector-curvature="0"
       sodipodi:nodetypes="ccccsssssssssssssscccccc" />
  </g>
</svg>
