<?xml version="1.0" encoding="UTF-8" standalone="no"?>
<!-- Created with Inkscape (http://www.inkscape.org/) -->

<svg
   xmlns:dc="http://purl.org/dc/elements/1.1/"
   xmlns:cc="http://creativecommons.org/ns#"
   xmlns:rdf="http://www.w3.org/1999/02/22-rdf-syntax-ns#"
   xmlns:svg="http://www.w3.org/2000/svg"
   xmlns="http://www.w3.org/2000/svg"
   xmlns:sodipodi="http://sodipodi.sourceforge.net/DTD/sodipodi-0.dtd"
   xmlns:inkscape="http://www.inkscape.org/namespaces/inkscape"
   id="svg2"
   version="1.1"
   inkscape:version="0.48.1 r9760"
   width="720"
   height="504"
   sodipodi:docname="02_Card II_gray.svg">
  <metadata
     id="metadata8">
    <rdf:RDF>
      <cc:Work
         rdf:about="">
        <dc:format>image/svg+xml</dc:format>
        <dc:type
           rdf:resource="http://purl.org/dc/dcmitype/StillImage" />
        <dc:title />
      </cc:Work>
    </rdf:RDF>
  </metadata>
  <defs
     id="defs6" />
  <sodipodi:namedview
     pagecolor="#ffffff"
     bordercolor="#666666"
     borderopacity="1"
     objecttolerance="10"
     gridtolerance="10"
     guidetolerance="10"
     inkscape:pageopacity="0"
     inkscape:pageshadow="2"
     inkscape:window-width="1360"
     inkscape:window-height="695"
     id="namedview4"
     showgrid="false"
     borderlayer="false"
     showborder="false"
     inkscape:showpageshadow="false"
     inkscape:zoom="0.82495791"
     inkscape:cx="299.66865"
     inkscape:cy="271.394"
     inkscape:window-x="0"
     inkscape:window-y="24"
     inkscape:window-maximized="1"
     inkscape:current-layer="svg2" />
  <path
     style="fill:#ababab"
     d="m 327.5541,494.08753 c -0.34605,-0.55992 0.0874,-6.54617 0.96326,-13.30278 1.77742,-13.71165 2.10793,-15.45368 4.09234,-21.5697 2.14753,-6.61876 1.89139,-8.37892 -1.1097,-7.62569 -2.9188,0.73257 -3.03775,-0.0967 -1.51885,-10.58936 0.7304,-5.04567 0.646,-6.79566 -0.37725,-7.82143 -2.0422,-2.04722 -4.36811,0.95235 -5.10483,6.58338 -0.84472,6.45643 -2.12053,9.23805 -4.23708,9.23805 -0.9795,0 -2.34296,-0.9 -3.02992,-2 -0.68696,-1.1 -1.89365,-2 -2.68153,-2 -2.47992,0 -2.57967,-1.58096 -0.49951,-7.91743 2.09286,-6.37517 1.85687,-8.64494 -0.79309,-7.62806 -0.84686,0.32497 -2.62503,-0.12024 -3.95149,-0.98937 -2.15261,-1.41045 -2.34037,-2.05617 -1.74747,-6.00988 0.96402,-6.42851 0.0439,-8.68323 -5.03032,-12.32729 C 299.35405,407.84813 298,406.16976 298,404.51459 c 0,-5.3784 -7.56526,-10.54933 -10.76002,-7.35457 -0.63801,0.63801 -3.43875,1.07936 -6.22387,0.98078 -4.94377,-0.17498 -5.04886,-0.11948 -4.43158,2.33999 0.55468,2.21001 0.31214,2.51921 -1.97612,2.51921 -2.52684,0 -2.61021,0.19546 -2.66604,6.25 -0.10983,11.9109 -0.81386,13.7113 -6.57965,16.82586 -4.90767,2.65103 -5.50674,2.73863 -13.49915,1.97408 -4.59996,-0.44003 -9.01184,-0.96878 -9.80418,-1.175 -0.81968,-0.21333 -1.62034,0.4871 -1.85761,1.62506 -0.67504,3.23763 -2.24508,4.50095 -5.57422,4.48526 -5.01062,-0.0236 -7.82713,-2.05649 -9.39786,-6.78308 -1.16679,-3.51107 -2.13351,-4.58001 -5.28091,-5.83935 -2.93401,-1.17396 -4.12867,-2.37785 -5.01022,-5.04895 -0.83995,-2.54509 -2.11379,-3.90697 -4.64273,-4.96363 -3.9174,-1.6368 -5.34497,-1.07412 -10.54584,4.15666 -2.9071,2.92382 -3.45954,4.93653 -1.66019,6.04859 0.6866,0.42435 0.82613,2.01857 0.37711,4.30902 -0.39198,1.99951 -0.7699,4.76048 -0.83981,6.13548 -0.11538,2.26921 -0.51946,2.49203 -4.37711,2.41369 -3.82764,-0.0777 -4.25,0.14899 -4.25,2.28139 0,3.10408 -2.05047,3.77943 -6.70876,2.20963 -2.08518,-0.70269 -5.4785,-1.33067 -7.5407,-1.39551 -4.84065,-0.1522 -9.15017,-3.34673 -9.58903,-7.1081 -0.18616,-1.5956 -0.83401,-3.50005 -1.43967,-4.2321 -0.60565,-0.73206 -1.46583,-3.54456 -1.91151,-6.25 -0.44568,-2.70545 -1.17234,-7.11197 -1.61479,-9.79226 -0.48462,-2.9357 -1.87618,-6.14692 -3.5,-8.07672 -4.06045,-4.82557 -3.28424,-7.77317 2.35043,-8.92559 4.39134,-0.89812 4.69789,-2.44622 1.1163,-5.63743 -2.13739,-1.90442 -2.96227,-3.5471 -2.96227,-5.8991 0,-1.79284 -1.22352,-5.6742 -2.71892,-8.62524 -1.50134,-2.96274 -3.10177,-8.29812 -3.57383,-11.9141 -0.4702,-3.60171 -2.44169,-10.7723 -4.38108,-15.93464 C 144.58678,338.95158 143,333.89584 143,332.87894 c 0,-2.93386 5.77205,-11.53034 9.97943,-14.86264 7.31736,-5.79547 12.25906,-22.70159 13.73916,-47.00327 0.49511,-8.12922 -0.84787,-14.46493 -3.26255,-15.39152 -0.83912,-0.32201 -3.74964,-0.10851 -6.46781,0.47443 -3.86734,0.8294 -6.58686,0.71976 -12.50496,-0.50413 -10.96515,-2.26764 -11.64898,-2.77478 -11.28548,-8.36952 0.2708,-4.16805 0.73755,-4.96692 4.49111,-7.68687 4.54947,-3.29671 5.11876,-4.62023 2.8111,-6.53542 -2.23542,-1.85523 -1.84914,-4.45928 1.75,-11.79744 3.98761,-8.13019 9.00033,-13.36177 14.33389,-14.95974 5.1617,-1.54649 7.73656,-4.42244 9.88851,-11.04483 1.86698,-5.74545 3.99131,-8.24109 9.06391,-10.64819 1.79641,-0.85246 4.13941,-3.0124 5.20666,-4.79986 4.19361,-7.02364 11.1639,-13.55827 16.2719,-15.25488 3.21579,-1.06811 5.71631,-2.71316 7.11955,-4.68384 2.65249,-3.72508 7.38335,-5.81122 13.17843,-5.81122 6.23962,0 15.37815,-6.05928 20.28547,-13.45023 4.68988,-7.06347 6.94247,-7.31621 7.67011,-0.86058 0.67232,5.96476 2.51408,7.31081 10.00314,7.31081 l 5.88932,0 1.5665,3.98792 c 0.9612,2.44697 2.81611,4.72522 4.80043,5.89599 1.84203,1.08683 4.46882,4.18081 6.10306,7.18855 2.63635,4.85208 3.39646,5.47543 9.36912,7.68334 9.65015,3.56738 9.69154,3.57366 12.16021,1.84454 1.25664,-0.88019 3.69082,-1.60034 5.40929,-1.60034 1.72086,0 4.19296,-0.92669 5.50294,-2.06283 1.9106,-1.65705 3.26848,-1.95769 6.90301,-1.52834 7.8717,0.92989 11.31337,-0.38399 19.40723,-7.40883 l 7.48915,-6.5 -0.57621,-4.28189 c -0.38696,-2.87555 -0.0626,-5.33885 0.9876,-7.5 2.00511,-4.12624 5.59883,-15.0593 6.64574,-20.21811 0.70974,-3.49737 2.13804,-7.07834 4.98573,-12.5 0.84948,-1.6173 6.93118,-2.50807 8.60939,-1.26099 1.5986,1.18792 6.47592,11.22966 6.47592,13.33304 0,1.03811 0.62107,3.58408 1.38016,5.65771 0.75909,2.07363 1.95515,5.79524 2.65791,8.27024 0.70276,2.475 1.93315,5.5752 2.73419,6.88933 0.93925,1.54088 1.28441,3.91551 0.972,6.68719 -0.47475,4.21204 -0.36222,4.40548 5.63566,9.68743 10.04904,8.84955 10.64353,9.11207 19.02972,8.40318 6.48406,-0.54811 7.52891,-0.39252 9.1121,1.35689 1.24315,1.37367 3.07534,1.97598 6.0108,1.97598 2.53345,0 4.72056,0.60003 5.46746,1.5 0.68469,0.825 2.25969,1.5 3.5,1.5 1.24031,0 2.81531,-0.675 3.5,-1.5 0.68469,-0.825 2.24824,-1.5 3.47456,-1.5 3.72577,0 8.86719,-4.26256 11.87454,-9.84474 1.56701,-2.90865 3.92951,-5.78071 5.25,-6.38237 1.3205,-0.60166 2.4009,-1.48174 2.4009,-1.95575 0,-0.474 1.85731,-2.87677 4.12736,-5.33948 3.32076,-3.6026 4.78647,-4.47766 7.5,-4.47766 2.72334,0 3.37264,-0.39108 3.37264,-2.03138 0,-2.87137 -1.81141,-3.23242 -7.52388,-1.49966 -7.00374,2.12442 -8.61285,1.93901 -13.42503,-1.54691 -5.971,-4.32537 -11.98472,-6.70209 -18.95274,-7.49043 l -5.99115,-0.67782 -4.2074,4.6231 c -2.31407,2.5427 -4.86564,4.6231 -5.67017,4.6231 -1.46416,0 -1.44655,-0.31504 0.43236,-7.73756 0.40567,-1.60257 0.0374,-2.43199 -1.29779,-2.92269 -1.02531,-0.37681 -4.3392,-2.60148 -7.3642,-4.94369 -6.487,-5.02278 -9.91552,-6.08791 -14.06447,-4.36936 C 383.44653,120.4719 379,119.083 379,116.54801 379,114.19879 388.96146,108 392.73665,108 c 3.9921,0 4.12063,-1.32724 0.8602,-8.882863 -1.80839,-4.190722 -2.11008,-5.962479 -1.36222,-8 1.1779,-3.209202 -0.42134,-7.915297 -2.96962,-8.738697 -0.97076,-0.313669 -2.42628,-0.775917 -3.23451,-1.027218 -1.069,-0.332384 -0.61296,-1.127244 1.67328,-2.916497 1.72852,-1.352774 3.43888,-3.807755 3.80079,-5.455515 0.3619,-1.647759 2.85834,-5.403433 5.54763,-8.345943 2.68928,-2.942509 5.3527,-6.568043 5.91871,-8.056741 1.35616,-3.566984 1.31184,-14.198451 -0.0844,-20.250236 -2.13404,-9.249508 3.9198,-21.516784 12.55371,-25.438373 9.895,-4.4943782 17.99413,-0.283822 19.10766,9.933643 1.07936,9.903899 5.03421,26.828508 8.90383,38.103592 C 445.52962,64.979734 446,68.229341 446,76.530095 l 0,10.179791 5.38244,4.895057 c 2.96034,2.692281 7.5073,6.654804 10.10435,8.805607 5.86207,4.85478 8.47796,10.58498 9.573,20.97001 l 0.83096,7.88057 8.30462,8.27644 c 4.56755,4.55204 9.4903,9.66828 10.93946,11.36943 2.31454,2.71702 3.26182,3.093 7.79284,3.093 4.68815,0 5.58681,0.39349 9.86517,4.31962 2.58894,2.37579 6.8364,5.10986 9.43881,6.0757 4.81543,1.78717 11.0355,7.74163 15.03318,14.39123 1.08672,1.8076 3.3842,3.99648 5.10551,4.86416 4.15474,2.09434 8.62966,6.35717 8.62966,8.22066 0,0.82345 0.94743,3.45431 2.1054,5.84635 2.03516,4.2041 7.57416,8.28228 11.24901,8.28228 2.62015,0 7.36508,5.49291 11.02791,12.76631 3.92831,7.80059 4.48008,11.62327 2.06319,14.2939 -1.43494,1.58559 -1.10809,2.01464 4.25,5.57874 6.74811,4.48873 7.80227,7.45287 4.07922,11.47012 -3.39781,3.66628 -16.84284,6.47098 -23.83346,4.97176 -6.31248,-1.35379 -8.22035,-0.43042 -9.76531,4.7262 -1.41998,4.73947 -1.44096,10.14873 -0.0628,16.19297 0.56432,2.475 1.43296,7.99028 1.93031,12.25618 0.97779,8.38685 3.3104,17.46275 5.71692,22.24382 0.83051,1.65 4.04488,5.52541 7.14305,8.61203 7.87869,7.84932 9.84939,11.75168 8.38918,16.61213 -2.28906,7.61937 -5.31389,15.59655 -6.41879,16.92787 -0.65233,0.78601 -0.90942,3.04587 -0.60485,5.31664 0.40204,2.99738 -0.12914,5.34559 -2.20332,9.74043 -2.91425,6.17479 -4.24135,10.35264 -4.48707,14.12573 -0.0836,1.28416 -1.19542,3.12185 -2.47065,4.08376 -2.96308,2.23505 -2.47238,5.45851 0.90229,5.92723 5.531,0.76823 6.82312,5.65187 2.35629,8.90573 -2.65029,1.9306 -2.96297,2.94628 -5.1726,16.80247 -0.44328,2.77971 -1.56825,6.14234 -2.49994,7.47251 -0.93168,1.33016 -1.69397,3.6568 -1.69397,5.1703 0,3.4464 -4.48896,6.07598 -11,6.44368 -2.475,0.13977 -5.85,0.39033 -7.5,0.55681 -2.49393,0.25162 -3.05603,-0.0931 -3.33212,-2.04321 -0.29305,-2.06993 -0.71787,-2.27351 -3.61151,-1.73066 -2.11508,0.39679 -3.63433,0.16455 -4.27912,-0.65412 -1.71813,-2.18147 -2.15543,-8.19418 -0.78252,-10.75948 1.18346,-2.21131 0.98345,-2.81007 -2.26143,-6.77002 -1.95784,-2.38928 -4.39149,-4.78931 -5.40812,-5.33339 -2.60836,-1.39595 -8.51341,1.58999 -10.41442,5.26613 -0.82563,1.59659 -3.11947,3.67341 -5.09742,4.61516 -2.53539,1.20715 -4.12591,2.947 -5.39165,5.89783 -1.46987,3.42671 -2.48669,4.37753 -5.60853,5.24442 -5.59868,1.55468 -6.94773,1.34043 -8.97975,-1.42613 -1.64018,-2.23307 -2.20229,-2.39679 -5.33341,-1.55345 -3.56683,0.96071 -13.92958,0.69899 -19.68972,-0.49727 -5.64483,-1.17231 -7.60038,-5.49552 -7.55545,-16.70313 0.0205,-5.10423 -0.20313,-5.75 -1.99089,-5.75 -1.69852,0 -1.92118,-0.46379 -1.42169,-2.96123 0.74163,-3.70816 -0.45936,-4.48525 -4.74564,-3.07065 -2.74155,0.90479 -4.02217,0.79659 -6.91844,-0.58455 -3.32182,-1.58406 -3.72058,-1.5858 -6.10028,-0.0266 -1.40038,0.91756 -2.80652,2.9001 -3.12476,4.40564 -0.31824,1.50554 -0.78795,3.76577 -1.04381,5.02272 -0.25585,1.25695 -1.46511,2.69912 -2.68725,3.20482 -5.72726,2.36985 -7.05019,4.41901 -6.98983,10.82697 0.0638,6.77664 -1.9251,9.89118 -5.57642,8.7323 -2.96978,-0.94258 -3.18546,0.36904 -1.23079,7.48464 1.89474,6.89745 1.77251,8.9659 -0.5298,8.9659 -0.79096,0 -1.95069,1.125 -2.57718,2.5 -2.6205,5.75135 -6.70018,1.44019 -8.21852,-8.68484 -0.81489,-5.43409 -2.6855,-7.62142 -4.57294,-5.3472 -0.95964,1.1563 -0.98954,2.9238 -0.13268,7.84424 1.68,9.64727 1.61581,9.95866 -1.89391,9.1878 -3.48413,-0.76524 -3.66185,-0.0174 -1.42591,6 2.66477,7.17151 6.79366,35.5055 5.382,36.93333 -0.50751,0.51334 -1.17321,0.68289 -1.47932,0.37678 -0.76022,-0.76023 -7.9892,-26.88917 -9.49242,-34.31011 -1.93265,-9.54086 -4.69662,-15.91115 -7.94591,-18.31346 -3.7561,-2.77701 -4.44343,-2.74358 -6.44648,0.31346 -1.01066,1.54245 -2.57796,2.5 -4.09196,2.5 -1.514,0 -3.0813,-0.95755 -4.09196,-2.5 -2.16522,-3.30455 -3.37814,-3.15781 -7.29412,0.88247 -3.43589,3.54494 -7.38386,14.46741 -9.25955,25.61753 -0.50887,3.025 -2.14678,10.19104 -3.63979,15.92452 -2.5326,9.7257 -4.14338,12.61774 -5.66048,10.16301 z M 360,342.12332 c 0,-1.9711 0.79918,-4.39437 1.83329,-5.55887 1.0083,-1.13545 2.65144,-4.28291 3.65141,-6.99436 0.99997,-2.71145 3.26003,-6.50329 5.02235,-8.42632 l 3.20422,-3.4964 15.85463,-0.37574 C 405.48385,316.89439 408,316.32359 408,313.08978 c 0,-0.91593 1.30075,-3.22333 2.89055,-5.12755 2.77876,-3.32833 3.15418,-3.46223 9.70712,-3.46223 6.2839,0 6.91047,-0.19536 8.01821,-2.5 C 437.27603,283.9827 439,280.0034 439,278.03117 c 0,-1.30218 -1.74271,-4.19813 -4,-6.647 -2.2,-2.38671 -4,-4.76464 -4,-5.28427 0,-0.51964 -1.48708,-1.43558 -3.30462,-2.03542 -1.81754,-0.59984 -5.30504,-3.14687 -7.75,-5.66007 -2.44496,-2.5132 -6.23779,-5.49498 -8.4285,-6.62619 -4.26098,-2.2002 -10.15228,-6.65083 -14.40222,-10.88026 -2.60253,-2.58997 -10.39112,-8.57927 -18.87115,-14.51161 -3.59337,-2.5138 -5.80225,-3.22695 -11.46559,-3.70175 -3.85811,-0.32345 -7.26896,-0.8423 -7.57966,-1.15301 -1.34607,-1.34607 2.3173,-3.05326 7.55993,-3.52304 5.3582,-0.48014 5.72605,-0.68636 6.58388,-3.69114 1.30773,-4.58072 0.21069,-7.62827 -4.76113,-13.22627 -2.41411,-2.71817 -4.69317,-6.32565 -5.06458,-8.01663 C 362.87683,190.16272 362.58709,190 358.04187,190 c -4.4861,0 -4.88249,0.21205 -6.07526,3.25 -0.70182,1.7875 -2.98061,5.05 -5.06398,7.25 -5.30077,5.59752 -6.71405,8.72328 -5.98157,13.22955 l 0.61277,3.76987 6.4643,1.00029 c 9.20102,1.42377 7.5969,4.15235 -2.5871,4.40061 -4.20124,0.10242 -6.62905,1.51841 -16.0307,9.34968 -2.47608,2.0625 -4.8181,3.75 -5.20449,3.75 -0.38638,0 -4.07152,3.18113 -8.18918,7.06917 -4.11766,3.88804 -9.28666,7.99356 -11.48666,9.12337 -2.2,1.1298 -6.55409,4.47368 -9.67576,7.43083 -3.12167,2.95714 -6.31335,5.37663 -7.09262,5.37663 -0.77927,0 -3.77185,2.78477 -6.65019,6.18838 -4.7677,5.63777 -5.1759,6.50527 -4.58779,9.75 0.35505,1.95889 1.77777,5.21642 3.1616,7.23895 1.38382,2.02253 3.49,6.52253 4.6804,10 L 286.5,304.5 l 7.39884,0.57477 c 6.71852,0.52193 7.661,0.86819 10.25,3.76578 1.56814,1.75505 2.85116,4.06807 2.85116,5.14004 0,3.50183 3.32486,4.2349 15.83834,3.49203 17.59049,-1.04427 22.44266,1.06076 26.57097,11.52738 0.97621,2.475 2.85847,6.87247 4.18281,9.77215 1.32433,2.89969 2.40788,6.08719 2.40788,7.08334 0,0.99615 0.32515,2.13632 0.72255,2.53373 1.25099,1.25099 3.27745,-2.62324 3.27745,-6.2659 z M 259.37254,140.59301 c -2.82011,-1.3131 -5.45132,-2.91146 -5.84714,-3.55192 -0.39582,-0.64045 -1.68847,-1.53608 -2.87254,-1.99029 C 248.15119,134.09116 243,124.47525 243,120.76492 c 0,-1.39439 0.77427,-4.93262 1.72059,-7.86275 1.87562,-5.80751 5.90774,-10.41992 15.61652,-17.863981 3.20058,-2.453996 6.29345,-5.347879 6.87304,-6.43085 0.57958,-1.082971 0.97373,-5.601633 0.87587,-10.041471 -0.16796,-7.620599 1.32155,-16.587706 3.79837,-22.866797 1.60543,-4.07002 4.8123,-18.026539 6.1348,-26.699071 1.74196,-11.423246 1.80748,-11.640555 4.46027,-14.793221 4.14941,-4.931293 7.24852,-5.6546324 13.77112,-3.214213 10.8696,4.066838 17.27413,15.48327 14.70166,26.206534 -1.44977,6.043306 -0.6435,18.580107 1.45221,22.580781 0.7837,1.496066 3.07274,4.295119 5.08676,6.220119 2.01402,1.925 4.7661,5.82235 6.11573,8.660777 l 2.45388,5.160776 -2.53041,3.728771 c -2.76576,4.07557 -3.04532,5.619041 -1.53045,8.449599 0.75234,1.405762 0.35165,3.363319 -1.61813,7.905236 C 317.42101,106.73223 317.73028,109 321.62212,109 c 3.13134,0 12.47202,4.20358 14.33876,6.45286 2.9279,3.5279 -3.32379,5.88046 -9.44361,3.55371 -3.12043,-1.18639 -6.93071,0.33389 -13.1307,5.23906 -2.26238,1.7899 -5.54556,4.03281 -7.29595,4.98424 -2.79427,1.51882 -3.04554,1.98585 -2.05958,3.82814 2.7996,5.2311 -2.17039,5.94993 -5.93474,0.85837 -2.57308,-3.48027 -4.76991,-3.62982 -14.45957,-0.98431 -5.31671,1.4516 -7.80397,2.79707 -11.03785,5.97089 -2.29602,2.25337 -5.05755,4.09264 -6.13673,4.08727 -1.07918,-0.005 -4.26951,-1.08412 -7.08961,-2.39722 z m 74.23283,-43.422517 c -0.86391,-1.397834 2.11866,-3.490372 3.96505,-2.781843 0.87774,0.336821 1.41073,1.174665 1.18441,1.861876 -0.5049,1.533112 -4.34636,2.219402 -5.14946,0.919967 z m 42.44005,-0.615771 c -1.04579,-1.260096 -0.98527,-1.640572 0.34196,-2.149878 2.18128,-0.837038 4.87651,0.303149 4.36291,1.845682 -0.62298,1.871057 -3.26284,2.041738 -4.70487,0.304196 z"
     id="path2987"
     inkscape:connector-curvature="0" />
</svg>
