<?xml version="1.0" encoding="UTF-8" standalone="no"?>
<!-- Created with Inkscape (http://www.inkscape.org/) -->

<svg
   xmlns:dc="http://purl.org/dc/elements/1.1/"
   xmlns:cc="http://creativecommons.org/ns#"
   xmlns:rdf="http://www.w3.org/1999/02/22-rdf-syntax-ns#"
   xmlns:svg="http://www.w3.org/2000/svg"
   xmlns="http://www.w3.org/2000/svg"
   xmlns:sodipodi="http://sodipodi.sourceforge.net/DTD/sodipodi-0.dtd"
   xmlns:inkscape="http://www.inkscape.org/namespaces/inkscape"
   id="svg2"
   version="1.1"
   inkscape:version="0.48.1 r9760"
   width="720"
   height="504"
   sodipodi:docname="03_Card III_gray.svg">
  <metadata
     id="metadata8">
    <rdf:RDF>
      <cc:Work
         rdf:about="">
        <dc:format>image/svg+xml</dc:format>
        <dc:type
           rdf:resource="http://purl.org/dc/dcmitype/StillImage" />
        <dc:title />
      </cc:Work>
    </rdf:RDF>
  </metadata>
  <defs
     id="defs6" />
  <sodipodi:namedview
     pagecolor="#ffffff"
     bordercolor="#666666"
     borderopacity="1"
     objecttolerance="10"
     gridtolerance="10"
     guidetolerance="10"
     inkscape:pageopacity="0"
     inkscape:pageshadow="2"
     inkscape:window-width="1360"
     inkscape:window-height="695"
     id="namedview4"
     showgrid="false"
     showborder="false"
     inkscape:showpageshadow="false"
     inkscape:zoom="2.3333333"
     inkscape:cx="307.12027"
     inkscape:cy="35.473082"
     inkscape:window-x="0"
     inkscape:window-y="24"
     inkscape:window-maximized="1"
     inkscape:current-layer="svg2" />
  <path
     style="fill:#ababab"
     d="m 235.52048,490.3012 c -1.53726,-2.09066 -8.35824,-9.28039 -15.15775,-15.97719 C 209.99411,464.11201 208,461.66371 208,459.14544 208,456.06112 205.81659,453 203.61663,453 c -1.46342,0 -5.03473,-4.59123 -6.04342,-7.76934 C 197.18382,444.0038 196.4701,443 195.98718,443 c -0.48293,0 -1.4651,-1.2207 -2.18261,-2.71267 -0.71752,-1.49197 -2.87957,-3.7726 -4.80457,-5.06806 -1.925,-1.29547 -3.98778,-3.26578 -4.58396,-4.37847 -0.59617,-1.11269 -3.39814,-4.56956 -6.22658,-7.68193 -12.10589,-13.32114 -16.59133,-20.41439 -19.85177,-31.39346 -1.05,-3.53573 -2.11824,-5.11167 -3.93245,-5.80144 -4.13555,-1.57233 -9.29955,-6.18817 -12.54571,-11.21397 -1.82546,-2.82623 -3.81118,-4.75 -4.90296,-4.75 -1.00921,0 -3.89164,-1.78007 -6.40539,-3.95571 -2.51375,-2.17563 -5.16711,-4.31313 -5.89634,-4.75 -0.72923,-0.43686 -2.90079,-3.49429 -4.82569,-6.79429 -1.92491,-3.3 -5.82004,-9.05621 -8.65587,-12.79157 -2.83582,-3.73537 -5.34561,-7.78537 -5.57731,-9 -0.23169,-1.21464 -0.89592,-4.68343 -1.47606,-7.70843 -0.58015,-3.025 -1.31719,-10.53976 -1.63788,-16.69948 -0.54065,-10.38448 -0.43386,-11.34869 1.46745,-13.25 2.60602,-2.60602 6.36837,-2.61473 9.87407,-0.0229 1.50841,1.11521 4.41519,2.29909 6.45951,2.63084 5.19936,0.84374 5.02972,-1.94813 -0.28306,-4.65851 -3.46269,-1.76653 -4,-2.48995 -4,-5.38547 0,-4.56181 2.8396,-7.80925 9.70945,-11.104 3.1848,-1.52742 7.36555,-3.5991 9.29055,-4.60374 1.925,-1.00464 6.39056,-3.21085 9.92347,-4.90271 8.43293,-4.03839 18.33628,-11.16701 21.77272,-15.67241 1.51272,-1.98328 4.62952,-4.78175 6.92622,-6.21882 6.82045,-4.26762 12.58195,-12.42598 19.35112,-27.40143 l 6.23269,-13.78857 -0.6911,-8.73179 c -0.59045,-7.46013 -0.38121,-9.65167 1.43675,-15.04818 1.17031,-3.47401 1.85854,-7.16487 1.5294,-8.20191 -0.32915,-1.03703 -2.55431,-3.58549 -4.94481,-5.66324 -6.78955,-5.90126 -17.01773,-22.54043 -22.01204,-35.80909 C 168.92731,115.59848 172.3752,101 181.48437,101 c 1.96893,0 5.19537,-0.675 7.16987,-1.5 4.8713,-2.035359 9.6709,-1.884935 14.24052,0.446312 2.0983,1.070468 6.24287,2.246698 9.21017,2.613838 8.84026,1.09379 17.19885,5.73977 25.77061,14.32418 4.37743,4.3839 4.37782,4.38494 3.84071,10.30829 -0.36845,4.06339 -0.0961,6.76935 0.86713,8.61567 0.77236,1.48044 1.40707,3.44026 1.41046,4.35516 0.003,0.9149 2.81866,3.99528 6.25616,6.84528 8.49729,7.04504 11.10383,10.44535 10.33998,13.4888 -0.45561,1.81527 -1.67948,2.71849 -4.84969,3.57906 -2.33216,0.63309 -7.39029,2.20968 -11.24029,3.50356 -3.85,1.29387 -8.125,2.48015 -9.5,2.63617 -2.33431,0.26488 -2.47939,0.60537 -2.189,5.13754 0.21979,3.43037 -0.16821,5.38337 -1.32303,6.65943 -1.52245,1.68229 -1.49248,1.8505 0.439,2.46353 2.80854,0.8914 2.70936,4.29208 -0.13717,4.70363 -1.641,0.23725 -2.52958,1.42636 -3.45032,4.61723 -1.61581,5.59966 -1.05272,6.76452 4.24869,8.78914 2.42651,0.92669 4.41183,2.09672 4.41183,2.60006 0,0.50335 1.54446,1.56049 3.43214,2.34921 2.56285,1.07083 3.51264,2.13433 3.75,4.19897 0.27871,2.42441 0.74291,2.76494 3.76902,2.76494 2.72576,0 3.77672,0.57946 5,2.7568 1.49305,2.6575 1.44371,2.84086 -1.36951,5.0901 -2.09213,1.67272 -2.72229,2.8442 -2.22586,4.1379 0.61188,1.59453 1.54387,1.73262 8.00658,1.18632 7.14695,-0.60413 7.37878,-0.55074 10.14486,2.33642 1.55692,1.62508 4.55472,4.14939 6.66177,5.60958 3.27554,2.26995 3.831,3.19265 3.831,6.36389 0,3.64345 -2.30363,7.01899 -4.7901,7.01899 -0.62294,0 -2.91472,1.8 -5.09284,4 -2.17812,2.2 -4.5638,4 -5.30151,4 -0.73771,0 -1.7855,1.0125 -2.32842,2.25 -0.55233,1.25894 -2.07643,2.40363 -3.46017,2.59878 -1.36016,0.19183 -3.75719,1.42933 -5.32672,2.75 -1.56953,1.32067 -3.15686,2.40122 -3.52741,2.40122 -0.37054,0 -2.61034,1.77025 -4.97733,3.93389 l -4.30361,3.93388 2.0942,3.81612 c 3.50613,6.38899 7.0021,10.73962 9.89669,12.31611 5.03601,2.74278 11.11722,8.30977 11.11722,10.17715 0,1.01333 0.97871,2.62552 2.17491,3.58264 4.8721,3.89832 6.82509,6.25566 6.82509,8.23815 0,3.24693 10.5531,12.58844 17,15.04825 3.025,1.15418 6.4,2.90972 7.5,3.9012 3.27507,2.95195 6.97994,4.46495 22.25,9.08646 2.3375,0.70745 4.25,1.61315 4.25,2.01267 0,0.39951 -2.00431,1.02696 -4.45403,1.39432 -3.20987,0.48135 -6.31196,0.0941 -11.10533,-1.38646 C 302.78242,341.92447 298.51887,341 296.96609,341 294.23445,341 291,343.19478 291,345.04838 c 0,1.28035 3.80831,3.51769 8.5,4.99366 2.2,0.69211 5.31413,1.82551 6.92028,2.51868 1.73449,0.74855 3.76509,0.9391 5.00082,0.46928 3.02828,-1.15135 21.59191,0.75631 27.75915,2.85261 4.66568,1.58592 5.05378,1.91978 3.30329,2.84162 -1.09095,0.57451 -6.5202,1.27694 -12.06501,1.56096 -7.64894,0.3918 -11.64911,1.14355 -16.57846,3.1156 -3.57334,1.42957 -7.39574,2.59921 -8.49422,2.59921 -3.10168,0 -6.3919,4.08039 -5.66614,7.0269 1.0052,4.08101 2.0091,4.65076 9.57252,5.43279 10.16044,1.05056 11.6285,0.95823 13.63489,-0.85754 1.78061,-1.61143 9.11288,-2.27509 9.11288,-0.82483 0,0.42752 -1.4625,2.1099 -3.25,3.73862 l -3.25,2.96131 2.69231,0.32223 c 1.48077,0.17723 3.82498,-0.41993 5.20936,-1.32701 1.673,-1.09619 3.49519,-1.4344 5.43398,-1.00857 3.33186,0.7318 6.16435,-1.36692 6.16435,-4.56745 0,-1.07838 0.64096,-3.49472 1.42436,-5.36966 1.12817,-2.70009 2.27099,-3.63694 5.49582,-4.5053 6.08712,-1.63909 7.72291,-0.33884 8.29799,6.59584 0.51553,6.21662 2.5181,8.73795 6.20513,7.81256 1.15496,-0.28987 3.76775,0.16982 5.8062,1.02153 2.03844,0.85172 4.63227,1.54858 5.76406,1.54858 1.98272,0 1.99885,-0.11399 0.44215,-3.12432 -1.40545,-2.71784 -1.42849,-3.31147 -0.17711,-4.56286 1.25139,-1.25138 1.8586,-1.08509 4.66724,1.27823 3.08727,2.59777 3.44768,2.66623 8.22772,1.56286 C 393.90302,378.51926 397.62351,378 399.4213,378 403.25395,378 406,375.43105 406,371.84557 406,368.93057 402.22835,365 399.43122,365 c -1.06694,0 -4.86294,-1.03521 -8.43555,-2.30046 -4.91203,-1.73961 -9.05391,-2.35965 -16.98891,-2.54324 -10.45629,-0.24193 -13.25294,-0.96978 -10.79914,-2.81059 3.42262,-2.5676 16.76297,-4.37355 31.9018,-4.31871 2.92373,0.0106 5.07132,-0.53985 5.87244,-1.50515 0.69467,-0.83702 2.44543,-1.52353 3.89058,-1.52559 4.15713,-0.006 9.31982,-3.62626 8.94376,-6.27182 -0.37742,-2.6551 -5.15078,-3.50066 -10.07381,-1.78448 -4.22915,1.47429 -16.74888,2.56305 -16.71551,1.45364 0.0284,-0.94465 8.67182,-4.95058 18.13202,-8.4036 3.11239,-1.13604 6.20499,-2.72353 6.87244,-3.52776 0.66745,-0.80423 1.94739,-1.46224 2.8443,-1.46224 2.11567,0 10.58979,-6.04078 15.18989,-10.82811 1.9815,-2.06216 5.21503,-6.26981 7.18562,-9.35033 1.97059,-3.08053 4.07023,-5.90215 4.66587,-6.27028 0.59564,-0.36812 1.08298,-1.51061 1.08298,-2.53887 0,-1.02825 0.62024,-2.4642 1.37831,-3.19098 2.28455,-2.19028 6.91635,-5.75644 10.52786,-8.10572 1.8734,-1.21864 3.75109,-2.89071 4.17266,-3.71571 0.42157,-0.825 2.20682,-3.95951 3.96723,-6.96558 l 3.20075,-5.46559 -4.8734,-4.27761 c -5.11728,-4.49167 -11.72053,-8.44223 -13.70317,-8.19826 C 444.95825,261.42669 444,260.88695 444,259.02568 c 0,-1.17488 -1.19463,-2.59208 -2.9503,-3.49998 -1.62266,-0.83911 -3.31016,-2.11284 -3.75,-2.83052 -0.43983,-0.71768 -2.49289,-2.3329 -4.56235,-3.5894 -7.18007,-4.35946 -7.50771,-8.33635 -1.17574,-14.27115 7.60463,-7.12764 9.35084,-8.01283 14.67789,-7.44053 8.16776,0.87749 13.90759,-2.63946 8.78342,-5.38183 -5.53344,-2.96141 -3.47684,-9.35006 3.04446,-9.45741 2.60952,-0.0429 3.45229,-0.54588 3.88278,-2.3171 0.55303,-2.27536 4.14501,-5.00418 11.54984,-8.77438 3.68268,-1.87505 3.9897,-2.3453 3.87018,-5.92767 -0.10415,-3.12179 -0.79289,-4.43223 -3.48369,-6.62835 l -3.35386,-2.73729 2.73368,-1.24555 c 3.23672,-1.47474 3.40417,-2.34149 0.80419,-4.16258 -1.51296,-1.05973 -1.89074,-2.41397 -1.75,-6.27331 l 0.1795,-4.92183 -4.62937,-0.68325 c -2.54616,-0.37578 -6.76586,-1.62831 -9.37712,-2.7834 C 455.88225,164.94507 452.64838,164 451.30714,164 c -8.73435,0 -8.23584,-7.20216 1.09374,-15.80187 2.50494,-2.30897 5.02177,-4.19813 5.59296,-4.19813 0.57118,0 1.7634,-1.6875 2.64937,-3.75 0.88597,-2.0625 2.24909,-4.97897 3.02916,-6.48104 1.04098,-2.00449 1.14021,-3.25065 0.37296,-4.68425 C 463.4704,128.01043 463,125.52951 463,123.57155 c 0,-2.84967 0.84795,-4.41445 4.25,-7.84284 2.3375,-2.35559 6.5,-5.57992 9.25,-7.16517 2.75,-1.58525 6.07319,-3.71056 7.38486,-4.72291 1.31167,-1.01235 3.42722,-1.84063 4.70121,-1.84063 3.34472,0 12.65049,-2.553848 16.43286,-4.509787 3.35156,-1.733163 7.07233,-1.625615 12.48107,0.360764 1.65,0.605968 4.73778,1.367217 6.86173,1.691665 2.12395,0.324448 4.93645,1.664628 6.25,2.978178 2.15911,2.15911 2.38827,3.24037 2.38827,11.26857 0,9.51777 -1.94744,17.2265 -6.74239,26.68903 -4.18332,8.2555 -11.11307,18.19135 -16.85669,24.16906 -2.9705,3.09157 -5.40092,6.29399 -5.40092,7.11649 0,0.82249 0.97753,5.06237 2.17229,9.42194 1.95761,7.14315 2.05045,8.53943 0.93948,14.1287 -1.20192,6.04684 -1.15416,6.37736 1.90644,13.1938 3.22652,7.18599 5.85805,13.35371 8.31632,19.49159 1.95066,4.87047 9.40019,12.99121 13.48192,14.69667 3.20511,1.33918 9.18355,6.86595 9.18355,8.48974 0,1.78727 12.37883,10.81163 17.4153,12.69602 3.04721,1.1401 7.41786,3.43296 9.71257,5.09524 2.29472,1.66228 5.02262,3.02233 6.06201,3.02233 2.73722,0 8.9242,3.37001 12.75259,6.94626 2.93142,2.73835 3.24439,3.52362 2.71979,6.82409 -0.32605,2.05131 -1.3368,4.17965 -2.24611,4.72965 -4.50496,2.72486 -5.91402,4.3602 -4.76499,5.53018 1.76195,1.79406 6.69839,0.25818 9.89539,-3.07877 3.19671,-3.33664 8.3298,-4.01025 10.51304,-1.37961 1.57976,1.9035 1.46309,23.64122 -0.1767,32.92101 -1.45688,8.24469 -2.92281,11.35943 -8.0782,17.16413 -2.44239,2.74999 -6.07318,7.91913 -8.06843,11.48698 -3.7274,6.6652 -11.75651,13.89139 -16.8574,15.17164 -1.42407,0.35742 -3.63283,2.50821 -5.32495,5.18522 C 560.63255,378.1225 553.74588,384 551.25197,384 549.83683,384 547,389.73227 547,392.59179 c 0,0.91081 -1.6875,4.28699 -3.75,7.50261 -2.0625,3.21562 -5.27443,8.28997 -7.13762,11.27632 -1.8632,2.98635 -8.9507,11.12758 -15.75,18.09163 C 513.56307,436.42639 508,442.73255 508,443.47603 c 0,0.74347 -2.25,3.72327 -5,6.62178 -3.32172,3.5011 -5.00208,6.13133 -5.00621,7.8361 -0.005,1.96985 -2.63938,5.05561 -11.33878,13.28041 -6.23291,5.89287 -13.11498,13.31601 -15.29348,16.49587 -4.08694,5.96552 -6.40163,7.33134 -8.90442,5.25422 -1.08746,-0.90252 -1.29318,-2.50782 -0.82829,-6.46336 l 0.61852,-5.26262 -4.37367,-0.0207 c -2.40552,-0.0114 -9.92774,-0.088 -16.71604,-0.17026 -6.7883,-0.0823 -14.79608,0.39956 -17.79507,1.0707 -4.75666,1.0645 -5.65937,1.01359 -7.07173,-0.39877 -2.11599,-2.11599 -0.42106,-4.32652 4.02827,-5.25369 4.57715,-0.9538 14.60741,-6.84772 18.63276,-10.94886 1.89853,-1.93427 4.07443,-3.51685 4.83534,-3.51685 0.76091,0 2.77787,-1.575 4.48213,-3.5 1.88813,-2.13268 4.01901,-3.5 5.45451,-3.5 4.76144,0 14.85903,-7.05102 22.9132,-16 0.74251,-0.825 3.49043,-3.9014 6.10649,-6.83644 C 486.6435,427.78805 506.41396,407.82426 512.61499,402 516.24794,398.58778 522,390.66369 522,389.07111 c 0,-0.94111 1.575,-3.55115 3.5,-5.80008 1.925,-2.24893 3.5,-4.56409 3.5,-5.14481 0,-2.44993 -4.29234,-3.31541 -13.01775,-2.62481 -4.83268,0.38249 -9.77047,0.38319 -10.97287,0.002 -2.73674,-0.86861 -4.79651,-5.5933 -4.20259,-9.6399 0.35986,-2.45187 1.28822,-3.45647 4.57237,-4.94784 2.26646,-1.02922 5.25821,-1.8812 6.64833,-1.89328 1.39013,-0.0121 3.41513,-0.63946 4.5,-1.39419 1.08488,-0.75472 3.54751,-1.71256 5.47251,-2.12852 3.3362,-0.72091 15.85856,-6.45363 20.84867,-9.54449 3.08073,-1.9082 14.3919,-18.98463 19.41092,-29.30461 2.18006,-4.48258 4.95788,-9.50015 6.17293,-11.15015 4.2233,-5.73509 4.2269,-5.71851 -1.07574,-4.9581 -2.67123,0.38306 -5.78578,1.54284 -6.92123,2.57729 C 559.3001,304.15363 557.63377,305 556.7326,305 c -2.58242,0 -6.78451,2.11708 -12.6365,6.36647 -4.87269,3.53827 -5.70826,3.82441 -8.5,2.91084 -1.70286,-0.55725 -6.4711,-1.07198 -10.5961,-1.14386 -5.71794,-0.0996 -8.12656,-0.59349 -10.13696,-2.07844 -1.45033,-1.07126 -3.47533,-1.93308 -4.5,-1.91515 -1.02467,0.0179 -2.77068,-0.25628 -3.88002,-0.60933 -1.60975,-0.51232 -4.33543,1.62052 -13.5,10.56369 C 481.01577,330.77236 473.70549,336 469.34215,336 c -1.41341,0 -4.27596,0.95889 -6.36121,2.13087 -3.21494,1.8069 -4.27487,1.96232 -6.97154,1.02225 -2.45504,-0.85583 -3.90174,-0.79847 -6.34478,0.25158 -3.7453,1.60977 -7.66462,5.15758 -7.66462,6.93809 0,1.83231 -5.89107,6.97456 -10.22375,8.92419 -2.46525,1.10932 -3.94444,2.55498 -4.37678,4.27754 -0.85623,3.4115 0.97184,5.40067 3.37805,3.67575 5.83806,-4.1851 9.22952,-3.99218 14.45231,0.82208 1.7986,1.6579 4.10532,3.78911 5.12605,4.73601 1.02074,0.9469 3.5867,4.25273 5.70214,7.34628 2.11543,3.09356 4.52443,5.88489 5.35333,6.20297 4.29602,1.64853 3.21999,11.75651 -1.89915,17.84026 -1.38171,1.64207 -2.5122,3.64398 -2.5122,4.44869 0,2.46445 -3.84342,9.16036 -6.20912,10.81736 -1.22974,0.86134 -3.37326,1.58437 -4.76339,1.60672 -3.28463,0.0528 -8.56572,4.61821 -10.414,9.0027 -2.02659,4.80747 -7.12656,9.41419 -13.61349,12.29684 -5.86138,2.60467 -8.81575,5.27727 -11.32202,10.24219 -1.51382,2.99886 -6.45322,9.62092 -10.56313,14.16154 -1.88187,2.0791 -2.77374,2.22614 -12.14209,2.00185 -10.05297,-0.24067 -10.10843,-0.25571 -9.65683,-2.61808 0.44849,-2.34613 0.3833,-2.36599 -5.18086,-1.57839 -8.00406,1.13297 -13.55361,1.11362 -14.13507,-0.0493 -0.275,-0.55 0.625,-1.1308 2,-1.29066 1.375,-0.15986 5.01947,-1.20179 8.09883,-2.31539 4.95333,-1.7913 5.54663,-2.29775 5.14614,-4.39283 -0.3936,-2.05894 0.087,-2.51342 3.68134,-3.48128 7.45434,-2.00724 3.56734,-3.13091 -8.36315,-2.41764 -8.00428,0.47854 -11.47841,0.34394 -11.97779,-0.46408 C 357.1985,445.51216 355.13508,445 353,445 c -2.13508,0 -4.1985,0.51216 -4.58537,1.13812 -0.49683,0.8039 -3.96473,0.95084 -11.80901,0.50038 -6.47011,-0.37154 -11.72003,-0.24295 -12.57759,0.30809 -1.73507,1.11487 -0.948,1.49567 5.20279,2.51721 3.09667,0.51431 3.69158,0.99499 3.5,2.82791 -0.20182,1.93088 0.74277,2.51516 7.51918,4.65102 4.2625,1.34351 7.75,2.86944 7.75,3.39096 0,1.01895 -14.74659,0.28566 -18.90793,-0.94021 -2.1227,-0.62532 -2.33939,-0.44722 -1.82927,1.50348 0.78881,3.01638 -2.51124,4.16527 -12.1082,4.21537 l -7.52304,0.0393 -4.86742,-5.3258 c -2.67708,-2.9292 -6.2077,-8.07654 -7.84581,-11.43855 -2.84391,-5.83677 -3.28178,-6.23874 -9.69836,-8.90345 -7.58063,-3.14813 -12.71617,-7.41854 -14.76569,-12.27829 -2.2098,-5.23979 -6.77297,-9.20199 -10.62736,-9.22776 -1.8298,-0.0122 -4.2969,-0.79973 -5.48243,-1.75 C 251.88878,414.25938 248,407.32829 248,404.9198 c 0,-0.88541 -0.88383,-2.40968 -1.96406,-3.38728 -1.08024,-0.97759 -2.70896,-3.72793 -3.61939,-6.11185 -2.22094,-5.81545 -1.27398,-10.67394 2.62101,-13.44741 1.62934,-1.1602 2.96244,-2.73829 2.96244,-3.50687 0,-1.89105 13.56974,-15.35231 16.66067,-16.52748 4.17342,-1.58673 8.16496,-1.13323 9.33933,1.06109 1.54413,2.88524 4,2.53789 4,-0.56574 0,-3.92046 -1.49163,-5.90127 -5.96188,-7.91707 -2.53074,-1.1412 -5.39253,-3.66357 -7.52633,-6.63366 -4.80318,-6.68567 -7.6288,-8.28559 -14.91272,-8.44384 -9.84134,-0.21381 -22.5246,-5.73791 -30.07433,-13.09867 -18.44918,-17.9874 -18.24596,-17.82818 -20.92467,-16.39457 -1.35583,0.72561 -3.26451,1.01256 -4.24151,0.63765 -1.17334,-0.45025 -2.29953,-0.007 -3.31746,1.30594 -1.2763,1.64609 -3.0566,2.06172 -10.36123,2.41891 -4.85107,0.23722 -9.32857,0.93975 -9.95,1.56118 -1.92192,1.92192 -3.59062,1.30233 -10.42328,-3.87013 -4.76073,-3.60396 -7.50639,-5 -9.83375,-5 -2.16679,0 -3.68575,-0.68806 -4.61777,-2.09175 -0.88995,-1.34034 -2.6401,-2.18073 -4.87197,-2.33945 -1.9157,-0.13623 -4.2706,-0.59308 -5.2331,-1.01523 -2.65326,-1.16371 -2.16722,1.1296 1.12381,5.30253 1.58059,2.00414 4.90612,7.6939 7.39006,12.6439 2.48394,4.95 6.59073,11.81376 9.12619,15.25281 2.53547,3.43904 4.60994,6.49476 4.60994,6.79049 0,1.89844 4.92806,6.60241 7.92291,7.56264 1.9674,0.6308 4.25209,1.71076 5.07709,2.3999 2.96137,2.4737 8.5806,4.87918 13,5.56504 4.32969,0.67194 6.13052,1.22351 15.9948,4.89903 4.03449,1.50329 4.56528,2.07703 5.18302,5.60245 0.52253,2.98199 0.25792,4.52956 -1.09902,6.42764 -1.70252,2.38149 -2.3743,2.5237 -14.17177,3 -13.83625,0.55861 -15.10455,1.33679 -10.41895,6.39264 1.40961,1.52099 3.90433,5.42274 5.54382,8.67055 2.31972,4.59533 7.41553,10.32774 22.97449,25.84455 C 219.00288,428.87444 228,438.30278 228,438.85961 c 0,0.55683 1.78409,2.01514 3.96465,3.24068 2.18055,1.22554 5.31246,3.90543 6.95979,5.95531 3.12226,3.88524 10.18288,7.9444 13.8187,7.9444 1.16144,0 3.07369,1.22298 4.24947,2.71773 1.17577,1.49475 3.34593,3.28425 4.82258,3.97667 1.47664,0.69241 5.83481,3.52026 9.68481,6.28411 3.85,2.76384 9.25,5.75236 12,6.64115 5.71322,1.84649 8.39726,3.89276 6.95714,5.30402 -0.52643,0.51588 -11.17503,1.06451 -23.66356,1.21918 l -22.70643,0.28121 -0.29357,5.53796 c -0.27175,5.12619 -0.48633,5.56037 -2.88584,5.83917 -2.02035,0.23475 -3.20889,-0.53742 -5.38726,-3.5 z m 112.14765,-47.87874 c 1.14517,-2.98428 -1.94908,-4.68236 -6.78836,-3.72535 -5.70601,1.12842 -5.91617,3.56932 -0.37977,4.41098 6.42415,0.97663 6.5343,0.96609 7.16813,-0.68563 z m 19.84805,0.57139 c 3.78398,-1.43867 2.55305,-3.39036 -2.59758,-4.11855 -4.81001,-0.68005 -6.9186,0.30959 -6.9186,3.24714 0,1.47234 0.74134,1.87756 3.4349,1.87756 1.8892,0 4.62577,-0.45277 6.08128,-1.00615 z M 358.75,414.37966 c 3.46643,-0.64362 2.67351,-3.12295 -1.71473,-5.36167 l -3.96474,-2.02265 -4.03526,2.1033 c -2.2194,1.15681 -4.03527,2.4855 -4.03527,2.95264 0,2.23579 7.45217,3.49772 13.75,2.32838 z M 293.35817,282.75 C 290.02311,278.98007 285,266.68113 285,262.28525 c 0,-3.14711 0.52354,-4.39827 2.33788,-5.58707 1.28584,-0.84251 4.43584,-3.62979 7,-6.19396 5.20038,-5.20037 5.86981,-8.28743 2.99337,-13.80388 -4.75749,-9.12397 -2.93081,-28.2833 3.14565,-32.99338 1.74482,-1.35247 9.26141,0.1272 14.76692,2.90693 2.8909,1.45961 7.35576,4.77977 9.92192,7.37812 2.71674,2.75083 5.94297,4.97973 7.72333,5.3358 2.28537,0.45708 3.22544,1.31373 3.72215,3.39186 1.05944,4.43242 2.23542,5.43831 4.74379,4.05764 3.50381,-1.92859 17.54282,-2.01734 21.84121,-0.13806 4.93563,2.15787 6.80378,1.30453 6.80378,-3.10787 0,-3.09212 0.30834,-3.53138 2.47889,-3.53138 1.68194,0 4.21906,-1.7682 7.89171,-5.5 2.97705,-3.025 5.87155,-5.5 6.43222,-5.5 0.56067,0 2.21991,-1.42673 3.6872,-3.17051 3.16002,-3.75547 10.5933,-5.54686 14.01362,-3.37721 2.8667,1.81845 6.49636,9.62549 6.49636,13.97299 0,2.03842 0.46366,4.57257 1.03035,5.63144 0.75689,1.41426 0.62418,2.71067 -0.5,4.8846 -0.84169,1.62765 -1.53035,4.02071 -1.53035,5.3179 0,1.29719 -0.66069,3.23204 -1.4682,4.29966 -3.50772,4.63763 -1.01636,10.90077 5.96316,14.99104 5.78504,3.39026 7.14934,5.2248 7.77147,10.45009 0.47549,3.99364 0.15211,5.00636 -2.87386,9 -1.8753,2.475 -3.88947,5.70781 -4.47593,7.18402 -0.58646,1.4762 -2.22632,3.44409 -3.64414,4.37308 -2.75254,1.80354 -6.4698,1.38606 -18.86039,-2.11817 C 389.61377,279.64752 386.66046,279 385.8492,279 c -2.00365,0 -5.6123,-4.05214 -11.57719,-13 -8.54628,-12.82017 -17.96796,-19.49513 -24.57118,-17.4079 -3.38746,1.07076 -8.68325,5.4472 -11.33634,9.36835 -1.31719,1.94675 -4.40736,6.23955 -6.86704,9.53955 -2.45968,3.3 -5.42229,7.4625 -6.58357,9.25 -1.64113,2.52609 -2.81334,3.25241 -5.26266,3.26082 -1.73317,0.006 -5.25209,0.64841 -7.81981,1.42767 -2.56773,0.77927 -5.55266,1.18566 -6.63319,0.90309 -1.08053,-0.28256 -3.34482,0.19999 -5.03175,1.07234 -3.98025,2.05826 -4.43977,2.01345 -6.8083,-0.66392 z M 81.015956,180.21086 c -1.632855,-0.79081 -4.104431,-2.49028 -5.492392,-3.7766 C 73.143911,174.22887 73,173.51498 73,163.91578 c 0,-11.58529 1.673046,-15.78597 7.348771,-18.4513 1.733176,-0.8139 4.601362,-2.41057 6.373748,-3.54815 3.766745,-2.41764 4.954486,-1.93361 6.944923,2.83017 l 1.463375,3.50235 2.934591,-2.81152 C 99.848651,143.72888 101,141.59843 101,140.00719 c 0,-1.44025 1.125,-4.14348 2.5,-6.00719 3.02254,-4.09682 3.15726,-7.40971 0.4799,-11.80107 -1.82387,-2.99148 -2.06353,-5.57061 -2.55536,-27.500005 C 100.84035,68.652215 99.563488,59.696492 95.40706,52.493264 94.126606,50.274195 92.404516,44.526538 91.547303,39.610915 90.696026,34.729327 89.052218,29.202525 87.894398,27.329132 86.043429,24.334201 85.941631,23.55513 87.051234,20.876311 88.93656,16.324732 90.731295,15 95.012412,15 c 4.531438,0 5.036408,0.595574 5.424278,6.397565 0.16005,2.394042 0.60812,4.865917 0.99571,5.493056 0.38759,0.627139 0.84279,5.085048 1.01154,9.906465 0.25875,7.392724 0.77851,9.701334 3.31736,14.734564 4.76549,9.447523 5.44394,12.898366 6.11864,31.121659 0.55134,14.89147 0.88528,17.429781 2.53256,19.250001 1.04361,1.15318 2.89932,2.09669 4.1238,2.09669 1.35068,0 3.23234,1.31896 4.78413,3.35346 2.68116,3.51518 5.7425,5.09316 11.82909,6.09735 2.00723,0.33116 4.19983,1.26521 4.87244,2.07565 0.67261,0.81045 2.05746,1.47354 3.07743,1.47354 1.01998,0 2.58389,1.11318 3.47535,2.47373 1.51983,2.31955 1.49011,2.68527 -0.47694,5.86803 -1.15379,1.86687 -2.0978,3.61752 -2.0978,3.89034 0,0.27281 1.6875,0.4447 3.75,0.38196 3.63317,-0.11051 3.75965,0.002 4.05968,3.62442 0.237,2.86112 -0.34971,4.60279 -2.5,7.42135 -2.28348,2.99313 -2.83152,4.77199 -2.92627,9.49831 -0.13679,6.8229 -0.73643,7.69656 -8.53324,12.43288 -4.02451,2.44476 -6.52179,4.80513 -7.86086,7.42993 -2.42829,4.75985 -4.73165,6.41047 -12.44146,8.91578 -8.05267,2.61673 -32.032845,3.45309 -36.531894,1.27413 z M 603.5,179.04105 c -15.6737,-1.2143 -24.71769,-5.05018 -27.56427,-11.69098 -2.00996,-4.68904 -4.96518,-7.82023 -8.43573,-8.93804 -1.1,-0.35429 -3.3977,-1.69041 -5.106,-2.96915 -2.41861,-1.81045 -3.24538,-3.34195 -3.73583,-6.92018 -0.39214,-2.86092 -0.18615,-5.30566 0.54578,-6.47767 1.00169,-1.60396 0.62971,-2.48674 -2.51416,-5.96664 -3.96422,-4.38792 -4.49347,-6.59704 -2.29934,-9.59769 1.20178,-1.64352 1.75095,-1.7373 4.04706,-0.69113 1.46113,0.66574 2.86042,1.21043 3.10954,1.21043 1.06428,0 0.30331,-2.28338 -1.63444,-4.90434 -2.88853,-3.90694 -2.21631,-7.33587 1.68542,-8.59709 1.70392,-0.55079 3.72892,-1.48999 4.5,-2.08712 0.77108,-0.59713 4.22342,-2.1172 7.67185,-3.37793 4.50696,-1.64772 6.75351,-3.11096 7.98992,-5.20404 0.94603,-1.6015 2.84958,-3.137771 4.23012,-3.413946 C 587.37047,99.13936 589.625,98.351245 591,97.664169 l 2.5,-1.249231 0.0588,-17.577997 0.0587,-17.577996 4.64165,-9.379473 c 4.12418,-8.333811 4.71618,-10.382828 5.31016,-18.379472 0.36768,-4.95 1.00632,-9.45 1.41921,-10 0.41288,-0.55 1.05374,-2.682031 1.42412,-4.737847 0.81314,-4.513303 3.15573,-5.982847 8.87557,-5.567784 L 619.5,13.5 l 0.30625,5.36508 c 0.25286,4.429783 -0.13938,6.008127 -2.25,9.05375 C 615.65151,30.667366 615,32.875347 615,36.581962 c 0,3.611418 -0.94319,6.942563 -3.44219,12.157097 -1.8932,3.950449 -3.95567,8.887754 -4.58326,10.971788 C 606.34696,61.794881 605.24867,75.425 604.53392,90 c -0.97777,19.9382 -1.7,27.4206 -2.91674,30.21788 -2.29768,5.28235 -2.0273,9.14127 0.88282,12.59975 1.375,1.6341 2.5,3.81849 2.5,4.85422 0,2.5262 2.75652,6.32815 4.58809,6.32815 0.81107,0 1.75396,-0.7875 2.09529,-1.75 1.88885,-5.32614 6.33428,-6.22429 10.81662,-2.18537 1.1,0.99118 3.22734,2.26712 4.72741,2.83542 1.50008,0.5683 4.1094,3.18578 5.79849,5.81661 2.80534,4.36944 3.03576,5.35918 2.66291,11.43826 -0.65036,10.6038 -5.75103,16.67894 -15.22397,18.13248 -2.18066,0.3346 -4.86484,0.79794 -5.96484,1.02964 -1.1,0.23171 -6.05,0.10751 -11,-0.27599 z M 122.17668,96.357183 c 0.48905,-2.48487 3.49918,-4.081322 4.95341,-2.627088 0.91353,0.913522 0.89177,1.538636 -0.0949,2.727523 -1.74732,2.105398 -5.27826,2.032407 -4.85849,-0.100435 z m 456.37511,-3.948254 c -1.07795,-1.077949 -1.3349,-2.025817 -0.71674,-2.64398 1.42886,-1.428863 5.33193,0.131497 4.97182,1.987622 -0.44578,2.297661 -2.32405,2.58739 -4.25508,0.656358 z"
     id="path2993"
     inkscape:connector-curvature="0" />
</svg>
