<?xml version="1.0" encoding="UTF-8" standalone="no"?>
<!-- Created with Inkscape (http://www.inkscape.org/) -->

<svg
   xmlns:dc="http://purl.org/dc/elements/1.1/"
   xmlns:cc="http://creativecommons.org/ns#"
   xmlns:rdf="http://www.w3.org/1999/02/22-rdf-syntax-ns#"
   xmlns:svg="http://www.w3.org/2000/svg"
   xmlns="http://www.w3.org/2000/svg"
   xmlns:sodipodi="http://sodipodi.sourceforge.net/DTD/sodipodi-0.dtd"
   xmlns:inkscape="http://www.inkscape.org/namespaces/inkscape"
   id="svg2"
   version="1.1"
   inkscape:version="0.48.1 r9760"
   width="720"
   height="504"
   sodipodi:docname="04_Card IV_gray.svg">
  <metadata
     id="metadata8">
    <rdf:RDF>
      <cc:Work
         rdf:about="">
        <dc:format>image/svg+xml</dc:format>
        <dc:type
           rdf:resource="http://purl.org/dc/dcmitype/StillImage" />
        <dc:title />
      </cc:Work>
    </rdf:RDF>
  </metadata>
  <defs
     id="defs6" />
  <sodipodi:namedview
     pagecolor="#ffffff"
     bordercolor="#666666"
     borderopacity="1"
     objecttolerance="10"
     gridtolerance="10"
     guidetolerance="10"
     inkscape:pageopacity="0"
     inkscape:pageshadow="2"
     inkscape:window-width="1360"
     inkscape:window-height="695"
     id="namedview4"
     showgrid="false"
     borderlayer="false"
     showborder="false"
     inkscape:showpageshadow="false"
     inkscape:zoom="1.1666667"
     inkscape:cx="386.2268"
     inkscape:cy="250.36375"
     inkscape:window-x="0"
     inkscape:window-y="24"
     inkscape:window-maximized="1"
     inkscape:current-layer="svg2" />
  <path
     style="fill:#ababab"
     d="m 299,484.36842 c 0,-1.46794 1.99211,-3.6116 12.69486,-13.66065 1.75717,-1.64984 4.40535,-5.29653 5.88485,-8.10374 7.61478,-14.44841 8.17144,-15.99762 8.77316,-24.41613 l 0.5941,-8.31211 -3.50897,-1.46614 c -3.61759,-1.51153 -5.438,-4.53823 -5.438,-9.04147 0,-1.37589 -1.125,-3.97657 -2.5,-5.77929 -1.375,-1.80272 -2.50614,-4.3602 -2.51365,-5.68328 C 312.96449,404.05579 311.86839,401 310.50932,401 c -0.69158,0 -3.34935,1.16921 -5.90617,2.59824 -8.17364,4.56833 -10.47271,0.36093 -3.64642,-6.67309 4.65192,-4.79349 5.29423,-6.39101 4.19163,-10.42515 -0.93356,-3.41565 -1.06149,-3.43046 -13.64836,-1.5798 -14.1614,2.08215 -18.03668,4.42118 -19.51188,11.77688 -0.41947,2.09161 -1.51306,6.61011 -2.4302,10.04112 -1.42343,5.32508 -1.50605,7.5939 -0.56446,15.5 1.56018,13.09995 1.53389,13.58103 -1.11262,20.36251 -3.08648,7.90886 -3.97195,8.8718 -9.95874,10.82998 -5.67805,1.85719 -6.9221,1.49396 -6.9221,-2.02109 0,-2.98759 -2.06945,-3.97798 -5.01649,-2.40078 -1.93176,1.03385 -2.1043,0.94713 -1.55556,-0.78181 0.91047,-2.86864 -1.686,-4.45923 -6.63866,-4.06684 -3.76359,0.29818 -4.3271,0.0744 -4.59776,-1.82562 -0.16966,-1.191 -1.06966,-2.4708 -2,-2.84402 -1.58579,-0.63615 -9.40454,-2.12788 -15.31215,-2.92139 -1.44134,-0.1936 -5.04134,-1.05369 -8,-1.91131 -7.89689,-2.28906 -17.03149,-2.87009 -28.87938,-1.83692 -9.91338,0.86447 -10.60012,0.80216 -12.292,-1.11529 -2.65354,-3.00733 -1.74951,-4.89473 3.80449,-7.94285 4.54585,-2.49484 5.61499,-2.68319 12.07332,-2.12695 C 190.06697,422.28016 194,421.1767 194,418.43343 c 0,-0.82291 -0.7875,-1.78367 -1.75,-2.13503 -0.9625,-0.35136 -2.71835,-1.37977 -3.90189,-2.28537 -1.18355,-0.90559 -4.78355,-2.22337 -8,-2.9284 -3.21646,-0.70503 -7.42311,-1.90599 -9.34811,-2.66881 -1.925,-0.76282 -5.3,-1.79978 -7.5,-2.30436 -2.2,-0.50458 -7.6,-1.85465 -12,-3.00015 -5.90961,-1.53852 -9.5786,-1.92532 -14.04137,-1.4803 -5.13232,0.51178 -7.40724,0.13346 -15.11869,-2.51429 -5.6774,-1.94935 -11.09289,-3.12495 -14.45863,-3.13868 -5.88784,-0.024 -12.273945,-2.44774 -17.059632,-6.47463 C 89.185357,388.12653 86.960621,387 85.87782,387 c -1.082801,0 -3.177118,-1.2375 -4.654037,-2.75 -1.476919,-1.5125 -4.025506,-3.425 -5.663526,-4.25 -1.63802,-0.825 -3.221677,-2.52814 -3.519238,-3.78475 -0.29756,-1.25661 -1.597392,-2.83161 -2.888514,-3.5 -3.917055,-2.02778 -5.981909,-10.21315 -5.263808,-20.86647 0.06122,-0.90818 1.686303,-2.5805 3.611303,-3.71628 4.027123,-2.37606 4.311225,-3.83148 1.456379,-7.46083 -1.2106,-1.53902 -1.923935,-3.72028 -1.75,-5.35119 0.246651,-2.31274 -0.299636,-3.03663 -3.414973,-4.52519 -7.915497,-3.78217 -6.819327,-9.03917 2.76901,-13.27959 3.009728,-1.33104 8.092372,-2.71652 11.294764,-3.07883 5.566469,-0.62977 5.986122,-0.51511 9.542357,2.60731 2.045904,1.79633 5.12622,5.33375 6.845146,7.86094 3.893575,5.72438 4.391889,6.06072 9.007317,6.07957 3.34588,0.0137 3.75,-0.25641 3.75,-2.50613 0,-1.7289 0.79741,-2.88476 2.53694,-3.67734 3.29785,-1.5026 4.44701,-0.26945 7.45316,7.99787 2.03281,5.5905 3.03017,6.85603 8.86612,11.25 3.61661,2.723 7.17497,4.95091 7.90747,4.95091 0.73249,0 2.33839,-1.08612 3.56865,-2.41359 1.23026,-1.32747 4.68416,-4.25247 7.67534,-6.5 4.32989,-3.25342 6.28536,-4.08641 9.59296,-4.08641 2.38672,0 4.66055,-0.60979 5.34384,-1.4331 1.22029,-1.47037 1.17647,-1.51148 -6.59966,-6.19163 -1.63364,-0.98322 -2.28032,-2.57708 -2.67227,-6.5862 -0.28439,-2.90899 -0.82735,-6.74627 -1.20658,-8.5273 -0.60317,-2.83273 -0.23464,-3.6931 2.94309,-6.87083 3.20588,-3.20588 4.01194,-3.54552 6.86177,-2.89129 5.22415,1.1993 15.61626,1.49206 16.25538,0.45794 0.32431,-0.52475 -0.11141,-1.955 -0.96828,-3.17834 -2.08063,-2.97052 -1.96529,-4.32182 0.57054,-6.68431 2.53588,-2.36253 1.99662,-4.3475 -1.82473,-6.7167 C 169.53622,285.0424 168,283.04527 168,280.48318 168,278.18423 171.8144,274 173.91016,274 175.61956,274 181,270.78201 181,269.75964 c 0,-0.44503 -1.06032,-1.21228 -2.35627,-1.705 -3.46878,-1.31882 -4.26728,-7.37021 -1.48763,-11.27387 1.14344,-1.6058 3.11661,-3.31416 4.38483,-3.79633 1.26822,-0.48218 2.45282,-1.88313 2.63246,-3.11324 0.20858,-1.42833 1.27709,-2.48909 2.95678,-2.93535 C 190.92001,245.92896 196,241.91018 196,239.91893 196,237.94104 197.96189,237 202.08541,237 c 3.74127,0 9.34028,-3.00016 12.06609,-6.46548 1.78015,-2.26309 2.65368,-2.60605 5.34954,-2.1003 4.54815,0.85323 5.87364,-1.07453 5.01774,-7.29766 -0.96964,-7.0501 1.73053,-14.15868 7.60517,-20.02173 2.54318,-2.53816 5.17351,-5.67779 5.8452,-6.97696 1.12622,-2.17834 0.84426,-2.70003 -3.62396,-6.70519 -2.66485,-2.38868 -5.33795,-4.36322 -5.9402,-4.38787 -2.30635,-0.0944 -4.82749,-4.35823 -6.39901,-10.82225 -1.35994,-5.59375 -2.01063,-6.77743 -3.87516,-7.04932 -3.57055,-0.52066 -8.92919,4.21529 -9.72598,8.59582 -1.72823,9.50132 -6.9397,18.27814 -12.02941,20.25914 -2.22966,0.86782 -2.09179,0.17133 -4.00063,20.21018 -0.79082,8.302 -2.28606,9.94127 -5.83273,6.3946 C 185.14393,219.23484 184,217.2443 184,216.20956 c 0,-1.03474 -1.67833,-4.03555 -3.72962,-6.66847 l -3.72961,-4.78712 0.20528,-10.12699 c 0.17766,-8.76468 -0.64899,-16.76609 -2.35445,-22.78922 -0.25887,-0.91424 -1.80185,-3.33731 -3.42884,-5.38462 -3.48215,-4.38172 -4.80441,-8.73933 -5.38123,-17.73425 -0.2321,-3.61923 -1.19798,-8.2157 -2.14641,-10.21437 -1.45127,-3.05834 -1.55449,-4.45527 -0.6516,-8.81923 0.59005,-2.85191 1.36906,-6.97158 1.73114,-9.15481 1.44117,-8.68981 10.42574,-18.95012 19.31806,-22.061084 2.567,-0.898062 7.14228,-2.823821 10.16728,-4.279465 7.12312,-3.42768 18.17332,-3.504895 27.98867,-0.195575 l 6.48867,2.187704 1.51133,-2.238997 C 233.55604,88.658095 238.35839,85 241.72914,85 c 2.76394,0 3.69856,-0.610581 5.43213,-3.548761 2.5276,-4.283957 4.71901,-4.184895 6.96882,0.315022 C 255.65008,84.806448 261.89834,90 264.03594,90 c 0.52091,0 1.50917,0.9 2.19613,2 3.01264,4.823995 4.58201,0.816251 3.9645,-10.124237 -0.24566,-4.352226 1.73315,-6.518926 4.56801,-5.001756 1.41849,0.759152 2.66139,0.545157 4.96292,-0.854482 1.9718,-1.199124 6.43501,-2.197618 12.47329,-2.790477 C 301.49637,72.316374 307,70.212984 307,67.573049 c 0,-0.658313 -1.31085,-2.166082 -2.91299,-3.3506 -3.62894,-2.682988 -4.84757,-7.412745 -2.73904,-10.630768 0.8386,-1.27987 3.68856,-3.595121 6.33322,-5.145 2.64467,-1.54988 7.00814,-4.98319 9.69661,-7.629579 3.16013,-3.110679 6.34351,-5.1977 9.00515,-5.903775 2.26438,-0.600688 5.01705,-1.897204 6.11705,-2.881147 1.1,-0.983944 3.20704,-2.406207 4.6823,-3.160584 1.47527,-0.754378 3.99239,-3.183034 5.59359,-5.397013 l 2.91128,-4.025417 12.25412,0.04889 12.25412,0.04889 2.67144,3.933594 c 2.70683,3.985727 13.99441,11.461763 17.36291,11.499884 4.28545,0.0485 9.94795,3.417518 12.8615,7.652214 1.65972,2.412319 4.45566,4.994727 6.2132,5.738683 7.20318,3.049053 8.47063,8.974536 3.00388,14.043584 -2.11919,1.96503 -2.33744,2.662208 -1.38846,4.435384 1.6877,3.153494 3.90718,3.967348 14.19563,5.205351 5.49924,0.661721 10.08314,1.752732 11.07202,2.635247 1.23429,1.101526 2.77864,1.321675 5.75,0.819667 C 445.57814,74.895478 446,75.034892 446,76.853085 c 0,1.115885 -0.45,2.306996 -1,2.646915 -1.28313,0.793015 -1.26379,4.00996 0.0526,8.75 0.7492,2.697752 1.58944,3.75 2.99442,3.75 1.07415,0 1.953,-0.425946 1.953,-0.946546 0,-0.5206 2.447,-2.570772 5.43778,-4.555938 3.19973,-2.123861 5.56628,-4.470377 5.75,-5.701326 0.57627,-3.861144 3.25466,-4.44313 6.78334,-1.473948 1.75066,1.473088 4.38584,2.939788 5.85595,3.259333 5.76755,1.253643 8.44385,2.887337 10.77219,6.575664 2.74404,4.346835 2.85044,4.372901 9.81285,2.403833 10.78499,-3.05015 15.97308,-3.776551 18.90299,-2.646673 1.5483,0.59708 3.71367,1.085601 4.81193,1.085601 1.09825,0 4.33145,1.049823 7.1849,2.332941 2.85344,1.283118 7.60194,3.409101 10.55223,4.724408 3.03801,1.354413 6.83268,4.107101 8.7506,6.347751 4.15415,4.85319 8.38524,13.14116 8.38524,16.42522 0,1.3407 0.51165,4.14538 1.137,6.23262 0.91515,3.05448 0.8421,4.54057 -0.37433,7.61602 -0.83124,2.10157 -1.81958,7.42104 -2.19631,11.82104 -0.83657,9.7706 -2.04004,13.79076 -5.59923,18.70407 -3.51635,4.85418 -5.41416,14.70209 -4.68676,24.32 0.65828,8.70395 -0.24764,13.3395 -3.57468,18.29158 -1.36142,2.02639 -2.7636,4.9333 -3.11594,6.45979 -0.35234,1.52649 -1.53949,3.6743 -2.6381,4.77291 -1.62492,1.62492 -2.38429,1.79047 -4.07131,0.88761 -1.72325,-0.92226 -1.99642,-1.81363 -1.61594,-5.27292 0.25184,-2.28967 0.0808,-6.18804 -0.38,-8.66304 -0.46084,-2.475 -1.09818,-6.21115 -1.41632,-8.30256 -0.3483,-2.28971 -1.25271,-4.04416 -2.27325,-4.40983 -2.86569,-1.02682 -8.2706,-7.49149 -9.82189,-11.7477 -0.80984,-2.22195 -2.14086,-6.17193 -2.95781,-8.77772 -1.08737,-3.46832 -2.47599,-5.41096 -5.18239,-7.25 C 502.19939,163.13048 500.22233,162 499.83929,162 497.95943,162 496,165.53351 496,168.92355 c 0,4.40255 -3.36163,9.99293 -7.08644,11.78473 C 485.8663,182.17415 480,189.26614 480,191.4842 c 0,0.88082 1.9427,3.7197 4.31711,6.30864 5.88521,6.41694 9.68289,14.60057 9.68289,20.8657 0,2.72756 0.59812,5.77718 1.32917,6.77694 1.14425,1.56486 1.65895,1.64124 3.69971,0.54907 2.15366,-1.15261 2.61054,-0.98121 4.99366,1.87338 1.44271,1.72814 3.09774,3.14207 3.67784,3.14207 0.5801,0 1.60729,0.6658 2.28265,1.47955 0.67535,0.81375 3.46539,1.77636 6.20009,2.13913 3.84552,0.51013 5.15985,1.15319 5.80041,2.838 0.45884,1.20683 3.01885,3.21846 5.73984,4.5103 2.77802,1.31892 5.62228,3.57016 6.54761,5.18245 0.8998,1.56781 2.4546,2.85057 3.45511,2.85057 2.49897,0 6.06855,6.60536 4.44627,8.22764 C 541.52756,258.87244 541,260.66 541,262.2 c 0,1.88022 -0.51683,2.8 -1.57332,2.8 -0.94812,0 -1.44203,0.68176 -1.24293,1.71563 0.3203,1.66318 2.05189,2.80978 8.31625,5.50672 4.78638,2.06063 4.61536,6.28264 -0.45505,11.23376 -4.30904,4.20767 -4.96155,5.97818 -2.54495,6.90552 1.7864,0.6855 1.95689,3.93391 0.34218,6.51947 -2.40428,3.84986 -0.54202,5.0273 7.35343,4.64929 4.01741,-0.19234 8.00397,-0.62977 8.859,-0.97206 0.8651,-0.34632 3.08275,0.4045 5,1.69284 2.97101,1.99643 3.4865,2.94375 3.74399,6.88036 0.16423,2.51084 -0.0651,6.73466 -0.50967,9.38626 -0.68694,4.09743 -1.33218,5.11284 -4.2986,6.76465 -6.65552,3.70606 -6.18931,6.71756 1.03993,6.71756 3.65926,0 5.51955,0.59175 7.74371,2.46326 C 578.15774,338.9934 586.43671,345 587.29691,345 c 0.4679,0 3.85501,-2.52219 7.52691,-5.60488 5.77686,-4.84986 6.951,-6.42138 8.71631,-11.66632 1.12207,-3.3338 2.7484,-6.50822 3.61407,-7.05427 2.39688,-1.51191 4.58111,-0.15614 5.34395,3.31705 0.63419,2.88746 0.92837,3.07822 3.8443,2.49291 5.69582,-1.1433 6.17978,-1.4371 8.68123,-5.27003 2.81662,-4.31587 9.76413,-10.87157 11.98857,-11.31248 2.45512,-0.48663 10.3571,1.05202 15.58371,3.03441 8.30999,3.15186 10.81628,9.55177 4.81197,12.28751 -1.60101,0.72947 -2.78797,2.47375 -3.51129,5.15996 -0.60099,2.23188 -1.72359,4.95868 -2.49467,6.05956 -2.1662,3.09269 -1.7018,4.8173 2.11791,7.86505 2.98951,2.38533 3.49075,3.36467 3.32684,6.5 -0.10615,2.03034 0.15601,5.3578 0.58258,7.39434 0.68534,3.272 0.45297,4.0018 -1.99721,6.27255 -1.52503,1.41335 -3.57413,4.35958 -4.55355,6.54718 -0.97941,2.1876 -2.18252,3.97746 -2.67355,3.97746 -0.49104,0 -3.25241,2.26236 -6.13636,5.02748 -6.47624,6.20936 -13.13415,9.67277 -20.18153,10.49833 -2.9629,0.34708 -6.5121,0.9976 -7.8871,1.44559 -1.375,0.44799 -5.2,1.34018 -8.5,1.98264 -3.3,0.64246 -8.28955,1.81562 -11.08789,2.60703 -2.79834,0.79141 -8.61639,1.43893 -12.929,1.43893 -4.31261,0 -9.22306,0.41757 -10.91211,0.92793 -1.68905,0.51036 -7.346,2.30989 -12.571,3.99897 -5.225,1.68907 -12.875,4.00583 -17,5.14836 -4.125,1.14253 -8.175,2.67153 -9,3.39779 -0.825,0.72626 -2.4,1.48559 -3.5,1.68741 -1.36534,0.25049 -2,1.15591 -2,2.85324 0,2.47111 0.0718,2.49021 11.75881,3.12706 13.95688,0.76054 17.04131,2.09696 16.54996,7.1708 L 554.5,429.5 l -19,0.14604 c -16.12857,0.12396 -19.8312,0.44375 -24.5,2.116 -3.84914,1.37868 -6.20039,1.70795 -7.83342,1.097 -1.74065,-0.65121 -2.95209,-0.38632 -4.76886,1.04275 -1.33949,1.05365 -4.70897,2.22841 -7.48773,2.61059 -3.32447,0.45723 -5.2595,1.25791 -5.6582,2.34124 -0.83345,2.26466 -2.29106,3.11307 -5.37935,3.13107 -1.44515,0.008 -3.22666,0.73719 -3.9589,1.61949 -0.73224,0.88229 -2.36234,1.99615 -3.62244,2.47524 -1.30889,0.49764 -2.2911,1.70848 -2.2911,2.8244 0,1.07433 -0.67392,2.62725 -1.49761,3.45093 -1.33014,1.33014 -2.1668,1.20886 -7.48212,-1.08459 -3.81923,-1.64791 -6.2203,-3.33982 -6.63618,-4.67617 -0.3584,-1.1517 -1.96657,-4.89074 -3.57369,-8.30898 l -2.92204,-6.21499 2.2011,-2.97715 c 1.96116,-2.65261 2.06299,-3.31061 0.93413,-6.03592 -0.99821,-2.40988 -1.00826,-3.3705 -0.0474,-4.52828 1.39544,-1.68141 0.83324,-8.17021 -1.62728,-18.7817 -2.58971,-11.1686 -6.40374,-14.32382 -18.52193,-15.32256 -4.02985,-0.33213 -8.80692,-1.05413 -10.6157,-1.60446 -3.60845,-1.09788 -6.2113,0.15205 -6.2113,2.98278 0,0.85681 1.83491,4.37416 4.07757,7.81633 6.23406,9.5684 4.05371,14.51592 -3.9521,8.96789 C 412.07234,401.16413 409.90667,400 409.31288,400 c -1.15588,0 -2.27691,3.19636 -2.29923,6.55572 -0.008,1.13065 -1.13865,3.58057 -2.51365,5.44428 -1.46197,1.98159 -2.5,4.7416 -2.5,6.64723 0,4.73662 -1.84722,8.06508 -5.75577,10.37118 -2.62025,1.54598 -3.25678,2.44077 -2.67163,3.75556 0.4225,0.94932 0.89074,3.68777 1.04054,6.08545 0.32977,5.27826 0.61351,5.62483 3.389,4.13943 1.65346,-0.8849 2.02702,-1.74653 1.56144,-3.60153 -1.05783,-4.21473 0.93775,-6.39732 5.84916,-6.39732 5.19962,0 7.88345,2.23593 4.71757,3.93026 C 409.03095,437.51862 407.21346,438 406.09142,438 403.75794,438 401,442.54544 401,446.39132 c 0,1.36986 -0.45,2.76876 -1,3.10868 -1.98367,1.22598 -1.07119,3.64921 1.25,3.31955 1.72071,-0.24438 2.36762,-1.14021 2.75,-3.8082 0.51473,-3.59141 2.4764,-4.80999 5.73204,-3.56068 1.31257,0.50368 0.85334,1.4095 -2.45105,4.83457 -5.26741,5.45978 -5.76806,7.41265 -3.34785,13.05877 2.6643,6.21556 5.85316,10.3608 9.8894,12.85533 4.46931,2.76219 7.17746,5.77663 7.17746,7.98922 0,5.12838 -15.91787,-1.25635 -23.94617,-9.60492 -3.694,-3.84136 -6.07575,-4.46708 -8.03187,-2.1101 -1.45346,1.75132 -5.21196,2.51229 -14.02196,2.839 l -6.5,0.24104 -0.5,3.97321 c -0.38992,3.09847 -0.96966,4.04019 -2.63326,4.27746 -1.60755,0.22928 -2.39565,-0.44842 -3.19798,-2.75 -1.294,-3.71197 -2.90875,-3.93838 -3.76474,-0.52787 -0.78585,3.13109 -3.76005,4.95449 -5.21731,3.19859 -0.56282,-0.67815 -1.17257,-2.74155 -1.35501,-4.58532 l -0.3317,-3.35233 -9.44392,-0.41417 c -5.84576,-0.25636 -10.03679,-0.9199 -11,-1.74155 -3.42447,-2.92119 -4.102,-2.72942 -9.90169,2.80255 -4.26334,4.06653 -7.41972,6.09303 -11.7425,7.53906 C 302.06575,486.4306 299,486.54697 299,484.36842 z m 98.1038,-38.66462 c -1.28349,-1.28349 -2.58505,-0.2915 -1.63484,1.24598 0.36808,0.59556 1.12735,0.79971 1.68727,0.45366 0.683,-0.42212 0.66575,-0.98146 -0.0524,-1.69964 z M 292.36326,370.1511 C 296.8038,365.24435 307,346.61605 307,343.40999 c 0,-2.47367 -6.96952,-14.05242 -11.02392,-18.31448 -4.30059,-4.52086 -6.97939,-4.82635 -9.01233,-1.02779 C 285.86818,326.11482 287.20177,330 289,330 c 0.5113,0 1.43096,0.93673 2.04368,2.08163 0.9187,1.7166 0.63939,2.81256 -1.59287,6.25 -1.48882,2.2926 -3.48888,5.06837 -4.4446,6.16837 -3.0264,3.48329 -3.16433,7.8418 -0.47433,14.98845 1.35746,3.60647 2.46812,7.59693 2.46812,8.86771 0,4.04996 2.55013,4.90341 5.36326,1.79494 z m 140.19369,-4.71395 c 0.64891,-2.71543 2.15215,-7.05664 3.34053,-9.64714 2.79582,-6.09443 2.1187,-8.75812 -4.04841,-15.9258 C 429.18208,336.76453 427,333.45757 427,332.51542 c 0,-0.94215 1.40209,-3.02275 3.11576,-4.62356 2.9082,-2.71666 3.01682,-3.05983 1.63052,-5.15121 -0.81688,-1.23236 -2.24182,-2.39055 -3.16654,-2.57375 -2.19604,-0.43509 -9.30379,7.64409 -12.17274,13.83642 -1.21079,2.61339 -2.6977,5.05831 -3.30422,5.43316 -0.60653,0.37485 -1.10242,1.6675 -1.10199,2.87254 0.002,5.89661 15.2426,29.44318 18.38013,28.39734 0.54791,-0.18264 1.52712,-2.55378 2.17603,-5.26921 z M 309.75352,318 c 2.65962,-8.99786 3.14728,-13.63537 2.16398,-20.57873 -0.53571,-3.78278 -1.40433,-7.3081 -1.93028,-7.83405 -0.60834,-0.60834 -2.23757,0.47522 -4.47802,2.97826 -3.73483,4.17257 -3.95301,5.98298 -1.4529,12.05578 1.13196,2.74955 1.02649,3.67119 -0.88566,7.7391 -3.40197,7.23739 -2.38558,11.04612 2.78403,10.43262 1.9725,-0.23409 2.73609,-1.19751 3.79885,-4.79298 z m 107.31095,2.42232 c 1.09012,-1.31352 0.99694,-2.35997 -0.55654,-6.25 -2.1995,-5.5077 -2.24282,-9.85051 -0.13885,-13.91915 1.4889,-2.87921 1.43548,-3.04918 -2.23181,-7.10149 C 412.0708,290.86826 409.86037,289 409.22521,289 c -2.23858,0 -3.46675,4.40967 -3.59528,12.90862 -0.11197,7.40369 0.24263,9.38627 2.56504,14.34138 2.1961,4.6856 3.14528,5.75 5.12756,5.75 1.33792,0 3.02179,-0.70995 3.74194,-1.57768 z M 199.80766,174.50074 c 2.28123,-6.5447 3.26891,-11.12043 3.18279,-14.74512 -0.13221,-5.56383 0.28706,-9.49079 1.49761,-14.02725 0.51669,-1.93625 0.0958,-4.26828 -1.3965,-7.73716 -1.36169,-3.16534 -1.9038,-5.89114 -1.49531,-7.51866 0.7136,-2.84324 -1.34634,-5.77483 -5.60538,-7.97727 -2.18199,-1.12835 -2.8229,-1.04972 -4.85489,0.5957 -1.50552,1.21909 -3.17095,1.68736 -4.66634,1.31204 -2.99541,-0.7518 -6.12419,0.25436 -6.87497,2.21088 -0.32456,0.84577 0.48882,3.41614 1.80749,5.71193 1.95157,3.39765 2.52773,6.2205 3.09714,15.17417 0.7987,12.55909 2.72375,21.22686 5.99653,27 1.24717,2.2 2.55439,5.2375 2.90493,6.75 1.1399,4.91842 3.03636,2.92063 6.4069,-6.74926 z M 525,178.089 c 0,-0.91637 0.92299,-3.44877 2.05109,-5.62756 2.52744,-4.88146 3.79256,-10.43506 4.88894,-21.46144 1.24256,-12.49664 1.94779,-15.97398 4.32325,-21.31728 2.245,-5.04983 1.92476,-6.89996 -1.57665,-9.10859 -1.21705,-0.7677 -2.24737,-0.70504 -3.74057,0.22748 -1.82877,1.14209 -2.38828,0.9365 -4.96847,-1.82561 l -2.90763,-3.11262 -3.78498,3.78491 c -3.0197,3.01965 -3.818,4.60042 -3.9483,7.81831 -0.0898,2.21837 -1.04624,6.43448 -2.12536,9.36913 -1.57709,4.28889 -1.76533,6.05463 -0.95946,9 0.55141,2.01535 1.12655,5.91427 1.2781,8.66427 0.27815,5.04741 4.47167,19.61304 7.14602,24.82076 1.17777,2.29345 1.71734,2.59771 2.88629,1.62756 C 524.35302,180.29205 525,179.00536 525,178.089 z M 182.91008,70.110901 c -1.8617,-1.520936 -2.14096,-2.242833 -1.2273,-3.172701 1.42966,-1.455019 4.13304,-0.58174 4.97268,1.606336 1.06857,2.784645 -1.12911,3.703744 -3.74538,1.566365 z"
     id="path2987"
     inkscape:connector-curvature="0" />
</svg>
