<?xml version="1.0" encoding="UTF-8" standalone="no"?>
<!-- Created with Inkscape (http://www.inkscape.org/) -->

<svg
   xmlns:dc="http://purl.org/dc/elements/1.1/"
   xmlns:cc="http://creativecommons.org/ns#"
   xmlns:rdf="http://www.w3.org/1999/02/22-rdf-syntax-ns#"
   xmlns:svg="http://www.w3.org/2000/svg"
   xmlns="http://www.w3.org/2000/svg"
   xmlns:sodipodi="http://sodipodi.sourceforge.net/DTD/sodipodi-0.dtd"
   xmlns:inkscape="http://www.inkscape.org/namespaces/inkscape"
   id="svg2"
   version="1.1"
   inkscape:version="0.48.1 r9760"
   width="720"
   height="504"
   sodipodi:docname="08_Card VIII_gray.svg">
  <metadata
     id="metadata8">
    <rdf:RDF>
      <cc:Work
         rdf:about="">
        <dc:format>image/svg+xml</dc:format>
        <dc:type
           rdf:resource="http://purl.org/dc/dcmitype/StillImage" />
        <dc:title />
      </cc:Work>
    </rdf:RDF>
  </metadata>
  <defs
     id="defs6" />
  <sodipodi:namedview
     pagecolor="#ffffff"
     bordercolor="#666666"
     borderopacity="1"
     objecttolerance="10"
     gridtolerance="10"
     guidetolerance="10"
     inkscape:pageopacity="0"
     inkscape:pageshadow="2"
     inkscape:window-width="1360"
     inkscape:window-height="695"
     id="namedview4"
     showgrid="false"
     showborder="false"
     inkscape:showpageshadow="false"
     inkscape:zoom="0.82495791"
     inkscape:cx="333.08636"
     inkscape:cy="251.05506"
     inkscape:window-x="0"
     inkscape:window-y="24"
     inkscape:window-maximized="1"
     inkscape:current-layer="svg2" />
  <path
     style="fill:#ababab"
     d="m 328.13997,489.62867 c -3.33248,-3.06364 -7.20802,-5.85863 -8.61231,-6.21108 -2.60235,-0.65315 -3.39009,-0.56184 -14.20183,1.64626 -5.31801,1.0861 -7.11428,1.02897 -12.95356,-0.41202 -3.72866,-0.92014 -8.27625,-2.68072 -10.10577,-3.91241 -4.47683,-3.01394 -8.83755,-9.99497 -10.69292,-17.11823 -0.83934,-3.22247 -2.04187,-6.48052 -2.67228,-7.24011 -1.32341,-1.59462 -6.62942,-1.81515 -10.27988,-0.42724 -1.37983,0.52461 -5.83423,1.06 -9.89867,1.18975 -6.94023,0.22157 -7.91299,-0.0269 -15.98661,-4.08275 -8.32823,-4.18379 -8.96011,-4.33471 -20.23145,-4.83211 -14.21665,-0.62737 -15.44812,-1.34501 -16.57648,-9.65994 -0.94247,-6.94512 -0.73939,-7.58789 3.08745,-9.77228 2.63187,-1.5023 2.98434,-2.24583 2.98434,-6.29545 0,-3.54209 0.56119,-5.15316 2.45455,-7.04651 2.92779,-2.9278 3.58357,-2.97084 10.03079,-0.65831 4.83275,1.73344 5.3513,2.29314 8.52704,9.20376 0.37913,0.825 2.1211,1.64211 3.87107,1.81579 l 3.18174,0.31579 -0.17447,-8.81579 c -0.096,-4.84868 0.002,-9.92079 0.2174,-11.27135 0.34098,-2.1366 -0.72978,-3.17573 -8.24349,-8 -21.41315,-13.74856 -22.65252,-14.74092 -32.25447,-25.82584 -2.99258,-3.45477 -10.0916,-9.67395 -15.77561,-13.8204 -5.684,-4.14645 -11.68455,-8.83451 -13.33455,-10.41792 -1.65,-1.5834 -4.58414,-3.53957 -6.5203,-4.34704 -4.53132,-1.88977 -6.58967,-4.2776 -7.44202,-8.63324 -1.18987,-6.08048 -4.57383,-15.2305 -6.57233,-17.77117 -1.05904,-1.34636 -2.2188,-4.65873 -2.57725,-7.36082 -0.35844,-2.7021 -1.0424,-5.15436 -1.51991,-5.44947 C 135.39069,304.12342 135,303.2035 135,302.37426 c 0,-0.82924 -1.125,-2.98265 -2.5,-4.78537 -1.375,-1.80272 -2.5,-3.7426 -2.5,-4.31084 0,-0.56824 -0.70191,-1.61569 -1.5598,-2.32768 -2.11881,-1.75845 -5.26901,-8.46707 -6.03597,-12.85411 -0.34579,-1.97794 -1.3657,-4.72126 -2.26647,-6.09626 -1.44093,-2.19955 -1.63899,-6.8866 -1.64799,-39 -0.006,-20.075 0.24825,-36.95 0.56418,-37.5 0.55433,-0.96503 4.44121,-10.6024 6.93962,-17.20655 1.52262,-4.02478 4.30283,-4.9475 17.50643,-5.81014 10.09797,-0.65975 22.04385,1.0633 25.13017,3.62472 1.92773,1.59988 0.9387,12.50945 -1.65864,18.2958 -3.49995,7.79715 -1.43544,17.51296 3.39552,15.97967 2.64919,-0.84082 11.63181,-8.53133 11.63246,-9.95919 2.7e-4,-0.59162 1.17323,-2.16662 2.60659,-3.5 3.81407,-3.54802 4.82679,-6.78849 2.81596,-9.01043 -1.51866,-1.6781 -1.48977,-2.00555 0.40678,-4.61014 1.12286,-1.54206 4.61714,-4.37874 7.76507,-6.30374 3.14793,-1.925 7.33959,-5.13379 9.3148,-7.13065 1.97521,-1.99686 4.71629,-3.88986 6.09129,-4.20667 6.11613,-1.40919 24.87355,-8.38789 28.50242,-10.60432 5.52086,-3.37203 11.81233,-8.54473 18.41227,-15.13815 3.07192,-3.06888 7.44945,-6.75649 9.72784,-8.1947 4.62264,-2.91798 7.06475,-6.07328 9.84917,-12.72551 1.03595,-2.475 2.4209,-5.175 3.07765,-6 0.65675,-0.825 1.47116,-2.4 1.8098,-3.5 0.33863,-1.1 1.97467,-2.77105 3.63564,-3.71345 1.66096,-0.9424 3.26997,-2.5174 3.57557,-3.5 0.3056,-0.9826 0.97279,-2.567944 1.48264,-3.522981 1.38519,-2.594693 1.16887,-3.430794 -1.60542,-6.20508 -2.37405,-2.374054 -2.44068,-2.705209 -1.06545,-5.295455 C 290.45452,83.397354 294.79741,79 296.56281,79 c 1.96435,0 10.4352,-7.864565 11.50688,-10.683304 0.90277,-2.37445 5.04799,-4.936252 9.20788,-5.690583 C 320.4328,62.05396 324,60.198554 324,59.129576 c 0,-0.440031 2.04903,-2.878444 4.5534,-5.418695 3.8374,-3.892381 4.75459,-5.608674 5.83292,-10.91476 1.07558,-5.292585 1.63807,-6.348777 3.52906,-6.626479 1.23725,-0.181696 3.05896,0.402145 4.04823,1.297426 1.6391,1.483364 1.93882,1.487641 3.37825,0.04821 0.86877,-0.868765 1.86668,-3.252607 2.21758,-5.297426 C 350.85539,13.011484 352.20924,10 357.5478,10 c 4.18404,0 4.77041,1.149005 6.94232,13.603666 C 365.93469,31.887468 368.23304,38 369.90324,38 c 0.46853,0 1.43009,-0.696716 2.13681,-1.548257 2.41561,-2.910629 5.24418,-1.313154 7.16806,4.048257 0.98681,2.75 1.5813,5.56642 1.32108,6.258712 -0.75928,2.020082 13.4951,16.368354 15.59814,15.700876 C 398.73607,61.631606 406,65.654469 406,67.927206 406,69.938403 414.88234,78 417.09829,78 c 1.78339,0 9.89942,8.945178 9.91072,10.923225 0.005,0.867226 -1.35878,2.701775 -3.03054,4.076775 l -3.03955,2.5 2.07102,4.285484 c 1.31903,2.729416 3.24366,4.844676 5.3005,5.825516 2.41701,1.15259 4.02854,3.21918 6.40566,8.21451 1.7469,3.67097 3.32006,7.12449 3.4959,7.67449 0.80371,2.51375 5.09911,8.5 6.09912,8.5 0.61246,0 2.25552,1.08521 3.65123,2.41157 1.39571,1.32637 5.03795,4.81387 8.09387,7.75 11.71996,11.26056 20.8325,17.49778 26.94378,18.44207 2.475,0.38243 6.75,1.70769 9.5,2.94502 2.75,1.23733 6.95324,2.8285 9.34053,3.53593 2.78428,0.82507 5.23321,2.45659 6.83029,4.55048 1.36938,1.79534 4.37978,4.1792 6.68979,5.29745 5.57663,2.6996 12.10931,9.40049 11.27758,11.56797 -0.56142,1.46301 -0.96752,1.40119 -3.73346,-0.56833 l -3.10353,-2.2099 3.65184,4.88887 c 2.00851,2.68888 4.64074,6.20761 5.8494,7.8194 5.3747,7.16737 12.0838,13.56947 14.22017,13.56947 5.32001,0 6.98654,-8.06488 3.21758,-15.57083 -2.68735,-5.35191 -4.24296,-13.26972 -3.23256,-16.45322 1.52332,-4.79954 12.05806,-6.36857 32.0843,-4.77858 8.46743,0.67228 11.18643,1.94012 11.97001,5.58149 0.32206,1.49663 1.67737,5.05531 3.01181,7.90819 1.33444,2.85288 2.42625,5.86382 2.42625,6.69098 0,0.82717 0.45,1.78205 1,2.12197 0.55,0.33992 1.01074,2.27898 1.02386,4.30902 0.0131,2.03004 0.46683,5.49098 1.00825,7.69098 4.45668,18.10923 5.39705,36.196 2.46933,47.49444 -0.90945,3.50968 -1.38807,7.79631 -1.06361,9.52585 0.44464,2.37015 0.1034,3.58492 -1.38558,4.93243 -1.47795,1.33752 -1.8911,2.78352 -1.64035,5.74111 0.25123,2.9632 -0.22528,4.62361 -1.90263,6.62974 -1.23079,1.47204 -3.82822,5.17094 -5.77207,8.21978 -1.94385,3.04884 -4.23241,6.12275 -5.0857,6.83092 -2.19651,1.82294 -5.17297,8.68429 -6.54357,15.08426 -0.64294,3.0022 -2.691,8.6272 -4.55125,12.5 -2.16202,4.50105 -3.47684,8.84537 -3.6444,12.04147 -0.33379,6.367 -0.74767,7.49267 -2.76927,7.5318 -0.90365,0.0175 -2.47425,0.66159 -3.49021,1.43132 -1.01596,0.76973 -2.38304,1.19389 -3.03795,0.94258 -0.65491,-0.25131 -3.42223,1.12959 -6.1496,3.06868 -2.72737,1.93909 -5.51242,3.52562 -6.189,3.52562 -0.67658,0 -1.98556,1.15291 -2.90885,2.56203 -0.92329,1.40912 -3.78667,3.63022 -6.36307,4.93578 -2.57641,1.30556 -6.0961,4.09015 -7.82156,6.18797 -1.72545,2.09782 -4.64604,5.38922 -6.49019,7.31422 -1.84415,1.925 -4.57731,5.1875 -6.07368,7.25 -1.49638,2.0625 -3.2642,3.75 -3.92849,3.75 -0.6643,0 -5.0821,2.5875 -9.81734,5.75 -4.73524,3.1625 -11.14867,7.325 -14.25207,9.25 -5.03088,3.12059 -5.56758,3.77101 -4.95093,6 0.38039,1.375 0.61292,6.4126 0.51673,11.19466 -0.0962,4.78206 0.23466,8.94778 0.73523,9.25715 2.21997,1.37202 5.73657,-1.36894 6.94924,-5.41648 1.05937,-3.53588 1.92073,-4.4459 5.76991,-6.09585 2.48855,-1.06671 4.84939,-1.93948 5.24631,-1.93948 2.15502,0 8.01711,6.97453 8.63632,10.27524 0.76507,4.07818 1.7648,5.16021 5.61589,6.07824 3.77089,0.89891 4.09611,2.81303 1.86033,10.94932 -2.81337,10.23825 -3.68375,10.76228 -17.52135,10.54895 -11.11094,-0.17128 -11.37799,-0.12141 -19.12349,3.57131 -10.6467,5.07589 -19.37066,5.85009 -28.72171,2.54889 -8.14711,-2.87617 -9.63348,-2.0719 -9.63348,5.2126 0,14.91185 -10.38456,25.83307 -24.5,25.76612 -2.2,-0.0104 -7.6,-0.94505 -12,-2.07691 -15.04208,-3.86947 -15.27054,-3.82202 -27.0897,5.62624 l -3.7528,3 -20.72924,0.34947 -20.72924,0.34947 -6.05905,-5.57027 z M 243.5,383.39975 c 4.07764,-5.08307 6.88678,-7.66805 8.76779,-8.06815 3.59624,-0.76493 8.33155,-6.80489 9.88314,-12.60608 0.97735,-3.6542 0.96033,-6.50813 -0.0842,-14.1158 -0.72006,-5.24456 -1.06025,-10.1843 -0.75599,-10.97719 0.77184,-2.01137 -1.58887,-11.60606 -3.61622,-14.69749 -0.92515,-1.41073 -1.96434,-4.62422 -2.30931,-7.14108 -0.59057,-4.30866 -0.39538,-4.83088 3.3397,-8.93504 2.18181,-2.39741 4.49126,-5.90292 5.13211,-7.79003 1.76479,-5.19678 5.82814,-11.6761 8.7771,-13.99575 3.20511,-2.52114 8.0364,-2.68127 10.61057,-0.35167 2.00056,1.81048 9.57894,4.15951 13.66089,4.2344 1.32308,0.0243 3.79808,1.09969 5.5,2.38982 5.42801,4.11469 10.27805,5.92728 14.08672,5.26461 1.92922,-0.33566 5.03423,-0.87888 6.90002,-1.20714 3.14881,-0.55399 3.89617,-0.10528 10.40997,6.25 5.00698,4.88513 7.32002,7.96903 8.07307,10.76356 0.94517,3.50745 6.43518,10.58328 8.21137,10.58328 1.95118,0 2.6524,-20.75035 0.81711,-24.17962 -0.51009,-0.9531 -1.81854,-6.5901 -2.90768,-12.52665 -1.08913,-5.93655 -2.43383,-12.71269 -2.98822,-15.05808 C 344.45359,268.89026 344,265.94276 344,264.68565 344,261.60878 342.19205,260 338.73426,260 c -1.57616,0 -3.69582,-0.44424 -4.71035,-0.98721 -1.3091,-0.7006 -2.66901,-0.55723 -4.68426,0.49384 C 325.63851,261.437 322,261.43371 322,259.5 c 0,-0.825 -0.46973,-1.5 -1.04384,-1.5 -0.57411,0 -0.91161,0.76957 -0.75,1.71016 0.36758,2.13935 -6.33157,5.55554 -14.54764,7.41847 -4.6024,1.04356 -6.13242,1.88711 -7.21302,3.97676 -2.51589,4.86519 -7.33624,5.23253 -11.32701,0.8632 -2.6764,-2.93029 -2.86635,-2.98054 -5.69363,-1.50617 -1.60867,0.83889 -4.09262,1.52803 -5.51987,1.53142 -1.42726,0.003 -3.4095,0.90616 -4.40499,2.00616 -0.99549,1.1 -2.62209,2 -3.61468,2 -0.99259,0 -3.51035,1.86065 -5.59501,4.13479 -2.08467,2.27413 -5.2149,4.73933 -6.95607,5.47822 -2.23029,0.94645 -3.36242,2.23882 -3.83128,4.37353 -0.36604,1.66655 -1.52895,3.49218 -2.58424,4.05696 C 247.8031,294.64056 247,296.12956 247,297.60093 247,301.10097 245.2691,304 243.17935,304 c -1.59454,0 -1.76535,-1.57078 -1.91969,-17.6538 -0.12965,-13.50984 -0.56482,-18.85006 -1.85391,-22.75 -0.92647,-2.80291 -1.81367,-5.60922 -1.97155,-6.23625 C 237.0583,255.86703 231.26461,253 228.62363,253 c -1.16748,0 -3.60611,1.75825 -5.59636,4.03496 L 219.5,261.06992 208,261.66799 c -8.49831,0.44196 -11.98741,1.02012 -13.36737,2.21504 -1.02706,0.88933 -3.49109,1.61697 -5.47563,1.61697 -2.70204,0 -3.69975,0.46117 -3.97255,1.8362 -0.20037,1.00991 0.68867,7.50308 1.97563,14.42927 2.2104,11.89604 2.50705,12.69178 5.35936,14.37654 2.90468,1.71569 9.34997,12.1946 10.98396,17.85799 1.0291,3.56687 5.48929,8 8.04883,8 1.19793,0 3.32222,-0.9 4.72064,-2 3.05282,-2.40135 6.28626,-2.59127 7.12014,-0.41821 1.33834,3.48766 0.58856,9.06087 -1.52406,11.3285 -1.91323,2.05361 -2.70537,2.21732 -7.75,1.60169 -3.09042,-0.37715 -8.35426,-1.77163 -11.69741,-3.09885 -9.52206,-3.78023 -9.79505,-3.56218 -5.93131,4.73757 1.36963,2.94212 2.49463,6.42118 2.5,7.73127 0.0127,3.08524 3.74582,9.11803 5.64236,9.11803 0.8082,0 2.16463,1.6875 3.01429,3.75 0.84965,2.0625 2.36861,4.65 3.37546,5.75 2.53816,2.77298 4.94571,10.17059 4.96311,15.25 0.015,4.39344 0.27615,4.7706 6.93722,10.0207 3.60294,2.83975 11.87812,6.1997 13.57733,5.51276 0.55,-0.22235 3.7,-3.77002 7,-7.88371 z m 239.84749,5.75315 c 2.11611,-0.54244 4.50413,-1.92375 5.3067,-3.06958 C 489.45676,384.9375 490.73737,384 491.5,384 c 2.27642,0 4.49897,-4.17062 4.51506,-8.47251 0.0174,-4.66181 1.90556,-10.65332 4.17077,-13.23485 0.86515,-0.98595 2.36361,-3.36764 3.32992,-5.29264 0.96631,-1.925 3.42579,-5.075 5.46551,-7 3.00704,-2.83791 3.93039,-4.65065 4.88107,-9.58267 0.64486,-3.34547 1.82533,-6.94547 2.62327,-8 0.79794,-1.05453 1.4651,-2.70483 1.4826,-3.66733 0.0338,-1.85777 -2.4394,-2.41463 -3.45143,-0.77713 C 513.55699,329.52583 501.18686,333 496.61717,333 490.12943,333 488,330.93494 488,324.6433 c 0,-7.90388 2.80568,-9.66749 8.18237,-5.1433 1.63409,1.375 3.77587,2.5 4.7595,2.5 2.91109,0 6.82765,-3.75937 8.09033,-7.76564 1.75908,-5.58122 8.58924,-16.57836 11.74623,-18.91242 2.36556,-1.74894 3.04578,-3.43437 4.61572,-11.43659 1.0127,-5.16194 1.90081,-11.18535 1.97357,-13.38535 l 0.13228,-4 -4.24547,-0.30728 c -2.85948,-0.20696 -4.56317,-0.9009 -5.21862,-2.12562 -0.83762,-1.5651 -2.67238,-1.87894 -13.17364,-2.25335 l -12.2005,-0.43499 -3.64316,-4.23003 c -2.73649,-3.1773 -4.12541,-4.07215 -5.58089,-3.59565 -6.54623,2.14316 -7.55537,2.90827 -9.65708,7.32173 -1.96301,4.1222 -2.22847,6.46646 -2.44105,21.55645 -0.20103,14.27096 0.0222,17.37262 1.42076,19.74019 1.15859,1.96133 1.34252,3.12568 0.60954,3.85866 -1.61626,1.61626 -4.89055,-1.87011 -6.21298,-6.6154 -0.75216,-2.69901 -1.96565,-4.46217 -3.57606,-5.19592 -1.54369,-0.70335 -2.55552,-2.10874 -2.75921,-3.83245 -0.31031,-2.62596 -4.06564,-5.60646 -10.54371,-8.36826 -1.22214,-0.52104 -2.50842,-2.08826 -2.85841,-3.48271 C 447.04364,277.03775 446.07157,276 445.0446,276 c -0.95622,0 -2.77629,-0.9 -4.0446,-2 -1.26831,-1.1 -3.40523,-2 -4.74872,-2 -1.34348,0 -3.77549,-0.7873 -5.40445,-1.74955 -2.88523,-1.70435 -3.00548,-1.69276 -4.65429,0.44865 -1.99552,2.59169 -6.53244,4.49143 -8.72084,3.65167 -0.85012,-0.32622 -2.21558,-1.8886 -3.03437,-3.47195 -0.926,-1.79071 -2.28557,-2.87882 -3.59699,-2.87882 -3.07628,0 -9.74918,-2.13423 -14.34034,-4.58655 -2.99833,-1.60153 -3.93886,-2.68048 -3.75583,-4.30863 0.33598,-2.98883 -1.65326,-3.47372 -6.8405,-1.66739 -2.42202,0.8434 -6.34575,1.54001 -8.71941,1.54802 -5.40415,0.0182 -8.18426,1.45835 -8.18426,4.23954 0,3.03306 -1.85034,12.62785 -4.60168,23.86163 -1.9279,7.87164 -2.14451,10.12553 -1.21086,12.59907 0.96702,2.56193 0.79406,3.72104 -1.15653,7.75041 -2.07495,4.28629 -2.17451,5.13482 -1.04436,8.90093 0.68709,2.28963 1.43641,4.80194 1.66516,5.58289 0.64143,2.18985 8.0201,-5.52907 8.74365,-9.14684 0.3851,-1.92547 3.28141,-5.76346 7.96422,-10.55362 l 7.35903,-7.52774 4.58351,1.15414 c 7.01866,1.76732 9.24871,1.4429 16.31765,-2.37388 3.59379,-1.9404 9.31202,-4.47512 12.70718,-5.63271 3.39517,-1.15758 6.69192,-2.51388 7.32611,-3.01399 0.6342,-0.50011 2.60015,-1.32431 4.36878,-1.83155 5.1453,-1.47565 8.21139,0.88556 15.29694,11.78021 3.47904,5.34933 7.11023,10.36829 8.0693,11.15323 3.78246,3.0957 4.63161,6.3543 3.04152,11.67181 -0.80605,2.69556 -2.35746,6.80862 -3.44758,9.14012 -1.374,2.93865 -1.98204,6.35242 -1.98204,11.12788 0,3.86113 -0.65926,8.46659 -1.5,10.47878 -2.03837,4.8785 -1.8856,9.11934 0.58316,16.1889 2.43033,6.95951 4.94771,10.02151 8.88672,10.80932 1.67051,0.3341 3.75959,1.91584 5.0994,3.86099 6.06193,8.8008 9.20125,11.97705 11.32119,11.45433 1.16024,-0.28608 3.8409,-0.96396 5.95702,-1.5064 z M 358.91139,280.75 c 0.67148,-5.6375 1.48346,-11.33649 1.80441,-12.66442 0.50043,-2.07051 0.31295,-2.30282 -1.31612,-1.6309 -2.38293,0.98286 -3.41578,0.98316 -5.79492,0.002 -1.79356,-0.73988 -1.85881,-0.38409 -1.21606,6.6309 1.86076,20.30864 4.62909,23.5608 6.52269,7.66272 z M 215.40382,251.92489 c 0.53052,-0.48867 -0.0548,-3.84599 -1.41713,-8.12871 -1.27652,-4.0129 -2.46391,-10.36561 -2.63865,-14.11713 -0.17474,-3.75152 -0.54467,-7.18818 -0.82207,-7.63702 -0.2774,-0.44885 0.01,-3.37684 0.63848,-6.50667 0.81958,-4.081 1.8065,-6.12545 3.48919,-7.22799 C 215.96872,207.4457 217,205.7776 217,204.51211 217,199.81491 223.99078,187 226.5532,187 c 0.6474,0 2.33984,-0.91462 3.76098,-2.03249 4.45841,-3.50699 11.12098,-4.96647 17.53621,-3.84143 4.54106,0.79637 6.38157,0.68396 9.37997,-0.57287 4.32526,-1.813 7.06464,-5.44462 6.59677,-8.74539 -0.29748,-2.09862 -0.90852,-2.33519 -6.74082,-2.60979 -5.80184,-0.27316 -6.81911,-0.0108 -10.66348,2.75 -2.33738,1.67859 -5.00524,3.05197 -5.92858,3.05197 -0.92333,0 -2.82296,0.9 -4.22138,2 -1.39842,1.1 -4.03034,2 -5.84871,2 -1.81837,0 -3.58822,0.45643 -3.93299,1.01429 -0.9777,1.58195 -8.1741,4.98571 -10.54104,4.98571 -2.45491,0 -5.86806,3.64814 -5.91686,6.32424 -0.0345,1.88995 -10.13208,13.12309 -13.33959,14.8397 -1.24693,0.66733 -2.27425,0.59912 -3.2567,-0.21624 -1.11255,-0.92334 -2.11559,-0.90925 -4.46202,0.0627 -5.10139,2.11307 -7.93127,7.62459 -10.88451,21.19885 -0.44384,2.04007 -1.54577,4.83673 -2.44872,6.21481 -2.70806,4.13304 -2.07661,7.47537 2.16903,11.48081 4.35086,4.10471 9.91184,6.0793 19.04561,6.76271 3.496,0.26157 7.321,0.86396 8.5,1.33864 2.32548,0.93626 8.58891,0.2622 10.04745,-1.0813 z m 292.12477,1.06424 c 1.46233,-0.55598 4.52913,-1.04378 6.8151,-1.08401 4.15931,-0.0732 13.39327,-2.26031 17.15631,-4.06357 6.38744,-3.0609 10.04023,-10.48214 6.87881,-13.97546 -1.37242,-1.51651 -3.15218,-7.23908 -5.26491,-16.92859 -0.95357,-4.37331 -4.27487,-9.01066 -8.05112,-11.24134 -2.50198,-1.47796 -2.98087,-1.49979 -4.07158,-0.18556 -0.67985,0.81917 -1.78216,1.4894 -2.44958,1.4894 -1.89095,0 -14.53759,-13.58192 -14.57489,-15.65277 -0.0526,-2.91881 -3.20184,-5.94425 -6.97254,-6.69839 -1.90381,-0.38076 -5.14668,-1.80752 -7.20639,-3.17057 C 487.7281,180.11522 484.97103,179 483.66099,179 c -1.31004,0 -4.03968,-1.125 -6.06585,-2.5 -2.02618,-1.375 -4.45147,-2.50819 -5.38955,-2.5182 -0.93807,-0.01 -3.66289,-1.34462 -6.05516,-2.9658 -2.40315,-1.62857 -5.75937,-2.9791 -7.5,-3.01798 -1.73273,-0.0387 -4.72543,-0.16659 -6.65043,-0.28419 -3.23659,-0.19774 -3.48605,-0.008 -3.3146,2.51523 0.23723,3.49215 2.38458,7.87823 4.3146,8.81281 6.59593,3.19397 6.88306,3.24135 12.70404,2.09614 5.09746,-1.00286 6.4691,-0.90229 11.18059,0.81982 2.95367,1.07961 6.13589,2.65575 7.07159,3.50255 0.93569,0.84679 2.16713,1.53962 2.73652,1.53962 0.95132,0 3.4044,3.27677 7.64711,10.21482 0.91308,1.49315 1.66015,4.05513 1.66015,5.69329 0,1.8982 0.76657,3.51541 2.11354,4.45886 2.44883,1.71523 5.25859,12.0423 3.95773,14.54637 -0.45334,0.87266 -0.83705,4.06166 -0.85268,7.08666 -0.0156,3.025 -0.96164,9.31207 -2.10224,13.97127 -1.14059,4.6592 -1.74588,8.7836 -1.34508,9.16533 0.4008,0.38172 1.85373,0.89587 3.22873,1.14254 1.375,0.24667 2.80821,0.50978 3.1849,0.58468 0.3767,0.0749 1.88135,-0.31871 3.34369,-0.87469 z M 349.57535,200.52609 c -1.91606,-4.58578 -4.99031,-4.59391 -5.23491,-0.0138 -0.0878,1.64326 -0.31276,3.58719 -0.5,4.31985 -0.19981,0.78181 1.1054,1.8184 3.15956,2.50933 3.25461,1.09469 3.52149,1.02605 3.80648,-0.97905 0.16856,-1.18595 -0.38545,-3.81228 -1.23113,-5.83629 z M 369.14573,202.5 c -0.62485,-7.05507 -4.63205,-6.44026 -5.82212,0.89327 l -0.60932,3.75476 3.39286,-0.32402 c 3.30699,-0.31581 3.38389,-0.42523 3.03858,-4.32401 z m -22.57901,-8.11869 c 3.77557,-2.87977 4.34115,-5.64013 1.87658,-9.1588 -1.76309,-2.51717 -5.61037,-2.93106 -7.38368,-0.79434 -0.9212,1.10997 -0.86555,2.05686 0.24977,4.25 0.85453,1.68034 1.13283,3.63087 0.68795,4.82183 -0.71843,1.92331 -0.43535,3.5 0.6284,3.5 0.27924,0 2.05268,-1.17841 3.94098,-2.61869 z m 24.80712,-1.26211 c -0.36516,-1.8258 0.0185,-3.78829 1.04753,-5.35885 1.42217,-2.17051 1.44156,-2.62922 0.1562,-3.69597 -2.66325,-2.21031 -5.94635,-0.83318 -7.98897,3.35106 l -1.91139,3.91544 2.91139,2.32959 c 4.18282,3.34694 6.51916,3.12835 5.78524,-0.54127 z m -25.32418,-15.64488 c 3.05349,-1.57902 3.77949,-4.77845 2.32005,-10.22432 -0.76196,-2.84326 -2.20526,-2.83541 -6.4649,0.0352 -3.90261,2.62996 -4.57388,4.68534 -2.87205,8.79393 1.36834,3.30346 2.78287,3.58472 7.0169,1.39522 z M 373.8,177.8 c 2.14718,-2.14718 1.32103,-6.07992 -1.99617,-9.50239 -4.24361,-4.3783 -6.38005,-4.2965 -7.12152,0.27266 -0.31866,1.96365 -0.17748,4.62733 0.31372,5.91928 1.50204,3.95068 6.34333,5.77109 8.80397,3.31045 z m -94.78643,-9.04055 c 1.59245,-0.9945 2.40413,-0.97969 4.09247,0.0747 1.82868,1.14203 2.39687,1.04202 4.31445,-0.75945 1.21463,-1.14109 2.53513,-2.0747 2.93445,-2.0747 0.98879,0 6.11422,-3.8002 10.49137,-7.77872 3.09298,-2.8113 3.42906,-3.52411 2.35743,-5 -0.68739,-0.9467 -2.17211,-3.16383 -3.29938,-4.92694 -2.30553,-3.60596 -4.83823,-4.76286 -8.15436,-3.72477 -5.68977,1.78113 -18.74081,8.54475 -19.60549,10.16042 -0.58599,1.09492 -0.62389,3.55222 -0.0969,6.28401 0.47593,2.4673 0.88493,4.79136 0.90888,5.16457 0.0492,0.7666 2.94984,3.82143 3.62855,3.82143 0.24317,0 1.33603,-0.55825 2.42857,-1.24055 z m 155.6386,-0.2517 c 2.62755,1.72163 2.7523,1.71098 4.44522,-0.3797 1.97883,-2.44375 4.15043,-11.31865 3.30724,-13.51599 -0.30763,-0.80168 -2.21202,-2.2134 -4.23198,-3.13716 -2.01996,-0.92377 -6.40821,-2.98352 -9.75168,-4.57724 C 425.07751,145.30395 421.36762,144 420.17678,144 417.7993,144 409,152.05411 409,154.23025 c 0,1.53508 6.57119,7.20246 12.5,10.78074 2.2,1.32778 4.61598,3.01484 5.36885,3.74901 1.14317,1.11477 1.67478,1.05799 3.22438,-0.34437 1.7389,-1.57369 2.02544,-1.5679 4.55894,0.0921 z M 375.5,165 c -0.64847,-2.04315 0.88227,-2.80852 2,-1 0.96478,1.56105 3.5,1.1734 3.5,-0.53518 0,-3.50555 -5.35381,-9.59606 -10.48289,-11.92538 -2.64408,-1.20078 -2.95333,-1.79107 -2.72268,-5.19704 0.24445,-3.60997 0.16781,-3.72498 -1.26712,-1.90127 -0.98467,1.25146 -1.52731,4.07457 -1.52731,7.94589 0,5.89912 0.0836,6.07971 4.75,10.26406 5.28803,4.74175 6.69141,5.31504 5.75,2.34892 z m -31.70485,-2.85879 c 3.83428,-3.36862 4.19122,-4.04686 3.3266,-6.32098 -1.27647,-3.35737 -3.23909,-3.98992 -6.74733,-2.17467 -5.97306,3.09062 -9.09227,7.5749 -7.29349,10.48538 0.66563,1.07702 1.08857,1.09956 2.07743,0.1107 C 336.83013,162.56987 338,162.67623 338,164.5 c 0,2.23439 1.0565,1.80436 5.79515,-2.35879 z m -10.23622,-4.23656 c 0.37233,-0.60245 0.0614,-2.25108 -0.69098,-3.66364 -1.03581,-1.94471 -1.07664,-2.66612 -0.16813,-2.97125 2.63099,-0.88364 6.30018,-4.51858 6.30018,-6.24137 0,-2.08449 -6.80023,-6.04853 -10.28079,-5.99295 -1.22057,0.0195 -3.34421,0.67854 -4.71921,1.46456 -3.25196,1.85899 -7.12607,1.87188 -9.55887,0.0318 -1.06762,-0.8075 -2.74019,-1.4825 -3.71681,-1.5 -1.63963,-0.0294 -1.66032,0.19129 -0.26998,2.8799 0.82814,1.60144 2.70914,3.85833 4.18001,5.01532 2.3216,1.82617 2.88477,1.91812 4.26998,0.69717 0.87762,-0.77355 3.44183,-1.70879 5.69826,-2.07831 3.9004,-0.63875 4.16625,-0.51817 5.39436,2.44676 0.96983,2.34137 1.00657,3.40384 0.14742,4.26299 -1.48571,1.48571 -1.4602,4.02854 0.0556,5.54437 1.49059,1.49059 2.48326,1.52152 3.35893,0.10465 z m 50.25749,-3.23177 C 383.99045,153.2028 383.7612,152 383.30697,152 c -1.29999,0 -3.44315,3.97064 -2.74921,5.09346 1.07776,1.74384 2.92841,0.36915 3.25866,-2.42058 z m -0.0861,-6.7693 c 1.12523,-2.98108 1.32898,-3.07015 5.46924,-2.39114 2.36526,0.38792 4.97547,1.29696 5.80047,2.0201 1.24047,1.08731 1.81789,1.08161 3.33735,-0.033 2.1053,-1.54434 6.66265,-7.49105 6.66265,-8.69384 0,-1.40575 -2.41283,-0.82943 -5,1.19428 -3.00971,2.35423 -5.54119,2.48773 -9.36431,0.49384 -3.5471,-1.84994 -6.95633,-1.87207 -12.13569,-0.0788 -3.09718,1.07237 -4.07089,1.96631 -4.31408,3.96067 -0.24534,2.01195 0.41129,3.01796 3,4.59624 4.41894,2.69414 5.17048,2.57145 6.54437,-1.06841 z"
     id="path2987"
     inkscape:connector-curvature="0" />
</svg>
