<?xml version="1.0" encoding="UTF-8" standalone="no"?>
<!-- Created with Inkscape (http://www.inkscape.org/) -->

<svg
   xmlns:dc="http://purl.org/dc/elements/1.1/"
   xmlns:cc="http://creativecommons.org/ns#"
   xmlns:rdf="http://www.w3.org/1999/02/22-rdf-syntax-ns#"
   xmlns:svg="http://www.w3.org/2000/svg"
   xmlns="http://www.w3.org/2000/svg"
   xmlns:sodipodi="http://sodipodi.sourceforge.net/DTD/sodipodi-0.dtd"
   xmlns:inkscape="http://www.inkscape.org/namespaces/inkscape"
   id="svg2"
   version="1.1"
   inkscape:version="0.48.1 r9760"
   width="720"
   height="504"
   sodipodi:docname="10_Card X_gray.svg">
  <metadata
     id="metadata8">
    <rdf:RDF>
      <cc:Work
         rdf:about="">
        <dc:format>image/svg+xml</dc:format>
        <dc:type
           rdf:resource="http://purl.org/dc/dcmitype/StillImage" />
        <dc:title />
      </cc:Work>
    </rdf:RDF>
  </metadata>
  <defs
     id="defs6" />
  <sodipodi:namedview
     pagecolor="#ffffff"
     bordercolor="#666666"
     borderopacity="1"
     objecttolerance="10"
     gridtolerance="10"
     guidetolerance="10"
     inkscape:pageopacity="0"
     inkscape:pageshadow="2"
     inkscape:window-width="1360"
     inkscape:window-height="695"
     id="namedview4"
     showgrid="false"
     showborder="false"
     inkscape:showpageshadow="false"
     inkscape:zoom="0.82495791"
     inkscape:cx="397.40806"
     inkscape:cy="230.44212"
     inkscape:window-x="0"
     inkscape:window-y="24"
     inkscape:window-maximized="1"
     inkscape:current-layer="svg2" />
  <path
     style="fill:#acacac"
     d="m 309.72542,496.75 c -1.92024,-1.44872 -3.48047,-9.06882 -4.76049,-23.25 -0.49643,-5.5 -1.13194,-10.93974 -1.41224,-12.08831 -0.2803,-1.14857 0.0729,-2.88501 0.78494,-3.85874 1.81714,-2.48509 5.09482,-1.60932 5.45397,1.45727 0.16038,1.36938 0.78267,3.47192 1.38288,4.67232 0.6002,1.2004 0.8206,2.8879 0.48978,3.75 -0.79877,2.08157 0.2219,4.56746 1.87534,4.56746 1.79631,0 2.79195,-3.50927 1.62066,-5.71223 -1.34466,-2.52902 -0.69344,-16.66787 1.09563,-23.78777 1.68824,-6.71865 8.16052,-20.98672 12.17874,-26.84792 1.63089,-2.3789 2.41066,-4.56416 2.04253,-5.72405 -0.75896,-2.39128 11.69647,-15.39539 16.27433,-16.99124 1.7141,-0.59754 3.82194,-2.163 4.68409,-3.47881 2.11784,-3.23224 5.53797,-1.96642 7.11996,2.63517 1.19569,3.47796 1.5792,3.60611 7.13311,2.38339 2.95679,-0.65095 3.66573,-0.22019 9.75,5.92428 5.22501,5.27671 6.56135,7.25306 6.56135,9.70376 0,2.07162 1.14397,4.41397 3.5,7.16645 1.925,2.24893 3.5,4.58782 3.5,5.19753 0,0.6097 0.92586,2.89121 2.05748,5.07 4.4124,8.4956 6.24333,14.99685 7.96225,28.27231 0.79219,6.11821 0.68667,7.70758 -0.6468,9.74271 -1.01096,1.54293 -1.35686,3.37431 -0.94628,5.01017 1.14386,4.55752 2.98989,1.99441 4.06067,-5.63801 0.57298,-4.08416 1.39929,-7.98824 1.83625,-8.67574 1.05261,-1.65616 3.15283,-1.58583 4.59669,0.15392 1.52012,1.83163 -1.11327,24.13486 -3.36342,28.48616 -0.85626,1.65583 -1.55684,3.59691 -1.55684,4.31351 0,0.7166 -1.34228,2.5698 -2.98284,4.11823 -2.79041,2.63369 -3.58068,2.82702 -12.25,2.99675 L 378.5,496.5 l 0.16745,-3 c 0.0921,-1.65 0.24575,-4.125 0.34147,-5.5 0.0957,-1.375 0.1012,-6.325 0.0122,-11 -0.14317,-7.51865 0.43576,-11.30289 3.64613,-23.83343 0.75563,-2.94936 -1.34823,-9.48447 -4.72165,-14.66657 -4.08947,-6.28207 -6.65865,-10.5989 -9.52244,-16 -1.45812,-2.75 -3.23216,-5.675 -3.9423,-6.5 -0.71015,-0.825 -1.68558,-3.525 -2.16763,-6 -0.92447,-4.74651 -2.60061,-5.99299 -3.12323,-2.32262 -0.17052,1.19756 -1.00046,2.75038 -1.84431,3.45071 -1.28115,1.06326 -1.8283,0.88352 -3.31652,-1.08946 l -1.78226,-2.36279 -4.04411,7.41208 c -2.22426,4.07664 -4.99358,8.76208 -6.15404,10.41208 -1.16046,1.65 -3.20712,4.575 -4.54814,6.5 -1.34103,1.925 -3.84819,6.34079 -5.57147,9.81287 -3.23205,6.51193 -3.42254,9.20744 -1.10857,15.68713 2.53791,7.10679 3.21285,14.2497 2.45423,25.97331 -0.73853,11.41308 -0.89176,12.03236 -3.27478,13.23526 -3.29,1.66072 -18.08818,1.69096 -20.27458,0.0414 z m -121.55024,-7 c -12.72934,-13.37343 -18.53626,-21.87728 -19.72829,-28.89074 -0.22054,-1.29759 -0.83449,-4.60926 -1.36433,-7.35926 -0.52983,-2.75 -0.99016,-7.16708 -1.02295,-9.81574 -0.0328,-2.64866 -0.48309,-5.60702 -1.00068,-6.57414 -0.51758,-0.96712 -1.08008,-6.15058 -1.25,-11.51879 -0.28594,-9.03417 -0.14582,-9.89276 1.88329,-11.53937 1.20572,-0.97843 4.44205,-2.07742 7.19185,-2.44219 5.23655,-0.69466 8.59677,-1.89541 18.7589,-6.70337 C 195.0216,403.30788 198.96804,402 200.41284,402 203.70138,402 211,397.4907 211,395.45894 c 0,-3.21182 6.01019,-13.17661 10.74789,-17.81981 6.12112,-5.99902 8.12216,-12.31256 5.72261,-18.05549 -2.94441,-7.04697 -2.11109,-10.08964 4.70833,-17.19136 4.04056,-4.20783 5.83926,-6.77419 5.19757,-7.41588 -0.64168,-0.64168 -2.1037,-0.15315 -4.2247,1.41168 -1.99334,1.47064 -5.37729,2.65954 -8.7798,3.08466 -3.50655,0.43811 -6.27614,1.4315 -7.55413,2.70949 -2.51299,2.51299 -1.09267,4.57044 2.00913,2.91041 1.12289,-0.60095 2.7837,-1.09264 3.69069,-1.09264 2.92245,0 0.93831,2.45515 -3.23262,4 -2.67646,0.99132 -6.34606,3.98057 -10.82102,8.81479 -4.96076,5.35901 -8.64034,8.25608 -13.76198,10.8353 l -6.9908,3.52051 -6.10558,-1.53089 c -4.5046,-1.12946 -8.13583,-1.33626 -13.84815,-0.78867 -6.88072,0.65959 -8.11427,1.10248 -11.08182,3.97874 -2.18479,2.11758 -3.90965,3.01765 -4.98912,2.60341 -1.80755,-0.69362 -1.10102,-2.87581 1.90408,-5.88091 2.40185,-2.40186 1.082,-4.18911 -3.6527,-4.94622 -3.47313,-0.55538 -4.62265,-0.31138 -6.40014,1.35849 -4.02692,3.78309 -4.82811,2.06783 -0.91722,-1.96366 2.6721,-2.7545 4.73534,-3.99939 6.62948,-4 1.5125,-4.9e-4 2.78787,-0.56339 2.83416,-1.25089 0.0463,-0.6875 0.0621,-4.159 0.0351,-7.71445 -0.059,-7.78008 -1.90097,-10.79611 -7.79302,-12.76012 -5.74204,-1.91402 -9.65214,-7.27603 -12.7773,-17.52183 -1.43676,-4.7104 -3.52277,-9.72186 -4.63558,-11.13656 -2.46637,-3.13549 -16.57791,-10.95948 -24.73554,-13.71435 -7.002925,-2.36493 -7.969532,-3.30019 -12.607944,-12.19907 -4.981185,-9.55649 -2.880132,-12.56834 5.025222,-7.20362 2.382241,1.61663 5.071264,2.5 7.610152,2.5 4.39303,0 6.6159,0.97938 11.98174,5.27907 3.83179,3.07044 4.02327,3.08649 13.64238,1.14323 3.81542,-0.77079 3.84713,-0.83485 4.48473,-9.05965 0.4437,-5.72361 0.31432,-6.2109 -1.91918,-7.22856 C 128.477,268.26021 128,267.28236 128,264.22439 c 0,-3.13726 0.71362,-4.51532 4,-7.72439 2.47819,-2.41989 4,-4.82215 4,-6.31424 0,-2.26514 -0.22298,-2.35856 -3.75,-1.57116 -2.0625,0.46046 -10.56458,0.84804 -18.89352,0.86129 -17.635632,0.0281 -18.380291,0.35832 -20.98111,9.30483 -1.177379,4.05004 -2.312677,5.84652 -4.470444,7.07398 -1.590754,0.90492 -2.895126,1.95066 -2.898603,2.32387 C 84.990761,269.84874 81.60253,272 78.987588,272 c -1.578255,0 -3.147669,0.45 -3.487588,1 -1.110887,1.79745 -3.449166,1.05072 -4.036407,-1.28903 -0.94227,-3.75431 1.147759,-7.47205 5.428265,-9.6558 5.086198,-2.59478 5.615117,-3.5482 3.269617,-5.8937 -1.051311,-1.05131 -2.088161,-2.44153 -2.30411,-3.08937 -0.443756,-1.33127 -6.777537,-3.01234 -11.48492,-3.04824 -3.771608,-0.0288 -5.788922,-2.1363 -4.8566,-5.07378 0.57088,-1.79869 1.271914,-2.07511 4.332618,-1.7084 2.43645,0.29191 4.974877,-0.24759 7.628392,-1.6213 l 3.976855,-2.0588 -3.476855,-0.83048 c -8.684762,-2.07443 -14.239543,-4.26805 -15.551746,-6.14148 -2.181083,-3.11394 -1.738717,-6.33803 1.127272,-8.2159 2.433044,-1.59419 2.694248,-1.5675 5.586622,0.57093 1.852668,1.36973 3.838999,2.03286 5.100837,1.70288 1.136628,-0.29723 3.309188,0.10214 4.827911,0.88751 1.518722,0.78536 6.512274,1.65856 11.096781,1.94046 4.584508,0.28189 9.685468,0.76098 11.335468,1.06465 l 3,0.55212 -3.428308,-2.79613 c -9.810103,-8.00115 -11.023189,-10.53748 -5.31112,-11.10454 2.268567,-0.22522 3.390147,0.2215 4.157905,1.65607 C 97.153773,221.15584 105.4217,226 108.12595,226 c 2.99527,0 2.16675,-2.93848 -1.35239,-4.79651 -1.77454,-0.93692 -4.61899,-3.16599 -6.321,-4.95349 -2.408328,-2.52929 -3.919246,-3.25 -6.813403,-3.25 -2.045358,0 -5.388406,-0.84677 -7.428995,-1.88171 -2.040589,-1.03493 -6.52626,-2.20454 -9.968158,-2.59911 -5.942975,-0.6813 -6.5157,-0.55204 -11.377407,2.56771 -4.917886,3.1558 -5.173488,3.21116 -6.493121,1.40646 -0.888352,-1.2149 -1.259274,-3.83885 -1.049824,-7.4266 l 0.323885,-5.54793 7.427232,-0.0842 C 73.566203,199.33828 78,197.89134 78,195.21588 c 0,-1.00849 0.598124,-2.6516 1.329165,-3.65136 1.116046,-1.52629 1.687528,-1.62595 3.564183,-0.6216 1.866941,0.99916 2.120686,1.7167 1.54078,4.35699 -0.627937,2.85898 -0.536408,3.02986 0.958395,1.78929 0.964143,-0.80017 1.412632,-2.12774 1.076541,-3.18667 -0.31685,-0.99831 -0.276929,-3.40977 0.08871,-5.35882 C 87.621745,182.87228 92,184.10965 92,190.08179 c 0,2.94412 2.038228,2.27719 3.306102,-1.08179 1.540195,-4.08044 4.294827,-3.89087 6.095818,0.41951 0.78582,1.88073 2.47936,3.97142 3.76342,4.64598 1.28406,0.67456 2.69982,1.84525 3.14612,2.60153 0.83244,1.41059 2.68854,0.9324 2.68854,-0.69266 0,-0.49918 -2.01593,-3.17743 -4.47985,-5.95167 -7.075126,-7.96622 -8.127572,-10.72163 -9.009727,-23.5884 -0.299189,-4.36386 -0.797094,-9.17138 -1.106455,-10.68337 -0.714616,-3.49267 2.295476,-18.81723 4.814852,-24.51269 1.26738,-2.86513 2.83117,-4.66537 4.6006,-5.29622 1.47432,-0.52564 3.87748,-1.62909 5.34035,-2.4521 3.17228,-1.78472 5.84023,-1.02419 5.84023,1.66483 0,2.15264 -4.54024,6.84526 -6.62297,6.84526 -2.32814,0 -4.39167,4.49447 -6.01487,13.10063 -1.33546,7.08057 -1.39788,10.04209 -0.40845,19.37861 1.67237,15.78097 1.685,15.82298 4.59121,15.26742 1.349,-0.25788 3.24076,0.12932 4.2039,0.86043 3.46782,2.63239 4.36685,1.74558 3.65679,-3.60709 -0.65141,-4.91057 -0.61581,-5 1.99056,-5 2.18268,0 2.76686,-0.56517 3.29051,-3.18342 0.39632,-1.98157 2.6521,-5.19884 5.975,-8.52174 C 130.59776,157.35876 133,154.24685 133,153.37947 133,151.21811 138.76709,146 141.15584,146 c 1.69195,0 1.90537,0.60852 1.64424,4.68813 -0.29446,4.60028 -0.23676,4.70147 3.07918,5.40014 1.8586,0.3916 3.74363,1.30155 4.18896,2.0221 0.64618,1.04556 1.19128,0.96476 2.69947,-0.40013 1.03939,-0.94063 2.63428,-1.71024 3.5442,-1.71024 0.97637,0 2.67235,-2.00878 4.13812,-4.90135 C 162.91145,146.24123 167.13,142 169.5,142 c 0.67666,0 2.37445,-0.9 3.77287,-2 3.21491,-2.52885 9.51517,-2.71594 10.43842,-0.30997 0.36816,0.9594 0.12246,1.86539 -0.56833,2.09565 -0.66927,0.22309 -2.52695,1.50799 -4.12818,2.85534 -2.73571,2.30194 -2.88029,2.79384 -2.39676,8.15435 0.51529,5.71274 2.49357,10.20463 4.49423,10.20463 0.58638,0 3.03422,2.025 5.43964,4.5 4.27697,4.40067 7.85936,5.67624 9.99811,3.56 0.5225,-0.51701 3.11882,-1.07951 5.76961,-1.25 3.99521,-0.25698 5.09863,-0.77172 6.45086,-3.00931 1.46673,-2.42706 1.477,-2.88093 0.10183,-4.5 -0.84117,-0.99038 -2.04721,-4.15699 -2.68007,-7.03692 -1.05663,-4.80838 -0.96851,-5.5105 1.07856,-8.59305 1.22607,-1.84625 3.35421,-5.3089 4.72921,-7.69477 2.24274,-3.89156 23.71894,-25.82062 30.54885,-31.19303 1.69903,-1.33646 4.23123,-2.15781 6.80121,-2.20606 4.52443,-0.0849 4.28896,-0.64885 4.87434,11.67314 0.098,2.0625 0.53758,3.75 0.97688,3.75 1.40684,0 0.86229,3.53115 -1.5851,10.27856 -2.11728,5.83733 -3.65466,7.84724 -13.75,17.97632 -6.2514,6.27229 -13.48072,12.8367 -16.06516,14.58758 -5.75256,3.89718 -6.19125,4.55982 -4.65127,7.02571 1.04002,1.66535 0.78987,2.46764 -1.71613,5.50391 -1.61349,1.95491 -3.93179,4.8623 -5.15178,6.46086 -1.81896,2.38341 -3.1615,2.99713 -7.45995,3.41015 -3.88027,0.37285 -5.60855,1.05605 -6.65381,2.63029 -1.91371,2.8822 -4.602,2.67473 -6.9406,-0.53566 -1.8939,-2.59991 -2.63962,-2.64983 -6.22748,-0.41692 -0.825,0.51343 -4.87117,1.9788 -8.99149,3.25636 -5.17368,1.60417 -7.59415,2.86428 -7.82332,4.07284 -0.19141,1.00941 0.27691,1.75 1.10663,1.75 0.79115,0 2.51165,0.83254 3.82332,1.85008 3.24176,2.51484 16.21512,3.66183 17.93797,1.58593 C 193.56995,197.4034 199,199.94814 199,204.16024 199,207.50506 197.21904,209 193.23426,209 c -1.85116,0 -4.29308,0.4963 -5.42649,1.10288 -1.42593,0.76313 -2.74706,0.79018 -4.28862,0.0878 -1.87799,-0.85567 -2.62918,-0.55773 -4.78328,1.89712 -1.40547,1.60171 -3.03036,2.9122 -3.61084,2.9122 -0.58049,0 -2.593,-1.35 -4.47225,-3 -1.87924,-1.65 -3.9199,-3 -4.5348,-3 -2.21449,0 -1.07765,5.28191 1.85599,8.62313 2.32892,2.6525 2.84932,4.01044 2.39926,6.26074 -0.65639,3.28195 -0.30239,3.59402 6.93509,6.11369 3.10758,1.08189 5.6526,2.69453 6.33988,4.01724 2.54848,4.90474 10.63301,11.72186 18.38104,15.49945 4.38392,2.13741 7.97076,4.44077 7.97076,5.11859 0,2.35712 -3.936,2.56983 -7.44322,0.40225 -2.35421,-1.45498 -4.22325,-1.90592 -6.02515,-1.45367 -1.68834,0.42374 -3.2169,0.1307 -4.32192,-0.82859 -0.94034,-0.81632 -2.98849,-1.78858 -4.55143,-2.16059 -1.61927,-0.38542 -5.13292,-3.15115 -8.16784,-6.42922 C 171.9095,235.9747 160,230.23974 160,234.77749 c 0,2.89389 2.86724,6.13092 6.19412,6.99301 3.82835,0.99202 5.24243,4.16123 3.17423,7.114 -2.27277,3.24483 -5.03114,2.60993 -7.81412,-1.7986 -1.35898,-2.15276 -3.50193,-4.63628 -4.76211,-5.51895 -2.11479,-1.48126 -2.38754,-1.47315 -3.54168,0.10523 C 152.5627,242.61272 152,244.16411 152,245.1197 c 0,2.44397 -2.72078,4.8803 -5.45011,4.8803 -1.68617,0 -2.6356,0.87485 -3.52704,3.25 -0.67089,1.7875 -2.40383,5.7107 -3.85097,8.71823 -2.96021,6.15208 -4.26226,18.01301 -2.24432,20.44448 2.34608,2.82685 6.1069,2.83541 10.16501,0.0231 l 3.84478,-2.66444 3.71322,1.92699 c 4.16931,2.16368 6.15011,6.24492 6.27335,12.92565 0.043,2.33037 1.11454,6.02728 2.46373,8.5 1.31321,2.40677 2.69444,6.12124 3.06941,8.25438 0.37496,2.13313 1.77552,6.35162 3.11235,9.37443 1.33682,3.0228 2.42528,7.12751 2.41878,9.12157 -0.0154,4.73764 -3.48855,18.81862 -5.12931,20.79561 -1.26356,1.5225 -3.11321,4.50386 -4.48214,7.22457 -0.80404,1.598 2.08379,4.10539 4.72829,4.10539 0.94752,0 3.9654,-2.8125 6.70639,-6.25 2.74099,-3.4375 7.27974,-8.41825 10.0861,-11.06833 3.71546,-3.50855 5.10248,-5.56089 5.10248,-7.55 0,-2.6567 1.55528,-5.13167 3.22475,-5.13167 0.45361,0 1.27107,1.17391 1.81657,2.60869 0.84493,2.22233 1.22285,2.41696 2.55167,1.31413 1.12544,-0.93403 1.38274,-2.23864 0.9239,-4.68449 -0.83101,-4.42965 0.85706,-6.53475 4.5838,-5.71621 1.5301,0.33606 3.64624,0.1485 4.70252,-0.4168 1.41031,-0.75478 2.42211,-0.64808 3.80865,0.40162 1.27055,0.9619 4.56806,1.43986 10.08144,1.46126 7.35235,0.0285 8.35307,-0.19631 9.75,-2.19071 2.07397,-2.961 1.96211,-4.99238 -0.4433,-8.05036 -1.55917,-1.98217 -2,-4.05678 -2,-9.41235 0,-8.30185 -1.04811,-10.05124 -8.6162,-14.38126 -3.97998,-2.27711 -6.01387,-4.19724 -7.03525,-6.64174 -1.8134,-4.34007 -1.16362,-6.37909 2.77409,-8.70515 3.39821,-2.00738 3.35025,-1.43486 1.27277,-15.19205 -0.54799,-3.62883 -0.28768,-4.41934 2.24231,-6.80947 1.57426,-1.48722 4.21931,-3.28525 5.8779,-3.99562 1.6586,-0.71037 4.45078,-2.92613 6.20486,-4.92391 2.9428,-3.35167 3.14762,-4.03928 2.65074,-8.89896 -0.29617,-2.89664 -0.95085,-6.57127 -1.45485,-8.16584 -0.504,-1.59458 -0.91637,-4.30695 -0.91637,-6.0275 0,-4.48235 -2.32122,-7.20184 -9.0436,-10.59529 C 217.8393,210.89969 214.59828,210 211.22852,210 c -7.55464,0 -9.48166,-3.52433 -4.47852,-8.19072 3.6825,-3.43464 5.85793,-4.42419 11.53825,-5.24847 2.63354,-0.38216 6.33159,-1.33967 8.21788,-2.12782 C 228.39243,193.64485 232.4014,193 235.41497,193 241.25635,193 248.13384,190.09374 253,185.56898 256.46293,182.349 259.36022,181 262.81294,181 c 2.30649,0 3.20478,-0.62857 4.14615,-2.90122 0.66094,-1.59568 2.23999,-3.87663 3.50899,-5.06879 2.09993,-1.97279 2.69928,-2.06421 6.66959,-1.01738 2.39928,0.6326 5.42059,1.82891 6.71401,2.65846 2.19813,1.4098 2.54092,1.32697 5.25,-1.26849 3.45471,-3.30981 3.47891,-3.57179 0.83477,-9.03385 -1.57992,-3.26368 -1.81827,-4.72104 -1.01699,-6.21824 1.31173,-2.45098 7.86028,-7.65921 10.76895,-8.56481 2.82276,-0.87886 8.01452,-6.80465 10.03359,-11.45217 C 317.61546,119.96429 323.83198,111 328.53847,111 c 2.69202,0 7.20368,-4.95457 8.03797,-8.82707 0.31673,-1.47011 1.45971,-5.727423 2.53996,-9.460692 l 1.96411,-6.787761 3.45974,0.649052 3.45975,0.649053 0,-4.227922 c 0,-3.732385 -0.23388,-4.166762 -1.99546,-3.706099 -1.8857,0.493121 -1.97583,0.10674 -1.63865,-7.024481 0.28834,-6.098266 0.74344,-7.855029 2.37173,-9.155192 1.86578,-1.489788 2.05984,-3.154326 2.62155,-22.485807 0.38611,-13.288251 1.02083,-21.376028 1.74616,-22.25 1.65013,-1.988282 10.29197,-1.804212 12.00149,0.255629 1.33156,1.604432 1.49586,4.650508 1.78788,33.146041 0.10154,9.907982 0.19177,10.307626 2.52762,11.195715 2.25439,0.85712 2.41374,1.392658 2.29856,7.725249 -0.10378,5.705726 0.41407,8.015168 3.20752,14.304285 1.8322,4.125 3.70318,9.684606 4.15773,12.354681 0.45454,2.670079 1.67773,6.495079 2.71819,8.499999 1.51625,2.92173 2.46779,3.64532 4.79372,3.64532 2.51142,0 2.86024,-0.33644 2.59197,-2.5 -0.1705,-1.375 -0.5276,-4.525 -0.79356,-7 l -0.48356,-4.5 2.04356,4.359204 C 389.0804,102.25677 390,105.78103 390,107.69091 c 0,2.45081 0.99088,4.6989 3.36781,7.64079 3.97609,4.92116 5.63219,7.91887 5.63219,10.19483 0,0.91191 0.9,2.80218 2,4.2006 1.1,1.39842 2.01886,3.4944 2.04192,4.65773 0.0878,4.43189 7.34229,14.4188 10.98309,15.11996 2.52466,0.4862 9.64479,6.00967 10.99212,8.52719 1.05492,1.97113 -0.0761,6.26834 -1.95545,7.42987 -1.80642,1.11643 -1.11446,4.90634 1.42196,7.78812 2.76198,3.13806 3.25652,3.26533 5.43762,1.39935 0.86831,-0.74286 3.98462,-2.11619 6.92514,-3.05184 4.8843,-1.55416 5.55416,-1.56508 7.75,-0.1263 1.43076,0.93747 2.4036,2.54432 2.4036,3.97006 0,4.76666 0.90435,5.55835 6.35699,5.56505 4.67093,0.006 5.30046,0.28301 6.85837,3.02069 1.8368,3.22776 7.99892,6.41608 14.49409,7.49933 2.0848,0.3477 8.29055,1.54748 13.79055,2.66618 10.56697,2.14932 23.73734,3.90776 29.37987,3.92264 1.85892,0.005 4.46421,0.71941 5.78953,1.58779 5.17539,3.39105 22.76961,-1.12771 22.05016,-5.66319 -0.1274,-0.80313 -1.68865,-1.75823 -3.46943,-2.12244 -1.78079,-0.36421 -3.80308,-1.11093 -4.49397,-1.65937 -0.69089,-0.54844 -2.89844,-1.29275 -4.90568,-1.65402 -2.00723,-0.36127 -4.19983,-1.31995 -4.87244,-2.13039 -1.80405,-2.17374 -3.9057,-1.79401 -4.92619,0.89008 -1.38659,3.64701 -3.47813,3.76854 -7.97264,0.46324 -2.97773,-2.18984 -4.79088,-2.86506 -6.52487,-2.42985 -1.72116,0.43198 -3.27263,-0.13053 -5.4778,-1.98606 C 501.38444,181.98714 500,180.26566 500,179.58542 c 0,-0.68024 -1.125,-2.29367 -2.5,-3.58542 -2.66767,-2.50615 -3.21571,-4.59476 -1.3673,-5.2109 1.7546,-0.58487 0.0474,-4.59715 -2.26881,-5.3323 -3.26779,-1.03716 -12.75217,-8.52944 -13.40631,-10.59046 -0.32963,-1.03855 -1.8506,-2.53534 -3.37995,-3.3262 -1.52935,-0.79085 -3.60259,-2.69842 -4.60722,-4.23903 -1.00462,-1.54061 -3.65895,-4.61185 -5.8985,-6.82497 -2.63328,-2.60221 -4.91912,-6.28401 -6.46986,-10.42099 l -2.39794,-6.39713 2.23698,-1.8114 c 2.08786,-1.69065 2.12588,-1.92251 0.5703,-3.47809 -0.91668,-0.91667 -1.42726,-2.3871 -1.13463,-3.26761 2.43616,-7.33019 3.28293,-9.14009 4.49362,-9.60467 2.48803,-0.95475 10.42597,4.68331 18.2061,12.93121 C 503.62445,141.27094 507,146.27292 507,155.35977 c 0,3.90084 -0.42167,5.58806 -1.5,6.00186 -2.08035,0.7983 -1.87391,2.8933 0.59431,6.03113 1.7593,2.2366 2.61964,2.56393 5.37852,2.04636 2.12409,-0.39848 4.37196,-0.0536 6.36358,0.97628 2.83052,1.46373 3.36238,1.45745 6.58159,-0.0777 2.11353,-1.00787 3.88906,-2.77979 4.47782,-4.46871 0.56218,-1.61267 1.95632,-3.05331 3.28989,-3.39962 5.31386,-1.37996 8.12568,-11.33955 4.89436,-17.33604 -1.06963,-1.98498 -1.0246,-2.61738 0.27922,-3.9212 1.31759,-1.31759 2.16866,-1.37054 5.58366,-0.34738 5.27846,1.58147 8.79125,4.70679 11.41975,10.16012 1.46145,3.03208 2.92784,4.61167 4.6373,4.99532 2.01693,0.45264 2.59661,1.31101 3,4.44226 0.275,2.13466 1.10997,4.0822 1.85548,4.32787 1.03975,0.34262 1.19384,-0.28928 0.66155,-2.7128 -0.86301,-3.92926 0.74108,-6.07753 4.53803,-6.07753 3.30756,0 4.66022,-2.79496 2.92334,-6.04037 -1.29927,-2.4277 -0.65228,-4.95962 1.26735,-4.95962 1.88252,0 7.75425,5.60841 7.75425,7.4065 0,0.83559 1.90261,3.34744 4.22801,5.5819 2.32541,2.23446 4.96494,5.94744 5.86562,8.25107 1.60732,4.11097 2.53655,5.02993 6.26982,6.20053 1.40095,0.43928 1.69116,1.13974 1.16927,2.82215 -1.7169,5.53477 -1.76542,6.73785 -0.27174,6.73785 0.82177,0 2.03848,-0.6559 2.70379,-1.45756 0.7832,-0.94369 2.20108,-1.25927 4.02178,-0.89513 3.25295,0.65059 3.90822,-0.60374 4.70507,-9.00655 1.32397,-13.96114 1.40116,-23.50825 0.23158,-28.64076 -1.71897,-7.5434 -2.4333,-8.70582 -6.70664,-10.91357 -2.04411,-1.05606 -4.31848,-2.91454 -5.05415,-4.12996 -1.14265,-1.88777 -1.10615,-2.4413 0.25041,-3.79786 1.45068,-1.45068 2.05801,-1.33377 7.02281,1.35189 4.0569,2.19454 5.96705,4.00563 7.53412,7.14339 2.78709,5.5806 5.30573,18.83347 4.53183,23.84611 -0.33966,2.2 -0.84853,7.825 -1.13082,12.5 -0.60023,9.94018 -2.79473,15.36236 -8.50615,21.01698 -3.39493,3.36117 -5.23202,8.04859 -3.11461,7.94706 1.66529,-0.0799 6.42692,-4.8028 8.03614,-7.97087 2.28501,-4.49849 3.7679,-4.75624 5.71386,-0.99317 1.75279,3.38952 4.13629,3.53961 3.77919,0.23798 -0.12144,-1.12285 0.48975,-2.63126 1.35821,-3.35202 2.43337,-2.01951 4.54052,1.53067 4.16442,7.01632 -0.36058,5.25936 1.88563,7.06028 2.38029,1.90842 0.26693,-2.77998 0.71865,-3.3107 2.81789,-3.3107 2.09285,0 2.58143,0.56764 3,3.48541 0.45244,3.15387 0.8805,3.55559 4.5,4.22308 2.2,0.40572 6.14124,0.66352 8.75832,0.57291 2.61707,-0.0906 5.21162,0.28854 5.76567,0.84259 0.55404,0.55404 1.1128,3.39044 1.24168,6.30311 0.31955,7.22172 -1.57686,8.51525 -6.98717,4.7659 -3.24336,-2.24765 -4.95841,-2.693 -10.37081,-2.693 -4.51051,0 -7.67913,0.6089 -10.40769,2 -2.15759,1.1 -5.84118,2 -8.18576,2 -3.67845,0 -4.46558,0.39198 -5.7414,2.85915 -0.81319,1.57253 -2.81721,3.41365 -4.45339,4.09137 -4.29006,1.777 -6.79966,4.76927 -5.27699,6.29194 1.50589,1.50589 9.02434,-2.35735 12.78617,-6.56998 1.51646,-1.69818 3.12606,-2.59686 4.02994,-2.25 0.82775,0.31763 1.9495,0.57752 2.49277,0.57752 2.50071,0 -0.0923,4.76069 -4.3377,7.964 -4.53142,3.41909 -5.89899,5.92909 -2.81364,5.16407 0.825,-0.20456 3.075,-0.46321 5,-0.57477 7.55736,-0.438 16.03123,-1.79482 16.56081,-2.6517 0.30647,-0.49588 2.14873,-0.9016 4.09391,-0.9016 1.94518,0 4.83082,-0.76446 6.41252,-1.69879 2.70515,-1.59797 3.08705,-1.59806 6.4351,-0.001 4.9197,2.34603 5.2657,4.08608 1.55115,7.80063 -3.16927,3.16927 -7.66186,4.45172 -23.47167,6.70018 -2.70499,0.3847 -5.10397,1.25887 -5.33104,1.9426 -0.31367,0.94443 1.04315,1.09095 5.64676,0.60978 4.24352,-0.44353 6.51814,-0.25282 7.58951,0.63633 0.93709,0.77771 2.87991,1.05061 5.01405,0.70428 3.36032,-0.5453 6.4989,1.05863 6.4989,3.32119 0,1.84902 -4.63176,3.98528 -8.64072,3.98528 -5.5604,0 -6.78975,0.56452 -9.78715,4.49433 l -2.53274,3.32058 4.98031,3.79803 c 4.40708,3.36089 4.9803,4.22798 4.9803,7.53353 0,4.39843 -0.99654,5.32599 -3.60268,3.3533 -1.04353,-0.78989 -3.12445,-1.45047 -4.62427,-1.46797 -1.73391,-0.0202 -3.28668,-0.88607 -4.26402,-2.37767 -0.84539,-1.29024 -2.64335,-2.84993 -3.99547,-3.466 -1.41855,-0.64633 -2.71953,-2.29768 -3.07578,-3.90412 -2.58498,-11.6563 -4.01448,-12.49783 -20.77365,-12.22922 -6.69027,0.10722 -14.41413,-0.27913 -17.16413,-0.85857 -3.14617,-0.66291 -5.35883,-0.7026 -5.96781,-0.10706 -1.2928,1.26428 2.04151,7.4015 5.11543,9.41561 1.67314,1.09628 2.34796,2.47311 2.33707,4.76828 -0.0174,3.66792 -0.7718,5.11051 -3.12542,5.97658 -1.37539,0.5061 -1.5565,1.70724 -1.11989,7.42706 0.28647,3.75282 0.8926,7.29569 1.34697,7.87304 0.45437,0.57736 3.12764,1.6396 5.94061,2.36054 5.03441,1.29028 5.17206,1.26453 8.79376,-1.64529 5.26242,-4.22805 9.59506,-6.26498 13.32587,-6.26498 1.86273,0 4.83664,-1.10238 6.97888,-2.58695 7.53102,-5.219 9.81274,-1.3936 4.89166,8.20104 C 619.99345,289.50936 614.28342,295 611.17627,295 c -0.66893,0 -5.36974,2.06876 -10.44625,4.59725 -10.9857,5.47172 -17.45366,11.24845 -18.31025,16.35344 -0.32755,1.95212 -1.231,4.96732 -2.00766,6.70044 C 579.63545,324.38425 579,326.46017 579,327.26429 579,329.33167 569.47058,338 567.19783,338 c -3.44343,0 -5.22288,3.35734 -6.147,11.59772 -0.48519,4.3264 -0.66855,8.2118 -0.40748,8.63423 0.26108,0.42243 1.9832,0.76805 3.82694,0.76805 2.71059,0 4.42203,1.04443 8.94099,5.45634 4.99101,4.87279 6.75487,7.54366 4.98188,7.54366 -0.33376,0 -2.84643,-1.78319 -5.58372,-3.96265 -4.41117,-3.51223 -5.48527,-3.92259 -9.4496,-3.61023 -2.45999,0.19384 -4.71654,0.59625 -5.01455,0.89426 -1.22264,1.22264 3.52494,5.96234 8.98342,8.96853 12.06273,6.6434 14.24408,7.62872 16.97766,7.66887 2.59909,0.0382 8.69363,5.13055 8.69363,7.26408 0,0.42743 0.675,0.77714 1.5,0.77714 1.79183,0 1.92084,-1.98224 0.35298,-5.42333 -0.88699,-1.94673 -0.85691,-2.86701 0.13268,-4.05939 1.71377,-2.06496 3.727,-0.39839 6.16732,5.10537 1.17208,2.64346 3.78261,5.59845 7.27575,8.23579 7.43039,5.61 10.20337,9.58348 11.45425,16.4131 1.22487,6.68766 0.0332,15.05856 -2.54999,17.913 -1.3533,1.49538 -1.44179,2.28127 -0.49165,4.36658 0.63726,1.39864 1.15866,4.84027 1.15866,7.64807 0,4.13748 0.58067,5.88179 3.06362,9.20295 1.68498,2.25382 5.25765,7.15627 7.93926,10.89432 l 4.87565,6.79645 -1.77846,4.20355 c -1.48636,3.51316 -2.29386,4.25473 -4.91663,4.51521 -2.60864,0.25908 -3.88627,-0.45806 -7.57161,-4.25 L 615.17839,467 l -7.39219,0 c -6.69878,0 -7.78896,-0.29179 -11.622,-3.11064 -2.3264,-1.71085 -4.87765,-4.52335 -5.66946,-6.25 -0.7918,-1.72665 -2.4284,-4.36145 -3.63688,-5.85512 -1.3638,-1.68564 -2.28135,-4.34083 -2.41899,-7 -0.36479,-7.04793 -3.18885,-14.8871 -7.84706,-21.78226 -5.06123,-7.49172 -6.04595,-12.47509 -4.63259,-23.4439 0.79095,-6.13834 1.3136,-7.33733 4.51506,-10.35772 1.99132,-1.87869 3.45509,-3.92983 3.25283,-4.55808 -0.45353,-1.40877 -9.42537,-6.10399 -16.45255,-8.61009 -2.87399,-1.02495 -6.32248,-3.13899 -7.66331,-4.69787 -2.13411,-2.48116 -3.22743,-2.86824 -8.77456,-3.10652 -10.49634,-0.45088 -12.33226,-0.31706 -16.67602,1.21551 -4.13837,1.46011 -4.21945,1.44215 -11.69396,-2.58955 -5.34858,-2.88499 -9.18198,-5.93124 -13.2467,-10.52663 -3.20587,-3.62441 -7.8078,-7.54233 -10.47001,-8.9138 -2.6125,-1.34586 -4.75,-2.704 -4.75,-3.01807 0,-0.31408 1.8,-0.26695 4,0.10474 3.20529,0.54153 4,0.37451 4,-0.84067 0,-2.70796 -2.88762,-4.50138 -8.34575,-5.18333 -7.92111,-0.98967 -8.42243,-1.50135 -6.53926,-6.67437 l 1.56594,-4.30163 8.30704,-0.76059 c 5.82995,-0.53379 8.6594,-1.24248 9.4887,-2.37661 0.96405,-1.31842 1.58402,-1.40069 3.36651,-0.44673 1.25095,0.66949 3.63347,0.89753 5.5739,0.53351 2.89518,-0.54314 3.48987,-0.31811 4.08096,1.54425 0.38056,1.19903 0.40379,3.71593 0.0516,5.59311 -0.74937,3.99449 1.30571,4.7687 3.57836,1.34806 2.00416,-3.01654 4.5236,-1.56893 5.12934,2.94718 0.40345,3.00796 1.89908,5.15326 7.45302,10.69047 3.82156,3.81004 8.33838,8.67285 10.03738,10.80623 2.61253,3.28049 3.49395,3.77727 5.71348,3.2202 3.90304,-0.9796 4.00687,-2.80825 0.48448,-8.53286 -1.74843,-2.84156 -3.60204,-6.83141 -4.11914,-8.86634 -0.51709,-2.03494 -1.39666,-5.49988 -1.9546,-7.69988 -0.55794,-2.2 -0.80309,-5.8 -0.5448,-8 0.54119,-4.60945 4.85395,-17.69941 8.23677,-25 1.27424,-2.75 2.55417,-7.41942 2.84429,-10.37648 0.62801,-6.40119 2.36561,-9.373 6.47577,-11.07548 2.66206,-1.10266 3.45238,-1.00325 6.37264,0.80157 3.04429,1.88147 3.72045,1.94655 7.78852,0.74965 l 4.45482,-1.31068 0.30109,-5.11061 c 0.30205,-5.12692 -0.63242,-8.67636 -5.13575,-19.50715 -2.82653,-6.79801 -3.32974,-7.38961 -6.66534,-7.83614 -1.95255,-0.26139 -2.7945,-1.26534 -3.84489,-4.58468 -0.73969,-2.3375 -1.79523,-4.25 -2.34563,-4.25 -2.04731,0 -6.58618,4.0467 -7.78496,6.9408 C 549.76805,252.3884 544,251.7679 544,246.07756 544,242.8112 545.6563,241 548.6433,241 c 2.44151,0 5.3567,-3.38637 5.3567,-6.22251 0,-4.66327 -10.7136,0.10704 -18.98812,8.45461 -3.12507,3.15265 -7.30041,6.40833 -9.27853,7.23485 -1.97812,0.82651 -3.90389,1.99998 -4.27949,2.60771 -0.41634,0.67365 -2.00938,0.8561 -4.08121,0.46743 -2.31656,-0.43459 -4.10169,-0.14486 -5.60798,0.91019 -2.6376,1.84744 -10.12787,2.13733 -9.53848,0.36916 0.47211,-1.41635 1.07141,-1.76589 11.19886,-6.53164 6.72644,-3.16531 8.75791,-4.74883 13.43186,-10.47006 3.41659,-4.18213 6.49694,-6.95819 8.11534,-7.31364 1.43468,-0.31511 4.10097,-1.48055 5.92508,-2.58986 2.66882,-1.623 3.22295,-2.50671 2.83719,-4.52466 -0.34895,-1.82544 0.43818,-3.60598 2.89305,-6.54427 3.55276,-4.25238 3.73648,-4.73505 2.76544,-7.26552 -0.8907,-2.32114 -2.2126,-1.94965 -5.04646,1.41821 -3.01838,3.58714 -6.60067,3.90298 -8.79151,0.77512 -1.23283,-1.76011 -2.65471,-2.26778 -6.8067,-2.43027 -2.88659,-0.11296 -7.94834,-0.63827 -11.24834,-1.16734 -5.23847,-0.83985 -6.40677,-0.71497 -9.20486,0.98394 -2.78438,1.69057 -3.71507,1.79302 -7.09344,0.78083 -3.52591,-1.05639 -4.2529,-0.93207 -7.79514,1.33299 -8.3391,5.33238 -11.41443,11.15341 -13.19538,24.97644 -0.81027,6.28895 -0.70202,6.98765 1.57929,10.19395 1.34706,1.89323 3.84978,3.93048 5.56162,4.52723 1.71183,0.59675 4.58291,2.51025 6.38017,4.25222 2.92355,2.83363 3.26613,3.7522 3.25243,8.72106 -0.008,3.05461 -0.42703,6.20458 -0.93023,6.99995 -1.31247,2.07451 0.56267,5.02445 3.94284,6.20278 3.4744,1.21119 4.26882,3.01359 2.91331,6.60978 -1.32215,3.5077 -6.82828,9.24132 -8.87464,9.24132 -0.86444,0 -3.3016,1.17549 -5.41591,2.61221 l -3.84421,2.61221 0.45335,6.13779 c 0.51911,7.02815 -2.08505,15.9133 -7.21319,24.61063 -4.05252,6.87311 -3.20844,10.28469 3.34064,13.50203 3.49332,1.71615 5.83801,7.34378 5.1914,12.46017 -0.30828,2.43927 -1.23271,5.46094 -2.05428,6.71482 -0.82157,1.25387 -1.49377,2.97955 -1.49377,3.83483 0,1.95734 4.00606,8.29633 7.12921,11.2809 C 494.87217,381.2981 504,392.61703 504,393.96601 c 0,1.46585 28.93376,15.03531 32.17878,15.09132 5.10604,0.0882 12.97939,4.83824 15.32122,9.24349 l 2,3.76223 -2.68945,4.86055 c -2.31225,4.17883 -2.77739,6.45354 -3.31642,16.21847 -0.90027,16.30901 -2.57807,21.32405 -10.20184,30.49382 -3.47508,4.17979 -7.0302,8.8047 -7.90024,10.27758 -1.97432,3.34225 -7.32799,7.08653 -10.1325,7.08653 -2.15917,0 -4.71502,-1.95262 -5.53961,-4.23214 -0.36008,-0.99543 -0.89329,-1.01191 -2.48148,-0.0767 C 508.93285,488.0488 508,487.49746 508,484.7771 c 0,-1.29478 -1.49515,-2.54615 -4.75,-3.9755 -7.22233,-3.17164 -15.23216,-12.95434 -15.24341,-18.61734 -0.008,-3.85305 1.25903,-6.63381 4.70796,-10.33539 3.20698,-3.4419 2.67472,-6.085 -1.39292,-6.91692 -1.74146,-0.35617 -5.45124,-2.32489 -8.24396,-4.37493 C 478.29624,437.04712 478,436.57064 478,432.38985 c 0,-2.4419 -0.9,-7.00048 -2,-10.13017 -1.1,-3.1297 -2,-6.66336 -2,-7.85258 0,-1.18921 -0.70451,-2.7469 -1.56558,-3.46152 -1.29611,-1.07568 -2.04509,-1.01606 -4.35151,0.34637 -2.43958,1.4411 -3.02196,1.46704 -4.68442,0.20867 C 460.57822,409.36588 459,409.69884 459,412.42857 c 0,4.70168 -3.8323,6.32599 -7.75713,3.28784 -0.72691,-0.5627 -3.75592,-0.69042 -7.18175,-0.30283 -6.72226,0.76053 -10.88898,-0.53779 -16.89932,-5.26573 C 422.65697,406.6042 412.79418,401 411.06256,401 c -0.70164,0 -4.52433,3.15 -8.49485,7 -3.97052,3.85 -7.721,7 -8.3344,7 -2.4036,0 -2.26785,-2.26323 0.40666,-6.7799 2.56508,-4.33188 2.84724,-5.83045 3.43062,-18.2201 0.67906,-14.42172 1.77966,-18.4945 6.29682,-23.30152 1.58427,-1.68593 2.63259,-3.94719 2.63259,-5.67857 0,-4.82862 1.9294,-5.82571 10.19205,-5.26711 4.37157,0.29554 7.98579,1.08653 8.99494,1.96859 1.74424,1.52458 3.81301,1.00406 3.81301,-0.9594 0,-0.61599 -1.575,-2.56262 -3.5,-4.32586 -3.87051,-3.54525 -4.71771,-8.18063 -1.91959,-10.50287 0.91542,-0.75973 1.36547,-2.17876 1.06958,-3.37244 -0.28096,-1.13345 -0.95826,-3.80817 -1.5051,-5.94382 -1.13137,-4.41846 -0.10811,-8.26155 2.82687,-10.617 1.11812,-0.89734 2.00149,-3.1071 2.19865,-5.5 l 0.32959,-4 -5.20183,-0.30059 c -6.32293,-0.36537 -9.78617,1.25738 -16.76038,7.85329 -3.48949,3.30022 -6.50675,5.16249 -9.6443,5.95254 -2.51134,0.63236 -5.83473,2.23987 -7.38532,3.57225 C 388.95758,330.90987 387.34106,332 386.91589,332 385.77279,332 383,329.02228 383,327.79469 c 0,-0.58435 -2.925,-3.91635 -6.5,-7.40445 -4.50941,-4.3998 -6.5,-7.09312 -6.5,-8.79469 0,-1.34898 -0.71755,-3.17024 -1.59455,-4.04724 -1.4594,-1.45941 -1.87559,-1.42087 -4.91035,0.45472 -2.62701,1.62358 -4.21728,1.90931 -7.65545,1.37547 -2.38681,-0.3706 -5.19672,-1.26097 -6.24426,-1.9786 -2.93189,-2.00855 -5.9656,-0.0111 -5.11718,3.36931 0.5711,2.27544 -0.23984,3.45192 -6.41221,9.30257 -3.8863,3.68373 -7.066,7.16742 -7.066,7.74153 0,1.25468 -2.79756,4.18669 -3.9947,4.18669 -0.46852,0 -2.19155,-1.12729 -3.82897,-2.50508 -1.63741,-1.37779 -4.48444,-2.79117 -6.32672,-3.14085 -4.69783,-0.89167 -6.20328,-1.80052 -11.48442,-6.9332 -6.57143,-6.3867 -8.89113,-7.38426 -15.3181,-6.58736 -5.10721,0.63326 -5.3834,0.81607 -5.53944,3.66649 -0.11655,2.12909 0.80199,4.08948 3.16406,6.75288 3.8191,4.30631 3.86212,4.58652 1.78028,11.59685 -1.48042,4.98511 -1.45859,5.32642 0.5,7.81636 2.81932,3.58419 2.59365,4.98827 -1.45199,9.03391 -1.925,1.925 -3.5,3.81859 -3.5,4.20798 0,0.38938 4.05006,0.51434 9.00014,0.27767 10.1501,-0.48528 11.99986,0.29557 11.99986,5.06559 0,2.00817 1.11706,4.24282 3.36438,6.73032 3.93711,4.35792 4.78865,8.38007 5.08499,24.01844 0.15656,8.26193 0.65504,11.52211 2.3386,15.29528 3.25224,7.28885 0.7173,7.22247 -7.50279,-0.19646 C 305.5686,403.74447 301.99731,401 301.34898,401 c -1.20508,0 -11.1053,5.87234 -19.9259,11.81909 -4.74003,3.19568 -5.18336,3.29591 -11.92308,2.69558 -5.45307,-0.48572 -7.44198,-0.28702 -9,0.89911 -3.03705,2.31212 -5.40731,1.90188 -6.72392,-1.16378 -0.64957,-1.5125 -1.27639,-2.89896 -1.39291,-3.08102 -0.11653,-0.18206 -1.18059,0.18742 -2.36458,0.82107 -1.72266,0.92194 -2.66009,0.81964 -4.69255,-0.51208 -1.89651,-1.24263 -2.8277,-1.37631 -3.67628,-0.52773 -1.85187,1.85187 -4.79854,11.10444 -5.58907,17.54976 -0.40476,3.3 -1.05555,6.675 -1.4462,7.5 -1.06466,2.24838 -7.66427,6.98985 -10.56595,7.59107 -6.7706,1.40285 -7.50752,4.05161 -2.62943,9.45108 4.08747,4.52434 4.68317,8.91424 1.9347,14.25751 -2.34609,4.561 -8.89787,10.86253 -13.72457,13.20034 -3.14483,1.5232 -4.20467,2.6556 -4.44566,4.75 -0.35834,3.11429 -0.50501,3.19072 -3.06044,1.59483 -1.52329,-0.95131 -2.46403,-0.6866 -5.33082,1.5 -4.24925,3.24106 -5.84635,3.31616 -8.61714,0.40517 z m 78.51037,-91.92431 c 3.04666,-2.86219 2.92126,-4.1373 -0.70709,-7.19036 l -3.02154,-2.54246 -3.47846,2.05234 c -4.35405,2.56895 -4.42884,5.08315 -0.22846,7.67989 4.19847,2.59557 4.67328,2.5956 7.43555,5.9e-4 z m 187.75729,0.0755 c 5.62045,-3.31614 4.56947,-6.4844 -3.53545,-10.65781 -0.32593,-0.16783 -1.84052,1.49559 -3.36574,3.69649 -5.23893,7.55978 -1.13292,11.70157 6.90119,6.96132 z M 277.74001,389.75 c 3.30822,-4.19866 5.89209,-20.47997 3.98914,-25.13612 -0.74188,-1.81525 -0.84522,-1.81882 -2.75,-0.095 -1.08853,0.98511 -1.97915,2.41429 -1.97915,3.17596 0,2.14098 -3.54828,8.58911 -5.89359,10.71016 -2.75942,2.49556 -2.65718,4.19274 0.52959,8.79126 2.74673,3.96353 4.43627,4.67039 6.10401,2.55375 z m 162.96238,-1.94617 c 3.62711,-3.51552 4.35534,-7.68111 1.72452,-9.86449 C 440.63522,376.45237 437,369.6969 437,367.85429 437,366.111 432.92733,362 431.20028,362 c -2.13783,0 -1.22158,15.70381 1.11053,19.03335 0.92905,1.32641 1.68919,3.57153 1.68919,4.98916 0,2.30352 1.5592,4.97749 2.90239,4.97749 0.27632,0 1.98632,-1.43828 3.8,-3.19617 z M 303.04182,303.92186 c 0.6117,-1.14298 0.89918,-2.63324 0.63883,-3.31169 -0.26035,-0.67845 0.37562,-3.00579 1.41326,-5.17186 1.89422,-3.95419 1.81916,-9.75411 -0.17546,-13.55796 -1.21918,-2.32504 -6.69467,-4.63929 -11.91845,-5.0374 l -4.5,-0.34295 0.0916,6 c 0.14833,9.7177 2.26683,19.76075 4.588,21.75 2.90268,2.48762 8.45415,2.30291 9.86224,-0.32814 z m 117.7786,0.32814 c 1.39645,-1.19677 2.40819,-3.96293 3.20034,-8.75 1.85222,-11.19313 2.29531,-18.18662 1.19532,-18.86646 -1.63597,-1.01108 -11.50978,1.23292 -14.21027,3.22954 -3.38682,2.50406 -4.71469,10.00956 -2.54158,14.36568 0.84468,1.69318 1.53577,4.32724 1.53577,5.85345 0,5.45153 6.43176,7.9289 10.82042,4.16779 z M 340,297.62938 c 6.88627,-0.13707 10.06756,-1.51858 12.05702,-5.23592 1.52609,-2.85154 7.02803,-3.89017 8.44298,-1.59383 0.55,0.8926 2.26319,2.93814 3.80709,4.54565 2.60367,2.71094 3.19931,2.88226 8.2196,2.36412 2.99013,-0.30861 6.71342,-0.0676 8.31923,0.53854 6.1543,2.32299 12.33984,-2.65395 14.69261,-11.82181 0.83646,-3.25937 2.49079,-7.25809 3.67629,-8.88605 1.3288,-1.82473 2.32303,-4.98067 2.5924,-8.22894 0.39637,-4.7797 0.14701,-5.59924 -2.68514,-8.82488 C 397.40494,258.53054 396,256.53287 396,256.04699 c 0,-2.23159 1.4773,-4.24245 4.12118,-5.60966 3.67506,-1.90044 3.63807,-4.20693 -0.14378,-8.96576 -1.66242,-2.0919 -3.28767,-4.85962 -3.61167,-6.1505 -0.71251,-2.83889 2.36843,-26.9461 3.83111,-29.977 1.56703,-3.24712 -1.64924,-10.58373 -7.39652,-16.87218 l -4.83867,-5.29427 0.65686,-5.58881 c 0.66949,-5.69633 -0.1946,-7.0985 -2.29844,-3.72971 -0.63856,1.0225 -2.49248,2.12538 -4.1198,2.45085 -2.07855,0.41571 -3.14704,1.34184 -3.59159,3.11305 -0.55925,2.22825 -6.80015,7.577 -8.84081,7.577 -1.28773,0 -0.85607,-3.24463 0.65471,-4.92126 1.3735,-1.52428 3.60807,-6.97111 5.71093,-13.92057 0.88475,-2.92392 0.66454,-3.86184 -1.76093,-7.5 -1.52467,-2.287 -3.54279,-5.05817 -4.48469,-6.15817 -0.94191,-1.1 -1.86451,-3.11894 -2.05023,-4.48654 -0.26314,-1.93778 -1.11007,-2.64304 -3.83766,-3.1957 -1.925,-0.39004 -4.625,-0.97638 -6,-1.30297 -3.58215,-0.85084 -11.41377,1.67966 -11.82619,3.82119 -0.18549,0.96318 -2.32548,4.7162 -4.75553,8.34005 -4.94219,7.37009 -5.31079,9.66599 -2.41828,15.06279 1.1,2.05236 2,4.22228 2,4.82206 0,0.59977 1.125,2.14737 2.5,3.43912 2.83413,2.66253 3.2085,4.79089 0.99228,5.64134 -2.17538,0.83477 -6.11186,-2.07846 -9.00825,-6.66664 -1.43105,-2.26693 -3.29408,-3.9747 -4.33606,-3.9747 -1.00482,0 -2.35109,-1.15037 -2.99171,-2.55639 -2.56603,-5.63182 -4.14807,1.61665 -1.6835,7.71336 0.47411,1.17284 -0.90492,3.23172 -4.71985,7.04664 -5.51987,5.51987 -9.73096,14.47343 -8.03662,17.08734 1.014,1.56433 3.08288,14.24408 3.79523,23.26025 0.59673,7.55274 1.01119,6.45736 -6.17795,16.32794 -1.67816,2.30409 -1.65554,2.43654 0.7168,4.19845 7.0706,5.25123 7.32541,6.28589 2.81355,11.42462 -2.92757,3.33431 -3.09789,3.94189 -2.56161,9.13798 0.31597,3.06141 1.29142,6.35839 2.16768,7.32665 0.87625,0.96825 2.45948,4.78972 3.51828,8.49215 1.0588,3.70243 2.50709,7.43672 3.21841,8.29841 2.58201,3.12783 7.21871,5.33286 9.79332,4.65732 1.375,-0.36078 5.425,-0.71419 9,-0.78534 z m 0.074,-63.04015 c -0.64396,-0.77592 -1.42955,-3.00505 -1.74575,-4.95361 -0.62102,-3.82686 0.81495,-5.73241 8.99028,-11.93017 2.02742,-1.537 4.59429,-4.5745 5.70415,-6.75 C 354.13258,208.77995 355.69736,207 356.5,207 c 0.80264,0 2.34878,1.74343 3.43587,3.87429 1.11389,2.1834 4.83248,6.11871 8.52032,9.01687 6.06672,4.76765 6.54381,5.42777 6.54381,9.05428 0,9.81952 -8.45092,8.93917 -10.9693,-1.14269 -1.52203,-6.09314 -2.36267,-7.25895 -5.50239,-7.63083 -5.60939,-0.66439 -7.3539,0.50169 -8.98932,6.00874 -2.65933,8.95493 -6.31568,12.2032 -9.46494,8.40857 z M 85,241 c 0,-0.55 -0.926558,-1 -2.059017,-1 -1.132459,0 -1.780902,0.45 -1.440983,1 0.339919,0.55 1.266476,1 2.059017,1 C 84.351558,242 85,241.55 85,241 z m 24,-10 c 0,-0.55 -0.64844,-1 -1.44098,-1 -0.79254,0 -1.7191,0.45 -2.05902,1 -0.33992,0.55 0.30852,1 1.44098,1 1.13246,0 2.05902,-0.45 2.05902,-1 z m 502,0.10699 C 611,230.02374 608.53087,229 605.91821,229 c -1.92141,0 -2.50216,1.08272 -1.25154,2.33333 0.99574,0.99574 6.33333,0.80498 6.33333,-0.22634 z M 314.97976,176.39142 c 4.67806,-1.87179 4.89396,-3.02231 1.91315,-10.19494 -1.56128,-3.75685 -2.97499,-5.48208 -5.45752,-6.66012 -1.84274,-0.87443 -3.62111,-2.02784 -3.95193,-2.56312 -1.22503,-1.98214 -4.18468,-0.86354 -7.96887,3.01181 l -3.8913,3.98506 2.00374,2.26494 c 1.10205,1.24572 2.77219,3.50245 3.7114,5.01495 0.93922,1.5125 2.49729,2.75 3.46238,2.75 0.96509,0 2.52531,0.9 3.46716,2 2.05742,2.40289 1.73206,2.38391 6.71179,0.39142 z M 406.4055,175.5 c 1.48365,-1.375 3.31043,-2.5 4.05951,-2.5 1.27529,0 7.53499,-7.55734 7.53499,-9.097 0,-1.23465 -7.15019,-7.903 -8.47405,-7.903 -3.20462,0 -10.81022,5.4361 -12.17476,8.70191 -2.97402,7.11783 -2.85106,8.81179 0.80337,11.06745 4.38957,2.70943 5.0604,2.68753 8.25094,-0.26936 z M 152,163.5 c 0,-0.825 -0.45,-1.5 -1,-1.5 -0.55,0 -1,0.675 -1,1.5 0,0.825 0.45,1.5 1,1.5 0.55,0 1,-0.675 1,-1.5 z M 81.610711,475.46785 c -0.84268,-0.84268 -1.818806,-3.06017 -2.169168,-4.92776 -0.677872,-3.61337 -1.107494,-2.82889 10.037238,-18.32767 C 93.374421,446.79483 94,445.24473 94,441.00948 c 0,-2.70346 0.533027,-6.08524 1.184505,-7.51508 0.988788,-2.17015 0.8731,-3.12687 -0.700165,-5.7902 -1.447207,-2.44992 -1.8727,-5.08457 -1.833099,-11.35053 0.064,-10.12597 1.430856,-12.72691 10.842239,-20.63125 3.78595,-3.17971 7.81122,-7.11027 8.94503,-8.73457 2.56222,-3.67063 4.98426,-3.97974 4.3291,-0.5525 -0.95807,5.0118 0.94862,5.30366 5.32201,0.81465 4.54678,-4.66698 9.406,-5.8121 10.60852,-2.5 0.34945,0.9625 2.12391,3.42615 3.94324,5.47479 4.27396,4.81265 4.77108,7.0883 4.02606,18.43017 -0.59876,9.11526 -0.74882,9.57621 -5.1821,15.91885 -4.68197,6.69845 -6.55414,12.28514 -6.93611,20.6979 -0.16391,3.61015 -0.85955,5.44276 -2.8577,7.52838 -1.45258,1.51616 -3.13805,4.18235 -3.74549,5.92486 -0.71894,2.06234 -2.80736,4.26096 -5.98312,6.29885 -4.48312,2.87681 -5.32657,3.07468 -10.40267,2.44046 -7.410427,-0.92587 -9.99851,-0.10924 -12.504548,3.94561 -1.175501,1.902 -3.491922,3.89515 -5.23182,4.50168 -4.035088,1.40664 -4.38804,1.38143 -6.213171,-0.4437 z M 351.68333,384.35 c -1.85244,-1.85245 0.45055,-17.35 2.57828,-17.35 0.66044,0 0.82668,2.8814 0.46808,8.1132 -0.52817,7.70596 -1.53238,10.75078 -3.04636,9.2368 z M 325.16585,102.93971 c 0.18378,-1.25568 0.93452,-2.48092 1.6683,-2.72276 0.9065,-0.298773 1.22704,0.29208 1,1.84334 -0.18378,1.25568 -0.93452,2.48092 -1.6683,2.72276 -0.9065,0.29877 -1.22704,-0.29208 -1,-1.84334 z"
     id="path2987"
     inkscape:connector-curvature="0" />
</svg>
